%TF.GenerationSoftware,KiCad,Pcbnew,8.0.2-8.0.2-0~ubuntu22.04.1*%
%TF.CreationDate,2024-05-30T01:48:44-04:00*%
%TF.ProjectId,DeltaRhoRobot,44656c74-6152-4686-9f52-6f626f742e6b,rev?*%
%TF.SameCoordinates,Original*%
%TF.FileFunction,Copper,L1,Top*%
%TF.FilePolarity,Positive*%
%FSLAX46Y46*%
G04 Gerber Fmt 4.6, Leading zero omitted, Abs format (unit mm)*
G04 Created by KiCad (PCBNEW 8.0.2-8.0.2-0~ubuntu22.04.1) date 2024-05-30 01:48:44*
%MOMM*%
%LPD*%
G01*
G04 APERTURE LIST*
G04 Aperture macros list*
%AMRoundRect*
0 Rectangle with rounded corners*
0 $1 Rounding radius*
0 $2 $3 $4 $5 $6 $7 $8 $9 X,Y pos of 4 corners*
0 Add a 4 corners polygon primitive as box body*
4,1,4,$2,$3,$4,$5,$6,$7,$8,$9,$2,$3,0*
0 Add four circle primitives for the rounded corners*
1,1,$1+$1,$2,$3*
1,1,$1+$1,$4,$5*
1,1,$1+$1,$6,$7*
1,1,$1+$1,$8,$9*
0 Add four rect primitives between the rounded corners*
20,1,$1+$1,$2,$3,$4,$5,0*
20,1,$1+$1,$4,$5,$6,$7,0*
20,1,$1+$1,$6,$7,$8,$9,0*
20,1,$1+$1,$8,$9,$2,$3,0*%
G04 Aperture macros list end*
%ADD10C,0.100000*%
%ADD11C,0.150000*%
%ADD12C,0.300000*%
%ADD13C,0.400000*%
%TA.AperFunction,SMDPad,CuDef*%
%ADD14RoundRect,0.140000X0.140000X0.170000X-0.140000X0.170000X-0.140000X-0.170000X0.140000X-0.170000X0*%
%TD*%
%TA.AperFunction,SMDPad,CuDef*%
%ADD15RoundRect,0.135000X-0.135000X-0.185000X0.135000X-0.185000X0.135000X0.185000X-0.135000X0.185000X0*%
%TD*%
%TA.AperFunction,SMDPad,CuDef*%
%ADD16R,0.900000X1.500000*%
%TD*%
%TA.AperFunction,SMDPad,CuDef*%
%ADD17RoundRect,0.150000X-0.587500X-0.150000X0.587500X-0.150000X0.587500X0.150000X-0.587500X0.150000X0*%
%TD*%
%TA.AperFunction,SMDPad,CuDef*%
%ADD18RoundRect,0.140000X-0.170000X0.140000X-0.170000X-0.140000X0.170000X-0.140000X0.170000X0.140000X0*%
%TD*%
%TA.AperFunction,SMDPad,CuDef*%
%ADD19RoundRect,0.140000X0.170000X-0.140000X0.170000X0.140000X-0.170000X0.140000X-0.170000X-0.140000X0*%
%TD*%
%TA.AperFunction,ComponentPad*%
%ADD20R,1.700000X1.700000*%
%TD*%
%TA.AperFunction,ComponentPad*%
%ADD21O,1.700000X1.700000*%
%TD*%
%TA.AperFunction,SMDPad,CuDef*%
%ADD22R,0.250000X0.500000*%
%TD*%
%TA.AperFunction,ComponentPad*%
%ADD23C,0.600000*%
%TD*%
%TA.AperFunction,SMDPad,CuDef*%
%ADD24R,2.650000X1.000000*%
%TD*%
%TA.AperFunction,SMDPad,CuDef*%
%ADD25R,1.300000X1.550000*%
%TD*%
%TA.AperFunction,SMDPad,CuDef*%
%ADD26RoundRect,0.135000X0.185000X-0.135000X0.185000X0.135000X-0.185000X0.135000X-0.185000X-0.135000X0*%
%TD*%
%TA.AperFunction,SMDPad,CuDef*%
%ADD27R,0.650000X1.050000*%
%TD*%
%TA.AperFunction,SMDPad,CuDef*%
%ADD28RoundRect,0.140000X-0.140000X-0.170000X0.140000X-0.170000X0.140000X0.170000X-0.140000X0.170000X0*%
%TD*%
%TA.AperFunction,TestPad*%
%ADD29C,1.400000*%
%TD*%
%TA.AperFunction,SMDPad,CuDef*%
%ADD30RoundRect,0.135000X-0.185000X0.135000X-0.185000X-0.135000X0.185000X-0.135000X0.185000X0.135000X0*%
%TD*%
%TA.AperFunction,SMDPad,CuDef*%
%ADD31RoundRect,0.050000X0.050000X-0.387500X0.050000X0.387500X-0.050000X0.387500X-0.050000X-0.387500X0*%
%TD*%
%TA.AperFunction,SMDPad,CuDef*%
%ADD32RoundRect,0.050000X0.387500X-0.050000X0.387500X0.050000X-0.387500X0.050000X-0.387500X-0.050000X0*%
%TD*%
%TA.AperFunction,SMDPad,CuDef*%
%ADD33R,3.200000X3.200000*%
%TD*%
%TA.AperFunction,ComponentPad*%
%ADD34RoundRect,0.250000X0.725000X-0.600000X0.725000X0.600000X-0.725000X0.600000X-0.725000X-0.600000X0*%
%TD*%
%TA.AperFunction,ComponentPad*%
%ADD35O,1.950000X1.700000*%
%TD*%
%TA.AperFunction,SMDPad,CuDef*%
%ADD36RoundRect,0.250000X0.250000X0.475000X-0.250000X0.475000X-0.250000X-0.475000X0.250000X-0.475000X0*%
%TD*%
%TA.AperFunction,ComponentPad*%
%ADD37C,1.244600*%
%TD*%
%TA.AperFunction,SMDPad,CuDef*%
%ADD38RoundRect,0.250000X2.050000X0.300000X-2.050000X0.300000X-2.050000X-0.300000X2.050000X-0.300000X0*%
%TD*%
%TA.AperFunction,SMDPad,CuDef*%
%ADD39RoundRect,0.250000X2.025000X2.375000X-2.025000X2.375000X-2.025000X-2.375000X2.025000X-2.375000X0*%
%TD*%
%TA.AperFunction,SMDPad,CuDef*%
%ADD40RoundRect,0.250002X4.449998X5.149998X-4.449998X5.149998X-4.449998X-5.149998X4.449998X-5.149998X0*%
%TD*%
%TA.AperFunction,SMDPad,CuDef*%
%ADD41R,1.050000X0.650000*%
%TD*%
%TA.AperFunction,SMDPad,CuDef*%
%ADD42RoundRect,0.150000X0.150000X-0.650000X0.150000X0.650000X-0.150000X0.650000X-0.150000X-0.650000X0*%
%TD*%
%TA.AperFunction,ComponentPad*%
%ADD43C,3.600000*%
%TD*%
%TA.AperFunction,ConnectorPad*%
%ADD44C,5.500000*%
%TD*%
%TA.AperFunction,SMDPad,CuDef*%
%ADD45RoundRect,0.250000X0.850000X-0.375000X0.850000X0.375000X-0.850000X0.375000X-0.850000X-0.375000X0*%
%TD*%
%TA.AperFunction,SMDPad,CuDef*%
%ADD46R,1.400000X1.200000*%
%TD*%
%TA.AperFunction,SMDPad,CuDef*%
%ADD47RoundRect,0.135000X0.135000X0.185000X-0.135000X0.185000X-0.135000X-0.185000X0.135000X-0.185000X0*%
%TD*%
%TA.AperFunction,ComponentPad*%
%ADD48RoundRect,0.250000X-0.750000X0.600000X-0.750000X-0.600000X0.750000X-0.600000X0.750000X0.600000X0*%
%TD*%
%TA.AperFunction,ComponentPad*%
%ADD49O,2.000000X1.700000*%
%TD*%
%TA.AperFunction,SMDPad,CuDef*%
%ADD50R,1.500000X0.900000*%
%TD*%
%TA.AperFunction,SMDPad,CuDef*%
%ADD51R,0.900000X0.900000*%
%TD*%
%TA.AperFunction,SMDPad,CuDef*%
%ADD52R,2.000000X1.500000*%
%TD*%
%TA.AperFunction,SMDPad,CuDef*%
%ADD53R,2.000000X3.800000*%
%TD*%
%TA.AperFunction,SMDPad,CuDef*%
%ADD54RoundRect,0.062500X-0.062500X0.350000X-0.062500X-0.350000X0.062500X-0.350000X0.062500X0.350000X0*%
%TD*%
%TA.AperFunction,SMDPad,CuDef*%
%ADD55RoundRect,0.062500X-0.350000X0.062500X-0.350000X-0.062500X0.350000X-0.062500X0.350000X0.062500X0*%
%TD*%
%TA.AperFunction,HeatsinkPad*%
%ADD56R,2.500000X2.500000*%
%TD*%
%TA.AperFunction,SMDPad,CuDef*%
%ADD57RoundRect,0.150000X-0.150000X0.512500X-0.150000X-0.512500X0.150000X-0.512500X0.150000X0.512500X0*%
%TD*%
%TA.AperFunction,SMDPad,CuDef*%
%ADD58R,0.375000X0.350000*%
%TD*%
%TA.AperFunction,SMDPad,CuDef*%
%ADD59R,0.350000X0.375000*%
%TD*%
%TA.AperFunction,SMDPad,CuDef*%
%ADD60R,1.240000X0.600000*%
%TD*%
%TA.AperFunction,SMDPad,CuDef*%
%ADD61R,1.240000X0.300000*%
%TD*%
%TA.AperFunction,ComponentPad*%
%ADD62O,2.100000X1.000000*%
%TD*%
%TA.AperFunction,ComponentPad*%
%ADD63O,1.800000X1.000000*%
%TD*%
%TA.AperFunction,SMDPad,CuDef*%
%ADD64RoundRect,0.250000X-0.262500X-0.450000X0.262500X-0.450000X0.262500X0.450000X-0.262500X0.450000X0*%
%TD*%
%TA.AperFunction,ComponentPad*%
%ADD65C,1.320800*%
%TD*%
%TA.AperFunction,ComponentPad*%
%ADD66C,1.498600*%
%TD*%
%TA.AperFunction,ComponentPad*%
%ADD67R,1.524000X1.524000*%
%TD*%
%TA.AperFunction,ComponentPad*%
%ADD68O,1.524000X3.048000*%
%TD*%
%TA.AperFunction,SMDPad,CuDef*%
%ADD69R,0.533400X0.304800*%
%TD*%
%TA.AperFunction,SMDPad,CuDef*%
%ADD70R,0.304800X0.533400*%
%TD*%
%TA.AperFunction,SMDPad,CuDef*%
%ADD71RoundRect,0.100000X-0.225000X-0.100000X0.225000X-0.100000X0.225000X0.100000X-0.225000X0.100000X0*%
%TD*%
%TA.AperFunction,SMDPad,CuDef*%
%ADD72RoundRect,0.225000X-0.250000X0.225000X-0.250000X-0.225000X0.250000X-0.225000X0.250000X0.225000X0*%
%TD*%
%TA.AperFunction,SMDPad,CuDef*%
%ADD73RoundRect,0.250000X1.412500X0.550000X-1.412500X0.550000X-1.412500X-0.550000X1.412500X-0.550000X0*%
%TD*%
%TA.AperFunction,ViaPad*%
%ADD74C,0.800000*%
%TD*%
%TA.AperFunction,ViaPad*%
%ADD75C,0.600000*%
%TD*%
%TA.AperFunction,ViaPad*%
%ADD76C,1.000000*%
%TD*%
%TA.AperFunction,ViaPad*%
%ADD77C,1.200000*%
%TD*%
%TA.AperFunction,ViaPad*%
%ADD78C,1.400000*%
%TD*%
%TA.AperFunction,Conductor*%
%ADD79C,0.200000*%
%TD*%
%TA.AperFunction,Conductor*%
%ADD80C,0.250000*%
%TD*%
%TA.AperFunction,Conductor*%
%ADD81C,0.400000*%
%TD*%
%TA.AperFunction,Conductor*%
%ADD82C,0.500000*%
%TD*%
%TA.AperFunction,Conductor*%
%ADD83C,0.750000*%
%TD*%
%TA.AperFunction,Conductor*%
%ADD84C,2.500000*%
%TD*%
%TA.AperFunction,Conductor*%
%ADD85C,1.000000*%
%TD*%
%TA.AperFunction,Conductor*%
%ADD86C,1.250000*%
%TD*%
%TA.AperFunction,Conductor*%
%ADD87C,0.300000*%
%TD*%
G04 APERTURE END LIST*
D10*
D11*
X177002200Y-166007200D02*
X285002200Y-166007200D01*
X285002200Y-198007200D01*
X177002200Y-198007200D01*
X177002200Y-166007200D01*
D10*
D11*
X10000000Y-10000000D02*
X287002200Y-10000000D01*
X287002200Y-200007200D01*
X10000000Y-200007200D01*
X10000000Y-10000000D01*
D10*
D11*
X12000000Y-12000000D02*
X285002200Y-12000000D01*
X285002200Y-198007200D01*
X12000000Y-198007200D01*
X12000000Y-12000000D01*
D10*
D11*
X60000000Y-12000000D02*
X60000000Y-10000000D01*
D10*
D11*
X110000000Y-12000000D02*
X110000000Y-10000000D01*
D10*
D11*
X160000000Y-12000000D02*
X160000000Y-10000000D01*
D10*
D11*
X210000000Y-12000000D02*
X210000000Y-10000000D01*
D10*
D11*
X260000000Y-12000000D02*
X260000000Y-10000000D01*
D10*
D11*
X36089160Y-11593604D02*
X35346303Y-11593604D01*
X35717731Y-11593604D02*
X35717731Y-10293604D01*
X35717731Y-10293604D02*
X35593922Y-10479319D01*
X35593922Y-10479319D02*
X35470112Y-10603128D01*
X35470112Y-10603128D02*
X35346303Y-10665033D01*
D10*
D11*
X85346303Y-10417414D02*
X85408207Y-10355509D01*
X85408207Y-10355509D02*
X85532017Y-10293604D01*
X85532017Y-10293604D02*
X85841541Y-10293604D01*
X85841541Y-10293604D02*
X85965350Y-10355509D01*
X85965350Y-10355509D02*
X86027255Y-10417414D01*
X86027255Y-10417414D02*
X86089160Y-10541223D01*
X86089160Y-10541223D02*
X86089160Y-10665033D01*
X86089160Y-10665033D02*
X86027255Y-10850747D01*
X86027255Y-10850747D02*
X85284398Y-11593604D01*
X85284398Y-11593604D02*
X86089160Y-11593604D01*
D10*
D11*
X135284398Y-10293604D02*
X136089160Y-10293604D01*
X136089160Y-10293604D02*
X135655826Y-10788842D01*
X135655826Y-10788842D02*
X135841541Y-10788842D01*
X135841541Y-10788842D02*
X135965350Y-10850747D01*
X135965350Y-10850747D02*
X136027255Y-10912652D01*
X136027255Y-10912652D02*
X136089160Y-11036461D01*
X136089160Y-11036461D02*
X136089160Y-11345985D01*
X136089160Y-11345985D02*
X136027255Y-11469795D01*
X136027255Y-11469795D02*
X135965350Y-11531700D01*
X135965350Y-11531700D02*
X135841541Y-11593604D01*
X135841541Y-11593604D02*
X135470112Y-11593604D01*
X135470112Y-11593604D02*
X135346303Y-11531700D01*
X135346303Y-11531700D02*
X135284398Y-11469795D01*
D10*
D11*
X185965350Y-10726938D02*
X185965350Y-11593604D01*
X185655826Y-10231700D02*
X185346303Y-11160271D01*
X185346303Y-11160271D02*
X186151064Y-11160271D01*
D10*
D11*
X236027255Y-10293604D02*
X235408207Y-10293604D01*
X235408207Y-10293604D02*
X235346303Y-10912652D01*
X235346303Y-10912652D02*
X235408207Y-10850747D01*
X235408207Y-10850747D02*
X235532017Y-10788842D01*
X235532017Y-10788842D02*
X235841541Y-10788842D01*
X235841541Y-10788842D02*
X235965350Y-10850747D01*
X235965350Y-10850747D02*
X236027255Y-10912652D01*
X236027255Y-10912652D02*
X236089160Y-11036461D01*
X236089160Y-11036461D02*
X236089160Y-11345985D01*
X236089160Y-11345985D02*
X236027255Y-11469795D01*
X236027255Y-11469795D02*
X235965350Y-11531700D01*
X235965350Y-11531700D02*
X235841541Y-11593604D01*
X235841541Y-11593604D02*
X235532017Y-11593604D01*
X235532017Y-11593604D02*
X235408207Y-11531700D01*
X235408207Y-11531700D02*
X235346303Y-11469795D01*
D10*
D11*
X285965350Y-10293604D02*
X285717731Y-10293604D01*
X285717731Y-10293604D02*
X285593922Y-10355509D01*
X285593922Y-10355509D02*
X285532017Y-10417414D01*
X285532017Y-10417414D02*
X285408207Y-10603128D01*
X285408207Y-10603128D02*
X285346303Y-10850747D01*
X285346303Y-10850747D02*
X285346303Y-11345985D01*
X285346303Y-11345985D02*
X285408207Y-11469795D01*
X285408207Y-11469795D02*
X285470112Y-11531700D01*
X285470112Y-11531700D02*
X285593922Y-11593604D01*
X285593922Y-11593604D02*
X285841541Y-11593604D01*
X285841541Y-11593604D02*
X285965350Y-11531700D01*
X285965350Y-11531700D02*
X286027255Y-11469795D01*
X286027255Y-11469795D02*
X286089160Y-11345985D01*
X286089160Y-11345985D02*
X286089160Y-11036461D01*
X286089160Y-11036461D02*
X286027255Y-10912652D01*
X286027255Y-10912652D02*
X285965350Y-10850747D01*
X285965350Y-10850747D02*
X285841541Y-10788842D01*
X285841541Y-10788842D02*
X285593922Y-10788842D01*
X285593922Y-10788842D02*
X285470112Y-10850747D01*
X285470112Y-10850747D02*
X285408207Y-10912652D01*
X285408207Y-10912652D02*
X285346303Y-11036461D01*
D10*
D11*
X60000000Y-198007200D02*
X60000000Y-200007200D01*
D10*
D11*
X110000000Y-198007200D02*
X110000000Y-200007200D01*
D10*
D11*
X160000000Y-198007200D02*
X160000000Y-200007200D01*
D10*
D11*
X210000000Y-198007200D02*
X210000000Y-200007200D01*
D10*
D11*
X260000000Y-198007200D02*
X260000000Y-200007200D01*
D10*
D11*
X36089160Y-199600804D02*
X35346303Y-199600804D01*
X35717731Y-199600804D02*
X35717731Y-198300804D01*
X35717731Y-198300804D02*
X35593922Y-198486519D01*
X35593922Y-198486519D02*
X35470112Y-198610328D01*
X35470112Y-198610328D02*
X35346303Y-198672233D01*
D10*
D11*
X85346303Y-198424614D02*
X85408207Y-198362709D01*
X85408207Y-198362709D02*
X85532017Y-198300804D01*
X85532017Y-198300804D02*
X85841541Y-198300804D01*
X85841541Y-198300804D02*
X85965350Y-198362709D01*
X85965350Y-198362709D02*
X86027255Y-198424614D01*
X86027255Y-198424614D02*
X86089160Y-198548423D01*
X86089160Y-198548423D02*
X86089160Y-198672233D01*
X86089160Y-198672233D02*
X86027255Y-198857947D01*
X86027255Y-198857947D02*
X85284398Y-199600804D01*
X85284398Y-199600804D02*
X86089160Y-199600804D01*
D10*
D11*
X135284398Y-198300804D02*
X136089160Y-198300804D01*
X136089160Y-198300804D02*
X135655826Y-198796042D01*
X135655826Y-198796042D02*
X135841541Y-198796042D01*
X135841541Y-198796042D02*
X135965350Y-198857947D01*
X135965350Y-198857947D02*
X136027255Y-198919852D01*
X136027255Y-198919852D02*
X136089160Y-199043661D01*
X136089160Y-199043661D02*
X136089160Y-199353185D01*
X136089160Y-199353185D02*
X136027255Y-199476995D01*
X136027255Y-199476995D02*
X135965350Y-199538900D01*
X135965350Y-199538900D02*
X135841541Y-199600804D01*
X135841541Y-199600804D02*
X135470112Y-199600804D01*
X135470112Y-199600804D02*
X135346303Y-199538900D01*
X135346303Y-199538900D02*
X135284398Y-199476995D01*
D10*
D11*
X185965350Y-198734138D02*
X185965350Y-199600804D01*
X185655826Y-198238900D02*
X185346303Y-199167471D01*
X185346303Y-199167471D02*
X186151064Y-199167471D01*
D10*
D11*
X236027255Y-198300804D02*
X235408207Y-198300804D01*
X235408207Y-198300804D02*
X235346303Y-198919852D01*
X235346303Y-198919852D02*
X235408207Y-198857947D01*
X235408207Y-198857947D02*
X235532017Y-198796042D01*
X235532017Y-198796042D02*
X235841541Y-198796042D01*
X235841541Y-198796042D02*
X235965350Y-198857947D01*
X235965350Y-198857947D02*
X236027255Y-198919852D01*
X236027255Y-198919852D02*
X236089160Y-199043661D01*
X236089160Y-199043661D02*
X236089160Y-199353185D01*
X236089160Y-199353185D02*
X236027255Y-199476995D01*
X236027255Y-199476995D02*
X235965350Y-199538900D01*
X235965350Y-199538900D02*
X235841541Y-199600804D01*
X235841541Y-199600804D02*
X235532017Y-199600804D01*
X235532017Y-199600804D02*
X235408207Y-199538900D01*
X235408207Y-199538900D02*
X235346303Y-199476995D01*
D10*
D11*
X285965350Y-198300804D02*
X285717731Y-198300804D01*
X285717731Y-198300804D02*
X285593922Y-198362709D01*
X285593922Y-198362709D02*
X285532017Y-198424614D01*
X285532017Y-198424614D02*
X285408207Y-198610328D01*
X285408207Y-198610328D02*
X285346303Y-198857947D01*
X285346303Y-198857947D02*
X285346303Y-199353185D01*
X285346303Y-199353185D02*
X285408207Y-199476995D01*
X285408207Y-199476995D02*
X285470112Y-199538900D01*
X285470112Y-199538900D02*
X285593922Y-199600804D01*
X285593922Y-199600804D02*
X285841541Y-199600804D01*
X285841541Y-199600804D02*
X285965350Y-199538900D01*
X285965350Y-199538900D02*
X286027255Y-199476995D01*
X286027255Y-199476995D02*
X286089160Y-199353185D01*
X286089160Y-199353185D02*
X286089160Y-199043661D01*
X286089160Y-199043661D02*
X286027255Y-198919852D01*
X286027255Y-198919852D02*
X285965350Y-198857947D01*
X285965350Y-198857947D02*
X285841541Y-198796042D01*
X285841541Y-198796042D02*
X285593922Y-198796042D01*
X285593922Y-198796042D02*
X285470112Y-198857947D01*
X285470112Y-198857947D02*
X285408207Y-198919852D01*
X285408207Y-198919852D02*
X285346303Y-199043661D01*
D10*
D11*
X10000000Y-60000000D02*
X12000000Y-60000000D01*
D10*
D11*
X10000000Y-110000000D02*
X12000000Y-110000000D01*
D10*
D11*
X10000000Y-160000000D02*
X12000000Y-160000000D01*
D10*
D11*
X10690476Y-35222176D02*
X11309523Y-35222176D01*
X10566666Y-35593604D02*
X10999999Y-34293604D01*
X10999999Y-34293604D02*
X11433333Y-35593604D01*
D10*
D11*
X11092857Y-84912652D02*
X11278571Y-84974557D01*
X11278571Y-84974557D02*
X11340476Y-85036461D01*
X11340476Y-85036461D02*
X11402380Y-85160271D01*
X11402380Y-85160271D02*
X11402380Y-85345985D01*
X11402380Y-85345985D02*
X11340476Y-85469795D01*
X11340476Y-85469795D02*
X11278571Y-85531700D01*
X11278571Y-85531700D02*
X11154761Y-85593604D01*
X11154761Y-85593604D02*
X10659523Y-85593604D01*
X10659523Y-85593604D02*
X10659523Y-84293604D01*
X10659523Y-84293604D02*
X11092857Y-84293604D01*
X11092857Y-84293604D02*
X11216666Y-84355509D01*
X11216666Y-84355509D02*
X11278571Y-84417414D01*
X11278571Y-84417414D02*
X11340476Y-84541223D01*
X11340476Y-84541223D02*
X11340476Y-84665033D01*
X11340476Y-84665033D02*
X11278571Y-84788842D01*
X11278571Y-84788842D02*
X11216666Y-84850747D01*
X11216666Y-84850747D02*
X11092857Y-84912652D01*
X11092857Y-84912652D02*
X10659523Y-84912652D01*
D10*
D11*
X11402380Y-135469795D02*
X11340476Y-135531700D01*
X11340476Y-135531700D02*
X11154761Y-135593604D01*
X11154761Y-135593604D02*
X11030952Y-135593604D01*
X11030952Y-135593604D02*
X10845238Y-135531700D01*
X10845238Y-135531700D02*
X10721428Y-135407890D01*
X10721428Y-135407890D02*
X10659523Y-135284080D01*
X10659523Y-135284080D02*
X10597619Y-135036461D01*
X10597619Y-135036461D02*
X10597619Y-134850747D01*
X10597619Y-134850747D02*
X10659523Y-134603128D01*
X10659523Y-134603128D02*
X10721428Y-134479319D01*
X10721428Y-134479319D02*
X10845238Y-134355509D01*
X10845238Y-134355509D02*
X11030952Y-134293604D01*
X11030952Y-134293604D02*
X11154761Y-134293604D01*
X11154761Y-134293604D02*
X11340476Y-134355509D01*
X11340476Y-134355509D02*
X11402380Y-134417414D01*
D10*
D11*
X10659523Y-185593604D02*
X10659523Y-184293604D01*
X10659523Y-184293604D02*
X10969047Y-184293604D01*
X10969047Y-184293604D02*
X11154761Y-184355509D01*
X11154761Y-184355509D02*
X11278571Y-184479319D01*
X11278571Y-184479319D02*
X11340476Y-184603128D01*
X11340476Y-184603128D02*
X11402380Y-184850747D01*
X11402380Y-184850747D02*
X11402380Y-185036461D01*
X11402380Y-185036461D02*
X11340476Y-185284080D01*
X11340476Y-185284080D02*
X11278571Y-185407890D01*
X11278571Y-185407890D02*
X11154761Y-185531700D01*
X11154761Y-185531700D02*
X10969047Y-185593604D01*
X10969047Y-185593604D02*
X10659523Y-185593604D01*
D10*
D11*
X287002200Y-60000000D02*
X285002200Y-60000000D01*
D10*
D11*
X287002200Y-110000000D02*
X285002200Y-110000000D01*
D10*
D11*
X287002200Y-160000000D02*
X285002200Y-160000000D01*
D10*
D11*
X285692676Y-35222176D02*
X286311723Y-35222176D01*
X285568866Y-35593604D02*
X286002199Y-34293604D01*
X286002199Y-34293604D02*
X286435533Y-35593604D01*
D10*
D11*
X286095057Y-84912652D02*
X286280771Y-84974557D01*
X286280771Y-84974557D02*
X286342676Y-85036461D01*
X286342676Y-85036461D02*
X286404580Y-85160271D01*
X286404580Y-85160271D02*
X286404580Y-85345985D01*
X286404580Y-85345985D02*
X286342676Y-85469795D01*
X286342676Y-85469795D02*
X286280771Y-85531700D01*
X286280771Y-85531700D02*
X286156961Y-85593604D01*
X286156961Y-85593604D02*
X285661723Y-85593604D01*
X285661723Y-85593604D02*
X285661723Y-84293604D01*
X285661723Y-84293604D02*
X286095057Y-84293604D01*
X286095057Y-84293604D02*
X286218866Y-84355509D01*
X286218866Y-84355509D02*
X286280771Y-84417414D01*
X286280771Y-84417414D02*
X286342676Y-84541223D01*
X286342676Y-84541223D02*
X286342676Y-84665033D01*
X286342676Y-84665033D02*
X286280771Y-84788842D01*
X286280771Y-84788842D02*
X286218866Y-84850747D01*
X286218866Y-84850747D02*
X286095057Y-84912652D01*
X286095057Y-84912652D02*
X285661723Y-84912652D01*
D10*
D11*
X286404580Y-135469795D02*
X286342676Y-135531700D01*
X286342676Y-135531700D02*
X286156961Y-135593604D01*
X286156961Y-135593604D02*
X286033152Y-135593604D01*
X286033152Y-135593604D02*
X285847438Y-135531700D01*
X285847438Y-135531700D02*
X285723628Y-135407890D01*
X285723628Y-135407890D02*
X285661723Y-135284080D01*
X285661723Y-135284080D02*
X285599819Y-135036461D01*
X285599819Y-135036461D02*
X285599819Y-134850747D01*
X285599819Y-134850747D02*
X285661723Y-134603128D01*
X285661723Y-134603128D02*
X285723628Y-134479319D01*
X285723628Y-134479319D02*
X285847438Y-134355509D01*
X285847438Y-134355509D02*
X286033152Y-134293604D01*
X286033152Y-134293604D02*
X286156961Y-134293604D01*
X286156961Y-134293604D02*
X286342676Y-134355509D01*
X286342676Y-134355509D02*
X286404580Y-134417414D01*
D10*
D11*
X285661723Y-185593604D02*
X285661723Y-184293604D01*
X285661723Y-184293604D02*
X285971247Y-184293604D01*
X285971247Y-184293604D02*
X286156961Y-184355509D01*
X286156961Y-184355509D02*
X286280771Y-184479319D01*
X286280771Y-184479319D02*
X286342676Y-184603128D01*
X286342676Y-184603128D02*
X286404580Y-184850747D01*
X286404580Y-184850747D02*
X286404580Y-185036461D01*
X286404580Y-185036461D02*
X286342676Y-185284080D01*
X286342676Y-185284080D02*
X286280771Y-185407890D01*
X286280771Y-185407890D02*
X286156961Y-185531700D01*
X286156961Y-185531700D02*
X285971247Y-185593604D01*
X285971247Y-185593604D02*
X285661723Y-185593604D01*
D10*
D11*
X200458026Y-193793328D02*
X200458026Y-192293328D01*
X200458026Y-192293328D02*
X200815169Y-192293328D01*
X200815169Y-192293328D02*
X201029455Y-192364757D01*
X201029455Y-192364757D02*
X201172312Y-192507614D01*
X201172312Y-192507614D02*
X201243741Y-192650471D01*
X201243741Y-192650471D02*
X201315169Y-192936185D01*
X201315169Y-192936185D02*
X201315169Y-193150471D01*
X201315169Y-193150471D02*
X201243741Y-193436185D01*
X201243741Y-193436185D02*
X201172312Y-193579042D01*
X201172312Y-193579042D02*
X201029455Y-193721900D01*
X201029455Y-193721900D02*
X200815169Y-193793328D01*
X200815169Y-193793328D02*
X200458026Y-193793328D01*
X202600884Y-193793328D02*
X202600884Y-193007614D01*
X202600884Y-193007614D02*
X202529455Y-192864757D01*
X202529455Y-192864757D02*
X202386598Y-192793328D01*
X202386598Y-192793328D02*
X202100884Y-192793328D01*
X202100884Y-192793328D02*
X201958026Y-192864757D01*
X202600884Y-193721900D02*
X202458026Y-193793328D01*
X202458026Y-193793328D02*
X202100884Y-193793328D01*
X202100884Y-193793328D02*
X201958026Y-193721900D01*
X201958026Y-193721900D02*
X201886598Y-193579042D01*
X201886598Y-193579042D02*
X201886598Y-193436185D01*
X201886598Y-193436185D02*
X201958026Y-193293328D01*
X201958026Y-193293328D02*
X202100884Y-193221900D01*
X202100884Y-193221900D02*
X202458026Y-193221900D01*
X202458026Y-193221900D02*
X202600884Y-193150471D01*
X203100884Y-192793328D02*
X203672312Y-192793328D01*
X203315169Y-192293328D02*
X203315169Y-193579042D01*
X203315169Y-193579042D02*
X203386598Y-193721900D01*
X203386598Y-193721900D02*
X203529455Y-193793328D01*
X203529455Y-193793328D02*
X203672312Y-193793328D01*
X204743741Y-193721900D02*
X204600884Y-193793328D01*
X204600884Y-193793328D02*
X204315170Y-193793328D01*
X204315170Y-193793328D02*
X204172312Y-193721900D01*
X204172312Y-193721900D02*
X204100884Y-193579042D01*
X204100884Y-193579042D02*
X204100884Y-193007614D01*
X204100884Y-193007614D02*
X204172312Y-192864757D01*
X204172312Y-192864757D02*
X204315170Y-192793328D01*
X204315170Y-192793328D02*
X204600884Y-192793328D01*
X204600884Y-192793328D02*
X204743741Y-192864757D01*
X204743741Y-192864757D02*
X204815170Y-193007614D01*
X204815170Y-193007614D02*
X204815170Y-193150471D01*
X204815170Y-193150471D02*
X204100884Y-193293328D01*
X205458026Y-193650471D02*
X205529455Y-193721900D01*
X205529455Y-193721900D02*
X205458026Y-193793328D01*
X205458026Y-193793328D02*
X205386598Y-193721900D01*
X205386598Y-193721900D02*
X205458026Y-193650471D01*
X205458026Y-193650471D02*
X205458026Y-193793328D01*
X205458026Y-192864757D02*
X205529455Y-192936185D01*
X205529455Y-192936185D02*
X205458026Y-193007614D01*
X205458026Y-193007614D02*
X205386598Y-192936185D01*
X205386598Y-192936185D02*
X205458026Y-192864757D01*
X205458026Y-192864757D02*
X205458026Y-193007614D01*
D10*
D11*
X177002200Y-194507200D02*
X285002200Y-194507200D01*
D10*
D11*
X178458026Y-196593328D02*
X178458026Y-195093328D01*
X179315169Y-196593328D02*
X178672312Y-195736185D01*
X179315169Y-195093328D02*
X178458026Y-195950471D01*
X179958026Y-196593328D02*
X179958026Y-195593328D01*
X179958026Y-195093328D02*
X179886598Y-195164757D01*
X179886598Y-195164757D02*
X179958026Y-195236185D01*
X179958026Y-195236185D02*
X180029455Y-195164757D01*
X180029455Y-195164757D02*
X179958026Y-195093328D01*
X179958026Y-195093328D02*
X179958026Y-195236185D01*
X181529455Y-196450471D02*
X181458027Y-196521900D01*
X181458027Y-196521900D02*
X181243741Y-196593328D01*
X181243741Y-196593328D02*
X181100884Y-196593328D01*
X181100884Y-196593328D02*
X180886598Y-196521900D01*
X180886598Y-196521900D02*
X180743741Y-196379042D01*
X180743741Y-196379042D02*
X180672312Y-196236185D01*
X180672312Y-196236185D02*
X180600884Y-195950471D01*
X180600884Y-195950471D02*
X180600884Y-195736185D01*
X180600884Y-195736185D02*
X180672312Y-195450471D01*
X180672312Y-195450471D02*
X180743741Y-195307614D01*
X180743741Y-195307614D02*
X180886598Y-195164757D01*
X180886598Y-195164757D02*
X181100884Y-195093328D01*
X181100884Y-195093328D02*
X181243741Y-195093328D01*
X181243741Y-195093328D02*
X181458027Y-195164757D01*
X181458027Y-195164757D02*
X181529455Y-195236185D01*
X182815170Y-196593328D02*
X182815170Y-195807614D01*
X182815170Y-195807614D02*
X182743741Y-195664757D01*
X182743741Y-195664757D02*
X182600884Y-195593328D01*
X182600884Y-195593328D02*
X182315170Y-195593328D01*
X182315170Y-195593328D02*
X182172312Y-195664757D01*
X182815170Y-196521900D02*
X182672312Y-196593328D01*
X182672312Y-196593328D02*
X182315170Y-196593328D01*
X182315170Y-196593328D02*
X182172312Y-196521900D01*
X182172312Y-196521900D02*
X182100884Y-196379042D01*
X182100884Y-196379042D02*
X182100884Y-196236185D01*
X182100884Y-196236185D02*
X182172312Y-196093328D01*
X182172312Y-196093328D02*
X182315170Y-196021900D01*
X182315170Y-196021900D02*
X182672312Y-196021900D01*
X182672312Y-196021900D02*
X182815170Y-195950471D01*
X184172313Y-196593328D02*
X184172313Y-195093328D01*
X184172313Y-196521900D02*
X184029455Y-196593328D01*
X184029455Y-196593328D02*
X183743741Y-196593328D01*
X183743741Y-196593328D02*
X183600884Y-196521900D01*
X183600884Y-196521900D02*
X183529455Y-196450471D01*
X183529455Y-196450471D02*
X183458027Y-196307614D01*
X183458027Y-196307614D02*
X183458027Y-195879042D01*
X183458027Y-195879042D02*
X183529455Y-195736185D01*
X183529455Y-195736185D02*
X183600884Y-195664757D01*
X183600884Y-195664757D02*
X183743741Y-195593328D01*
X183743741Y-195593328D02*
X184029455Y-195593328D01*
X184029455Y-195593328D02*
X184172313Y-195664757D01*
X186029455Y-195807614D02*
X186529455Y-195807614D01*
X186743741Y-196593328D02*
X186029455Y-196593328D01*
X186029455Y-196593328D02*
X186029455Y-195093328D01*
X186029455Y-195093328D02*
X186743741Y-195093328D01*
X187386598Y-196450471D02*
X187458027Y-196521900D01*
X187458027Y-196521900D02*
X187386598Y-196593328D01*
X187386598Y-196593328D02*
X187315170Y-196521900D01*
X187315170Y-196521900D02*
X187386598Y-196450471D01*
X187386598Y-196450471D02*
X187386598Y-196593328D01*
X188100884Y-196593328D02*
X188100884Y-195093328D01*
X188100884Y-195093328D02*
X188458027Y-195093328D01*
X188458027Y-195093328D02*
X188672313Y-195164757D01*
X188672313Y-195164757D02*
X188815170Y-195307614D01*
X188815170Y-195307614D02*
X188886599Y-195450471D01*
X188886599Y-195450471D02*
X188958027Y-195736185D01*
X188958027Y-195736185D02*
X188958027Y-195950471D01*
X188958027Y-195950471D02*
X188886599Y-196236185D01*
X188886599Y-196236185D02*
X188815170Y-196379042D01*
X188815170Y-196379042D02*
X188672313Y-196521900D01*
X188672313Y-196521900D02*
X188458027Y-196593328D01*
X188458027Y-196593328D02*
X188100884Y-196593328D01*
X189600884Y-196450471D02*
X189672313Y-196521900D01*
X189672313Y-196521900D02*
X189600884Y-196593328D01*
X189600884Y-196593328D02*
X189529456Y-196521900D01*
X189529456Y-196521900D02*
X189600884Y-196450471D01*
X189600884Y-196450471D02*
X189600884Y-196593328D01*
X190243742Y-196164757D02*
X190958028Y-196164757D01*
X190100885Y-196593328D02*
X190600885Y-195093328D01*
X190600885Y-195093328D02*
X191100885Y-196593328D01*
X191600884Y-196450471D02*
X191672313Y-196521900D01*
X191672313Y-196521900D02*
X191600884Y-196593328D01*
X191600884Y-196593328D02*
X191529456Y-196521900D01*
X191529456Y-196521900D02*
X191600884Y-196450471D01*
X191600884Y-196450471D02*
X191600884Y-196593328D01*
X193672313Y-195736185D02*
X193529456Y-195664757D01*
X193529456Y-195664757D02*
X193458027Y-195593328D01*
X193458027Y-195593328D02*
X193386599Y-195450471D01*
X193386599Y-195450471D02*
X193386599Y-195379042D01*
X193386599Y-195379042D02*
X193458027Y-195236185D01*
X193458027Y-195236185D02*
X193529456Y-195164757D01*
X193529456Y-195164757D02*
X193672313Y-195093328D01*
X193672313Y-195093328D02*
X193958027Y-195093328D01*
X193958027Y-195093328D02*
X194100885Y-195164757D01*
X194100885Y-195164757D02*
X194172313Y-195236185D01*
X194172313Y-195236185D02*
X194243742Y-195379042D01*
X194243742Y-195379042D02*
X194243742Y-195450471D01*
X194243742Y-195450471D02*
X194172313Y-195593328D01*
X194172313Y-195593328D02*
X194100885Y-195664757D01*
X194100885Y-195664757D02*
X193958027Y-195736185D01*
X193958027Y-195736185D02*
X193672313Y-195736185D01*
X193672313Y-195736185D02*
X193529456Y-195807614D01*
X193529456Y-195807614D02*
X193458027Y-195879042D01*
X193458027Y-195879042D02*
X193386599Y-196021900D01*
X193386599Y-196021900D02*
X193386599Y-196307614D01*
X193386599Y-196307614D02*
X193458027Y-196450471D01*
X193458027Y-196450471D02*
X193529456Y-196521900D01*
X193529456Y-196521900D02*
X193672313Y-196593328D01*
X193672313Y-196593328D02*
X193958027Y-196593328D01*
X193958027Y-196593328D02*
X194100885Y-196521900D01*
X194100885Y-196521900D02*
X194172313Y-196450471D01*
X194172313Y-196450471D02*
X194243742Y-196307614D01*
X194243742Y-196307614D02*
X194243742Y-196021900D01*
X194243742Y-196021900D02*
X194172313Y-195879042D01*
X194172313Y-195879042D02*
X194100885Y-195807614D01*
X194100885Y-195807614D02*
X193958027Y-195736185D01*
X194886598Y-196450471D02*
X194958027Y-196521900D01*
X194958027Y-196521900D02*
X194886598Y-196593328D01*
X194886598Y-196593328D02*
X194815170Y-196521900D01*
X194815170Y-196521900D02*
X194886598Y-196450471D01*
X194886598Y-196450471D02*
X194886598Y-196593328D01*
X195886599Y-195093328D02*
X196029456Y-195093328D01*
X196029456Y-195093328D02*
X196172313Y-195164757D01*
X196172313Y-195164757D02*
X196243742Y-195236185D01*
X196243742Y-195236185D02*
X196315170Y-195379042D01*
X196315170Y-195379042D02*
X196386599Y-195664757D01*
X196386599Y-195664757D02*
X196386599Y-196021900D01*
X196386599Y-196021900D02*
X196315170Y-196307614D01*
X196315170Y-196307614D02*
X196243742Y-196450471D01*
X196243742Y-196450471D02*
X196172313Y-196521900D01*
X196172313Y-196521900D02*
X196029456Y-196593328D01*
X196029456Y-196593328D02*
X195886599Y-196593328D01*
X195886599Y-196593328D02*
X195743742Y-196521900D01*
X195743742Y-196521900D02*
X195672313Y-196450471D01*
X195672313Y-196450471D02*
X195600884Y-196307614D01*
X195600884Y-196307614D02*
X195529456Y-196021900D01*
X195529456Y-196021900D02*
X195529456Y-195664757D01*
X195529456Y-195664757D02*
X195600884Y-195379042D01*
X195600884Y-195379042D02*
X195672313Y-195236185D01*
X195672313Y-195236185D02*
X195743742Y-195164757D01*
X195743742Y-195164757D02*
X195886599Y-195093328D01*
X197029455Y-196450471D02*
X197100884Y-196521900D01*
X197100884Y-196521900D02*
X197029455Y-196593328D01*
X197029455Y-196593328D02*
X196958027Y-196521900D01*
X196958027Y-196521900D02*
X197029455Y-196450471D01*
X197029455Y-196450471D02*
X197029455Y-196593328D01*
X197672313Y-195236185D02*
X197743741Y-195164757D01*
X197743741Y-195164757D02*
X197886599Y-195093328D01*
X197886599Y-195093328D02*
X198243741Y-195093328D01*
X198243741Y-195093328D02*
X198386599Y-195164757D01*
X198386599Y-195164757D02*
X198458027Y-195236185D01*
X198458027Y-195236185D02*
X198529456Y-195379042D01*
X198529456Y-195379042D02*
X198529456Y-195521900D01*
X198529456Y-195521900D02*
X198458027Y-195736185D01*
X198458027Y-195736185D02*
X197600884Y-196593328D01*
X197600884Y-196593328D02*
X198529456Y-196593328D01*
D10*
D11*
X177002200Y-191507200D02*
X285002200Y-191507200D01*
D10*
D12*
X264413853Y-193785528D02*
X263913853Y-193071242D01*
X263556710Y-193785528D02*
X263556710Y-192285528D01*
X263556710Y-192285528D02*
X264128139Y-192285528D01*
X264128139Y-192285528D02*
X264270996Y-192356957D01*
X264270996Y-192356957D02*
X264342425Y-192428385D01*
X264342425Y-192428385D02*
X264413853Y-192571242D01*
X264413853Y-192571242D02*
X264413853Y-192785528D01*
X264413853Y-192785528D02*
X264342425Y-192928385D01*
X264342425Y-192928385D02*
X264270996Y-192999814D01*
X264270996Y-192999814D02*
X264128139Y-193071242D01*
X264128139Y-193071242D02*
X263556710Y-193071242D01*
X265628139Y-193714100D02*
X265485282Y-193785528D01*
X265485282Y-193785528D02*
X265199568Y-193785528D01*
X265199568Y-193785528D02*
X265056710Y-193714100D01*
X265056710Y-193714100D02*
X264985282Y-193571242D01*
X264985282Y-193571242D02*
X264985282Y-192999814D01*
X264985282Y-192999814D02*
X265056710Y-192856957D01*
X265056710Y-192856957D02*
X265199568Y-192785528D01*
X265199568Y-192785528D02*
X265485282Y-192785528D01*
X265485282Y-192785528D02*
X265628139Y-192856957D01*
X265628139Y-192856957D02*
X265699568Y-192999814D01*
X265699568Y-192999814D02*
X265699568Y-193142671D01*
X265699568Y-193142671D02*
X264985282Y-193285528D01*
X266199567Y-192785528D02*
X266556710Y-193785528D01*
X266556710Y-193785528D02*
X266913853Y-192785528D01*
X267485281Y-193642671D02*
X267556710Y-193714100D01*
X267556710Y-193714100D02*
X267485281Y-193785528D01*
X267485281Y-193785528D02*
X267413853Y-193714100D01*
X267413853Y-193714100D02*
X267485281Y-193642671D01*
X267485281Y-193642671D02*
X267485281Y-193785528D01*
X267485281Y-192856957D02*
X267556710Y-192928385D01*
X267556710Y-192928385D02*
X267485281Y-192999814D01*
X267485281Y-192999814D02*
X267413853Y-192928385D01*
X267413853Y-192928385D02*
X267485281Y-192856957D01*
X267485281Y-192856957D02*
X267485281Y-192999814D01*
D10*
D11*
X178386598Y-193721900D02*
X178600884Y-193793328D01*
X178600884Y-193793328D02*
X178958026Y-193793328D01*
X178958026Y-193793328D02*
X179100884Y-193721900D01*
X179100884Y-193721900D02*
X179172312Y-193650471D01*
X179172312Y-193650471D02*
X179243741Y-193507614D01*
X179243741Y-193507614D02*
X179243741Y-193364757D01*
X179243741Y-193364757D02*
X179172312Y-193221900D01*
X179172312Y-193221900D02*
X179100884Y-193150471D01*
X179100884Y-193150471D02*
X178958026Y-193079042D01*
X178958026Y-193079042D02*
X178672312Y-193007614D01*
X178672312Y-193007614D02*
X178529455Y-192936185D01*
X178529455Y-192936185D02*
X178458026Y-192864757D01*
X178458026Y-192864757D02*
X178386598Y-192721900D01*
X178386598Y-192721900D02*
X178386598Y-192579042D01*
X178386598Y-192579042D02*
X178458026Y-192436185D01*
X178458026Y-192436185D02*
X178529455Y-192364757D01*
X178529455Y-192364757D02*
X178672312Y-192293328D01*
X178672312Y-192293328D02*
X179029455Y-192293328D01*
X179029455Y-192293328D02*
X179243741Y-192364757D01*
X179886597Y-193793328D02*
X179886597Y-192793328D01*
X179886597Y-192293328D02*
X179815169Y-192364757D01*
X179815169Y-192364757D02*
X179886597Y-192436185D01*
X179886597Y-192436185D02*
X179958026Y-192364757D01*
X179958026Y-192364757D02*
X179886597Y-192293328D01*
X179886597Y-192293328D02*
X179886597Y-192436185D01*
X180458026Y-192793328D02*
X181243741Y-192793328D01*
X181243741Y-192793328D02*
X180458026Y-193793328D01*
X180458026Y-193793328D02*
X181243741Y-193793328D01*
X182386598Y-193721900D02*
X182243741Y-193793328D01*
X182243741Y-193793328D02*
X181958027Y-193793328D01*
X181958027Y-193793328D02*
X181815169Y-193721900D01*
X181815169Y-193721900D02*
X181743741Y-193579042D01*
X181743741Y-193579042D02*
X181743741Y-193007614D01*
X181743741Y-193007614D02*
X181815169Y-192864757D01*
X181815169Y-192864757D02*
X181958027Y-192793328D01*
X181958027Y-192793328D02*
X182243741Y-192793328D01*
X182243741Y-192793328D02*
X182386598Y-192864757D01*
X182386598Y-192864757D02*
X182458027Y-193007614D01*
X182458027Y-193007614D02*
X182458027Y-193150471D01*
X182458027Y-193150471D02*
X181743741Y-193293328D01*
X183100883Y-193650471D02*
X183172312Y-193721900D01*
X183172312Y-193721900D02*
X183100883Y-193793328D01*
X183100883Y-193793328D02*
X183029455Y-193721900D01*
X183029455Y-193721900D02*
X183100883Y-193650471D01*
X183100883Y-193650471D02*
X183100883Y-193793328D01*
X183100883Y-192864757D02*
X183172312Y-192936185D01*
X183172312Y-192936185D02*
X183100883Y-193007614D01*
X183100883Y-193007614D02*
X183029455Y-192936185D01*
X183029455Y-192936185D02*
X183100883Y-192864757D01*
X183100883Y-192864757D02*
X183100883Y-193007614D01*
X184886598Y-193364757D02*
X185600884Y-193364757D01*
X184743741Y-193793328D02*
X185243741Y-192293328D01*
X185243741Y-192293328D02*
X185743741Y-193793328D01*
X186886598Y-192793328D02*
X186886598Y-193793328D01*
X186529455Y-192221900D02*
X186172312Y-193293328D01*
X186172312Y-193293328D02*
X187100883Y-193293328D01*
D10*
D11*
X263458026Y-196593328D02*
X263458026Y-195093328D01*
X264815170Y-196593328D02*
X264815170Y-195093328D01*
X264815170Y-196521900D02*
X264672312Y-196593328D01*
X264672312Y-196593328D02*
X264386598Y-196593328D01*
X264386598Y-196593328D02*
X264243741Y-196521900D01*
X264243741Y-196521900D02*
X264172312Y-196450471D01*
X264172312Y-196450471D02*
X264100884Y-196307614D01*
X264100884Y-196307614D02*
X264100884Y-195879042D01*
X264100884Y-195879042D02*
X264172312Y-195736185D01*
X264172312Y-195736185D02*
X264243741Y-195664757D01*
X264243741Y-195664757D02*
X264386598Y-195593328D01*
X264386598Y-195593328D02*
X264672312Y-195593328D01*
X264672312Y-195593328D02*
X264815170Y-195664757D01*
X265529455Y-196450471D02*
X265600884Y-196521900D01*
X265600884Y-196521900D02*
X265529455Y-196593328D01*
X265529455Y-196593328D02*
X265458027Y-196521900D01*
X265458027Y-196521900D02*
X265529455Y-196450471D01*
X265529455Y-196450471D02*
X265529455Y-196593328D01*
X265529455Y-195664757D02*
X265600884Y-195736185D01*
X265600884Y-195736185D02*
X265529455Y-195807614D01*
X265529455Y-195807614D02*
X265458027Y-195736185D01*
X265458027Y-195736185D02*
X265529455Y-195664757D01*
X265529455Y-195664757D02*
X265529455Y-195807614D01*
X268172313Y-196593328D02*
X267315170Y-196593328D01*
X267743741Y-196593328D02*
X267743741Y-195093328D01*
X267743741Y-195093328D02*
X267600884Y-195307614D01*
X267600884Y-195307614D02*
X267458027Y-195450471D01*
X267458027Y-195450471D02*
X267315170Y-195521900D01*
X269886598Y-195021900D02*
X268600884Y-196950471D01*
X271172313Y-196593328D02*
X270315170Y-196593328D01*
X270743741Y-196593328D02*
X270743741Y-195093328D01*
X270743741Y-195093328D02*
X270600884Y-195307614D01*
X270600884Y-195307614D02*
X270458027Y-195450471D01*
X270458027Y-195450471D02*
X270315170Y-195521900D01*
D10*
D11*
X177002200Y-187507200D02*
X285002200Y-187507200D01*
D10*
D13*
X178693928Y-188211638D02*
X179836785Y-188211638D01*
X179015357Y-190211638D02*
X179265357Y-188211638D01*
X180253452Y-190211638D02*
X180420119Y-188878304D01*
X180503452Y-188211638D02*
X180396309Y-188306876D01*
X180396309Y-188306876D02*
X180479643Y-188402114D01*
X180479643Y-188402114D02*
X180586786Y-188306876D01*
X180586786Y-188306876D02*
X180503452Y-188211638D01*
X180503452Y-188211638D02*
X180479643Y-188402114D01*
X181086786Y-188878304D02*
X181848690Y-188878304D01*
X181455833Y-188211638D02*
X181241548Y-189925923D01*
X181241548Y-189925923D02*
X181312976Y-190116400D01*
X181312976Y-190116400D02*
X181491548Y-190211638D01*
X181491548Y-190211638D02*
X181682024Y-190211638D01*
X182634405Y-190211638D02*
X182455833Y-190116400D01*
X182455833Y-190116400D02*
X182384405Y-189925923D01*
X182384405Y-189925923D02*
X182598690Y-188211638D01*
X184170119Y-190116400D02*
X183967738Y-190211638D01*
X183967738Y-190211638D02*
X183586785Y-190211638D01*
X183586785Y-190211638D02*
X183408214Y-190116400D01*
X183408214Y-190116400D02*
X183336785Y-189925923D01*
X183336785Y-189925923D02*
X183432024Y-189164019D01*
X183432024Y-189164019D02*
X183551071Y-188973542D01*
X183551071Y-188973542D02*
X183753452Y-188878304D01*
X183753452Y-188878304D02*
X184134404Y-188878304D01*
X184134404Y-188878304D02*
X184312976Y-188973542D01*
X184312976Y-188973542D02*
X184384404Y-189164019D01*
X184384404Y-189164019D02*
X184360595Y-189354495D01*
X184360595Y-189354495D02*
X183384404Y-189544971D01*
X185134405Y-190021161D02*
X185217738Y-190116400D01*
X185217738Y-190116400D02*
X185110595Y-190211638D01*
X185110595Y-190211638D02*
X185027262Y-190116400D01*
X185027262Y-190116400D02*
X185134405Y-190021161D01*
X185134405Y-190021161D02*
X185110595Y-190211638D01*
X185265357Y-188973542D02*
X185348690Y-189068780D01*
X185348690Y-189068780D02*
X185241548Y-189164019D01*
X185241548Y-189164019D02*
X185158214Y-189068780D01*
X185158214Y-189068780D02*
X185265357Y-188973542D01*
X185265357Y-188973542D02*
X185241548Y-189164019D01*
D10*
D11*
X178958026Y-185607614D02*
X178458026Y-185607614D01*
X178458026Y-186393328D02*
X178458026Y-184893328D01*
X178458026Y-184893328D02*
X179172312Y-184893328D01*
X179743740Y-186393328D02*
X179743740Y-185393328D01*
X179743740Y-184893328D02*
X179672312Y-184964757D01*
X179672312Y-184964757D02*
X179743740Y-185036185D01*
X179743740Y-185036185D02*
X179815169Y-184964757D01*
X179815169Y-184964757D02*
X179743740Y-184893328D01*
X179743740Y-184893328D02*
X179743740Y-185036185D01*
X180672312Y-186393328D02*
X180529455Y-186321900D01*
X180529455Y-186321900D02*
X180458026Y-186179042D01*
X180458026Y-186179042D02*
X180458026Y-184893328D01*
X181815169Y-186321900D02*
X181672312Y-186393328D01*
X181672312Y-186393328D02*
X181386598Y-186393328D01*
X181386598Y-186393328D02*
X181243740Y-186321900D01*
X181243740Y-186321900D02*
X181172312Y-186179042D01*
X181172312Y-186179042D02*
X181172312Y-185607614D01*
X181172312Y-185607614D02*
X181243740Y-185464757D01*
X181243740Y-185464757D02*
X181386598Y-185393328D01*
X181386598Y-185393328D02*
X181672312Y-185393328D01*
X181672312Y-185393328D02*
X181815169Y-185464757D01*
X181815169Y-185464757D02*
X181886598Y-185607614D01*
X181886598Y-185607614D02*
X181886598Y-185750471D01*
X181886598Y-185750471D02*
X181172312Y-185893328D01*
X182529454Y-186250471D02*
X182600883Y-186321900D01*
X182600883Y-186321900D02*
X182529454Y-186393328D01*
X182529454Y-186393328D02*
X182458026Y-186321900D01*
X182458026Y-186321900D02*
X182529454Y-186250471D01*
X182529454Y-186250471D02*
X182529454Y-186393328D01*
X182529454Y-185464757D02*
X182600883Y-185536185D01*
X182600883Y-185536185D02*
X182529454Y-185607614D01*
X182529454Y-185607614D02*
X182458026Y-185536185D01*
X182458026Y-185536185D02*
X182529454Y-185464757D01*
X182529454Y-185464757D02*
X182529454Y-185607614D01*
X184386597Y-186393328D02*
X184386597Y-184893328D01*
X184386597Y-184893328D02*
X184743740Y-184893328D01*
X184743740Y-184893328D02*
X184958026Y-184964757D01*
X184958026Y-184964757D02*
X185100883Y-185107614D01*
X185100883Y-185107614D02*
X185172312Y-185250471D01*
X185172312Y-185250471D02*
X185243740Y-185536185D01*
X185243740Y-185536185D02*
X185243740Y-185750471D01*
X185243740Y-185750471D02*
X185172312Y-186036185D01*
X185172312Y-186036185D02*
X185100883Y-186179042D01*
X185100883Y-186179042D02*
X184958026Y-186321900D01*
X184958026Y-186321900D02*
X184743740Y-186393328D01*
X184743740Y-186393328D02*
X184386597Y-186393328D01*
X186458026Y-186321900D02*
X186315169Y-186393328D01*
X186315169Y-186393328D02*
X186029455Y-186393328D01*
X186029455Y-186393328D02*
X185886597Y-186321900D01*
X185886597Y-186321900D02*
X185815169Y-186179042D01*
X185815169Y-186179042D02*
X185815169Y-185607614D01*
X185815169Y-185607614D02*
X185886597Y-185464757D01*
X185886597Y-185464757D02*
X186029455Y-185393328D01*
X186029455Y-185393328D02*
X186315169Y-185393328D01*
X186315169Y-185393328D02*
X186458026Y-185464757D01*
X186458026Y-185464757D02*
X186529455Y-185607614D01*
X186529455Y-185607614D02*
X186529455Y-185750471D01*
X186529455Y-185750471D02*
X185815169Y-185893328D01*
X187386597Y-186393328D02*
X187243740Y-186321900D01*
X187243740Y-186321900D02*
X187172311Y-186179042D01*
X187172311Y-186179042D02*
X187172311Y-184893328D01*
X187743740Y-185393328D02*
X188315168Y-185393328D01*
X187958025Y-184893328D02*
X187958025Y-186179042D01*
X187958025Y-186179042D02*
X188029454Y-186321900D01*
X188029454Y-186321900D02*
X188172311Y-186393328D01*
X188172311Y-186393328D02*
X188315168Y-186393328D01*
X189458026Y-186393328D02*
X189458026Y-185607614D01*
X189458026Y-185607614D02*
X189386597Y-185464757D01*
X189386597Y-185464757D02*
X189243740Y-185393328D01*
X189243740Y-185393328D02*
X188958026Y-185393328D01*
X188958026Y-185393328D02*
X188815168Y-185464757D01*
X189458026Y-186321900D02*
X189315168Y-186393328D01*
X189315168Y-186393328D02*
X188958026Y-186393328D01*
X188958026Y-186393328D02*
X188815168Y-186321900D01*
X188815168Y-186321900D02*
X188743740Y-186179042D01*
X188743740Y-186179042D02*
X188743740Y-186036185D01*
X188743740Y-186036185D02*
X188815168Y-185893328D01*
X188815168Y-185893328D02*
X188958026Y-185821900D01*
X188958026Y-185821900D02*
X189315168Y-185821900D01*
X189315168Y-185821900D02*
X189458026Y-185750471D01*
X191029454Y-186393328D02*
X190529454Y-185679042D01*
X190172311Y-186393328D02*
X190172311Y-184893328D01*
X190172311Y-184893328D02*
X190743740Y-184893328D01*
X190743740Y-184893328D02*
X190886597Y-184964757D01*
X190886597Y-184964757D02*
X190958026Y-185036185D01*
X190958026Y-185036185D02*
X191029454Y-185179042D01*
X191029454Y-185179042D02*
X191029454Y-185393328D01*
X191029454Y-185393328D02*
X190958026Y-185536185D01*
X190958026Y-185536185D02*
X190886597Y-185607614D01*
X190886597Y-185607614D02*
X190743740Y-185679042D01*
X190743740Y-185679042D02*
X190172311Y-185679042D01*
X191672311Y-186393328D02*
X191672311Y-184893328D01*
X192315169Y-186393328D02*
X192315169Y-185607614D01*
X192315169Y-185607614D02*
X192243740Y-185464757D01*
X192243740Y-185464757D02*
X192100883Y-185393328D01*
X192100883Y-185393328D02*
X191886597Y-185393328D01*
X191886597Y-185393328D02*
X191743740Y-185464757D01*
X191743740Y-185464757D02*
X191672311Y-185536185D01*
X193243740Y-186393328D02*
X193100883Y-186321900D01*
X193100883Y-186321900D02*
X193029454Y-186250471D01*
X193029454Y-186250471D02*
X192958026Y-186107614D01*
X192958026Y-186107614D02*
X192958026Y-185679042D01*
X192958026Y-185679042D02*
X193029454Y-185536185D01*
X193029454Y-185536185D02*
X193100883Y-185464757D01*
X193100883Y-185464757D02*
X193243740Y-185393328D01*
X193243740Y-185393328D02*
X193458026Y-185393328D01*
X193458026Y-185393328D02*
X193600883Y-185464757D01*
X193600883Y-185464757D02*
X193672312Y-185536185D01*
X193672312Y-185536185D02*
X193743740Y-185679042D01*
X193743740Y-185679042D02*
X193743740Y-186107614D01*
X193743740Y-186107614D02*
X193672312Y-186250471D01*
X193672312Y-186250471D02*
X193600883Y-186321900D01*
X193600883Y-186321900D02*
X193458026Y-186393328D01*
X193458026Y-186393328D02*
X193243740Y-186393328D01*
X195243740Y-186393328D02*
X194743740Y-185679042D01*
X194386597Y-186393328D02*
X194386597Y-184893328D01*
X194386597Y-184893328D02*
X194958026Y-184893328D01*
X194958026Y-184893328D02*
X195100883Y-184964757D01*
X195100883Y-184964757D02*
X195172312Y-185036185D01*
X195172312Y-185036185D02*
X195243740Y-185179042D01*
X195243740Y-185179042D02*
X195243740Y-185393328D01*
X195243740Y-185393328D02*
X195172312Y-185536185D01*
X195172312Y-185536185D02*
X195100883Y-185607614D01*
X195100883Y-185607614D02*
X194958026Y-185679042D01*
X194958026Y-185679042D02*
X194386597Y-185679042D01*
X196100883Y-186393328D02*
X195958026Y-186321900D01*
X195958026Y-186321900D02*
X195886597Y-186250471D01*
X195886597Y-186250471D02*
X195815169Y-186107614D01*
X195815169Y-186107614D02*
X195815169Y-185679042D01*
X195815169Y-185679042D02*
X195886597Y-185536185D01*
X195886597Y-185536185D02*
X195958026Y-185464757D01*
X195958026Y-185464757D02*
X196100883Y-185393328D01*
X196100883Y-185393328D02*
X196315169Y-185393328D01*
X196315169Y-185393328D02*
X196458026Y-185464757D01*
X196458026Y-185464757D02*
X196529455Y-185536185D01*
X196529455Y-185536185D02*
X196600883Y-185679042D01*
X196600883Y-185679042D02*
X196600883Y-186107614D01*
X196600883Y-186107614D02*
X196529455Y-186250471D01*
X196529455Y-186250471D02*
X196458026Y-186321900D01*
X196458026Y-186321900D02*
X196315169Y-186393328D01*
X196315169Y-186393328D02*
X196100883Y-186393328D01*
X197243740Y-186393328D02*
X197243740Y-184893328D01*
X197243740Y-185464757D02*
X197386598Y-185393328D01*
X197386598Y-185393328D02*
X197672312Y-185393328D01*
X197672312Y-185393328D02*
X197815169Y-185464757D01*
X197815169Y-185464757D02*
X197886598Y-185536185D01*
X197886598Y-185536185D02*
X197958026Y-185679042D01*
X197958026Y-185679042D02*
X197958026Y-186107614D01*
X197958026Y-186107614D02*
X197886598Y-186250471D01*
X197886598Y-186250471D02*
X197815169Y-186321900D01*
X197815169Y-186321900D02*
X197672312Y-186393328D01*
X197672312Y-186393328D02*
X197386598Y-186393328D01*
X197386598Y-186393328D02*
X197243740Y-186321900D01*
X198815169Y-186393328D02*
X198672312Y-186321900D01*
X198672312Y-186321900D02*
X198600883Y-186250471D01*
X198600883Y-186250471D02*
X198529455Y-186107614D01*
X198529455Y-186107614D02*
X198529455Y-185679042D01*
X198529455Y-185679042D02*
X198600883Y-185536185D01*
X198600883Y-185536185D02*
X198672312Y-185464757D01*
X198672312Y-185464757D02*
X198815169Y-185393328D01*
X198815169Y-185393328D02*
X199029455Y-185393328D01*
X199029455Y-185393328D02*
X199172312Y-185464757D01*
X199172312Y-185464757D02*
X199243741Y-185536185D01*
X199243741Y-185536185D02*
X199315169Y-185679042D01*
X199315169Y-185679042D02*
X199315169Y-186107614D01*
X199315169Y-186107614D02*
X199243741Y-186250471D01*
X199243741Y-186250471D02*
X199172312Y-186321900D01*
X199172312Y-186321900D02*
X199029455Y-186393328D01*
X199029455Y-186393328D02*
X198815169Y-186393328D01*
X199743741Y-185393328D02*
X200315169Y-185393328D01*
X199958026Y-184893328D02*
X199958026Y-186179042D01*
X199958026Y-186179042D02*
X200029455Y-186321900D01*
X200029455Y-186321900D02*
X200172312Y-186393328D01*
X200172312Y-186393328D02*
X200315169Y-186393328D01*
X200815169Y-186250471D02*
X200886598Y-186321900D01*
X200886598Y-186321900D02*
X200815169Y-186393328D01*
X200815169Y-186393328D02*
X200743741Y-186321900D01*
X200743741Y-186321900D02*
X200815169Y-186250471D01*
X200815169Y-186250471D02*
X200815169Y-186393328D01*
X201529455Y-186393328D02*
X201529455Y-184893328D01*
X201672313Y-185821900D02*
X202100884Y-186393328D01*
X202100884Y-185393328D02*
X201529455Y-185964757D01*
X202743741Y-186393328D02*
X202743741Y-185393328D01*
X202743741Y-184893328D02*
X202672313Y-184964757D01*
X202672313Y-184964757D02*
X202743741Y-185036185D01*
X202743741Y-185036185D02*
X202815170Y-184964757D01*
X202815170Y-184964757D02*
X202743741Y-184893328D01*
X202743741Y-184893328D02*
X202743741Y-185036185D01*
X204100885Y-186321900D02*
X203958027Y-186393328D01*
X203958027Y-186393328D02*
X203672313Y-186393328D01*
X203672313Y-186393328D02*
X203529456Y-186321900D01*
X203529456Y-186321900D02*
X203458027Y-186250471D01*
X203458027Y-186250471D02*
X203386599Y-186107614D01*
X203386599Y-186107614D02*
X203386599Y-185679042D01*
X203386599Y-185679042D02*
X203458027Y-185536185D01*
X203458027Y-185536185D02*
X203529456Y-185464757D01*
X203529456Y-185464757D02*
X203672313Y-185393328D01*
X203672313Y-185393328D02*
X203958027Y-185393328D01*
X203958027Y-185393328D02*
X204100885Y-185464757D01*
X205386599Y-186393328D02*
X205386599Y-185607614D01*
X205386599Y-185607614D02*
X205315170Y-185464757D01*
X205315170Y-185464757D02*
X205172313Y-185393328D01*
X205172313Y-185393328D02*
X204886599Y-185393328D01*
X204886599Y-185393328D02*
X204743741Y-185464757D01*
X205386599Y-186321900D02*
X205243741Y-186393328D01*
X205243741Y-186393328D02*
X204886599Y-186393328D01*
X204886599Y-186393328D02*
X204743741Y-186321900D01*
X204743741Y-186321900D02*
X204672313Y-186179042D01*
X204672313Y-186179042D02*
X204672313Y-186036185D01*
X204672313Y-186036185D02*
X204743741Y-185893328D01*
X204743741Y-185893328D02*
X204886599Y-185821900D01*
X204886599Y-185821900D02*
X205243741Y-185821900D01*
X205243741Y-185821900D02*
X205386599Y-185750471D01*
X206743742Y-186393328D02*
X206743742Y-184893328D01*
X206743742Y-186321900D02*
X206600884Y-186393328D01*
X206600884Y-186393328D02*
X206315170Y-186393328D01*
X206315170Y-186393328D02*
X206172313Y-186321900D01*
X206172313Y-186321900D02*
X206100884Y-186250471D01*
X206100884Y-186250471D02*
X206029456Y-186107614D01*
X206029456Y-186107614D02*
X206029456Y-185679042D01*
X206029456Y-185679042D02*
X206100884Y-185536185D01*
X206100884Y-185536185D02*
X206172313Y-185464757D01*
X206172313Y-185464757D02*
X206315170Y-185393328D01*
X206315170Y-185393328D02*
X206600884Y-185393328D01*
X206600884Y-185393328D02*
X206743742Y-185464757D01*
X207100885Y-186536185D02*
X208243742Y-186536185D01*
X208600884Y-185393328D02*
X208600884Y-186893328D01*
X208600884Y-185464757D02*
X208743742Y-185393328D01*
X208743742Y-185393328D02*
X209029456Y-185393328D01*
X209029456Y-185393328D02*
X209172313Y-185464757D01*
X209172313Y-185464757D02*
X209243742Y-185536185D01*
X209243742Y-185536185D02*
X209315170Y-185679042D01*
X209315170Y-185679042D02*
X209315170Y-186107614D01*
X209315170Y-186107614D02*
X209243742Y-186250471D01*
X209243742Y-186250471D02*
X209172313Y-186321900D01*
X209172313Y-186321900D02*
X209029456Y-186393328D01*
X209029456Y-186393328D02*
X208743742Y-186393328D01*
X208743742Y-186393328D02*
X208600884Y-186321900D01*
X210600885Y-186321900D02*
X210458027Y-186393328D01*
X210458027Y-186393328D02*
X210172313Y-186393328D01*
X210172313Y-186393328D02*
X210029456Y-186321900D01*
X210029456Y-186321900D02*
X209958027Y-186250471D01*
X209958027Y-186250471D02*
X209886599Y-186107614D01*
X209886599Y-186107614D02*
X209886599Y-185679042D01*
X209886599Y-185679042D02*
X209958027Y-185536185D01*
X209958027Y-185536185D02*
X210029456Y-185464757D01*
X210029456Y-185464757D02*
X210172313Y-185393328D01*
X210172313Y-185393328D02*
X210458027Y-185393328D01*
X210458027Y-185393328D02*
X210600885Y-185464757D01*
X211243741Y-186393328D02*
X211243741Y-184893328D01*
X211243741Y-185464757D02*
X211386599Y-185393328D01*
X211386599Y-185393328D02*
X211672313Y-185393328D01*
X211672313Y-185393328D02*
X211815170Y-185464757D01*
X211815170Y-185464757D02*
X211886599Y-185536185D01*
X211886599Y-185536185D02*
X211958027Y-185679042D01*
X211958027Y-185679042D02*
X211958027Y-186107614D01*
X211958027Y-186107614D02*
X211886599Y-186250471D01*
X211886599Y-186250471D02*
X211815170Y-186321900D01*
X211815170Y-186321900D02*
X211672313Y-186393328D01*
X211672313Y-186393328D02*
X211386599Y-186393328D01*
X211386599Y-186393328D02*
X211243741Y-186321900D01*
D10*
D11*
X177002200Y-181507200D02*
X285002200Y-181507200D01*
D10*
D11*
X178386598Y-183621900D02*
X178600884Y-183693328D01*
X178600884Y-183693328D02*
X178958026Y-183693328D01*
X178958026Y-183693328D02*
X179100884Y-183621900D01*
X179100884Y-183621900D02*
X179172312Y-183550471D01*
X179172312Y-183550471D02*
X179243741Y-183407614D01*
X179243741Y-183407614D02*
X179243741Y-183264757D01*
X179243741Y-183264757D02*
X179172312Y-183121900D01*
X179172312Y-183121900D02*
X179100884Y-183050471D01*
X179100884Y-183050471D02*
X178958026Y-182979042D01*
X178958026Y-182979042D02*
X178672312Y-182907614D01*
X178672312Y-182907614D02*
X178529455Y-182836185D01*
X178529455Y-182836185D02*
X178458026Y-182764757D01*
X178458026Y-182764757D02*
X178386598Y-182621900D01*
X178386598Y-182621900D02*
X178386598Y-182479042D01*
X178386598Y-182479042D02*
X178458026Y-182336185D01*
X178458026Y-182336185D02*
X178529455Y-182264757D01*
X178529455Y-182264757D02*
X178672312Y-182193328D01*
X178672312Y-182193328D02*
X179029455Y-182193328D01*
X179029455Y-182193328D02*
X179243741Y-182264757D01*
X179886597Y-183693328D02*
X179886597Y-182193328D01*
X180529455Y-183693328D02*
X180529455Y-182907614D01*
X180529455Y-182907614D02*
X180458026Y-182764757D01*
X180458026Y-182764757D02*
X180315169Y-182693328D01*
X180315169Y-182693328D02*
X180100883Y-182693328D01*
X180100883Y-182693328D02*
X179958026Y-182764757D01*
X179958026Y-182764757D02*
X179886597Y-182836185D01*
X181815169Y-183621900D02*
X181672312Y-183693328D01*
X181672312Y-183693328D02*
X181386598Y-183693328D01*
X181386598Y-183693328D02*
X181243740Y-183621900D01*
X181243740Y-183621900D02*
X181172312Y-183479042D01*
X181172312Y-183479042D02*
X181172312Y-182907614D01*
X181172312Y-182907614D02*
X181243740Y-182764757D01*
X181243740Y-182764757D02*
X181386598Y-182693328D01*
X181386598Y-182693328D02*
X181672312Y-182693328D01*
X181672312Y-182693328D02*
X181815169Y-182764757D01*
X181815169Y-182764757D02*
X181886598Y-182907614D01*
X181886598Y-182907614D02*
X181886598Y-183050471D01*
X181886598Y-183050471D02*
X181172312Y-183193328D01*
X183100883Y-183621900D02*
X182958026Y-183693328D01*
X182958026Y-183693328D02*
X182672312Y-183693328D01*
X182672312Y-183693328D02*
X182529454Y-183621900D01*
X182529454Y-183621900D02*
X182458026Y-183479042D01*
X182458026Y-183479042D02*
X182458026Y-182907614D01*
X182458026Y-182907614D02*
X182529454Y-182764757D01*
X182529454Y-182764757D02*
X182672312Y-182693328D01*
X182672312Y-182693328D02*
X182958026Y-182693328D01*
X182958026Y-182693328D02*
X183100883Y-182764757D01*
X183100883Y-182764757D02*
X183172312Y-182907614D01*
X183172312Y-182907614D02*
X183172312Y-183050471D01*
X183172312Y-183050471D02*
X182458026Y-183193328D01*
X183600883Y-182693328D02*
X184172311Y-182693328D01*
X183815168Y-182193328D02*
X183815168Y-183479042D01*
X183815168Y-183479042D02*
X183886597Y-183621900D01*
X183886597Y-183621900D02*
X184029454Y-183693328D01*
X184029454Y-183693328D02*
X184172311Y-183693328D01*
X184672311Y-183550471D02*
X184743740Y-183621900D01*
X184743740Y-183621900D02*
X184672311Y-183693328D01*
X184672311Y-183693328D02*
X184600883Y-183621900D01*
X184600883Y-183621900D02*
X184672311Y-183550471D01*
X184672311Y-183550471D02*
X184672311Y-183693328D01*
X184672311Y-182764757D02*
X184743740Y-182836185D01*
X184743740Y-182836185D02*
X184672311Y-182907614D01*
X184672311Y-182907614D02*
X184600883Y-182836185D01*
X184600883Y-182836185D02*
X184672311Y-182764757D01*
X184672311Y-182764757D02*
X184672311Y-182907614D01*
D10*
D11*
X197002200Y-191507200D02*
X197002200Y-194507200D01*
D10*
D11*
X261002200Y-191507200D02*
X261002200Y-198007200D01*
D14*
%TO.P,C14,1*%
%TO.N,+3.3V*%
X180995200Y-116890800D03*
%TO.P,C14,2*%
%TO.N,Earth*%
X180035200Y-116890800D03*
%TD*%
D15*
%TO.P,R1,1*%
%TO.N,Net-(J2-CC2)*%
X159570000Y-76830000D03*
%TO.P,R1,2*%
%TO.N,Earth*%
X160590000Y-76830000D03*
%TD*%
D16*
%TO.P,D7,1,VDD*%
%TO.N,+5V*%
X211507600Y-59148000D03*
%TO.P,D7,2,DOUT*%
%TO.N,Net-(D6-DIN)*%
X214807600Y-59148000D03*
%TO.P,D7,3,VSS*%
%TO.N,Earth*%
X214807600Y-54248000D03*
%TO.P,D7,4,DIN*%
%TO.N,/ESP32-S3-WROOM-1/LED_DIN*%
X211507600Y-54248000D03*
%TD*%
D14*
%TO.P,C24,1*%
%TO.N,+3.3V*%
X184090000Y-104900000D03*
%TO.P,C24,2*%
%TO.N,Earth*%
X183130000Y-104900000D03*
%TD*%
D17*
%TO.P,D2,1*%
%TO.N,/V_USB_1*%
X162384500Y-82844600D03*
%TO.P,D2,2*%
%TO.N,/V_USB_2*%
X162384500Y-84744600D03*
%TO.P,D2,3*%
%TO.N,VCC*%
X164259500Y-83794600D03*
%TD*%
D18*
%TO.P,C11,1*%
%TO.N,/Pico/XOUT*%
X214670200Y-125324700D03*
%TO.P,C11,2*%
%TO.N,Earth*%
X214670200Y-126284700D03*
%TD*%
D14*
%TO.P,C7,1*%
%TO.N,+3.3V*%
X193730000Y-118950000D03*
%TO.P,C7,2*%
%TO.N,Earth*%
X192770000Y-118950000D03*
%TD*%
D19*
%TO.P,C34,1*%
%TO.N,VCC*%
X179000000Y-130890000D03*
%TO.P,C34,2*%
%TO.N,Earth*%
X179000000Y-129930000D03*
%TD*%
D20*
%TO.P,J15,1,Pin_1*%
%TO.N,Earth*%
X207165000Y-55210000D03*
D21*
%TO.P,J15,2,Pin_2*%
%TO.N,+3.3V*%
X204625000Y-55210000D03*
%TO.P,J15,3,Pin_3*%
%TO.N,Earth*%
X207165000Y-57750000D03*
%TO.P,J15,4,Pin_4*%
%TO.N,+3.3V*%
X204625000Y-57750000D03*
%TO.P,J15,5,Pin_5*%
%TO.N,Earth*%
X207165000Y-60290000D03*
%TO.P,J15,6,Pin_6*%
%TO.N,+3.3V*%
X204625000Y-60290000D03*
%TO.P,J15,7,Pin_7*%
%TO.N,Earth*%
X207165000Y-62830000D03*
%TO.P,J15,8,Pin_8*%
%TO.N,+3.3V*%
X204625000Y-62830000D03*
%TO.P,J15,9,Pin_9*%
%TO.N,Earth*%
X207165000Y-65370000D03*
%TO.P,J15,10,Pin_10*%
%TO.N,+3.3V*%
X204625000Y-65370000D03*
%TO.P,J15,11,Pin_11*%
%TO.N,Earth*%
X207165000Y-67910000D03*
%TO.P,J15,12,Pin_12*%
%TO.N,+3.3V*%
X204625000Y-67910000D03*
%TO.P,J15,13,Pin_13*%
%TO.N,Earth*%
X207165000Y-70450000D03*
%TO.P,J15,14,Pin_14*%
%TO.N,+3.3V*%
X204625000Y-70450000D03*
%TO.P,J15,15,Pin_15*%
%TO.N,Earth*%
X207165000Y-72990000D03*
%TO.P,J15,16,Pin_16*%
%TO.N,+3.3V*%
X204625000Y-72990000D03*
%TO.P,J15,17,Pin_17*%
%TO.N,Earth*%
X207165000Y-75530000D03*
%TO.P,J15,18,Pin_18*%
%TO.N,+3.3V*%
X204625000Y-75530000D03*
%TD*%
D22*
%TO.P,U3,1,VM*%
%TO.N,VCC*%
X206168800Y-135837200D03*
%TO.P,U3,2,AOUT1*%
%TO.N,/Pico/M2_Out_A*%
X206668800Y-135837200D03*
%TO.P,U3,3,AOUT2*%
%TO.N,/Pico/M2_Out_B*%
X207168800Y-135837200D03*
%TO.P,U3,4,BOUT1*%
%TO.N,/Pico/M1_Out_B*%
X207668800Y-135837200D03*
%TO.P,U3,5,BOUT2*%
%TO.N,/Pico/M1_Out_A*%
X208168800Y-135837200D03*
%TO.P,U3,6,GND*%
%TO.N,Earth*%
X208668800Y-135837200D03*
%TO.P,U3,7,BIN2_BENBL*%
%TO.N,/Pico/Motor_1_A*%
X208668800Y-133937200D03*
%TO.P,U3,8,BIN1_BPHASE*%
%TO.N,/Pico/Motor_1_B*%
X208168800Y-133937200D03*
%TO.P,U3,9,AIN2_AENBL*%
%TO.N,/Pico/Motor_2_B*%
X207668800Y-133937200D03*
%TO.P,U3,10,AIN1_APHASE*%
%TO.N,/Pico/Motor_2_A*%
X207168800Y-133937200D03*
%TO.P,U3,11,MODE*%
%TO.N,unconnected-(U3-MODE-Pad11)*%
X206668800Y-133937200D03*
%TO.P,U3,12,VCC*%
%TO.N,+3.3V*%
X206168800Y-133937200D03*
D23*
%TO.P,U3,13,GND*%
%TO.N,Earth*%
X206418800Y-134887200D03*
X207418800Y-134887200D03*
D24*
X207418800Y-134887200D03*
X207418800Y-134887200D03*
D23*
X208418800Y-134887200D03*
%TD*%
D16*
%TO.P,D6,1,VDD*%
%TO.N,+5V*%
X211505600Y-66600000D03*
%TO.P,D6,2,DOUT*%
%TO.N,unconnected-(D6-DOUT-Pad2)*%
X214805600Y-66600000D03*
%TO.P,D6,3,VSS*%
%TO.N,Earth*%
X214805600Y-61700000D03*
%TO.P,D6,4,DIN*%
%TO.N,Net-(D6-DIN)*%
X211505600Y-61700000D03*
%TD*%
D25*
%TO.P,RST1,1,1*%
%TO.N,/ESP_PU*%
X157000000Y-60020000D03*
X157000000Y-67980000D03*
%TO.P,RST1,2,2*%
%TO.N,Earth*%
X152500000Y-60020000D03*
X152500000Y-67980000D03*
%TD*%
D26*
%TO.P,R26,1*%
%TO.N,Net-(J12-CC2)*%
X152790000Y-104940000D03*
%TO.P,R26,2*%
%TO.N,Earth*%
X152790000Y-103920000D03*
%TD*%
D15*
%TO.P,R18,1*%
%TO.N,/Pico/QSPI_SDSS*%
X182780000Y-130400000D03*
%TO.P,R18,2*%
%TO.N,Net-(Boot1-Pad1)*%
X183800000Y-130400000D03*
%TD*%
D26*
%TO.P,R29,1*%
%TO.N,/ESP32-S3-WROOM-1/ESP32CAM/ESPCAM_USB_D-*%
X159993000Y-113960000D03*
%TO.P,R29,2*%
%TO.N,Net-(U9-USBDM)*%
X159993000Y-112940000D03*
%TD*%
D17*
%TO.P,Q5,1,G*%
%TO.N,+1V8*%
X195526900Y-112212000D03*
%TO.P,Q5,2,S*%
%TO.N,/Pico/IMU/SCL*%
X195526900Y-114112000D03*
%TO.P,Q5,3,D*%
%TO.N,PICO_SCL*%
X197401900Y-113162000D03*
%TD*%
D27*
%TO.P,SW4,1,1*%
%TO.N,Net-(U8-GPIO0{slash}BOOT)*%
X212325000Y-78425000D03*
X212325000Y-74275000D03*
%TO.P,SW4,2,2*%
%TO.N,Earth*%
X214475000Y-78425000D03*
X214475000Y-74275000D03*
%TD*%
D26*
%TO.P,R27,1*%
%TO.N,Net-(J12-CC1)*%
X153810000Y-104960000D03*
%TO.P,R27,2*%
%TO.N,Earth*%
X153810000Y-103940000D03*
%TD*%
D28*
%TO.P,C4,1*%
%TO.N,+3.3V*%
X166240000Y-80820000D03*
%TO.P,C4,2*%
%TO.N,Earth*%
X167200000Y-80820000D03*
%TD*%
D18*
%TO.P,C23,1*%
%TO.N,+1V8*%
X187705149Y-100700000D03*
%TO.P,C23,2*%
%TO.N,Earth*%
X187705149Y-101660000D03*
%TD*%
D28*
%TO.P,C41,1*%
%TO.N,Earth*%
X192745000Y-120000000D03*
%TO.P,C41,2*%
%TO.N,+3.3V*%
X193705000Y-120000000D03*
%TD*%
D22*
%TO.P,U6,1,VM*%
%TO.N,VCC*%
X186168800Y-135837200D03*
%TO.P,U6,2,AOUT1*%
%TO.N,/Pico/M6_Out_A*%
X186668800Y-135837200D03*
%TO.P,U6,3,AOUT2*%
%TO.N,/Pico/M6_Out_B*%
X187168800Y-135837200D03*
%TO.P,U6,4,BOUT1*%
%TO.N,/Pico/M5_Out_B*%
X187668800Y-135837200D03*
%TO.P,U6,5,BOUT2*%
%TO.N,/Pico/M5_Out_A*%
X188168800Y-135837200D03*
%TO.P,U6,6,GND*%
%TO.N,Earth*%
X188668800Y-135837200D03*
%TO.P,U6,7,BIN2_BENBL*%
%TO.N,/Pico/Motor_5_A*%
X188668800Y-133937200D03*
%TO.P,U6,8,BIN1_BPHASE*%
%TO.N,/Pico/Motor_5_B*%
X188168800Y-133937200D03*
%TO.P,U6,9,AIN2_AENBL*%
%TO.N,/Pico/Motor_6_B*%
X187668800Y-133937200D03*
%TO.P,U6,10,AIN1_APHASE*%
%TO.N,/Pico/Motor_6_A*%
X187168800Y-133937200D03*
%TO.P,U6,11,MODE*%
%TO.N,unconnected-(U6-MODE-Pad11)*%
X186668800Y-133937200D03*
%TO.P,U6,12,VCC*%
%TO.N,+3.3V*%
X186168800Y-133937200D03*
D23*
%TO.P,U6,13,GND*%
%TO.N,Earth*%
X186418800Y-134887200D03*
X187418800Y-134887200D03*
D24*
X187418800Y-134887200D03*
X187418800Y-134887200D03*
D23*
X188418800Y-134887200D03*
%TD*%
D19*
%TO.P,C32,1*%
%TO.N,Earth*%
X211310000Y-70220000D03*
%TO.P,C32,2*%
%TO.N,+5V*%
X211310000Y-69260000D03*
%TD*%
D28*
%TO.P,C1,1*%
%TO.N,Net-(U1-SW)*%
X194000000Y-97525000D03*
%TO.P,C1,2*%
%TO.N,Net-(U1-BST)*%
X194960000Y-97525000D03*
%TD*%
D29*
%TO.P,TP1,1,1*%
%TO.N,Pico_SDA1*%
X201660000Y-97900000D03*
%TO.P,TP1,2,2*%
%TO.N,Pico_SCL1*%
X204200000Y-97900000D03*
%TD*%
D30*
%TO.P,R22,1*%
%TO.N,+1V8*%
X193825100Y-107897200D03*
%TO.P,R22,2*%
%TO.N,/Pico/IMU/SDA*%
X193825100Y-108917200D03*
%TD*%
D31*
%TO.P,U4,1,IOVDD*%
%TO.N,+3.3V*%
X196068800Y-127374700D03*
%TO.P,U4,2,GPIO0*%
%TO.N,/Pico/Motor_6_A*%
X196468800Y-127374700D03*
%TO.P,U4,3,GPIO1*%
%TO.N,/Pico/Motor_6_B*%
X196868800Y-127374700D03*
%TO.P,U4,4,GPIO2*%
%TO.N,/Pico/Motor_5_B*%
X197268800Y-127374700D03*
%TO.P,U4,5,GPIO3*%
%TO.N,/Pico/Motor_5_A*%
X197668800Y-127374700D03*
%TO.P,U4,6,GPIO4*%
%TO.N,/Pico/Motor_4_A*%
X198068800Y-127374700D03*
%TO.P,U4,7,GPIO5*%
%TO.N,/Pico/Motor_4_B*%
X198468800Y-127374700D03*
%TO.P,U4,8,GPIO6*%
%TO.N,/Pico/Motor_3_B*%
X198868800Y-127374700D03*
%TO.P,U4,9,GPIO7*%
%TO.N,/Pico/Motor_3_A*%
X199268800Y-127374700D03*
%TO.P,U4,10,IOVDD*%
%TO.N,+3.3V*%
X199668800Y-127374700D03*
%TO.P,U4,11,GPIO8*%
%TO.N,/Pico/Motor_2_A*%
X200068800Y-127374700D03*
%TO.P,U4,12,GPIO9*%
%TO.N,/Pico/Motor_2_B*%
X200468800Y-127374700D03*
%TO.P,U4,13,GPIO10*%
%TO.N,/Pico/Motor_1_B*%
X200868800Y-127374700D03*
%TO.P,U4,14,GPIO11*%
%TO.N,/Pico/Motor_1_A*%
X201268800Y-127374700D03*
D32*
%TO.P,U4,15,GPIO12*%
%TO.N,Pico_SCL1*%
X202106300Y-126537200D03*
%TO.P,U4,16,GPIO13*%
%TO.N,Pico_SDA1*%
X202106300Y-126137200D03*
%TO.P,U4,17,GPIO14*%
%TO.N,unconnected-(U4-GPIO14-Pad17)*%
X202106300Y-125737200D03*
%TO.P,U4,18,GPIO15*%
%TO.N,Net-(D5-DIN)*%
X202106300Y-125337200D03*
%TO.P,U4,19,TESTEN*%
%TO.N,Earth*%
X202106300Y-124937200D03*
%TO.P,U4,20,XIN*%
%TO.N,/Pico/XIN*%
X202106300Y-124537200D03*
%TO.P,U4,21,XOUT*%
%TO.N,/Pico/XOUT*%
X202106300Y-124137200D03*
%TO.P,U4,22,IOVDD*%
%TO.N,+3.3V*%
X202106300Y-123737200D03*
%TO.P,U4,23,DVDD*%
%TO.N,Net-(U4-VREG_VOUT)*%
X202106300Y-123337200D03*
%TO.P,U4,24,SWCLK*%
%TO.N,/Pico/SWCLK*%
X202106300Y-122937200D03*
%TO.P,U4,25,SWD*%
%TO.N,/Pico/SWD*%
X202106300Y-122537200D03*
%TO.P,U4,26,RUN*%
%TO.N,/ESP_PU*%
X202106300Y-122137200D03*
%TO.P,U4,27,GPIO16*%
%TO.N,PICO_SDA*%
X202106300Y-121737200D03*
%TO.P,U4,28,GPIO17*%
%TO.N,PICO_SCL*%
X202106300Y-121337200D03*
D31*
%TO.P,U4,29,GPIO18*%
%TO.N,/Pico/M1_Enc_B*%
X201268800Y-120499700D03*
%TO.P,U4,30,GPIO19*%
%TO.N,/Pico/M1_Enc_A*%
X200868800Y-120499700D03*
%TO.P,U4,31,GPIO20*%
%TO.N,/Pico/M2_Enc_A*%
X200468800Y-120499700D03*
%TO.P,U4,32,GPIO21*%
%TO.N,/Pico/M2_Enc_B*%
X200068800Y-120499700D03*
%TO.P,U4,33,IOVDD*%
%TO.N,+3.3V*%
X199668800Y-120499700D03*
%TO.P,U4,34,GPIO22*%
%TO.N,/Pico/M3_Enc_A*%
X199268800Y-120499700D03*
%TO.P,U4,35,GPIO23*%
%TO.N,/Pico/M3_Enc_B*%
X198868800Y-120499700D03*
%TO.P,U4,36,GPIO24*%
%TO.N,/Pico/M4_Enc_A*%
X198468800Y-120499700D03*
%TO.P,U4,37,GPIO25*%
%TO.N,/Pico/M4_Enc_B*%
X198068800Y-120499700D03*
%TO.P,U4,38,GPIO26_ADC0*%
%TO.N,/Pico/M5_Enc_A*%
X197668800Y-120499700D03*
%TO.P,U4,39,GPIO27_ADC1*%
%TO.N,/Pico/M5_Enc_B*%
X197268800Y-120499700D03*
%TO.P,U4,40,GPIO28_ADC2*%
%TO.N,/Pico/M6_Enc_A*%
X196868800Y-120499700D03*
%TO.P,U4,41,GPIO29_ADC3*%
%TO.N,/Pico/M6_Enc_B*%
X196468800Y-120499700D03*
%TO.P,U4,42,IOVDD*%
%TO.N,+3.3V*%
X196068800Y-120499700D03*
D32*
%TO.P,U4,43,ADC_AVDD*%
X195231300Y-121337200D03*
%TO.P,U4,44,VREG_IN*%
X195231300Y-121737200D03*
%TO.P,U4,45,VREG_VOUT*%
%TO.N,Net-(U4-VREG_VOUT)*%
X195231300Y-122137200D03*
%TO.P,U4,46,USB_DM*%
%TO.N,Net-(U4-USB_DM)*%
X195231300Y-122537200D03*
%TO.P,U4,47,USB_DP*%
%TO.N,Net-(U4-USB_DP)*%
X195231300Y-122937200D03*
%TO.P,U4,48,USB_VDD*%
%TO.N,+3.3V*%
X195231300Y-123337200D03*
%TO.P,U4,49,IOVDD*%
X195231300Y-123737200D03*
%TO.P,U4,50,DVDD*%
%TO.N,Net-(U4-VREG_VOUT)*%
X195231300Y-124137200D03*
%TO.P,U4,51,QSPI_SD3*%
%TO.N,/Pico/QSPI_SD3*%
X195231300Y-124537200D03*
%TO.P,U4,52,QSPI_SCLK*%
%TO.N,/Pico/QSPI_SCK*%
X195231300Y-124937200D03*
%TO.P,U4,53,QSPI_SD0*%
%TO.N,/Pico/QSPI_SD0*%
X195231300Y-125337200D03*
%TO.P,U4,54,QSPI_SD2*%
%TO.N,/Pico/QSPI_SD2*%
X195231300Y-125737200D03*
%TO.P,U4,55,QSPI_SD1*%
%TO.N,/Pico/QSPI_SD1*%
X195231300Y-126137200D03*
%TO.P,U4,56,QSPI_SS*%
%TO.N,/Pico/QSPI_SDSS*%
X195231300Y-126537200D03*
D33*
%TO.P,U4,57,GND*%
%TO.N,Earth*%
X198668800Y-123937200D03*
%TD*%
D34*
%TO.P,J4,1,1*%
%TO.N,+5V*%
X204700000Y-90450000D03*
D35*
%TO.P,J4,2,2*%
%TO.N,/ESP32-S3-WROOM-1/SDA*%
X204700000Y-87950000D03*
%TO.P,J4,3,3*%
%TO.N,/ESP32-S3-WROOM-1/SCL*%
X204700000Y-85450000D03*
%TO.P,J4,4,4*%
%TO.N,Earth*%
X204700000Y-82950000D03*
%TD*%
D20*
%TO.P,J13,1,Pin_1*%
%TO.N,+3.3V*%
X165280000Y-52850000D03*
D21*
%TO.P,J13,2,Pin_2*%
%TO.N,Earth*%
X162740000Y-52850000D03*
%TO.P,J13,3,Pin_3*%
%TO.N,+3.3V*%
X165280000Y-55390000D03*
%TO.P,J13,4,Pin_4*%
%TO.N,Earth*%
X162740000Y-55390000D03*
%TO.P,J13,5,Pin_5*%
%TO.N,+3.3V*%
X165280000Y-57930000D03*
%TO.P,J13,6,Pin_6*%
%TO.N,Earth*%
X162740000Y-57930000D03*
%TO.P,J13,7,Pin_7*%
%TO.N,+3.3V*%
X165280000Y-60470000D03*
%TO.P,J13,8,Pin_8*%
%TO.N,Earth*%
X162740000Y-60470000D03*
%TO.P,J13,9,Pin_9*%
%TO.N,+3.3V*%
X165280000Y-63010000D03*
%TO.P,J13,10,Pin_10*%
%TO.N,Earth*%
X162740000Y-63010000D03*
%TO.P,J13,11,Pin_11*%
%TO.N,+3.3V*%
X165280000Y-65550000D03*
%TO.P,J13,12,Pin_12*%
%TO.N,Earth*%
X162740000Y-65550000D03*
%TO.P,J13,13,Pin_13*%
%TO.N,+3.3V*%
X165280000Y-68090000D03*
%TO.P,J13,14,Pin_14*%
%TO.N,Earth*%
X162740000Y-68090000D03*
%TO.P,J13,15,Pin_15*%
%TO.N,+3.3V*%
X165280000Y-70630000D03*
%TO.P,J13,16,Pin_16*%
%TO.N,Earth*%
X162740000Y-70630000D03*
%TO.P,J13,17,Pin_17*%
%TO.N,+3.3V*%
X165280000Y-73170000D03*
%TO.P,J13,18,Pin_18*%
%TO.N,Earth*%
X162740000Y-73170000D03*
%TD*%
D36*
%TO.P,C3,1*%
%TO.N,VCC*%
X169420000Y-90250000D03*
%TO.P,C3,2*%
%TO.N,Earth*%
X167520000Y-90250000D03*
%TD*%
D37*
%TO.P,P3,1,1*%
%TO.N,/Pico/M3_Out_A*%
X199788800Y-138887200D03*
%TO.P,P3,2,2*%
%TO.N,+3.3V*%
X199788800Y-140387200D03*
%TO.P,P3,3,3*%
%TO.N,/Pico/M3_Enc_A*%
X199788800Y-141887199D03*
%TO.P,P3,4,4*%
%TO.N,/Pico/M3_Enc_B*%
X199788800Y-143387201D03*
%TO.P,P3,5,5*%
%TO.N,Earth*%
X199788800Y-144887201D03*
%TO.P,P3,6,6*%
%TO.N,/Pico/M3_Out_B*%
X199788800Y-146387200D03*
%TD*%
D38*
%TO.P,Q3,1,G*%
%TO.N,Net-(Q3-G)*%
X174295000Y-138110000D03*
D39*
%TO.P,Q3,2,D*%
%TO.N,VS*%
X167570000Y-138345000D03*
X167570000Y-132795000D03*
D40*
X165145000Y-135570000D03*
D39*
X162720000Y-138345000D03*
X162720000Y-132795000D03*
D38*
%TO.P,Q3,3,S*%
%TO.N,VCC*%
X174295000Y-133030000D03*
%TD*%
D41*
%TO.P,Boot1,1,1*%
%TO.N,Net-(Boot1-Pad1)*%
X218651000Y-127728400D03*
X222801000Y-127728400D03*
%TO.P,Boot1,2,2*%
%TO.N,Earth*%
X218651000Y-129878400D03*
X222801000Y-129878400D03*
%TD*%
D42*
%TO.P,U7,1,~{CS}*%
%TO.N,/Pico/QSPI_SDSS*%
X182880000Y-127679000D03*
%TO.P,U7,2,DO(IO1)*%
%TO.N,/Pico/QSPI_SD1*%
X184150000Y-127679000D03*
%TO.P,U7,3,~{WP}*%
%TO.N,/Pico/QSPI_SD2*%
X185420000Y-127679000D03*
%TO.P,U7,4,GND*%
%TO.N,Earth*%
X186690000Y-127679000D03*
%TO.P,U7,5,DI(IO0)*%
%TO.N,/Pico/QSPI_SD0*%
X186690000Y-120479000D03*
%TO.P,U7,6,SCK*%
%TO.N,/Pico/QSPI_SCK*%
X185420000Y-120479000D03*
%TO.P,U7,7,~{HOLD}*%
%TO.N,/Pico/QSPI_SD3*%
X184150000Y-120479000D03*
%TO.P,U7,8,VCC*%
%TO.N,+3.3V*%
X182880000Y-120479000D03*
%TD*%
D26*
%TO.P,R23,1*%
%TO.N,+3.3V*%
X199463900Y-110431000D03*
%TO.P,R23,2*%
%TO.N,PICO_SDA*%
X199463900Y-109411000D03*
%TD*%
D43*
%TO.P,H3,1,1*%
%TO.N,unconnected-(H3-Pad1)_0*%
X155000000Y-145000000D03*
D44*
%TO.N,unconnected-(H3-Pad1)*%
X155000000Y-145000000D03*
%TD*%
D28*
%TO.P,C40,1*%
%TO.N,Earth*%
X191700000Y-123600000D03*
%TO.P,C40,2*%
%TO.N,+3.3V*%
X192660000Y-123600000D03*
%TD*%
D45*
%TO.P,L1,1*%
%TO.N,Net-(U1-BST)*%
X198200000Y-95275000D03*
%TO.P,L1,2*%
%TO.N,+5V*%
X198200000Y-93125000D03*
%TD*%
D19*
%TO.P,C19,1*%
%TO.N,Earth*%
X171780200Y-55598000D03*
%TO.P,C19,2*%
%TO.N,/ESP32-S3-WROOM-1/ADC0*%
X171780200Y-54638000D03*
%TD*%
D46*
%TO.P,Y1,1*%
%TO.N,/Pico/XIN*%
X210700000Y-127450000D03*
%TO.P,Y1,2,GND*%
%TO.N,Earth*%
X212900000Y-127450000D03*
%TO.P,Y1,3*%
%TO.N,/Pico/XOUT*%
X212900000Y-125750000D03*
%TO.P,Y1,4,GND__1*%
%TO.N,Earth*%
X210700000Y-125750000D03*
%TD*%
D18*
%TO.P,C25,1*%
%TO.N,/ESP32-S3-WROOM-1/ESP32CAM/V_USB*%
X157330000Y-117650000D03*
%TO.P,C25,2*%
%TO.N,Earth*%
X157330000Y-118610000D03*
%TD*%
%TO.P,C26,1*%
%TO.N,/ESP32-S3-WROOM-1/ESP32CAM/ESPCAM_USB_D+*%
X158850000Y-109300000D03*
%TO.P,C26,2*%
%TO.N,Earth*%
X158850000Y-110260000D03*
%TD*%
D37*
%TO.P,P4,1,1*%
%TO.N,/Pico/M4_Out_A*%
X194788093Y-138887907D03*
%TO.P,P4,2,2*%
%TO.N,+3.3V*%
X194788093Y-140387907D03*
%TO.P,P4,3,3*%
%TO.N,/Pico/M4_Enc_A*%
X194788093Y-141887906D03*
%TO.P,P4,4,4*%
%TO.N,/Pico/M4_Enc_B*%
X194788093Y-143387908D03*
%TO.P,P4,5,5*%
%TO.N,Earth*%
X194788093Y-144887908D03*
%TO.P,P4,6,6*%
%TO.N,/Pico/M4_Out_B*%
X194788093Y-146387907D03*
%TD*%
D17*
%TO.P,Q2,1,G*%
%TO.N,+1V8*%
X195529200Y-108513800D03*
%TO.P,Q2,2,S*%
%TO.N,/Pico/IMU/SDA*%
X195529200Y-110413800D03*
%TO.P,Q2,3,D*%
%TO.N,PICO_SDA*%
X197404200Y-109463800D03*
%TD*%
D14*
%TO.P,C37,1*%
%TO.N,Earth*%
X207080000Y-123500000D03*
%TO.P,C37,2*%
%TO.N,+3.3V*%
X206120000Y-123500000D03*
%TD*%
D47*
%TO.P,R20,1*%
%TO.N,+3.3V*%
X213110000Y-85300000D03*
%TO.P,R20,2*%
%TO.N,/ESP32-S3-WROOM-1/SDA*%
X212090000Y-85300000D03*
%TD*%
D18*
%TO.P,C15,1*%
%TO.N,Earth*%
X174100000Y-51720000D03*
%TO.P,C15,2*%
%TO.N,+3.3V*%
X174100000Y-52680000D03*
%TD*%
%TO.P,C38,1*%
%TO.N,Earth*%
X200270000Y-116465000D03*
%TO.P,C38,2*%
%TO.N,+3.3V*%
X200270000Y-117425000D03*
%TD*%
D20*
%TO.P,J7,1,Pin_1*%
%TO.N,unconnected-(J7-Pin_1-Pad1)*%
X221790000Y-110280000D03*
D21*
%TO.P,J7,2,Pin_2*%
%TO.N,+5V*%
X219250000Y-110280000D03*
%TO.P,J7,3,Pin_3*%
%TO.N,PICO_SDA*%
X221790000Y-107740000D03*
%TO.P,J7,4,Pin_4*%
%TO.N,+5V*%
X219250000Y-107740000D03*
%TO.P,J7,5,Pin_5*%
%TO.N,PICO_SCL*%
X221790000Y-105200000D03*
%TO.P,J7,6,Pin_6*%
%TO.N,Earth*%
X219250000Y-105200000D03*
%TO.P,J7,7,Pin_7*%
%TO.N,unconnected-(J7-Pin_7-Pad7)*%
X221790000Y-102660000D03*
%TO.P,J7,8,Pin_8*%
%TO.N,unconnected-(J7-Pin_8-Pad8)*%
X219250000Y-102660000D03*
%TO.P,J7,9,Pin_9*%
%TO.N,Earth*%
X221790000Y-100120000D03*
%TO.P,J7,10,Pin_10*%
%TO.N,unconnected-(J7-Pin_10-Pad10)*%
X219250000Y-100120000D03*
%TO.P,J7,11,Pin_11*%
%TO.N,unconnected-(J7-Pin_11-Pad11)*%
X221790000Y-97580000D03*
%TO.P,J7,12,Pin_12*%
%TO.N,unconnected-(J7-Pin_12-Pad12)*%
X219250000Y-97580000D03*
%TO.P,J7,13,Pin_13*%
%TO.N,unconnected-(J7-Pin_13-Pad13)*%
X221790000Y-95040000D03*
%TO.P,J7,14,Pin_14*%
%TO.N,unconnected-(J7-Pin_14-Pad14)*%
X219250000Y-95040000D03*
%TO.P,J7,15,Pin_15*%
%TO.N,unconnected-(J7-Pin_15-Pad15)*%
X221790000Y-92500000D03*
%TO.P,J7,16,Pin_16*%
%TO.N,unconnected-(J7-Pin_16-Pad16)*%
X219250000Y-92500000D03*
%TO.P,J7,17,Pin_17*%
%TO.N,unconnected-(J7-Pin_17-Pad17)*%
X221790000Y-89960000D03*
%TO.P,J7,18,Pin_18*%
%TO.N,unconnected-(J7-Pin_18-Pad18)*%
X219250000Y-89960000D03*
%TO.P,J7,19,Pin_19*%
%TO.N,unconnected-(J7-Pin_19-Pad19)*%
X221790000Y-87420000D03*
%TO.P,J7,20,Pin_20*%
%TO.N,unconnected-(J7-Pin_20-Pad20)*%
X219250000Y-87420000D03*
%TO.P,J7,21,Pin_21*%
%TO.N,unconnected-(J7-Pin_21-Pad21)*%
X221790000Y-84880000D03*
%TO.P,J7,22,Pin_22*%
%TO.N,unconnected-(J7-Pin_22-Pad22)*%
X219250000Y-84880000D03*
%TO.P,J7,23,Pin_23*%
%TO.N,unconnected-(J7-Pin_23-Pad23)*%
X221790000Y-82340000D03*
%TO.P,J7,24,Pin_24*%
%TO.N,unconnected-(J7-Pin_24-Pad24)*%
X219250000Y-82340000D03*
%TO.P,J7,25,Pin_25*%
%TO.N,Earth*%
X221790000Y-79800000D03*
%TO.P,J7,26,Pin_26*%
%TO.N,unconnected-(J7-Pin_26-Pad26)*%
X219250000Y-79800000D03*
%TO.P,J7,27,Pin_27*%
%TO.N,/ESP32-S3-WROOM-1/SDA*%
X221790000Y-77260000D03*
%TO.P,J7,28,Pin_28*%
%TO.N,/ESP32-S3-WROOM-1/SCL*%
X219250000Y-77260000D03*
%TO.P,J7,29,Pin_29*%
%TO.N,unconnected-(J7-Pin_29-Pad29)*%
X221790000Y-74720000D03*
%TO.P,J7,30,Pin_30*%
%TO.N,unconnected-(J7-Pin_30-Pad30)*%
X219250000Y-74720000D03*
%TO.P,J7,31,Pin_31*%
%TO.N,unconnected-(J7-Pin_31-Pad31)*%
X221790000Y-72180000D03*
%TO.P,J7,32,Pin_32*%
%TO.N,unconnected-(J7-Pin_32-Pad32)*%
X219250000Y-72180000D03*
%TO.P,J7,33,Pin_33*%
%TO.N,unconnected-(J7-Pin_33-Pad33)*%
X221790000Y-69640000D03*
%TO.P,J7,34,Pin_34*%
%TO.N,unconnected-(J7-Pin_34-Pad34)*%
X219250000Y-69640000D03*
%TO.P,J7,35,Pin_35*%
%TO.N,unconnected-(J7-Pin_35-Pad35)*%
X221790000Y-67100000D03*
%TO.P,J7,36,Pin_36*%
%TO.N,unconnected-(J7-Pin_36-Pad36)*%
X219250000Y-67100000D03*
%TO.P,J7,37,Pin_37*%
%TO.N,unconnected-(J7-Pin_37-Pad37)*%
X221790000Y-64560000D03*
%TO.P,J7,38,Pin_38*%
%TO.N,unconnected-(J7-Pin_38-Pad38)*%
X219250000Y-64560000D03*
%TO.P,J7,39,Pin_39*%
%TO.N,Earth*%
X221790000Y-62020000D03*
%TO.P,J7,40,Pin_40*%
%TO.N,unconnected-(J7-Pin_40-Pad40)*%
X219250000Y-62020000D03*
%TD*%
D37*
%TO.P,P6,6,6*%
%TO.N,/Pico/M6_Out_B*%
X184788800Y-146387200D03*
%TO.P,P6,5,5*%
%TO.N,Earth*%
X184788800Y-144887201D03*
%TO.P,P6,4,4*%
%TO.N,/Pico/M6_Enc_B*%
X184788800Y-143387201D03*
%TO.P,P6,3,3*%
%TO.N,/Pico/M6_Enc_A*%
X184788800Y-141887199D03*
%TO.P,P6,2,2*%
%TO.N,+3.3V*%
X184788800Y-140387200D03*
%TO.P,P6,1,1*%
%TO.N,/Pico/M6_Out_A*%
X184788800Y-138887200D03*
%TD*%
D18*
%TO.P,C20,1*%
%TO.N,Earth*%
X172974000Y-55461000D03*
%TO.P,C20,2*%
%TO.N,/ESP32-S3-WROOM-1/ADC1*%
X172974000Y-56421000D03*
%TD*%
D22*
%TO.P,U5,1,VM*%
%TO.N,VCC*%
X196168800Y-135837200D03*
%TO.P,U5,2,AOUT1*%
%TO.N,/Pico/M4_Out_A*%
X196668800Y-135837200D03*
%TO.P,U5,3,AOUT2*%
%TO.N,/Pico/M4_Out_B*%
X197168800Y-135837200D03*
%TO.P,U5,4,BOUT1*%
%TO.N,/Pico/M3_Out_B*%
X197668800Y-135837200D03*
%TO.P,U5,5,BOUT2*%
%TO.N,/Pico/M3_Out_A*%
X198168800Y-135837200D03*
%TO.P,U5,6,GND*%
%TO.N,Earth*%
X198668800Y-135837200D03*
%TO.P,U5,7,BIN2_BENBL*%
%TO.N,/Pico/Motor_3_A*%
X198668800Y-133937200D03*
%TO.P,U5,8,BIN1_BPHASE*%
%TO.N,/Pico/Motor_3_B*%
X198168800Y-133937200D03*
%TO.P,U5,9,AIN2_AENBL*%
%TO.N,/Pico/Motor_4_B*%
X197668800Y-133937200D03*
%TO.P,U5,10,AIN1_APHASE*%
%TO.N,/Pico/Motor_4_A*%
X197168800Y-133937200D03*
%TO.P,U5,11,MODE*%
%TO.N,unconnected-(U5-MODE-Pad11)*%
X196668800Y-133937200D03*
%TO.P,U5,12,VCC*%
%TO.N,+3.3V*%
X196168800Y-133937200D03*
D23*
%TO.P,U5,13,GND*%
%TO.N,Earth*%
X196418800Y-134887200D03*
X197418800Y-134887200D03*
D24*
X197418800Y-134887200D03*
X197418800Y-134887200D03*
D23*
X198418800Y-134887200D03*
%TD*%
D20*
%TO.P,J14,1,Pin_1*%
%TO.N,/ESP32-S3-WROOM-1/GPIO42*%
X201840000Y-55210000D03*
D21*
%TO.P,J14,2,Pin_2*%
%TO.N,/ESP32-S3-WROOM-1/GPIO41*%
X201840000Y-57750000D03*
%TO.P,J14,3,Pin_3*%
%TO.N,/ESP32-S3-WROOM-1/GPIO40*%
X201840000Y-60290000D03*
%TO.P,J14,4,Pin_4*%
%TO.N,/ESP32-S3-WROOM-1/GPIO39*%
X201840000Y-62830000D03*
%TO.P,J14,5,Pin_5*%
%TO.N,/ESP32-S3-WROOM-1/GPIO38*%
X201840000Y-65370000D03*
%TO.P,J14,6,Pin_6*%
%TO.N,/ESP32-S3-WROOM-1/GPIO37*%
X201840000Y-67910000D03*
%TO.P,J14,7,Pin_7*%
%TO.N,/ESP32-S3-WROOM-1/GPIO36*%
X201840000Y-70450000D03*
%TO.P,J14,8,Pin_8*%
%TO.N,/ESP32-S3-WROOM-1/GPIO35*%
X201840000Y-72990000D03*
%TO.P,J14,9,Pin_9*%
%TO.N,/ESP32-S3-WROOM-1/GPIO45*%
X201840000Y-75530000D03*
%TD*%
D28*
%TO.P,C10,1*%
%TO.N,Net-(U4-VREG_VOUT)*%
X206120000Y-122500000D03*
%TO.P,C10,2*%
%TO.N,Earth*%
X207080000Y-122500000D03*
%TD*%
D18*
%TO.P,C28,1*%
%TO.N,Net-(U9-~{RESET})*%
X163350000Y-116320000D03*
%TO.P,C28,2*%
%TO.N,Earth*%
X163350000Y-117280000D03*
%TD*%
D26*
%TO.P,R14,1*%
%TO.N,+3.3V*%
X159000000Y-69020000D03*
%TO.P,R14,2*%
%TO.N,/ESP_PU*%
X159000000Y-68000000D03*
%TD*%
D30*
%TO.P,R34,1*%
%TO.N,+3.3V*%
X199540100Y-112052600D03*
%TO.P,R34,2*%
%TO.N,PICO_SCL*%
X199540100Y-113072600D03*
%TD*%
D48*
%TO.P,J1,1,Pin_1*%
%TO.N,Earth*%
X154920000Y-129730000D03*
D49*
%TO.P,J1,2,Pin_2*%
%TO.N,VS*%
X154920000Y-132230000D03*
%TD*%
D43*
%TO.P,H1,1,1*%
%TO.N,unconnected-(H1-Pad1)*%
X155000000Y-55000000D03*
D44*
%TO.N,unconnected-(H1-Pad1)_0*%
X155000000Y-55000000D03*
%TD*%
D18*
%TO.P,C43,1*%
%TO.N,+1V8*%
X194250000Y-100220000D03*
%TO.P,C43,2*%
%TO.N,Earth*%
X194250000Y-101180000D03*
%TD*%
D28*
%TO.P,C5,1*%
%TO.N,/ESP_PU*%
X159050000Y-66660000D03*
%TO.P,C5,2*%
%TO.N,Earth*%
X160010000Y-66660000D03*
%TD*%
D30*
%TO.P,R33,1*%
%TO.N,+1V8*%
X193446400Y-112242600D03*
%TO.P,R33,2*%
%TO.N,/Pico/IMU/SCL*%
X193446400Y-113262600D03*
%TD*%
D14*
%TO.P,C13,1*%
%TO.N,+3.3V*%
X180997800Y-118160800D03*
%TO.P,C13,2*%
%TO.N,Earth*%
X180037800Y-118160800D03*
%TD*%
D37*
%TO.P,P2,1,1*%
%TO.N,/Pico/M2_Out_A*%
X204788800Y-138887200D03*
%TO.P,P2,2,2*%
%TO.N,+3.3V*%
X204788800Y-140387200D03*
%TO.P,P2,3,3*%
%TO.N,/Pico/M2_Enc_A*%
X204788800Y-141887199D03*
%TO.P,P2,4,4*%
%TO.N,/Pico/M2_Enc_B*%
X204788800Y-143387201D03*
%TO.P,P2,5,5*%
%TO.N,Earth*%
X204788800Y-144887201D03*
%TO.P,P2,6,6*%
%TO.N,/Pico/M2_Out_B*%
X204788800Y-146387200D03*
%TD*%
%TO.P,P1,1,1*%
%TO.N,/Pico/M1_Out_A*%
X209788800Y-138887200D03*
%TO.P,P1,2,2*%
%TO.N,+3.3V*%
X209788800Y-140387200D03*
%TO.P,P1,3,3*%
%TO.N,/Pico/M1_Enc_A*%
X209788800Y-141887199D03*
%TO.P,P1,4,4*%
%TO.N,/Pico/M1_Enc_B*%
X209788800Y-143387201D03*
%TO.P,P1,5,5*%
%TO.N,Earth*%
X209788800Y-144887201D03*
%TO.P,P1,6,6*%
%TO.N,/Pico/M1_Out_B*%
X209788800Y-146387200D03*
%TD*%
D19*
%TO.P,C31,1*%
%TO.N,+1V8*%
X188163200Y-96100000D03*
%TO.P,C31,2*%
%TO.N,Earth*%
X188163200Y-95140000D03*
%TD*%
D18*
%TO.P,C33,1*%
%TO.N,Earth*%
X217093800Y-136931400D03*
%TO.P,C33,2*%
%TO.N,+5V*%
X217093800Y-137891400D03*
%TD*%
D26*
%TO.P,R2,1*%
%TO.N,Net-(J2-CC1)*%
X160300000Y-73510000D03*
%TO.P,R2,2*%
%TO.N,Earth*%
X160300000Y-72490000D03*
%TD*%
D18*
%TO.P,C16,1*%
%TO.N,Earth*%
X172820800Y-51699000D03*
%TO.P,C16,2*%
%TO.N,+3.3V*%
X172820800Y-52659000D03*
%TD*%
D50*
%TO.P,U8,1,GND*%
%TO.N,Earth*%
X178750000Y-51240000D03*
%TO.P,U8,2,3V3*%
%TO.N,+3.3V*%
X178750000Y-52510000D03*
%TO.P,U8,3,EN*%
%TO.N,/ESP_PU*%
X178750000Y-53780000D03*
%TO.P,U8,4,GPIO4/TOUCH4/ADC1_CH3*%
%TO.N,/ESP32-S3-WROOM-1/ADC0*%
X178750000Y-55050000D03*
%TO.P,U8,5,GPIO5/TOUCH5/ADC1_CH4*%
%TO.N,/ESP32-S3-WROOM-1/ADC1*%
X178750000Y-56320000D03*
%TO.P,U8,6,GPIO6/TOUCH6/ADC1_CH5*%
%TO.N,/ESP32-S3-WROOM-1/ADC2*%
X178750000Y-57590000D03*
%TO.P,U8,7,GPIO7/TOUCH7/ADC1_CH6*%
%TO.N,/ESP32-S3-WROOM-1/ADC3*%
X178750000Y-58860000D03*
%TO.P,U8,8,GPIO15/U0RTS/ADC2_CH4/XTAL_32K_P*%
%TO.N,/ESP32-S3-WROOM-1/GPIO_15*%
X178750000Y-60130000D03*
%TO.P,U8,9,GPIO16/U0CTS/ADC2_CH5/XTAL_32K_N*%
%TO.N,/ESP32-S3-WROOM-1/GPIO_16*%
X178750000Y-61400000D03*
%TO.P,U8,10,GPIO17/U1TXD/ADC2_CH6*%
%TO.N,/ESP32-S3-WROOM-1/GPIO_17*%
X178750000Y-62670000D03*
%TO.P,U8,11,GPIO18/U1RXD/ADC2_CH7/CLK_OUT3*%
%TO.N,/ESP32-S3-WROOM-1/GPIO_18*%
X178750000Y-63940000D03*
%TO.P,U8,12,GPIO8/TOUCH8/ADC1_CH7/SUBSPICS1*%
%TO.N,/ESP32-S3-WROOM-1/GPIO_8*%
X178750000Y-65210000D03*
%TO.P,U8,13,GPIO19/U1RTS/ADC2_CH8/CLK_OUT2/USB_D-*%
%TO.N,/ESP_USB_D-*%
X178750000Y-66480000D03*
%TO.P,U8,14,GPIO20/U1CTS/ADC2_CH9/CLK_OUT1/USB_D+*%
%TO.N,/ESP_USB_D+*%
X178750000Y-67750000D03*
D16*
%TO.P,U8,15,GPIO3/TOUCH3/ADC1_CH2*%
%TO.N,/ESP32-S3-WROOM-1/Battery_Voltage_Monitor*%
X180515000Y-69000000D03*
%TO.P,U8,16,GPIO46*%
%TO.N,/ESP32-S3-WROOM-1/Handshake*%
X181785000Y-69000000D03*
%TO.P,U8,17,GPIO9/TOUCH9/ADC1_CH8/FSPIHD/SUBSPIHD*%
%TO.N,/ESP32-S3-WROOM-1/ESP_CS1*%
X183055000Y-69000000D03*
%TO.P,U8,18,GPIO10/TOUCH10/ADC1_CH9/FSPICS0/FSPIIO4/SUBSPICS0*%
%TO.N,/ESP32-S3-WROOM-1/ESP_CS0*%
X184325000Y-69000000D03*
%TO.P,U8,19,GPIO11/TOUCH11/ADC2_CH0/FSPID/FSPIIO5/SUBSPID*%
%TO.N,/ESP32-S3-WROOM-1/ESP_MOSI*%
X185595000Y-69000000D03*
%TO.P,U8,20,GPIO12/TOUCH12/ADC2_CH1/FSPICLK/FSPIIO6/SUBSPICLK*%
%TO.N,/ESP32-S3-WROOM-1/ESP_SCLK*%
X186865000Y-69000000D03*
%TO.P,U8,21,GPIO13/TOUCH13/ADC2_CH2/FSPIQ/FSPIIO7/SUBSPIQ*%
%TO.N,/ESP32-S3-WROOM-1/ESP_MISO*%
X188135000Y-69000000D03*
%TO.P,U8,22,GPIO14/TOUCH14/ADC2_CH3/FSPIWP/FSPIDQS/SUBSPIWP*%
%TO.N,/ESP32-S3-WROOM-1/Handshake2*%
X189405000Y-69000000D03*
%TO.P,U8,23,GPIO21*%
%TO.N,/ESP32-S3-WROOM-1/ESP_CS2*%
X190675000Y-69000000D03*
%TO.P,U8,24,GPIO47/SPICLK_P/SUBSPICLK_P_DIFF*%
%TO.N,/ESP32-S3-WROOM-1/SDA*%
X191945000Y-69000000D03*
%TO.P,U8,25,GPIO48/SPICLK_N/SUBSPICLK_N_DIFF*%
%TO.N,/ESP32-S3-WROOM-1/SCL*%
X193215000Y-69000000D03*
%TO.P,U8,26,GPIO45*%
%TO.N,/ESP32-S3-WROOM-1/GPIO45*%
X194485000Y-69000000D03*
D50*
%TO.P,U8,27,GPIO0/BOOT*%
%TO.N,Net-(U8-GPIO0{slash}BOOT)*%
X196250000Y-67750000D03*
%TO.P,U8,28,SPIIO6/GPIO35/FSPID/SUBSPID*%
%TO.N,/ESP32-S3-WROOM-1/GPIO35*%
X196250000Y-66480000D03*
%TO.P,U8,29,SPIIO7/GPIO36/FSPICLK/SUBSPICLK*%
%TO.N,/ESP32-S3-WROOM-1/GPIO36*%
X196250000Y-65210000D03*
%TO.P,U8,30,SPIDQS/GPIO37/FSPIQ/SUBSPIQ*%
%TO.N,/ESP32-S3-WROOM-1/GPIO37*%
X196250000Y-63940000D03*
%TO.P,U8,31,GPIO38/FSPIWP/SUBSPIWP*%
%TO.N,/ESP32-S3-WROOM-1/GPIO38*%
X196250000Y-62670000D03*
%TO.P,U8,32,MTCK/GPIO39/CLK_OUT3/SUBSPICS1*%
%TO.N,/ESP32-S3-WROOM-1/GPIO39*%
X196250000Y-61400000D03*
%TO.P,U8,33,MTDO/GPIO40/CLK_OUT2*%
%TO.N,/ESP32-S3-WROOM-1/GPIO40*%
X196250000Y-60130000D03*
%TO.P,U8,34,MTDI/GPIO41/CLK_OUT1*%
%TO.N,/ESP32-S3-WROOM-1/GPIO41*%
X196250000Y-58860000D03*
%TO.P,U8,35,MTMS/GPIO42*%
%TO.N,/ESP32-S3-WROOM-1/GPIO42*%
X196250000Y-57590000D03*
%TO.P,U8,36,U0RXD/GPIO44/CLK_OUT2*%
%TO.N,Pico_SDA1*%
X196250000Y-56320000D03*
%TO.P,U8,37,U0TXD/GPIO43/CLK_OUT1*%
%TO.N,Pico_SCL1*%
X196250000Y-55050000D03*
%TO.P,U8,38,GPIO2/TOUCH2/ADC1_CH1*%
%TO.N,unconnected-(U8-GPIO2{slash}TOUCH2{slash}ADC1_CH1-Pad38)*%
X196250000Y-53780000D03*
%TO.P,U8,39,GPIO1/TOUCH1/ADC1_CH0*%
%TO.N,/ESP32-S3-WROOM-1/LED_DIN*%
X196250000Y-52510000D03*
%TO.P,U8,40,GND*%
%TO.N,Earth*%
X196250000Y-51240000D03*
D51*
%TO.P,U8,41,GND*%
X184600000Y-57560000D03*
X184600000Y-58960000D03*
X184600000Y-60360000D03*
X184600000Y-60360000D03*
X186000000Y-57560000D03*
X186000000Y-57560000D03*
X186000000Y-58960000D03*
X186000000Y-60360000D03*
X187400000Y-57560000D03*
X187400000Y-58960000D03*
X187400000Y-60360000D03*
%TD*%
D14*
%TO.P,C18,1*%
%TO.N,Earth*%
X213890000Y-72840000D03*
%TO.P,C18,2*%
%TO.N,Net-(U8-GPIO0{slash}BOOT)*%
X212930000Y-72840000D03*
%TD*%
D52*
%TO.P,U2,1,GND*%
%TO.N,Earth*%
X168173000Y-83069400D03*
%TO.P,U2,2,VO*%
%TO.N,+3.3V*%
X168173000Y-85369400D03*
D53*
X174473000Y-85369400D03*
D52*
%TO.P,U2,3,VI*%
%TO.N,VCC*%
X168173000Y-87669400D03*
%TD*%
D19*
%TO.P,C39,1*%
%TO.N,+3.3V*%
X194980000Y-119365000D03*
%TO.P,C39,2*%
%TO.N,Earth*%
X194980000Y-118405000D03*
%TD*%
D26*
%TO.P,R28,1*%
%TO.N,/ESP32-S3-WROOM-1/USB_TX*%
X171400000Y-118800000D03*
%TO.P,R28,2*%
%TO.N,Net-(U9-RXD)*%
X171400000Y-117780000D03*
%TD*%
D14*
%TO.P,C42,1*%
%TO.N,Net-(U4-VREG_VOUT)*%
X190980000Y-124650000D03*
%TO.P,C42,2*%
%TO.N,Earth*%
X190020000Y-124650000D03*
%TD*%
D16*
%TO.P,D5,1,VDD*%
%TO.N,+5V*%
X219254800Y-137742000D03*
%TO.P,D5,2,DOUT*%
%TO.N,unconnected-(D5-DOUT-Pad2)*%
X222554800Y-137742000D03*
%TO.P,D5,3,VSS*%
%TO.N,Earth*%
X222554800Y-132842000D03*
%TO.P,D5,4,DIN*%
%TO.N,Net-(D5-DIN)*%
X219254800Y-132842000D03*
%TD*%
D34*
%TO.P,J5,1,1*%
%TO.N,+5V*%
X210300000Y-116850000D03*
D35*
%TO.P,J5,2,2*%
%TO.N,PICO_SDA*%
X210300000Y-114350000D03*
%TO.P,J5,3,3*%
%TO.N,PICO_SCL*%
X210300000Y-111850000D03*
%TO.P,J5,4,4*%
%TO.N,Earth*%
X210300000Y-109350000D03*
%TD*%
D54*
%TO.P,U9,1,RXD*%
%TO.N,Net-(U9-RXD)*%
X165354000Y-108901000D03*
%TO.P,U9,2,~{RI}*%
%TO.N,unconnected-(U9-~{RI}-Pad2)*%
X164854000Y-108901000D03*
%TO.P,U9,3,GND*%
%TO.N,Earth*%
X164354000Y-108901000D03*
%TO.P,U9,4,~{DSR}*%
%TO.N,unconnected-(U9-~{DSR}-Pad4)*%
X163854000Y-108901000D03*
%TO.P,U9,5,~{DCD}*%
%TO.N,unconnected-(U9-~{DCD}-Pad5)*%
X163354000Y-108901000D03*
D55*
%TO.P,U9,6,~{CTS}*%
%TO.N,unconnected-(U9-~{CTS}-Pad6)*%
X162416500Y-109838500D03*
%TO.P,U9,7,CBUS2*%
%TO.N,unconnected-(U9-CBUS2-Pad7)*%
X162416500Y-110338500D03*
%TO.P,U9,8,USBDP*%
%TO.N,Net-(U9-USBDP)*%
X162416500Y-110838500D03*
%TO.P,U9,9,USBDM*%
%TO.N,Net-(U9-USBDM)*%
X162416500Y-111338500D03*
%TO.P,U9,10,3V3OUT*%
%TO.N,/ESP32-S3-WROOM-1/ESP32CAM/3.3V_Out*%
X162416500Y-111838500D03*
D54*
%TO.P,U9,11,~{RESET}*%
%TO.N,Net-(U9-~{RESET})*%
X163354000Y-112776000D03*
%TO.P,U9,12,VCC*%
%TO.N,/ESP32-S3-WROOM-1/ESP32CAM/V_USB*%
X163854000Y-112776000D03*
%TO.P,U9,13,GND*%
%TO.N,Earth*%
X164354000Y-112776000D03*
%TO.P,U9,14,CBUS1*%
%TO.N,unconnected-(U9-CBUS1-Pad14)*%
X164854000Y-112776000D03*
%TO.P,U9,15,CBUS0*%
%TO.N,unconnected-(U9-CBUS0-Pad15)*%
X165354000Y-112776000D03*
D55*
%TO.P,U9,16,CBUS3*%
%TO.N,unconnected-(U9-CBUS3-Pad16)*%
X166291500Y-111838500D03*
%TO.P,U9,17,TXD*%
%TO.N,Net-(U9-TXD)*%
X166291500Y-111338500D03*
%TO.P,U9,18,~{DTR}*%
%TO.N,unconnected-(U9-~{DTR}-Pad18)*%
X166291500Y-110838500D03*
%TO.P,U9,19,~{RTS}*%
%TO.N,unconnected-(U9-~{RTS}-Pad19)*%
X166291500Y-110338500D03*
%TO.P,U9,20,VCCIO*%
%TO.N,/ESP32-S3-WROOM-1/ESP32CAM/3.3V_Out*%
X166291500Y-109838500D03*
D56*
%TO.P,U9,21,GND*%
%TO.N,Earth*%
X164354000Y-110838500D03*
%TD*%
D47*
%TO.P,R16,1*%
%TO.N,Net-(U4-USB_DM)*%
X190950000Y-121180000D03*
%TO.P,R16,2*%
%TO.N,/Pico/USB_DP_Pico*%
X189930000Y-121180000D03*
%TD*%
D37*
%TO.P,P5,1,1*%
%TO.N,/Pico/M5_Out_A*%
X189788800Y-138887200D03*
%TO.P,P5,2,2*%
%TO.N,+3.3V*%
X189788800Y-140387200D03*
%TO.P,P5,3,3*%
%TO.N,/Pico/M5_Enc_A*%
X189788800Y-141887199D03*
%TO.P,P5,4,4*%
%TO.N,/Pico/M5_Enc_B*%
X189788800Y-143387201D03*
%TO.P,P5,5,5*%
%TO.N,Earth*%
X189788800Y-144887201D03*
%TO.P,P5,6,6*%
%TO.N,/Pico/M5_Out_B*%
X189788800Y-146387200D03*
%TD*%
D57*
%TO.P,U1,1,FB*%
%TO.N,+5V*%
X194950000Y-92925000D03*
%TO.P,U1,2,EN*%
%TO.N,VCC*%
X194000000Y-92925000D03*
%TO.P,U1,3,IN*%
X193050000Y-92925000D03*
%TO.P,U1,4,GND*%
%TO.N,Earth*%
X193050000Y-95200000D03*
%TO.P,U1,5,SW*%
%TO.N,Net-(U1-SW)*%
X194000000Y-95200000D03*
%TO.P,U1,6,BST*%
%TO.N,Net-(U1-BST)*%
X194950000Y-95200000D03*
%TD*%
D58*
%TO.P,U11,1,SCL/SPC*%
%TO.N,/Pico/IMU/SCL*%
X187712500Y-107812500D03*
%TO.P,U11,2,GND*%
%TO.N,Earth*%
X187712500Y-107312500D03*
%TO.P,U11,3,GND*%
X187712500Y-106812500D03*
%TO.P,U11,4,C1*%
%TO.N,+3.3V*%
X187712500Y-106312500D03*
D59*
%TO.P,U11,5,Vdd*%
X187200000Y-106300000D03*
%TO.P,U11,6,Vdd_IO*%
%TO.N,+1V8*%
X186700000Y-106300000D03*
D58*
%TO.P,U11,7,INT*%
%TO.N,unconnected-(U11-INT-Pad7)*%
X186187500Y-106312500D03*
%TO.P,U11,8,DRDY*%
%TO.N,unconnected-(U11-DRDY-Pad8)*%
X186187500Y-106812500D03*
%TO.P,U11,9,SDO/SA1*%
%TO.N,unconnected-(U11-SDO{slash}SA1-Pad9)*%
X186187500Y-107312500D03*
%TO.P,U11,10,~{CS}*%
%TO.N,+3.3V*%
X186187500Y-107812500D03*
D59*
%TO.P,U11,11,SDA/SDI/SDO*%
%TO.N,/Pico/IMU/SDA*%
X186700000Y-107825000D03*
%TO.P,U11,12,GND*%
%TO.N,Earth*%
X187200000Y-107825000D03*
%TD*%
D60*
%TO.P,J3,A1,GND*%
%TO.N,Earth*%
X156499800Y-84132588D03*
%TO.P,J3,A4,VBUS*%
%TO.N,/V_USB_2*%
X156499800Y-84932588D03*
D61*
%TO.P,J3,A5,CC1*%
%TO.N,Net-(J3-CC1)*%
X156499800Y-86082588D03*
%TO.P,J3,A6,D+*%
%TO.N,/Pico/USB_DP_Pico*%
X156499800Y-87082588D03*
%TO.P,J3,A7,D-*%
%TO.N,/Pico/USB_DM_Pico*%
X156499800Y-87582588D03*
%TO.P,J3,A8,SBU1*%
%TO.N,unconnected-(J3-SBU1-PadA8)*%
X156499800Y-88582588D03*
D60*
%TO.P,J3,A9,VBUS*%
%TO.N,/V_USB_2*%
X156499800Y-89732588D03*
%TO.P,J3,A12,GND*%
%TO.N,Earth*%
X156499800Y-90532588D03*
%TO.P,J3,B1,GND*%
X156499800Y-90532588D03*
%TO.P,J3,B4,VBUS*%
%TO.N,/V_USB_2*%
X156499800Y-89732588D03*
D61*
%TO.P,J3,B5,CC2*%
%TO.N,Net-(J3-CC2)*%
X156499800Y-89082588D03*
%TO.P,J3,B6,D+*%
%TO.N,/Pico/USB_DP_Pico*%
X156499800Y-88082588D03*
%TO.P,J3,B7,D-*%
%TO.N,/Pico/USB_DM_Pico*%
X156499800Y-86582588D03*
%TO.P,J3,B8,SBU2*%
%TO.N,unconnected-(J3-SBU2-PadB8)*%
X156499800Y-85582588D03*
D60*
%TO.P,J3,B9,VBUS*%
%TO.N,/V_USB_2*%
X156499800Y-84932588D03*
%TO.P,J3,B12,GND*%
%TO.N,Earth*%
X156499800Y-84132588D03*
D62*
%TO.P,J3,S1,SHIELD*%
X155899800Y-83012588D03*
D63*
X151699800Y-83012588D03*
D62*
X155899800Y-91652588D03*
D63*
X151699800Y-91652588D03*
%TD*%
D19*
%TO.P,C21,1*%
%TO.N,Earth*%
X171580000Y-58550000D03*
%TO.P,C21,2*%
%TO.N,/ESP32-S3-WROOM-1/ADC2*%
X171580000Y-57590000D03*
%TD*%
D43*
%TO.P,H2,1,1*%
%TO.N,unconnected-(H2-Pad1)*%
X220000000Y-55000000D03*
D44*
%TO.N,unconnected-(H2-Pad1)_0*%
X220000000Y-55000000D03*
%TD*%
D15*
%TO.P,R21,1*%
%TO.N,+3.3V*%
X212090000Y-82900000D03*
%TO.P,R21,2*%
%TO.N,/ESP32-S3-WROOM-1/SCL*%
X213110000Y-82900000D03*
%TD*%
D64*
%TO.P,R32,1*%
%TO.N,VS*%
X164268299Y-143071800D03*
%TO.P,R32,2*%
%TO.N,Net-(SW1-A)*%
X166093299Y-143071800D03*
%TD*%
D15*
%TO.P,R6,1*%
%TO.N,Net-(J3-CC1)*%
X162290000Y-86233000D03*
%TO.P,R6,2*%
%TO.N,Earth*%
X163310000Y-86233000D03*
%TD*%
D60*
%TO.P,J2,A1,GND*%
%TO.N,Earth*%
X156647400Y-71831790D03*
%TO.P,J2,A4,VBUS*%
%TO.N,/V_USB_1*%
X156647400Y-72631790D03*
D61*
%TO.P,J2,A5,CC1*%
%TO.N,Net-(J2-CC1)*%
X156647400Y-73781790D03*
%TO.P,J2,A6,D+*%
%TO.N,/ESP_USB_D+*%
X156647400Y-74781790D03*
%TO.P,J2,A7,D-*%
%TO.N,/ESP_USB_D-*%
X156647400Y-75281790D03*
%TO.P,J2,A8,SBU1*%
%TO.N,unconnected-(J2-SBU1-PadA8)*%
X156647400Y-76281790D03*
D60*
%TO.P,J2,A9,VBUS*%
%TO.N,/V_USB_1*%
X156647400Y-77431790D03*
%TO.P,J2,A12,GND*%
%TO.N,Earth*%
X156647400Y-78231790D03*
%TO.P,J2,B1,GND*%
X156647400Y-78231790D03*
%TO.P,J2,B4,VBUS*%
%TO.N,/V_USB_1*%
X156647400Y-77431790D03*
D61*
%TO.P,J2,B5,CC2*%
%TO.N,Net-(J2-CC2)*%
X156647400Y-76781790D03*
%TO.P,J2,B6,D+*%
%TO.N,/ESP_USB_D+*%
X156647400Y-75781790D03*
%TO.P,J2,B7,D-*%
%TO.N,/ESP_USB_D-*%
X156647400Y-74281790D03*
%TO.P,J2,B8,SBU2*%
%TO.N,unconnected-(J2-SBU2-PadB8)*%
X156647400Y-73281790D03*
D60*
%TO.P,J2,B9,VBUS*%
%TO.N,/V_USB_1*%
X156647400Y-72631790D03*
%TO.P,J2,B12,GND*%
%TO.N,Earth*%
X156647400Y-71831790D03*
D62*
%TO.P,J2,S1,SHIELD*%
X156047400Y-70711790D03*
D63*
X151847400Y-70711790D03*
D62*
X156047400Y-79351790D03*
D63*
X151847400Y-79351790D03*
%TD*%
D20*
%TO.P,J11,1,Pin_1*%
%TO.N,Earth*%
X195940000Y-80525000D03*
D21*
%TO.P,J11,2,Pin_2*%
%TO.N,/ESP32-S3-WROOM-1/Handshake2*%
X193400000Y-80525000D03*
%TO.P,J11,3,Pin_3*%
%TO.N,/ESP32-S3-WROOM-1/ESP_MISO*%
X190860000Y-80525000D03*
%TO.P,J11,4,Pin_4*%
%TO.N,/ESP32-S3-WROOM-1/ESP_SCLK*%
X188320000Y-80525000D03*
%TO.P,J11,5,Pin_5*%
%TO.N,/ESP32-S3-WROOM-1/ESP_MOSI*%
X185780000Y-80525000D03*
%TO.P,J11,6,Pin_6*%
%TO.N,/ESP32-S3-WROOM-1/ESP_CS0*%
X183240000Y-80525000D03*
%TO.P,J11,7,Pin_7*%
%TO.N,+3.3V*%
X180700000Y-80525000D03*
%TO.P,J11,8,Pin_8*%
%TO.N,VCC*%
X178160000Y-80525000D03*
%TD*%
D28*
%TO.P,C45,1*%
%TO.N,Earth*%
X183150000Y-103900000D03*
%TO.P,C45,2*%
%TO.N,+3.3V*%
X184110000Y-103900000D03*
%TD*%
D26*
%TO.P,R7,1*%
%TO.N,Net-(C6-Pad1)*%
X178155600Y-72595200D03*
%TO.P,R7,2*%
%TO.N,/ESP32-S3-WROOM-1/Battery_Voltage_Monitor*%
X178155600Y-71575200D03*
%TD*%
D19*
%TO.P,C35,1*%
%TO.N,Net-(U4-VREG_VOUT)*%
X193450000Y-121960000D03*
%TO.P,C35,2*%
%TO.N,Earth*%
X193450000Y-121000000D03*
%TD*%
%TO.P,C29,1*%
%TO.N,Earth*%
X186600000Y-101650000D03*
%TO.P,C29,2*%
%TO.N,+1V8*%
X186600000Y-100690000D03*
%TD*%
D65*
%TO.P,SW1,1,A*%
%TO.N,Net-(SW1-A)*%
X165426199Y-147085000D03*
%TO.P,SW1,2,B*%
%TO.N,Net-(Q3-G)*%
X167426200Y-147085000D03*
%TO.P,SW1,3,C*%
%TO.N,Earth*%
X169426201Y-147085000D03*
D66*
%TO.P,SW1,4*%
%TO.N,N/C*%
X163426200Y-147085000D03*
%TO.P,SW1,5*%
X171426200Y-147085000D03*
%TD*%
D26*
%TO.P,R30,1*%
%TO.N,Net-(U9-USBDP)*%
X159993000Y-110290000D03*
%TO.P,R30,2*%
%TO.N,/ESP32-S3-WROOM-1/ESP32CAM/ESPCAM_USB_D+*%
X159993000Y-109270000D03*
%TD*%
D67*
%TO.P,U12,P$1,GND@1*%
%TO.N,Earth*%
X153320000Y-122600000D03*
D68*
%TO.P,U12,P$2,GPIO1*%
%TO.N,/ESP32-S3-WROOM-1/USB_RX*%
X155860000Y-122600000D03*
%TO.P,U12,P$3,GPIO3*%
%TO.N,/ESP32-S3-WROOM-1/USB_TX*%
X158400000Y-122600000D03*
%TO.P,U12,P$4,3V3/5V*%
%TO.N,unconnected-(U12-3V3{slash}5V-PadP$4)*%
X160940000Y-122600000D03*
D67*
%TO.P,U12,P$5,GND@2*%
%TO.N,Earth*%
X163480000Y-122600000D03*
D68*
%TO.P,U12,P$6,GPIO0*%
%TO.N,Net-(J10-Pin_2)*%
X166020000Y-122600000D03*
%TO.P,U12,P$7,GPIO16*%
%TO.N,unconnected-(U12-GPIO16-PadP$7)*%
X168560000Y-122600000D03*
%TO.P,U12,P$8,3V3*%
%TO.N,+3.3V*%
X171100000Y-122600000D03*
%TO.P,U12,P$9,5V*%
%TO.N,unconnected-(U12-5V-PadP$9)*%
X171100000Y-99740000D03*
D67*
%TO.P,U12,P$10,GND@3*%
%TO.N,Earth*%
X168560000Y-99740000D03*
D68*
%TO.P,U12,P$11,GPIO12*%
%TO.N,/ESP32-S3-WROOM-1/ESP_MOSI*%
X166020000Y-99740000D03*
%TO.P,U12,P$12,GPIO13*%
%TO.N,/ESP32-S3-WROOM-1/ESP_MISO*%
X163480000Y-99740000D03*
%TO.P,U12,P$13,GPIO15*%
%TO.N,/ESP32-S3-WROOM-1/ESP_CS1*%
X160940000Y-99740000D03*
%TO.P,U12,P$14,GPIO14*%
%TO.N,/ESP32-S3-WROOM-1/ESP_SCLK*%
X158400000Y-99740000D03*
%TO.P,U12,P$15,GPIO2*%
%TO.N,/ESP32-S3-WROOM-1/Handshake*%
X155860000Y-99740000D03*
%TO.P,U12,P$16,GPIO4*%
%TO.N,unconnected-(U12-GPIO4-PadP$16)*%
X153320000Y-99740000D03*
%TD*%
D19*
%TO.P,C12,1*%
%TO.N,/Pico/XIN*%
X208904400Y-127503900D03*
%TO.P,C12,2*%
%TO.N,Earth*%
X208904400Y-126543900D03*
%TD*%
D15*
%TO.P,R15,1*%
%TO.N,/Pico/USB_DM_Pico*%
X189920000Y-122180000D03*
%TO.P,R15,2*%
%TO.N,Net-(U4-USB_DP)*%
X190940000Y-122180000D03*
%TD*%
D30*
%TO.P,R5,1*%
%TO.N,Net-(J3-CC2)*%
X162255200Y-90625200D03*
%TO.P,R5,2*%
%TO.N,Earth*%
X162255200Y-91645200D03*
%TD*%
D19*
%TO.P,C27,1*%
%TO.N,/ESP32-S3-WROOM-1/ESP32CAM/ESPCAM_USB_D-*%
X158850000Y-113930000D03*
%TO.P,C27,2*%
%TO.N,Earth*%
X158850000Y-112970000D03*
%TD*%
D69*
%TO.P,U10,1,AP_SDO/AP_AD0*%
%TO.N,Earth*%
X192085449Y-102830001D03*
%TO.P,U10,2,RESV*%
%TO.N,unconnected-(U10-RESV-Pad2)*%
X192085449Y-102330000D03*
%TO.P,U10,3,RESV*%
%TO.N,unconnected-(U10-RESV-Pad3)*%
X192085449Y-101830000D03*
%TO.P,U10,4,INT1/INT*%
%TO.N,unconnected-(U10-INT1{slash}INT-Pad4)*%
X192085449Y-101329999D03*
D70*
%TO.P,U10,5,VDDIO*%
%TO.N,+1V8*%
X191455148Y-101191000D03*
%TO.P,U10,6,GND*%
%TO.N,Earth*%
X190955149Y-101191000D03*
%TO.P,U10,7,RESV*%
X190455150Y-101191000D03*
D69*
%TO.P,U10,8,VDD*%
%TO.N,+1V8*%
X189824849Y-101329999D03*
%TO.P,U10,9,INT2/FSYNC/CLKIN*%
%TO.N,unconnected-(U10-INT2{slash}FSYNC{slash}CLKIN-Pad9)*%
X189824849Y-101830000D03*
%TO.P,U10,10,RESV*%
%TO.N,unconnected-(U10-RESV-Pad10)*%
X189824849Y-102330000D03*
%TO.P,U10,11,RESV*%
%TO.N,Earth*%
X189824849Y-102830001D03*
D70*
%TO.P,U10,12,AP_CS*%
%TO.N,+1V8*%
X190455150Y-102969000D03*
%TO.P,U10,13,AP_SCL/AP_SCLK*%
%TO.N,/Pico/IMU/SCL*%
X190955149Y-102969000D03*
%TO.P,U10,14,AP_SDA/AP_SDIO/AP_SDI*%
%TO.N,/Pico/IMU/SDA*%
X191455148Y-102969000D03*
%TD*%
D28*
%TO.P,C9,1*%
%TO.N,Earth*%
X194190000Y-128600000D03*
%TO.P,C9,2*%
%TO.N,+3.3V*%
X195150000Y-128600000D03*
%TD*%
D20*
%TO.P,SWD1,1,Pin_1*%
%TO.N,/Pico/SWCLK*%
X222300800Y-123215400D03*
D21*
%TO.P,SWD1,2,Pin_2*%
%TO.N,Earth*%
X222300800Y-120675400D03*
%TO.P,SWD1,3,Pin_3*%
%TO.N,/Pico/SWD*%
X222300800Y-118135400D03*
%TD*%
D43*
%TO.P,H4,1,1*%
%TO.N,unconnected-(H4-Pad1)*%
X220000000Y-145000000D03*
D44*
%TO.N,unconnected-(H4-Pad1)_0*%
X220000000Y-145000000D03*
%TD*%
D71*
%TO.P,U13,1,VIN*%
%TO.N,+3.3V*%
X184800000Y-96150000D03*
%TO.P,U13,2,GND*%
%TO.N,Earth*%
X184800000Y-96800000D03*
%TO.P,U13,3,EN*%
%TO.N,+3.3V*%
X184800000Y-97450000D03*
%TO.P,U13,4,NC*%
%TO.N,unconnected-(U13-NC-Pad4)*%
X186700000Y-97450000D03*
%TO.P,U13,5,VOUT*%
%TO.N,+1V8*%
X186700000Y-96150000D03*
%TD*%
D72*
%TO.P,C17,1*%
%TO.N,Earth*%
X171243800Y-51834000D03*
%TO.P,C17,2*%
%TO.N,+3.3V*%
X171243800Y-53384000D03*
%TD*%
D47*
%TO.P,R8,1*%
%TO.N,Net-(C6-Pad1)*%
X177191000Y-73507600D03*
%TO.P,R8,2*%
%TO.N,Earth*%
X176171000Y-73507600D03*
%TD*%
D30*
%TO.P,R25,1*%
%TO.N,Net-(U9-TXD)*%
X169600000Y-117780000D03*
%TO.P,R25,2*%
%TO.N,/ESP32-S3-WROOM-1/USB_RX*%
X169600000Y-118800000D03*
%TD*%
D60*
%TO.P,J12,A1,GND*%
%TO.N,Earth*%
X155983800Y-108353200D03*
%TO.P,J12,A4,VBUS*%
%TO.N,/ESP32-S3-WROOM-1/ESP32CAM/V_USB*%
X155983800Y-109153200D03*
D61*
%TO.P,J12,A5,CC1*%
%TO.N,Net-(J12-CC1)*%
X155983800Y-110303200D03*
%TO.P,J12,A6,D+*%
%TO.N,/ESP32-S3-WROOM-1/ESP32CAM/ESPCAM_USB_D+*%
X155983800Y-111303200D03*
%TO.P,J12,A7,D-*%
%TO.N,/ESP32-S3-WROOM-1/ESP32CAM/ESPCAM_USB_D-*%
X155983800Y-111803200D03*
%TO.P,J12,A8,SBU1*%
%TO.N,unconnected-(J12-SBU1-PadA8)*%
X155983800Y-112803200D03*
D60*
%TO.P,J12,A9,VBUS*%
%TO.N,/ESP32-S3-WROOM-1/ESP32CAM/V_USB*%
X155983800Y-113953200D03*
%TO.P,J12,A12,GND*%
%TO.N,Earth*%
X155983800Y-114753200D03*
%TO.P,J12,B1,GND*%
X155983800Y-114753200D03*
%TO.P,J12,B4,VBUS*%
%TO.N,/ESP32-S3-WROOM-1/ESP32CAM/V_USB*%
X155983800Y-113953200D03*
D61*
%TO.P,J12,B5,CC2*%
%TO.N,Net-(J12-CC2)*%
X155983800Y-113303200D03*
%TO.P,J12,B6,D+*%
%TO.N,/ESP32-S3-WROOM-1/ESP32CAM/ESPCAM_USB_D+*%
X155983800Y-112303200D03*
%TO.P,J12,B7,D-*%
%TO.N,/ESP32-S3-WROOM-1/ESP32CAM/ESPCAM_USB_D-*%
X155983800Y-110803200D03*
%TO.P,J12,B8,SBU2*%
%TO.N,unconnected-(J12-SBU2-PadB8)*%
X155983800Y-109803200D03*
D60*
%TO.P,J12,B9,VBUS*%
%TO.N,/ESP32-S3-WROOM-1/ESP32CAM/V_USB*%
X155983800Y-109153200D03*
%TO.P,J12,B12,GND*%
%TO.N,Earth*%
X155983800Y-108353200D03*
D62*
%TO.P,J12,S1,SHIELD*%
X155383800Y-107233200D03*
D63*
X151183800Y-107233200D03*
D62*
X155383800Y-115873200D03*
D63*
X151183800Y-115873200D03*
%TD*%
D14*
%TO.P,C6,1*%
%TO.N,Net-(C6-Pad1)*%
X177159800Y-72517000D03*
%TO.P,C6,2*%
%TO.N,Earth*%
X176199800Y-72517000D03*
%TD*%
%TO.P,C44,1*%
%TO.N,+3.3V*%
X184110000Y-102900000D03*
%TO.P,C44,2*%
%TO.N,Earth*%
X183150000Y-102900000D03*
%TD*%
D18*
%TO.P,C22,1*%
%TO.N,Earth*%
X173431200Y-58524200D03*
%TO.P,C22,2*%
%TO.N,/ESP32-S3-WROOM-1/ADC3*%
X173431200Y-59484200D03*
%TD*%
D20*
%TO.P,J10,1,Pin_1*%
%TO.N,Earth*%
X163535000Y-127620000D03*
D21*
%TO.P,J10,2,Pin_2*%
%TO.N,Net-(J10-Pin_2)*%
X166075000Y-127620000D03*
%TD*%
D19*
%TO.P,C36,1*%
%TO.N,Earth*%
X199950000Y-130000000D03*
%TO.P,C36,2*%
%TO.N,+3.3V*%
X199950000Y-129040000D03*
%TD*%
D26*
%TO.P,R4,1*%
%TO.N,VCC*%
X178181000Y-74527600D03*
%TO.P,R4,2*%
%TO.N,Net-(C6-Pad1)*%
X178181000Y-73507600D03*
%TD*%
D73*
%TO.P,C2,1*%
%TO.N,+5V*%
X193537500Y-88200000D03*
%TO.P,C2,2*%
%TO.N,Earth*%
X188462500Y-88200000D03*
%TD*%
D28*
%TO.P,C30,1*%
%TO.N,+3.3V*%
X181320000Y-96850000D03*
%TO.P,C30,2*%
%TO.N,Earth*%
X182280000Y-96850000D03*
%TD*%
D20*
%TO.P,J6,1,Pin_1*%
%TO.N,/ESP32-S3-WROOM-1/ADC0*%
X168065800Y-52850000D03*
D21*
%TO.P,J6,2,Pin_2*%
%TO.N,/ESP32-S3-WROOM-1/ADC1*%
X168065800Y-55390000D03*
%TO.P,J6,3,Pin_3*%
%TO.N,/ESP32-S3-WROOM-1/ADC2*%
X168065800Y-57930000D03*
%TO.P,J6,4,Pin_4*%
%TO.N,/ESP32-S3-WROOM-1/ADC3*%
X168065800Y-60470000D03*
%TO.P,J6,5,Pin_5*%
%TO.N,/ESP32-S3-WROOM-1/GPIO_15*%
X168065800Y-63010000D03*
%TO.P,J6,6,Pin_6*%
%TO.N,/ESP32-S3-WROOM-1/GPIO_16*%
X168065800Y-65550000D03*
%TO.P,J6,7,Pin_7*%
%TO.N,/ESP32-S3-WROOM-1/GPIO_17*%
X168065800Y-68090000D03*
%TO.P,J6,8,Pin_8*%
%TO.N,/ESP32-S3-WROOM-1/GPIO_18*%
X168065800Y-70630000D03*
%TO.P,J6,9,Pin_9*%
%TO.N,/ESP32-S3-WROOM-1/GPIO_8*%
X168065800Y-73170000D03*
%TD*%
D74*
%TO.N,+1V8*%
X189600000Y-105100000D03*
D75*
X185700000Y-104350000D03*
D74*
X195577700Y-106873000D03*
X189763400Y-96875600D03*
X192301100Y-112105400D03*
%TO.N,PICO_SCL*%
X204300000Y-114150000D03*
%TO.N,+5V*%
X210070000Y-69420000D03*
D76*
X197000000Y-90525000D03*
D74*
X215442800Y-137922000D03*
%TO.N,/V_USB_1*%
X158900000Y-73100000D03*
X158900000Y-78100000D03*
%TO.N,/V_USB_2*%
X159400000Y-90300000D03*
X159100000Y-84744600D03*
%TO.N,/Pico/IMU/SDA*%
X192050000Y-110350000D03*
D75*
X186100000Y-109400000D03*
D74*
%TO.N,/ESP32-S3-WROOM-1/ESP32CAM/3.3V_Out*%
X168100000Y-110850000D03*
X161600000Y-114450000D03*
%TO.N,/ESP32-S3-WROOM-1/ESP32CAM/V_USB*%
X158950000Y-107500000D03*
X157861000Y-116459000D03*
X165750000Y-115850000D03*
%TO.N,/Pico/M1_Enc_A*%
X211972600Y-141909800D03*
D75*
X202448000Y-117800000D03*
D74*
%TO.N,/Pico/M2_Enc_A*%
X202800000Y-139100000D03*
D75*
X201693000Y-118093000D03*
%TO.N,/Pico/M2_Enc_B*%
X200529848Y-118400000D03*
D74*
X202100000Y-143400000D03*
%TO.N,/Pico/M3_Enc_A*%
X201173000Y-141400000D03*
D75*
X199300000Y-116100000D03*
D74*
%TO.N,/Pico/M3_Enc_B*%
X200920300Y-142779700D03*
D75*
X199100000Y-116900000D03*
D74*
%TO.N,/Pico/M4_Enc_A*%
X193204358Y-140302951D03*
D75*
X198200000Y-116000000D03*
D74*
%TO.N,/Pico/M4_Enc_B*%
X192500000Y-141500000D03*
D75*
X197800000Y-116700000D03*
%TO.N,/Pico/M5_Enc_A*%
X197124995Y-116970002D03*
D74*
X191616289Y-142583711D03*
%TO.N,/Pico/M5_Enc_B*%
X191700000Y-144300000D03*
D75*
X196200000Y-116900000D03*
%TO.N,/Pico/M6_Enc_A*%
X196077354Y-117722646D03*
D74*
X181508400Y-141884400D03*
D75*
%TO.N,/Pico/M6_Enc_B*%
X196100000Y-118600000D03*
D74*
X181584600Y-143383000D03*
%TO.N,/ESP32-S3-WROOM-1/ESP_CS1*%
X172500000Y-94300000D03*
%TO.N,/ESP32-S3-WROOM-1/ESP_MOSI*%
X172700000Y-95800000D03*
%TO.N,/ESP32-S3-WROOM-1/Handshake*%
X173100000Y-92500000D03*
D76*
%TO.N,VCC*%
X191600000Y-92925000D03*
D77*
X177400000Y-133030000D03*
D76*
X184834800Y-135915400D03*
X194580000Y-135915400D03*
D74*
X177927000Y-75946000D03*
D77*
X180110000Y-133010000D03*
D74*
X170897000Y-90297000D03*
%TO.N,+3.3V*%
X184080000Y-101750000D03*
X193900000Y-129775000D03*
X165989000Y-84900000D03*
D78*
X174473000Y-82100000D03*
D74*
X201600000Y-117200000D03*
X180250000Y-96850000D03*
X159000000Y-70000000D03*
X186100000Y-132600000D03*
X213110000Y-86360000D03*
D75*
X193400000Y-123600000D03*
D74*
X196100000Y-132500000D03*
X201168000Y-111277400D03*
X203800000Y-133096000D03*
X175481600Y-52697987D03*
D75*
X205125000Y-123625000D03*
D74*
X212100000Y-81900000D03*
D75*
X193700000Y-117900000D03*
D74*
X181000000Y-115800000D03*
D75*
%TO.N,/Pico/IMU/SCL*%
X188200000Y-111000000D03*
D74*
X191200000Y-114100000D03*
%TO.N,/ESP_PU*%
X159000000Y-60000000D03*
X176276000Y-53721000D03*
X201754000Y-115140000D03*
X205720000Y-119940000D03*
%TO.N,Net-(Boot1-Pad1)*%
X217000000Y-127800000D03*
X184700000Y-130400000D03*
%TO.N,Net-(U4-VREG_VOUT)*%
X192405000Y-121666000D03*
D75*
X194200000Y-123900000D03*
X204675000Y-122975000D03*
D74*
%TO.N,Earth*%
X152527000Y-64008000D03*
D76*
X192200000Y-97525000D03*
D74*
X188000000Y-126625000D03*
X161580000Y-76830000D03*
X216357200Y-129971800D03*
X158850000Y-111650000D03*
X188163200Y-94200000D03*
X160300000Y-70900000D03*
X183400000Y-96814400D03*
X174600600Y-58521600D03*
X193950000Y-102900000D03*
D75*
X187187500Y-109617342D03*
D74*
X174219600Y-55473600D03*
X208350000Y-123050000D03*
X178540000Y-116750000D03*
X198425800Y-51257200D03*
X209361600Y-125591300D03*
X189757934Y-99471060D03*
X175900000Y-51500000D03*
X179000000Y-127762000D03*
X189600000Y-106800000D03*
X209962800Y-135837200D03*
D77*
X184800000Y-89600000D03*
D74*
X158000000Y-107000000D03*
X219506800Y-120726200D03*
X214620000Y-127210000D03*
X191390000Y-119490000D03*
D77*
X168410000Y-80780000D03*
D74*
X158800000Y-79300000D03*
X199950000Y-131150000D03*
X176160000Y-74610000D03*
X163220000Y-91720000D03*
X201600000Y-116200000D03*
X154100000Y-119200000D03*
X192712071Y-127612071D03*
X188180001Y-102830001D03*
X158500000Y-91300000D03*
X153289000Y-102235000D03*
X190650000Y-123500000D03*
X164390000Y-117350000D03*
X165800000Y-114800000D03*
X194600000Y-117100000D03*
X190000000Y-134710000D03*
X163500000Y-121110000D03*
X164500000Y-87750000D03*
X158600000Y-83400000D03*
X168560000Y-102550000D03*
X213890089Y-70814062D03*
X183100000Y-106000000D03*
%TO.N,Pico_SCL1*%
X198150000Y-55050000D03*
%TO.N,Pico_SDA1*%
X198037136Y-56227427D03*
D75*
%TO.N,/Pico/M1_Enc_B*%
X202311000Y-119126000D03*
D76*
%TO.N,VCC*%
X204774800Y-135890000D03*
D74*
%TO.N,/Pico/M1_Enc_B*%
X211861400Y-143586200D03*
%TO.N,Pico_SDA1*%
X203550000Y-126900000D03*
%TO.N,Earth*%
X200400000Y-134700000D03*
%TO.N,Pico_SCL1*%
X204250000Y-127558800D03*
%TD*%
D79*
%TO.N,/Pico/M2_Enc_A*%
X202800000Y-140595400D02*
X204091799Y-141887199D01*
X204091799Y-141887199D02*
X204788800Y-141887199D01*
X202800000Y-139100000D02*
X202800000Y-140595400D01*
%TO.N,/Pico/M3_Enc_A*%
X201173000Y-141400000D02*
X200473000Y-141400000D01*
X200473000Y-141400000D02*
X199985801Y-141887199D01*
%TO.N,/Pico/M4_Enc_B*%
X192500000Y-141500000D02*
X194387201Y-143387201D01*
X194387201Y-143387201D02*
X194788800Y-143387201D01*
D80*
%TO.N,/ESP32-S3-WROOM-1/Handshake*%
X173100000Y-92500000D02*
X173100000Y-92475000D01*
X173100000Y-92475000D02*
X179550000Y-86025000D01*
X179550000Y-86025000D02*
X179550000Y-79200000D01*
X179550000Y-79200000D02*
X181100000Y-77650000D01*
X181100000Y-77650000D02*
X181100000Y-69985000D01*
X181100000Y-69985000D02*
X181570000Y-69515000D01*
%TO.N,/ESP32-S3-WROOM-1/ESP_CS1*%
X172500000Y-94300000D02*
X172900000Y-94300000D01*
X172900000Y-94300000D02*
X181920000Y-85280000D01*
X181920000Y-85280000D02*
X181920000Y-70435000D01*
X181920000Y-70435000D02*
X183055000Y-69300000D01*
%TO.N,+3.3V*%
X181320000Y-96850000D02*
X182170000Y-96000000D01*
X182170000Y-96000000D02*
X184517800Y-96000000D01*
X184517800Y-96000000D02*
X184682200Y-96164400D01*
X181320000Y-96850000D02*
X182170000Y-97700000D01*
X182170000Y-97700000D02*
X184507000Y-97700000D01*
X184507000Y-97700000D02*
X184712400Y-97494600D01*
D79*
%TO.N,/Pico/USB_DP_Pico*%
X155805864Y-87082588D02*
X155600000Y-87288452D01*
X155600000Y-87288452D02*
X155600000Y-87800000D01*
X155600000Y-87800000D02*
X155882588Y-88082588D01*
D80*
%TO.N,PICO_SCL*%
X221790000Y-105200000D02*
X220490000Y-106500000D01*
X220490000Y-106500000D02*
X217655026Y-106500000D01*
X217655026Y-106500000D02*
X212305026Y-111850000D01*
X212305026Y-111850000D02*
X210300000Y-111850000D01*
%TO.N,/V_USB_2*%
X159400000Y-90300000D02*
X158832588Y-89732588D01*
X158832588Y-89732588D02*
X156499800Y-89732588D01*
D79*
%TO.N,/ESP_PU*%
X159050000Y-66660000D02*
X158320000Y-66660000D01*
X158320000Y-66660000D02*
X157000000Y-67980000D01*
%TO.N,+1V8*%
X189600000Y-105100000D02*
X190455150Y-104244850D01*
X190455150Y-104244850D02*
X190455150Y-102969000D01*
%TO.N,/Pico/M5_Enc_B*%
X191100000Y-144300000D02*
X190187201Y-143387201D01*
X191700000Y-144300000D02*
X191100000Y-144300000D01*
%TO.N,/ESP32-S3-WROOM-1/ESP32CAM/ESPCAM_USB_D+*%
X155983800Y-111303200D02*
X156746800Y-111303200D01*
X156746800Y-111303200D02*
X158780000Y-109270000D01*
D80*
%TO.N,+3.3V*%
X165989000Y-81151000D02*
X166270000Y-80870000D01*
X165989000Y-84900000D02*
X166589000Y-85500000D01*
X166589000Y-85500000D02*
X168042400Y-85500000D01*
X165989000Y-84900000D02*
X165989000Y-81151000D01*
D81*
%TO.N,Earth*%
X200400000Y-134700000D02*
X199262800Y-135837200D01*
X199262800Y-135837200D02*
X198762800Y-135837200D01*
D79*
%TO.N,/Pico/QSPI_SCK*%
X185420000Y-119780000D02*
X185900000Y-119300000D01*
X189444974Y-125950000D02*
X191328352Y-125950000D01*
X185900000Y-119300000D02*
X187000000Y-119300000D01*
X187000000Y-119300000D02*
X187300000Y-119600000D01*
X187300000Y-119600000D02*
X187300000Y-123805026D01*
X191328352Y-125950000D02*
X192291152Y-124987200D01*
X187300000Y-123805026D02*
X189444974Y-125950000D01*
X192291152Y-124987200D02*
X195181300Y-124987200D01*
X195181300Y-124987200D02*
X195231300Y-124937200D01*
%TO.N,/Pico/QSPI_SD0*%
X186690000Y-120479000D02*
X186690000Y-123890000D01*
X189100000Y-126300000D02*
X191473326Y-126300000D01*
X186690000Y-123890000D02*
X189100000Y-126300000D01*
X191473326Y-126300000D02*
X192436126Y-125337200D01*
X192436126Y-125337200D02*
X195231300Y-125337200D01*
%TO.N,/Pico/QSPI_SD3*%
X184150000Y-120479000D02*
X184150000Y-119679001D01*
X184150000Y-119679001D02*
X185029001Y-118800000D01*
X185029001Y-118800000D02*
X187100000Y-118800000D01*
X194385741Y-124537200D02*
X195231300Y-124537200D01*
X187100000Y-118800000D02*
X187900000Y-119600000D01*
X187900000Y-119600000D02*
X187900000Y-123910052D01*
X187900000Y-123910052D02*
X189489948Y-125500000D01*
X194285741Y-124637200D02*
X194385741Y-124537200D01*
X189489948Y-125500000D02*
X191283378Y-125500000D01*
X191283378Y-125500000D02*
X192146178Y-124637200D01*
X192146178Y-124637200D02*
X194285741Y-124637200D01*
%TO.N,/Pico/Motor_1_A*%
X201268800Y-127374700D02*
X201268800Y-127868800D01*
X201268800Y-127868800D02*
X205673000Y-132273000D01*
X205673000Y-132273000D02*
X207281996Y-132273000D01*
X207281996Y-132273000D02*
X208668800Y-133659804D01*
X208668800Y-133659804D02*
X208668800Y-133937200D01*
%TO.N,/Pico/Motor_1_B*%
X200868800Y-127374700D02*
X200868800Y-127968800D01*
X200868800Y-127968800D02*
X205500000Y-132600000D01*
X205500000Y-132600000D02*
X207146548Y-132600000D01*
X207146548Y-132600000D02*
X208168800Y-133622252D01*
X208168800Y-133622252D02*
X208168800Y-133937200D01*
%TO.N,/Pico/Motor_2_B*%
X200468800Y-127374700D02*
X200468800Y-128033134D01*
X200468800Y-128033134D02*
X205435666Y-133000000D01*
X205435666Y-133000000D02*
X207051574Y-133000000D01*
X207051574Y-133000000D02*
X207668800Y-133617226D01*
X207668800Y-133617226D02*
X207668800Y-133937200D01*
%TO.N,/Pico/Motor_2_A*%
X200068800Y-127374700D02*
X200068800Y-128168800D01*
X200068800Y-128168800D02*
X205227000Y-133327000D01*
X205227000Y-133327000D02*
X206883600Y-133327000D01*
X206883600Y-133327000D02*
X207168800Y-133612200D01*
X207168800Y-133612200D02*
X207168800Y-133937200D01*
D80*
%TO.N,/ESP32-S3-WROOM-1/SDA*%
X221790000Y-77260000D02*
X220450000Y-78600000D01*
X220450000Y-78600000D02*
X218750000Y-78600000D01*
X218750000Y-78600000D02*
X211300000Y-86050000D01*
X211300000Y-86050000D02*
X206600000Y-86050000D01*
X206600000Y-86050000D02*
X204700000Y-87950000D01*
D81*
%TO.N,/ESP_USB_D+*%
X156602400Y-75781790D02*
X157571400Y-75781790D01*
X157571400Y-75781790D02*
X157889610Y-76100000D01*
X157889610Y-76100000D02*
X170400000Y-76100000D01*
X170400000Y-76100000D02*
X178750000Y-67750000D01*
D79*
%TO.N,Earth*%
X158600000Y-83400000D02*
X157867412Y-84132588D01*
X157867412Y-84132588D02*
X156454800Y-84132588D01*
D80*
%TO.N,/Pico/USB_DP_Pico*%
X161700000Y-87100000D02*
X161682588Y-87082588D01*
X161682588Y-87082588D02*
X155805864Y-87082588D01*
X155882588Y-88082588D02*
X156454800Y-88082588D01*
D79*
%TO.N,/Pico/Motor_5_A*%
X197668800Y-127374700D02*
X197668800Y-128460074D01*
X197668800Y-128460074D02*
X192701874Y-133427000D01*
X192701874Y-133427000D02*
X189179000Y-133427000D01*
X189179000Y-133427000D02*
X188668800Y-133937200D01*
%TO.N,/Pico/Motor_5_B*%
X197268800Y-127374700D02*
X197268800Y-128397626D01*
X192566426Y-133100000D02*
X188681000Y-133100000D01*
X188168800Y-133612200D02*
X188168800Y-133937200D01*
X197268800Y-128397626D02*
X192566426Y-133100000D01*
X188681000Y-133100000D02*
X188168800Y-133612200D01*
%TO.N,/Pico/Motor_6_B*%
X196868800Y-127374700D02*
X196868800Y-128270126D01*
X196868800Y-128270126D02*
X192411926Y-132727000D01*
X192411926Y-132727000D02*
X188176600Y-132727000D01*
X188176600Y-132727000D02*
X187668800Y-133234800D01*
X187668800Y-133234800D02*
X187668800Y-133937200D01*
%TO.N,/Pico/Motor_6_A*%
X196468800Y-127374700D02*
X196468800Y-128207678D01*
X196468800Y-128207678D02*
X192276478Y-132400000D01*
X192276478Y-132400000D02*
X188008626Y-132400000D01*
X188008626Y-132400000D02*
X187168800Y-133239826D01*
X187168800Y-133239826D02*
X187168800Y-133937200D01*
D80*
%TO.N,+3.3V*%
X196100000Y-132500000D02*
X196100000Y-133868400D01*
X196100000Y-133868400D02*
X196168800Y-133937200D01*
X186100000Y-132600000D02*
X186168800Y-132668800D01*
X186168800Y-132668800D02*
X186168800Y-133937200D01*
D79*
%TO.N,Net-(U4-VREG_VOUT)*%
X194437200Y-124137200D02*
X195231300Y-124137200D01*
X194200000Y-123900000D02*
X194437200Y-124137200D01*
X194200000Y-123900000D02*
X193812800Y-124287200D01*
X193812800Y-124287200D02*
X191342800Y-124287200D01*
X191342800Y-124287200D02*
X190980000Y-124650000D01*
%TO.N,+3.3V*%
X193400000Y-123600000D02*
X193700000Y-123300000D01*
X193700000Y-123300000D02*
X194356600Y-123300000D01*
X194356600Y-123300000D02*
X194546600Y-123490000D01*
D80*
X193400000Y-123600000D02*
X192660000Y-123600000D01*
%TO.N,Earth*%
X188163200Y-94200000D02*
X188163200Y-95140000D01*
%TO.N,/ESP32-S3-WROOM-1/SDA*%
X191945000Y-69380000D02*
X192865000Y-70300000D01*
X192865000Y-70300000D02*
X192865000Y-73415000D01*
X192865000Y-73415000D02*
X202400000Y-82950000D01*
X202400000Y-82950000D02*
X202400000Y-85650000D01*
X202400000Y-85650000D02*
X204700000Y-87950000D01*
%TO.N,/ESP32-S3-WROOM-1/SCL*%
X193505686Y-69290686D02*
X193505686Y-73098104D01*
X193505686Y-73098104D02*
X203200000Y-82792418D01*
X203200000Y-82792418D02*
X203200000Y-84750000D01*
X203200000Y-84750000D02*
X203900000Y-85450000D01*
D79*
%TO.N,/Pico/M2_Enc_B*%
X200450000Y-118628893D02*
X200450000Y-119078149D01*
X200529848Y-118549045D02*
X200450000Y-118628893D01*
X200529848Y-118400000D02*
X200529848Y-118549045D01*
X200068800Y-119459349D02*
X200068800Y-120499700D01*
X200450000Y-119078149D02*
X200068800Y-119459349D01*
%TO.N,/Pico/M2_Enc_A*%
X201693000Y-118093000D02*
X200865600Y-118920400D01*
X200865600Y-118920400D02*
X200865600Y-119124997D01*
X200865600Y-119124997D02*
X200468800Y-119521797D01*
X200468800Y-119521797D02*
X200468800Y-120499700D01*
%TO.N,/Pico/M1_Enc_A*%
X200868800Y-119662491D02*
X200868800Y-120499700D01*
X202448000Y-117800000D02*
X202448000Y-118083291D01*
X202448000Y-118083291D02*
X200868800Y-119662491D01*
%TO.N,+3.3V*%
X201600000Y-117200000D02*
X200495000Y-117200000D01*
X200495000Y-117200000D02*
X200000000Y-117695000D01*
X199668800Y-119382561D02*
X199668800Y-120499700D01*
X200000000Y-117695000D02*
X200000000Y-119051361D01*
X200000000Y-119051361D02*
X199668800Y-119382561D01*
%TO.N,/Pico/M6_Enc_B*%
X196100000Y-118600000D02*
X196468800Y-118968800D01*
X196468800Y-118968800D02*
X196468800Y-120499700D01*
%TO.N,/Pico/M6_Enc_A*%
X196077354Y-117722646D02*
X196868800Y-118514092D01*
X196868800Y-118514092D02*
X196868800Y-120407676D01*
%TO.N,/Pico/M5_Enc_B*%
X196200000Y-116900000D02*
X196200000Y-117100000D01*
X196200000Y-117100000D02*
X197268800Y-118168800D01*
X197268800Y-118168800D02*
X197268800Y-120499700D01*
%TO.N,/Pico/M5_Enc_A*%
X197124995Y-116970002D02*
X197668800Y-117513807D01*
X197668800Y-117513807D02*
X197668800Y-120499700D01*
%TO.N,/Pico/M4_Enc_B*%
X197800000Y-116700000D02*
X198068800Y-116968800D01*
X198068800Y-116968800D02*
X198068800Y-120499700D01*
%TO.N,/Pico/M4_Enc_A*%
X198200000Y-116000000D02*
X198467947Y-116267947D01*
X198467947Y-116267947D02*
X198467947Y-120498847D01*
%TO.N,/Pico/M3_Enc_B*%
X198868800Y-117131200D02*
X198868800Y-120499700D01*
X199100000Y-116900000D02*
X198868800Y-117131200D01*
%TO.N,/Pico/M3_Enc_A*%
X199300000Y-116100000D02*
X199627000Y-116427000D01*
X199627000Y-116427000D02*
X199627000Y-118693685D01*
X199627000Y-118693685D02*
X199268800Y-119051885D01*
X199268800Y-119051885D02*
X199268800Y-120499700D01*
D80*
%TO.N,Earth*%
X200695000Y-116200000D02*
X200270000Y-116625000D01*
X201600000Y-116200000D02*
X200695000Y-116200000D01*
%TO.N,/ESP32-S3-WROOM-1/ESP_MOSI*%
X172700000Y-95800000D02*
X172700000Y-95700000D01*
X172700000Y-95700000D02*
X185595000Y-82805000D01*
X185595000Y-82805000D02*
X185595000Y-69000000D01*
%TO.N,PICO_SDA*%
X210650000Y-114350000D02*
X216095280Y-108904720D01*
X216095280Y-108904720D02*
X220625280Y-108904720D01*
%TO.N,PICO_SCL*%
X202106300Y-121337200D02*
X202662800Y-121337200D01*
X204300000Y-119700000D02*
X204300000Y-114150000D01*
X202662800Y-121337200D02*
X204300000Y-119700000D01*
%TO.N,PICO_SDA*%
X203000000Y-121600000D02*
X205308200Y-119291800D01*
X205308200Y-119291800D02*
X205308200Y-113408200D01*
D79*
%TO.N,+3.3V*%
X205125000Y-123625000D02*
X205012800Y-123737200D01*
X205012800Y-123737200D02*
X202106300Y-123737200D01*
%TO.N,Net-(U4-VREG_VOUT)*%
X204675000Y-122975000D02*
X204312800Y-123337200D01*
X204312800Y-123337200D02*
X202106300Y-123337200D01*
X204675000Y-122975000D02*
X205150000Y-122500000D01*
X205150000Y-122500000D02*
X206120000Y-122500000D01*
%TO.N,/Pico/XOUT*%
X202106300Y-124137200D02*
X202169100Y-124200000D01*
X202169100Y-124200000D02*
X211350000Y-124200000D01*
X211350000Y-124200000D02*
X212900000Y-125750000D01*
%TO.N,/Pico/M2_Enc_B*%
X202100000Y-143400000D02*
X202112799Y-143387201D01*
X202112799Y-143387201D02*
X204474201Y-143387201D01*
%TO.N,/Pico/M3_Enc_B*%
X200920300Y-142779700D02*
X200312799Y-143387201D01*
X200312799Y-143387201D02*
X199788800Y-143387201D01*
%TO.N,/Pico/M5_Enc_A*%
X191616289Y-142583711D02*
X190919777Y-141887199D01*
X190919777Y-141887199D02*
X189788800Y-141887199D01*
%TO.N,/Pico/M4_Enc_A*%
X193204358Y-140302951D02*
X194201607Y-141300200D01*
X194201607Y-141300200D02*
X194201801Y-141300200D01*
X194201801Y-141300200D02*
X194788800Y-141887199D01*
D80*
%TO.N,Net-(Boot1-Pad1)*%
X183800000Y-130400000D02*
X184700000Y-130400000D01*
D79*
%TO.N,/ESP32-S3-WROOM-1/ESP32CAM/ESPCAM_USB_D-*%
X155938800Y-110803200D02*
X155313800Y-110803200D01*
X155000000Y-111117000D02*
X155000000Y-111489400D01*
X155313800Y-110803200D02*
X155000000Y-111117000D01*
X155000000Y-111489400D02*
X155313800Y-111803200D01*
X155313800Y-111803200D02*
X155983800Y-111803200D01*
D80*
%TO.N,Net-(J12-CC1)*%
X155938800Y-110303200D02*
X155133501Y-110303200D01*
X155133501Y-110303200D02*
X153810000Y-108979699D01*
X153810000Y-108979699D02*
X153810000Y-104960000D01*
%TO.N,Net-(U9-TXD)*%
X166291500Y-111338500D02*
X166838500Y-111338500D01*
X166838500Y-111338500D02*
X169600000Y-114100000D01*
X169600000Y-114100000D02*
X169600000Y-117780000D01*
D79*
%TO.N,/ESP_USB_D-*%
X157417990Y-74317990D02*
X156602400Y-74317990D01*
D81*
X158000000Y-74900000D02*
X158354790Y-75254790D01*
D79*
X158000000Y-74900000D02*
X157753190Y-74900000D01*
X157753190Y-74900000D02*
X157371400Y-75281790D01*
X158000000Y-74900000D02*
X157417990Y-74317990D01*
X157371400Y-75281790D02*
X156602400Y-75281790D01*
D81*
X158354790Y-75254790D02*
X169445210Y-75254790D01*
X169445210Y-75254790D02*
X178220000Y-66480000D01*
D80*
%TO.N,+1V8*%
X191455148Y-101191000D02*
X191455148Y-98567348D01*
X195039300Y-106873000D02*
X193825100Y-108087200D01*
X187705149Y-100700000D02*
X187705149Y-98933851D01*
X193139300Y-112181600D02*
X193342500Y-112181600D01*
X189763400Y-96875600D02*
X188987800Y-96100000D01*
X187705149Y-98933851D02*
X189763400Y-96875600D01*
X193107800Y-100220000D02*
X191455148Y-98567348D01*
X189763400Y-96875600D02*
X191455148Y-98567348D01*
X195577700Y-106873000D02*
X195577700Y-108465300D01*
X194250000Y-100220000D02*
X193107800Y-100220000D01*
X195577700Y-106873000D02*
X195039300Y-106873000D01*
X189824849Y-101329999D02*
X189194850Y-100700000D01*
D79*
X185700000Y-104350000D02*
X186700000Y-105350000D01*
X186700000Y-105350000D02*
X186700000Y-106300000D01*
D80*
X188987800Y-96100000D02*
X188174800Y-96100000D01*
X193342500Y-112181600D02*
X194917300Y-112181600D01*
X188039210Y-96123200D02*
X186683800Y-96123200D01*
X189194850Y-100700000D02*
X187705149Y-100700000D01*
X186600000Y-100690000D02*
X187695149Y-100690000D01*
X192377300Y-112181600D02*
X193139300Y-112181600D01*
%TO.N,PICO_SCL*%
X203581000Y-113072600D02*
X197491300Y-113072600D01*
X204300000Y-114150000D02*
X204300000Y-113791600D01*
X204300000Y-113791600D02*
X203581000Y-113072600D01*
%TO.N,PICO_SDA*%
X205308200Y-113408200D02*
X201363800Y-109463800D01*
X205308200Y-113408200D02*
X206250000Y-114350000D01*
D79*
X202106300Y-121737200D02*
X202862800Y-121737200D01*
D80*
X201363800Y-109463800D02*
X197404200Y-109463800D01*
D79*
X202862800Y-121737200D02*
X203000000Y-121600000D01*
D80*
X220715000Y-108815000D02*
X221790000Y-107740000D01*
X206250000Y-114350000D02*
X210300000Y-114350000D01*
D79*
%TO.N,/Pico/QSPI_SDSS*%
X189558248Y-129700000D02*
X192721048Y-126537200D01*
X182880000Y-127679000D02*
X182880000Y-128478999D01*
X182880000Y-128478999D02*
X184101001Y-129700000D01*
X182800000Y-130490000D02*
X182800000Y-128558999D01*
X192721048Y-126537200D02*
X195231300Y-126537200D01*
X184101001Y-129700000D02*
X189558248Y-129700000D01*
X182800000Y-128558999D02*
X182880000Y-128478999D01*
D80*
%TO.N,+5V*%
X215442800Y-137922000D02*
X217063200Y-137922000D01*
X210070000Y-69420000D02*
X211150000Y-69420000D01*
D82*
X197000000Y-90525000D02*
X197000000Y-88600000D01*
D80*
X211480000Y-69090000D02*
X211480000Y-66506600D01*
D82*
X197000000Y-88600000D02*
X196600000Y-88200000D01*
X196600000Y-88200000D02*
X193075000Y-88200000D01*
D83*
X194950000Y-92575000D02*
X194950000Y-92925000D01*
D80*
X210700000Y-65675400D02*
X211505600Y-66481000D01*
D82*
X194950000Y-92925000D02*
X198000000Y-92925000D01*
D80*
X211507600Y-59148000D02*
X210700000Y-59955600D01*
X210700000Y-59955600D02*
X210700000Y-65675400D01*
X211150000Y-69420000D02*
X211480000Y-69090000D01*
D83*
X196562500Y-90962500D02*
X194950000Y-92575000D01*
X197000000Y-90525000D02*
X196562500Y-90962500D01*
D80*
X217093800Y-137891400D02*
X219105400Y-137891400D01*
D79*
%TO.N,/V_USB_1*%
X158900000Y-78099661D02*
X158900000Y-78100000D01*
D80*
X158431790Y-72631790D02*
X156647400Y-72631790D01*
X158431790Y-72631790D02*
X158900000Y-73100000D01*
D79*
X156602400Y-77431790D02*
X158232129Y-77431790D01*
X158232129Y-77431790D02*
X158900000Y-78099661D01*
%TO.N,/V_USB_2*%
X159100000Y-84744600D02*
X162384500Y-84744600D01*
X159100000Y-84744600D02*
X156642788Y-84744600D01*
D80*
%TO.N,/Pico/IMU/SDA*%
X186700000Y-108800000D02*
X186700000Y-107825000D01*
X192050000Y-110350000D02*
X192088400Y-110388400D01*
X193825100Y-110363000D02*
X193825100Y-108727200D01*
X186100000Y-109400000D02*
X186700000Y-108800000D01*
D79*
X192988400Y-110388400D02*
X194792600Y-110388400D01*
X191455148Y-108855148D02*
X192988400Y-110388400D01*
X191455148Y-102969000D02*
X191455148Y-108855148D01*
X192088400Y-110388400D02*
X192988400Y-110388400D01*
D80*
%TO.N,/ESP32-S3-WROOM-1/ESP32CAM/3.3V_Out*%
X168100000Y-110850000D02*
X167088500Y-109838500D01*
X167088500Y-109838500D02*
X166291500Y-109838500D01*
X162416500Y-111838500D02*
X161600000Y-112655000D01*
X161600000Y-112655000D02*
X161600000Y-114450000D01*
%TO.N,/ESP32-S3-WROOM-1/ESP32CAM/V_USB*%
X156553800Y-113953200D02*
X157861000Y-115260400D01*
X156295000Y-113953200D02*
X156553800Y-113953200D01*
X157861000Y-117119000D02*
X157330000Y-117650000D01*
X165750000Y-115850000D02*
X163825000Y-113925000D01*
X157296800Y-109153200D02*
X158950000Y-107500000D01*
X157861000Y-115260400D02*
X157861000Y-116459000D01*
X163825000Y-113925000D02*
X163825000Y-112805000D01*
X163825000Y-112805000D02*
X163854000Y-112776000D01*
X157861000Y-116459000D02*
X157861000Y-117119000D01*
X155938800Y-109153200D02*
X157296800Y-109153200D01*
D79*
%TO.N,/Pico/QSPI_SD1*%
X185021001Y-129350000D02*
X189413274Y-129350000D01*
X189413274Y-129350000D02*
X192626074Y-126137200D01*
X184150000Y-128478999D02*
X185021001Y-129350000D01*
X192626074Y-126137200D02*
X195231300Y-126137200D01*
X184150000Y-127679000D02*
X184150000Y-128478999D01*
%TO.N,/Pico/QSPI_SD2*%
X185941001Y-129000000D02*
X185420000Y-128478999D01*
X185420000Y-128478999D02*
X185420000Y-127679000D01*
X192531100Y-125737200D02*
X189268300Y-129000000D01*
X195131300Y-125737200D02*
X192531100Y-125737200D01*
X189268300Y-129000000D02*
X185941001Y-129000000D01*
%TO.N,/Pico/Motor_3_A*%
X199263000Y-127380500D02*
X199263000Y-133012974D01*
X198668800Y-133607174D02*
X198668800Y-133937200D01*
X199263000Y-133012974D02*
X198668800Y-133607174D01*
X199268800Y-127374700D02*
X199263000Y-127380500D01*
%TO.N,/Pico/Motor_3_B*%
X198868800Y-127374700D02*
X198868800Y-132912200D01*
X198868800Y-132912200D02*
X198168800Y-133612200D01*
X198168800Y-133612200D02*
X198168800Y-133937200D01*
%TO.N,/Pico/Motor_4_A*%
X198068800Y-127374700D02*
X198068800Y-132722252D01*
X198068800Y-132722252D02*
X197168800Y-133622252D01*
X197168800Y-133622252D02*
X197168800Y-133937200D01*
%TO.N,/Pico/Motor_4_B*%
X197668800Y-133617226D02*
X197668800Y-133937200D01*
X198468800Y-132817226D02*
X197668800Y-133617226D01*
X198468800Y-127374700D02*
X198468800Y-132817226D01*
%TO.N,/Pico/XIN*%
X207500000Y-127450000D02*
X204587200Y-124537200D01*
X204587200Y-124537200D02*
X202106300Y-124537200D01*
X210700000Y-127450000D02*
X207500000Y-127450000D01*
D80*
%TO.N,/Pico/XOUT*%
X214721000Y-125457000D02*
X213193000Y-125457000D01*
%TO.N,/Pico/SWCLK*%
X203662800Y-122937200D02*
X205400000Y-121200000D01*
D79*
X202106300Y-122937200D02*
X203662800Y-122937200D01*
D80*
X205400000Y-121200000D02*
X218200000Y-121200000D01*
X220215400Y-123215400D02*
X222300800Y-123215400D01*
X218200000Y-121200000D02*
X220215400Y-123215400D01*
D79*
%TO.N,/Pico/SWD*%
X202106300Y-122537200D02*
X203462800Y-122537200D01*
D80*
X220864600Y-118135400D02*
X222300800Y-118135400D01*
X218200000Y-120800000D02*
X220864600Y-118135400D01*
X203462800Y-122537200D02*
X205200000Y-120800000D01*
X205200000Y-120800000D02*
X218200000Y-120800000D01*
%TO.N,VS*%
X164268299Y-142669300D02*
X164268299Y-140698299D01*
D84*
X154920000Y-132230000D02*
X162533600Y-132230000D01*
D79*
%TO.N,/Pico/M1_Enc_A*%
X211949999Y-141887199D02*
X209788800Y-141887199D01*
X211972600Y-141909800D02*
X211949999Y-141887199D01*
%TO.N,/Pico/M6_Enc_A*%
X181508400Y-141884400D02*
X181511199Y-141887199D01*
X181511199Y-141887199D02*
X184788800Y-141887199D01*
%TO.N,/Pico/M6_Enc_B*%
X181584600Y-143383000D02*
X181588801Y-143387201D01*
X181588801Y-143387201D02*
X184788800Y-143387201D01*
D80*
%TO.N,/Pico/M6_Out_A*%
X186668800Y-137007200D02*
X184788800Y-138887200D01*
X186668800Y-135837200D02*
X186668800Y-137007200D01*
%TO.N,/Pico/M6_Out_B*%
X187168800Y-137143596D02*
X186334400Y-137977996D01*
X186334400Y-144841600D02*
X184788800Y-146387200D01*
X186334400Y-137977996D02*
X186334400Y-144841600D01*
X187168800Y-135837200D02*
X187168800Y-137143596D01*
D79*
%TO.N,/ESP_USB_D+*%
X155958790Y-74817990D02*
X155727400Y-75049380D01*
X155727400Y-75514200D02*
X155727400Y-75049380D01*
X156602400Y-74817990D02*
X155958790Y-74817990D01*
X155727400Y-75514200D02*
X155994990Y-75781790D01*
X155994990Y-75781790D02*
X156602400Y-75781790D01*
D80*
%TO.N,/ESP32-S3-WROOM-1/ADC1*%
X178649000Y-56421000D02*
X169101000Y-56421000D01*
X169101000Y-56421000D02*
X168070000Y-55390000D01*
%TO.N,/ESP32-S3-WROOM-1/ESP_CS0*%
X184325000Y-69000000D02*
X184325000Y-79440000D01*
X184325000Y-79440000D02*
X183487487Y-80277513D01*
%TO.N,/ESP32-S3-WROOM-1/ESP_SCLK*%
X186700000Y-78065000D02*
X186700000Y-69165000D01*
X188320000Y-79685000D02*
X186700000Y-78065000D01*
%TO.N,/ESP32-S3-WROOM-1/ESP_MISO*%
X188087000Y-69048000D02*
X188087000Y-77752000D01*
X188087000Y-77752000D02*
X190860000Y-80525000D01*
%TO.N,/ESP32-S3-WROOM-1/ADC0*%
X178750000Y-55050000D02*
X178255000Y-54555000D01*
X178255000Y-54555000D02*
X172250490Y-54555000D01*
X172250090Y-54554600D02*
X169774600Y-54554600D01*
X169774600Y-54554600D02*
X168070000Y-52850000D01*
X172250490Y-54555000D02*
X172250090Y-54554600D01*
D79*
%TO.N,/ESP32-S3-WROOM-1/Battery_Voltage_Monitor*%
X178155600Y-71359400D02*
X180515000Y-69000000D01*
X178155600Y-71575200D02*
X178155600Y-71359400D01*
D85*
%TO.N,VCC*%
X193725000Y-92825000D02*
X191700000Y-92825000D01*
D82*
X194580000Y-135915400D02*
X194605400Y-135890000D01*
D80*
X191700000Y-92825000D02*
X191600000Y-92925000D01*
D86*
X180090000Y-133030000D02*
X174295000Y-133030000D01*
D80*
X179000000Y-131430000D02*
X179000000Y-130890000D01*
X164259500Y-83794600D02*
X164259500Y-85925900D01*
X168173000Y-89003000D02*
X168173000Y-87669400D01*
X170897000Y-90297000D02*
X169467000Y-90297000D01*
X166155400Y-87821800D02*
X168350800Y-87821800D01*
D79*
X186090600Y-135915400D02*
X186168800Y-135837200D01*
D82*
X194605400Y-135890000D02*
X196116000Y-135890000D01*
X184835800Y-135915400D02*
X186090600Y-135915400D01*
D86*
X180110000Y-133010000D02*
X180090000Y-133030000D01*
D80*
X178181000Y-75692000D02*
X178181000Y-74527600D01*
X164259500Y-85925900D02*
X166155400Y-87821800D01*
X177927000Y-75946000D02*
X178181000Y-75692000D01*
X169467000Y-90297000D02*
X168173000Y-89003000D01*
D79*
X196116000Y-135890000D02*
X196168800Y-135837200D01*
D80*
X177400000Y-133030000D02*
X179000000Y-131430000D01*
%TO.N,/Pico/M5_Out_A*%
X188168800Y-137064000D02*
X189788800Y-138684000D01*
X188168800Y-135837200D02*
X188168800Y-137064000D01*
%TO.N,/Pico/M5_Out_B*%
X188442600Y-137972800D02*
X188442600Y-145041000D01*
X187668800Y-135837200D02*
X187668800Y-137199000D01*
X188442600Y-145041000D02*
X189788800Y-146387200D01*
X187668800Y-137199000D02*
X188442600Y-137972800D01*
%TO.N,/Pico/M2_Out_A*%
X206668800Y-135837200D02*
X206668800Y-137007200D01*
X206668800Y-137007200D02*
X204788800Y-138887200D01*
%TO.N,/Pico/M2_Out_B*%
X206070200Y-138242196D02*
X206070200Y-145105800D01*
X207168800Y-135837200D02*
X207168800Y-137143596D01*
X207168800Y-137143596D02*
X206070200Y-138242196D01*
X206070200Y-145105800D02*
X204788800Y-146387200D01*
%TO.N,/Pico/M1_Out_A*%
X208168800Y-137267200D02*
X209788800Y-138887200D01*
X208168800Y-135837200D02*
X208168800Y-137267200D01*
%TO.N,/Pico/M1_Out_B*%
X207668800Y-137403596D02*
X207668800Y-135837200D01*
X208610200Y-145208600D02*
X208610200Y-138344996D01*
X208610200Y-138344996D02*
X207668800Y-137403596D01*
X209788800Y-146387200D02*
X208610200Y-145208600D01*
%TO.N,/Pico/M3_Out_A*%
X198168800Y-137267200D02*
X199788800Y-138887200D01*
X198168800Y-135837200D02*
X198168800Y-137267200D01*
%TO.N,/Pico/M3_Out_B*%
X197668800Y-135837200D02*
X197668800Y-137403596D01*
X197668800Y-137403596D02*
X198729600Y-138464396D01*
X198729600Y-138464396D02*
X198729600Y-145328000D01*
X198729600Y-145328000D02*
X199788800Y-146387200D01*
%TO.N,/Pico/M4_Out_A*%
X196668800Y-137007200D02*
X194788800Y-138887200D01*
X196668800Y-135837200D02*
X196668800Y-137007200D01*
%TO.N,/Pico/M4_Out_B*%
X197168800Y-137143596D02*
X196113400Y-138198996D01*
X197168800Y-135837200D02*
X197168800Y-137143596D01*
X196113400Y-138198996D02*
X196113400Y-145062600D01*
X196113400Y-145062600D02*
X194788800Y-146387200D01*
%TO.N,/ESP32-S3-WROOM-1/SCL*%
X204700000Y-85450000D02*
X210600026Y-85450000D01*
X210600026Y-85450000D02*
X218790026Y-77260000D01*
D79*
%TO.N,/ESP32-S3-WROOM-1/ESP32CAM/ESPCAM_USB_D+*%
X158937900Y-109270000D02*
X159993000Y-109270000D01*
%TO.N,/ESP32-S3-WROOM-1/ESP32CAM/ESPCAM_USB_D-*%
X155983800Y-111803200D02*
X156723200Y-111803200D01*
X159993000Y-113960000D02*
X158880000Y-113960000D01*
X156723200Y-111803200D02*
X158850000Y-113930000D01*
%TO.N,Net-(U4-USB_DP)*%
X191455026Y-122180000D02*
X192212226Y-122937200D01*
X192212226Y-122937200D02*
X195231300Y-122937200D01*
X190940000Y-122180000D02*
X191455026Y-122180000D01*
%TO.N,Net-(U4-USB_DM)*%
X190950000Y-121180000D02*
X192357200Y-122587200D01*
X192357200Y-122587200D02*
X195181300Y-122587200D01*
X195181300Y-122587200D02*
X195231300Y-122537200D01*
D80*
%TO.N,Net-(J2-CC1)*%
X156602400Y-73781790D02*
X160028210Y-73781790D01*
X160028210Y-73781790D02*
X160300000Y-73510000D01*
%TO.N,Net-(J2-CC2)*%
X156602400Y-76781790D02*
X159521790Y-76781790D01*
%TO.N,Net-(U9-~{RESET})*%
X163354000Y-112776000D02*
X163354000Y-116116000D01*
D79*
%TO.N,Net-(U1-SW)*%
X194000000Y-97525000D02*
X194000000Y-95200000D01*
%TO.N,Net-(U1-BST)*%
X194950000Y-95200000D02*
X194950000Y-97515000D01*
D82*
X194950000Y-95200000D02*
X198125000Y-95200000D01*
D80*
%TO.N,Net-(U9-RXD)*%
X165354000Y-108901000D02*
X167321000Y-108901000D01*
X171400000Y-112980000D02*
X171400000Y-117780000D01*
X167321000Y-108901000D02*
X171400000Y-112980000D01*
D79*
%TO.N,Net-(D5-DIN)*%
X203158059Y-125337200D02*
X210561259Y-132740400D01*
X202106300Y-125337200D02*
X203158059Y-125337200D01*
X210561259Y-132740400D02*
X219153200Y-132740400D01*
D80*
%TO.N,/ESP32-S3-WROOM-1/LED_DIN*%
X209845800Y-52510000D02*
X211507600Y-54171800D01*
X196250000Y-52510000D02*
X209845800Y-52510000D01*
%TO.N,Net-(U8-GPIO0{slash}BOOT)*%
X212930000Y-72840000D02*
X212930000Y-73670000D01*
X196250000Y-69650000D02*
X200875000Y-74275000D01*
X212325000Y-74275000D02*
X212325000Y-78425000D01*
X212930000Y-73670000D02*
X212325000Y-74275000D01*
X196250000Y-67750000D02*
X196250000Y-69650000D01*
X200875000Y-74275000D02*
X212325000Y-74275000D01*
D81*
%TO.N,/Pico/USB_DM_Pico*%
X189000000Y-119950000D02*
X175670000Y-106620000D01*
X175670000Y-101914974D02*
X161337614Y-87582588D01*
X189000000Y-121260000D02*
X189000000Y-119950000D01*
X175670000Y-106620000D02*
X175670000Y-101914974D01*
X189920000Y-122180000D02*
X189000000Y-121260000D01*
D80*
X161337614Y-87582588D02*
X156454800Y-87582588D01*
D81*
%TO.N,/Pico/USB_DP_Pico*%
X189930000Y-119830000D02*
X189930000Y-121180000D01*
X161700000Y-87100000D02*
X176430000Y-101830000D01*
X176430000Y-106330000D02*
X189930000Y-119830000D01*
X176430000Y-101830000D02*
X176430000Y-106330000D01*
D80*
%TO.N,Net-(J3-CC1)*%
X156454800Y-86082588D02*
X162139588Y-86082588D01*
X162139588Y-86082588D02*
X162290000Y-86233000D01*
%TO.N,Net-(J3-CC2)*%
X156454800Y-89082588D02*
X160747588Y-89082588D01*
X160747588Y-89082588D02*
X162255200Y-90590200D01*
%TO.N,Net-(J12-CC2)*%
X155938800Y-113303200D02*
X154970328Y-113303200D01*
X152790000Y-111122872D02*
X152790000Y-104940000D01*
X154970328Y-113303200D02*
X152790000Y-111122872D01*
%TO.N,/ESP32-S3-WROOM-1/GPIO_15*%
X173126400Y-60426600D02*
X170543000Y-63010000D01*
X178453400Y-60426600D02*
X173126400Y-60426600D01*
X170543000Y-63010000D02*
X168070000Y-63010000D01*
%TO.N,/ESP32-S3-WROOM-1/GPIO_16*%
X178750000Y-61400000D02*
X173650000Y-61400000D01*
X169500000Y-65550000D02*
X168070000Y-65550000D01*
X173650000Y-61400000D02*
X169500000Y-65550000D01*
%TO.N,/ESP32-S3-WROOM-1/GPIO_17*%
X178750000Y-62670000D02*
X174280000Y-62670000D01*
X174280000Y-62670000D02*
X168860000Y-68090000D01*
X168860000Y-68090000D02*
X168070000Y-68090000D01*
%TO.N,/ESP32-S3-WROOM-1/GPIO_18*%
X175410000Y-63940000D02*
X168720000Y-70630000D01*
X178750000Y-63940000D02*
X175410000Y-63940000D01*
%TO.N,/ESP32-S3-WROOM-1/GPIO_8*%
X178750000Y-65210000D02*
X177690200Y-65210000D01*
X177690200Y-65210000D02*
X169730200Y-73170000D01*
X169730200Y-73170000D02*
X168070000Y-73170000D01*
%TO.N,/ESP32-S3-WROOM-1/ADC2*%
X178750000Y-57590000D02*
X168410000Y-57590000D01*
%TO.N,/ESP32-S3-WROOM-1/ADC3*%
X177250000Y-59550000D02*
X168990000Y-59550000D01*
X168990000Y-59550000D02*
X168070000Y-60470000D01*
X177973600Y-58826400D02*
X177250000Y-59550000D01*
X178716400Y-58826400D02*
X177973600Y-58826400D01*
%TO.N,Net-(C6-Pad1)*%
X177191000Y-73507600D02*
X178181000Y-73507600D01*
D79*
X178181000Y-73507600D02*
X178181000Y-72620600D01*
D80*
X178052000Y-72491600D02*
X177139600Y-72491600D01*
%TO.N,+3.3V*%
X181000000Y-115800000D02*
X181000000Y-116886000D01*
X212100000Y-81900000D02*
X212100000Y-82960000D01*
D79*
X184090000Y-104900000D02*
X184090000Y-105977500D01*
X194546600Y-123490000D02*
X194699400Y-123337200D01*
D80*
X193730000Y-117930000D02*
X193730000Y-118950000D01*
D79*
X184110000Y-102900000D02*
X185250000Y-102900000D01*
X187200000Y-104850000D02*
X187200000Y-106300000D01*
D80*
X175463613Y-52680000D02*
X174100000Y-52680000D01*
X194014999Y-129775000D02*
X194990000Y-128799999D01*
X203800000Y-133096000D02*
X204641200Y-133937200D01*
X195231300Y-121737200D02*
X195231300Y-119616300D01*
X184110000Y-102900000D02*
X184110000Y-104880000D01*
D79*
X196068800Y-127981200D02*
X196068800Y-127374700D01*
D80*
X194980000Y-119365000D02*
X194145000Y-119365000D01*
D79*
X199700000Y-128790000D02*
X199700000Y-127405900D01*
D82*
X174473000Y-82100000D02*
X174473000Y-85369400D01*
D79*
X194880000Y-128620000D02*
X195430000Y-128620000D01*
D80*
X194340000Y-119365000D02*
X193705000Y-120000000D01*
X213110000Y-86360000D02*
X213110000Y-85300000D01*
X195231300Y-119616300D02*
X194980000Y-119365000D01*
X180997800Y-118596800D02*
X180997800Y-118160800D01*
D79*
X185925000Y-107812500D02*
X186187500Y-107812500D01*
D80*
X194990000Y-128799999D02*
X194990000Y-128600000D01*
X201168000Y-111277400D02*
X200323600Y-110433000D01*
D79*
X185250000Y-102900000D02*
X187200000Y-104850000D01*
X195430000Y-128620000D02*
X196068800Y-127981200D01*
D80*
X159000000Y-69020000D02*
X159000000Y-70000000D01*
D79*
X205250000Y-123500000D02*
X206120000Y-123500000D01*
D80*
X182880000Y-120479000D02*
X180997800Y-118596800D01*
D79*
X199930000Y-129020000D02*
X203800000Y-132890000D01*
D80*
X196068800Y-120453800D02*
X194980000Y-119365000D01*
X200340000Y-112105400D02*
X199463900Y-112105400D01*
X196068800Y-120499700D02*
X196068800Y-120453800D01*
X180250000Y-96850000D02*
X181170000Y-96850000D01*
X193700000Y-117900000D02*
X193730000Y-117930000D01*
X174097400Y-52682600D02*
X171945200Y-52682600D01*
D79*
X199700000Y-127405900D02*
X199668800Y-127374700D01*
X199950000Y-129040000D02*
X199700000Y-128790000D01*
D80*
X194145000Y-119365000D02*
X193730000Y-118950000D01*
X201168000Y-111277400D02*
X200340000Y-112105400D01*
D79*
X194546600Y-123490000D02*
X194793800Y-123737200D01*
D80*
X184080000Y-101750000D02*
X184080000Y-102870000D01*
X193900000Y-129775000D02*
X194014999Y-129775000D01*
D79*
X187200000Y-105800000D02*
X187700000Y-106300000D01*
D80*
X200323600Y-110433000D02*
X199463900Y-110433000D01*
D79*
X194699400Y-123337200D02*
X195231300Y-123337200D01*
D80*
X175481600Y-52697987D02*
X175463613Y-52680000D01*
X205125000Y-123625000D02*
X205250000Y-123500000D01*
X204641200Y-133937200D02*
X206168800Y-133937200D01*
X171945200Y-52682600D02*
X171243800Y-53384000D01*
X194980000Y-119365000D02*
X194340000Y-119365000D01*
D79*
X194793800Y-123737200D02*
X195231300Y-123737200D01*
D80*
X175481600Y-52697987D02*
X175957187Y-52222400D01*
D79*
X203800000Y-132890000D02*
X203800000Y-133096000D01*
D80*
X175957187Y-52222400D02*
X178462400Y-52222400D01*
X180997800Y-118160800D02*
X180997800Y-116893400D01*
D79*
X184090000Y-105977500D02*
X185925000Y-107812500D01*
D80*
%TO.N,Net-(SW1-A)*%
X166093299Y-143474300D02*
X166093299Y-146417900D01*
X166093299Y-146417900D02*
X165710000Y-146801199D01*
%TO.N,Net-(Q3-G)*%
X167426200Y-147085000D02*
X167426200Y-144978800D01*
X167426200Y-144978800D02*
X173958600Y-138446400D01*
%TO.N,/Pico/IMU/SCL*%
X188200000Y-111000000D02*
X188200000Y-109300000D01*
X192362000Y-114112000D02*
X190955149Y-112705149D01*
X195526900Y-114112000D02*
X193400000Y-114112000D01*
X188200000Y-109300000D02*
X187712500Y-108812500D01*
X191200000Y-114100000D02*
X191212000Y-114112000D01*
X190955149Y-112705149D02*
X190955149Y-102969000D01*
X191212000Y-114112000D02*
X192362000Y-114112000D01*
X193446400Y-114065600D02*
X193400000Y-114112000D01*
X187712500Y-108812500D02*
X187712500Y-107812500D01*
X193446400Y-113262600D02*
X193446400Y-114065600D01*
X193400000Y-114112000D02*
X192362000Y-114112000D01*
%TO.N,/ESP_PU*%
X205720000Y-119940000D02*
X205459400Y-119940000D01*
X157000000Y-60020000D02*
X158980000Y-60020000D01*
X159050000Y-66660000D02*
X159050000Y-67950000D01*
X176276000Y-53721000D02*
X176335000Y-53780000D01*
X157000000Y-67980000D02*
X158980000Y-67980000D01*
X176335000Y-53780000D02*
X178750000Y-53780000D01*
X158980000Y-60020000D02*
X159000000Y-60000000D01*
D79*
X203262200Y-122137200D02*
X202106300Y-122137200D01*
D80*
X205459400Y-119940000D02*
X203262200Y-122137200D01*
%TO.N,Net-(D6-DIN)*%
X214807600Y-59071800D02*
X214014800Y-59071800D01*
X214014800Y-59071800D02*
X211505600Y-61581000D01*
%TO.N,/ESP32-S3-WROOM-1/USB_RX*%
X158660000Y-119800000D02*
X155860000Y-122600000D01*
X168600000Y-119800000D02*
X158660000Y-119800000D01*
X169600000Y-118800000D02*
X168600000Y-119800000D01*
%TO.N,/ESP32-S3-WROOM-1/USB_TX*%
X171400000Y-118800000D02*
X170000000Y-120200000D01*
X160800000Y-120200000D02*
X158400000Y-122600000D01*
X170000000Y-120200000D02*
X160800000Y-120200000D01*
%TO.N,/ESP32-S3-WROOM-1/Handshake2*%
X189410000Y-69005000D02*
X189410000Y-76535000D01*
X189410000Y-76535000D02*
X193400000Y-80525000D01*
%TO.N,/ESP32-S3-WROOM-1/GPIO45*%
X200770000Y-75530000D02*
X201840000Y-75530000D01*
X194485000Y-69245000D02*
X200770000Y-75530000D01*
%TO.N,/ESP32-S3-WROOM-1/GPIO35*%
X196630000Y-66480000D02*
X198600000Y-68450000D01*
X198600000Y-68450000D02*
X198600000Y-69750000D01*
X198600000Y-69750000D02*
X201840000Y-72990000D01*
%TO.N,/ESP32-S3-WROOM-1/GPIO36*%
X196600000Y-65210000D02*
X201840000Y-70450000D01*
%TO.N,/ESP32-S3-WROOM-1/GPIO37*%
X196250000Y-63940000D02*
X197870000Y-63940000D01*
X197870000Y-63940000D02*
X201840000Y-67910000D01*
%TO.N,/ESP32-S3-WROOM-1/GPIO38*%
X196250000Y-62670000D02*
X199140000Y-62670000D01*
X199140000Y-62670000D02*
X201840000Y-65370000D01*
%TO.N,/ESP32-S3-WROOM-1/GPIO39*%
X200410000Y-61400000D02*
X201840000Y-62830000D01*
X196250000Y-61400000D02*
X200410000Y-61400000D01*
%TO.N,/ESP32-S3-WROOM-1/GPIO40*%
X196250000Y-60130000D02*
X201680000Y-60130000D01*
%TO.N,/ESP32-S3-WROOM-1/GPIO41*%
X200730000Y-58860000D02*
X201840000Y-57750000D01*
X196250000Y-58860000D02*
X200730000Y-58860000D01*
%TO.N,/ESP32-S3-WROOM-1/GPIO42*%
X196250000Y-57590000D02*
X200040000Y-57590000D01*
X200040000Y-57590000D02*
X201840000Y-55790000D01*
%TO.N,Net-(Boot1-Pad1)*%
X217071600Y-127728400D02*
X217000000Y-127800000D01*
X218651000Y-127728400D02*
X217071600Y-127728400D01*
D79*
%TO.N,Net-(U4-VREG_VOUT)*%
X192405000Y-121666000D02*
X193156000Y-121666000D01*
X193450000Y-121960000D02*
X193627200Y-122137200D01*
X193627200Y-122137200D02*
X195231300Y-122137200D01*
X193156000Y-121666000D02*
X193450000Y-121960000D01*
D80*
%TO.N,Earth*%
X188180001Y-102830001D02*
X187705149Y-102355149D01*
X160590000Y-76830000D02*
X161580000Y-76830000D01*
D82*
X193050000Y-96675000D02*
X192200000Y-97525000D01*
D79*
X158500000Y-91300000D02*
X157732588Y-90532588D01*
D80*
X214807600Y-54248000D02*
X211816800Y-51257200D01*
X173121400Y-55473600D02*
X174218600Y-55473600D01*
X163350000Y-117280000D02*
X164320000Y-117280000D01*
X160300000Y-70900000D02*
X160300000Y-72490000D01*
X187187500Y-109617342D02*
X187200000Y-109617342D01*
D79*
X193700000Y-128600000D02*
X194350000Y-128600000D01*
D80*
X168560000Y-102550000D02*
X168560000Y-99740000D01*
X153320000Y-119980000D02*
X153320000Y-122600000D01*
X160300000Y-70900000D02*
X160720000Y-70480000D01*
X172024000Y-55598000D02*
X172623400Y-55598000D01*
X207080000Y-122500000D02*
X207800000Y-122500000D01*
X186600000Y-101650000D02*
X187695149Y-101650000D01*
D82*
X168440000Y-80810000D02*
X168440000Y-82456400D01*
D81*
X190000000Y-135000000D02*
X189162800Y-135837200D01*
D80*
X179000000Y-129930000D02*
X179000000Y-127762000D01*
D81*
X189162800Y-135837200D02*
X188668800Y-135837200D01*
D80*
X182383200Y-96909600D02*
X182478400Y-96814400D01*
X188000000Y-126625000D02*
X187175000Y-126625000D01*
D82*
X168410000Y-80780000D02*
X168440000Y-80810000D01*
D80*
X222300800Y-120675400D02*
X219557600Y-120675400D01*
X158000000Y-107000000D02*
X156646800Y-108353200D01*
X194250000Y-102600000D02*
X194250000Y-101180000D01*
X189600000Y-106800000D02*
X189587500Y-106812500D01*
X163322000Y-86487000D02*
X164500000Y-87665000D01*
X175900000Y-51500000D02*
X176160000Y-51240000D01*
X193450000Y-120705000D02*
X192745000Y-120000000D01*
X193950000Y-102900000D02*
X194250000Y-102600000D01*
D79*
X199950000Y-131150000D02*
X199950000Y-129840000D01*
D80*
X214805600Y-61581000D02*
X215482600Y-60904000D01*
X160720000Y-67370000D02*
X160010000Y-66660000D01*
D81*
X209962800Y-135837200D02*
X208812800Y-135837200D01*
D82*
X184800000Y-89600000D02*
X184800000Y-89400000D01*
D80*
X175900000Y-51500000D02*
X175680000Y-51720000D01*
X213890000Y-70813973D02*
X213296027Y-70220000D01*
X207900000Y-123500000D02*
X208350000Y-123050000D01*
X209338700Y-125591300D02*
X208900000Y-126030000D01*
X194980000Y-117480000D02*
X194980000Y-118405000D01*
X193880001Y-102830001D02*
X192085449Y-102830001D01*
X152790000Y-102734000D02*
X153289000Y-102235000D01*
X174599600Y-58521600D02*
X171826400Y-58521600D01*
X192745000Y-120000000D02*
X192745000Y-118975000D01*
X157100000Y-115200000D02*
X157100000Y-116200000D01*
X182478400Y-96814400D02*
X184682200Y-96814400D01*
X193450000Y-121000000D02*
X193450000Y-120705000D01*
X221564200Y-132842000D02*
X222554800Y-132842000D01*
X155938800Y-114753200D02*
X156653200Y-114753200D01*
X207080000Y-123500000D02*
X207900000Y-123500000D01*
X157330000Y-118610000D02*
X154690000Y-118610000D01*
X190650000Y-123500000D02*
X190650000Y-124020000D01*
D79*
X192712071Y-127612071D02*
X193700000Y-128600000D01*
D80*
X163460000Y-127545000D02*
X163460000Y-122620000D01*
X164354000Y-113354000D02*
X164354000Y-112776000D01*
X165800000Y-114800000D02*
X164354000Y-113354000D01*
X159100000Y-70900000D02*
X160300000Y-70900000D01*
X213890000Y-72840000D02*
X213890000Y-70813973D01*
X193950000Y-102900000D02*
X193880001Y-102830001D01*
X160720000Y-70480000D02*
X160720000Y-67370000D01*
X152790000Y-103920000D02*
X152790000Y-102734000D01*
X214620000Y-127210000D02*
X214620000Y-126174900D01*
X158132010Y-71867990D02*
X159100000Y-70900000D01*
X217093800Y-136931400D02*
X217474800Y-136931400D01*
X190650000Y-124020000D02*
X190020000Y-124650000D01*
D82*
X168440000Y-82456400D02*
X168000000Y-82896400D01*
D80*
X176160000Y-51240000D02*
X178750000Y-51240000D01*
X215482600Y-60904000D02*
X215482600Y-54923000D01*
X156602400Y-71867990D02*
X158132010Y-71867990D01*
X220903800Y-131191000D02*
X217576400Y-131191000D01*
D79*
X209361600Y-125591300D02*
X210541300Y-125591300D01*
D80*
X211816800Y-51257200D02*
X198424800Y-51257200D01*
X174100000Y-51720000D02*
X172959600Y-51720000D01*
X187705149Y-102355149D02*
X187705149Y-101660000D01*
X152527000Y-64008000D02*
X152500000Y-63981000D01*
X163322000Y-86233000D02*
X163322000Y-86487000D01*
X175680000Y-51720000D02*
X174100000Y-51720000D01*
X152527000Y-64008000D02*
X152527000Y-67953000D01*
X214475000Y-74275000D02*
X214475000Y-73425000D01*
X158800000Y-79300000D02*
X157767990Y-78267990D01*
D79*
X176160000Y-74592000D02*
X176174400Y-74606400D01*
D80*
X213296027Y-70220000D02*
X211310000Y-70220000D01*
D82*
X184800000Y-89400000D02*
X186000000Y-88200000D01*
D81*
X190000000Y-134710000D02*
X190000000Y-135000000D01*
D80*
X192745000Y-120000000D02*
X191900000Y-120000000D01*
X171547000Y-51720000D02*
X172954400Y-51720000D01*
D79*
X208700100Y-129172700D02*
X204464600Y-124937200D01*
D80*
X194600000Y-117100000D02*
X194980000Y-117480000D01*
X190955149Y-100668275D02*
X189757934Y-99471060D01*
X214620000Y-127210000D02*
X213140000Y-127210000D01*
X168320000Y-80870000D02*
X167230000Y-80870000D01*
X180037800Y-116893400D02*
X180037800Y-118160800D01*
D79*
X188212500Y-106812500D02*
X187712500Y-107312500D01*
D80*
X172623400Y-55598000D02*
X172867200Y-55354200D01*
D79*
X176160000Y-72556800D02*
X176160000Y-74592000D01*
D80*
X217474800Y-136931400D02*
X221564200Y-132842000D01*
X158850000Y-111650000D02*
X158850000Y-112970000D01*
X207800000Y-122500000D02*
X208350000Y-123050000D01*
X164354000Y-108901000D02*
X164354000Y-106756000D01*
X163145200Y-91645200D02*
X162255200Y-91645200D01*
X214475000Y-73425000D02*
X213890000Y-72840000D01*
X178540000Y-116750000D02*
X179894400Y-116750000D01*
X218651000Y-129878400D02*
X222801000Y-129878400D01*
X164500000Y-87665000D02*
X164500000Y-87750000D01*
X168410000Y-80780000D02*
X168320000Y-80870000D01*
X157767990Y-78267990D02*
X156602400Y-78267990D01*
D82*
X186000000Y-88200000D02*
X188000000Y-88200000D01*
D87*
X167000000Y-90250000D02*
X164500000Y-87750000D01*
D80*
X198424800Y-51257200D02*
X196267200Y-51257200D01*
X216357200Y-129971800D02*
X218557600Y-129971800D01*
X190955149Y-101191000D02*
X190955149Y-100668275D01*
X190455150Y-101168274D02*
X190955149Y-100668275D01*
X157100000Y-116200000D02*
X153320000Y-119980000D01*
X217576400Y-131191000D02*
X216357200Y-129971800D01*
X187175000Y-126625000D02*
X186690000Y-127110000D01*
D82*
X193050000Y-95200000D02*
X193050000Y-96675000D01*
D79*
X187200000Y-109617342D02*
X187200000Y-107825000D01*
D80*
X156646800Y-108353200D02*
X155938800Y-108353200D01*
X158850000Y-111650000D02*
X158850000Y-110260000D01*
X164354000Y-106756000D02*
X168560000Y-102550000D01*
X222554800Y-132842000D02*
X220903800Y-131191000D01*
D79*
X214620000Y-127780000D02*
X213227300Y-129172700D01*
D80*
X188180001Y-102830001D02*
X189824849Y-102830001D01*
X208900000Y-126030000D02*
X208900000Y-126699500D01*
D87*
X167520000Y-90250000D02*
X167000000Y-90250000D01*
D80*
X183150000Y-105950000D02*
X183150000Y-102900000D01*
D79*
X189587500Y-106812500D02*
X187712500Y-106812500D01*
D80*
X163500000Y-121110000D02*
X163500000Y-122580000D01*
D79*
X214620000Y-127210000D02*
X214620000Y-127780000D01*
D80*
X154690000Y-118610000D02*
X154100000Y-119200000D01*
X191900000Y-120000000D02*
X191390000Y-119490000D01*
D79*
X157732588Y-90532588D02*
X156454800Y-90532588D01*
D80*
X152500000Y-63981000D02*
X152500000Y-60020000D01*
X219557600Y-120675400D02*
X219506800Y-120726200D01*
X209361600Y-125591300D02*
X209338700Y-125591300D01*
X215482600Y-54923000D02*
X214807600Y-54248000D01*
X156653200Y-114753200D02*
X157100000Y-115200000D01*
X214475000Y-78425000D02*
X214475000Y-74275000D01*
D79*
X204464600Y-124937200D02*
X202106300Y-124937200D01*
D80*
X190650000Y-123500000D02*
X191600000Y-123500000D01*
X163220000Y-91720000D02*
X163145200Y-91645200D01*
X153810000Y-102756000D02*
X153289000Y-102235000D01*
X153810000Y-103940000D02*
X153810000Y-102756000D01*
X183100000Y-106000000D02*
X183150000Y-105950000D01*
D79*
X213227300Y-129172700D02*
X208700100Y-129172700D01*
D80*
%TO.N,Net-(J10-Pin_2)*%
X166075000Y-127620000D02*
X166075000Y-122655000D01*
%TO.N,Net-(U9-USBDM)*%
X161411500Y-111338500D02*
X162416500Y-111338500D01*
X159993000Y-112940000D02*
X159993000Y-112757000D01*
X159993000Y-112757000D02*
X161411500Y-111338500D01*
%TO.N,Net-(U9-USBDP)*%
X159993000Y-110290000D02*
X160541500Y-110838500D01*
X160541500Y-110838500D02*
X162416500Y-110838500D01*
%TO.N,Pico_SCL1*%
X198150000Y-55050000D02*
X196250000Y-55050000D01*
%TO.N,Pico_SDA1*%
X197944563Y-56320000D02*
X196250000Y-56320000D01*
X198037136Y-56227427D02*
X197944563Y-56320000D01*
D79*
%TO.N,/Pico/M1_Enc_B*%
X202311000Y-119126000D02*
X201268800Y-120168200D01*
%TO.N,Pico_SDA1*%
X202787200Y-126137200D02*
X202106300Y-126137200D01*
%TO.N,Pico_SCL1*%
X202106300Y-126537200D02*
X203127900Y-127558800D01*
D82*
%TO.N,VCC*%
X204800200Y-135915400D02*
X206090600Y-135915400D01*
D79*
%TO.N,/Pico/M1_Enc_B*%
X209788800Y-143387201D02*
X211662401Y-143387201D01*
X211662401Y-143387201D02*
X211861400Y-143586200D01*
%TO.N,Pico_SDA1*%
X203550000Y-126900000D02*
X202787200Y-126137200D01*
%TO.N,Earth*%
X198668800Y-135837200D02*
X198762800Y-135837200D01*
%TO.N,Pico_SCL1*%
X203127900Y-127558800D02*
X204250000Y-127558800D01*
%TO.N,/V_USB_1*%
X158900000Y-78100000D02*
X158900339Y-78100000D01*
X158900339Y-78100000D02*
X162384500Y-81584161D01*
X162384500Y-81584161D02*
X162384500Y-82844600D01*
%TD*%
M02*
