%TF.GenerationSoftware,KiCad,Pcbnew,8.0.2-8.0.2-0~ubuntu22.04.1*%
%TF.CreationDate,2024-05-21T13:10:04-04:00*%
%TF.ProjectId,DeltaRhoRobot,44656c74-6152-4686-9f52-6f626f742e6b,rev?*%
%TF.SameCoordinates,Original*%
%TF.FileFunction,Copper,L4,Bot*%
%TF.FilePolarity,Positive*%
%FSLAX46Y46*%
G04 Gerber Fmt 4.6, Leading zero omitted, Abs format (unit mm)*
G04 Created by KiCad (PCBNEW 8.0.2-8.0.2-0~ubuntu22.04.1) date 2024-05-21 13:10:04*
%MOMM*%
%LPD*%
G01*
G04 APERTURE LIST*
G04 Aperture macros list*
%AMRoundRect*
0 Rectangle with rounded corners*
0 $1 Rounding radius*
0 $2 $3 $4 $5 $6 $7 $8 $9 X,Y pos of 4 corners*
0 Add a 4 corners polygon primitive as box body*
4,1,4,$2,$3,$4,$5,$6,$7,$8,$9,$2,$3,0*
0 Add four circle primitives for the rounded corners*
1,1,$1+$1,$2,$3*
1,1,$1+$1,$4,$5*
1,1,$1+$1,$6,$7*
1,1,$1+$1,$8,$9*
0 Add four rect primitives between the rounded corners*
20,1,$1+$1,$2,$3,$4,$5,0*
20,1,$1+$1,$4,$5,$6,$7,0*
20,1,$1+$1,$6,$7,$8,$9,0*
20,1,$1+$1,$8,$9,$2,$3,0*%
G04 Aperture macros list end*
%ADD10C,0.100000*%
%ADD11C,0.150000*%
%ADD12C,0.300000*%
%ADD13C,0.400000*%
%TA.AperFunction,ComponentPad*%
%ADD14R,1.700000X1.700000*%
%TD*%
%TA.AperFunction,ComponentPad*%
%ADD15O,1.700000X1.700000*%
%TD*%
%TA.AperFunction,ComponentPad*%
%ADD16C,0.600000*%
%TD*%
%TA.AperFunction,ComponentPad*%
%ADD17C,1.400000*%
%TD*%
%TA.AperFunction,ComponentPad*%
%ADD18C,1.320800*%
%TD*%
%TA.AperFunction,ComponentPad*%
%ADD19C,1.244600*%
%TD*%
%TA.AperFunction,ComponentPad*%
%ADD20C,3.600000*%
%TD*%
%TA.AperFunction,ComponentPad*%
%ADD21RoundRect,0.250000X-0.750000X0.600000X-0.750000X-0.600000X0.750000X-0.600000X0.750000X0.600000X0*%
%TD*%
%TA.AperFunction,ComponentPad*%
%ADD22O,2.000000X1.700000*%
%TD*%
%TA.AperFunction,ComponentPad*%
%ADD23O,2.100000X1.000000*%
%TD*%
%TA.AperFunction,ComponentPad*%
%ADD24O,1.800000X1.000000*%
%TD*%
%TA.AperFunction,ComponentPad*%
%ADD25C,1.498600*%
%TD*%
%TA.AperFunction,ComponentPad*%
%ADD26R,1.524000X1.524000*%
%TD*%
%TA.AperFunction,ComponentPad*%
%ADD27O,1.524000X3.048000*%
%TD*%
%TA.AperFunction,ViaPad*%
%ADD28C,0.600000*%
%TD*%
%TA.AperFunction,ViaPad*%
%ADD29C,0.800000*%
%TD*%
%TA.AperFunction,ViaPad*%
%ADD30C,1.000000*%
%TD*%
%TA.AperFunction,ViaPad*%
%ADD31C,0.400000*%
%TD*%
%TA.AperFunction,ViaPad*%
%ADD32C,1.400000*%
%TD*%
%TA.AperFunction,ViaPad*%
%ADD33C,1.200000*%
%TD*%
%TA.AperFunction,Conductor*%
%ADD34C,0.250000*%
%TD*%
%TA.AperFunction,Conductor*%
%ADD35C,0.200000*%
%TD*%
G04 APERTURE END LIST*
D10*
D11*
X177002200Y-166007200D02*
X285002200Y-166007200D01*
X285002200Y-198007200D01*
X177002200Y-198007200D01*
X177002200Y-166007200D01*
D10*
D11*
X10000000Y-10000000D02*
X287002200Y-10000000D01*
X287002200Y-200007200D01*
X10000000Y-200007200D01*
X10000000Y-10000000D01*
D10*
D11*
X12000000Y-12000000D02*
X285002200Y-12000000D01*
X285002200Y-198007200D01*
X12000000Y-198007200D01*
X12000000Y-12000000D01*
D10*
D11*
X60000000Y-12000000D02*
X60000000Y-10000000D01*
D10*
D11*
X110000000Y-12000000D02*
X110000000Y-10000000D01*
D10*
D11*
X160000000Y-12000000D02*
X160000000Y-10000000D01*
D10*
D11*
X210000000Y-12000000D02*
X210000000Y-10000000D01*
D10*
D11*
X260000000Y-12000000D02*
X260000000Y-10000000D01*
D10*
D11*
X36089160Y-11593604D02*
X35346303Y-11593604D01*
X35717731Y-11593604D02*
X35717731Y-10293604D01*
X35717731Y-10293604D02*
X35593922Y-10479319D01*
X35593922Y-10479319D02*
X35470112Y-10603128D01*
X35470112Y-10603128D02*
X35346303Y-10665033D01*
D10*
D11*
X85346303Y-10417414D02*
X85408207Y-10355509D01*
X85408207Y-10355509D02*
X85532017Y-10293604D01*
X85532017Y-10293604D02*
X85841541Y-10293604D01*
X85841541Y-10293604D02*
X85965350Y-10355509D01*
X85965350Y-10355509D02*
X86027255Y-10417414D01*
X86027255Y-10417414D02*
X86089160Y-10541223D01*
X86089160Y-10541223D02*
X86089160Y-10665033D01*
X86089160Y-10665033D02*
X86027255Y-10850747D01*
X86027255Y-10850747D02*
X85284398Y-11593604D01*
X85284398Y-11593604D02*
X86089160Y-11593604D01*
D10*
D11*
X135284398Y-10293604D02*
X136089160Y-10293604D01*
X136089160Y-10293604D02*
X135655826Y-10788842D01*
X135655826Y-10788842D02*
X135841541Y-10788842D01*
X135841541Y-10788842D02*
X135965350Y-10850747D01*
X135965350Y-10850747D02*
X136027255Y-10912652D01*
X136027255Y-10912652D02*
X136089160Y-11036461D01*
X136089160Y-11036461D02*
X136089160Y-11345985D01*
X136089160Y-11345985D02*
X136027255Y-11469795D01*
X136027255Y-11469795D02*
X135965350Y-11531700D01*
X135965350Y-11531700D02*
X135841541Y-11593604D01*
X135841541Y-11593604D02*
X135470112Y-11593604D01*
X135470112Y-11593604D02*
X135346303Y-11531700D01*
X135346303Y-11531700D02*
X135284398Y-11469795D01*
D10*
D11*
X185965350Y-10726938D02*
X185965350Y-11593604D01*
X185655826Y-10231700D02*
X185346303Y-11160271D01*
X185346303Y-11160271D02*
X186151064Y-11160271D01*
D10*
D11*
X236027255Y-10293604D02*
X235408207Y-10293604D01*
X235408207Y-10293604D02*
X235346303Y-10912652D01*
X235346303Y-10912652D02*
X235408207Y-10850747D01*
X235408207Y-10850747D02*
X235532017Y-10788842D01*
X235532017Y-10788842D02*
X235841541Y-10788842D01*
X235841541Y-10788842D02*
X235965350Y-10850747D01*
X235965350Y-10850747D02*
X236027255Y-10912652D01*
X236027255Y-10912652D02*
X236089160Y-11036461D01*
X236089160Y-11036461D02*
X236089160Y-11345985D01*
X236089160Y-11345985D02*
X236027255Y-11469795D01*
X236027255Y-11469795D02*
X235965350Y-11531700D01*
X235965350Y-11531700D02*
X235841541Y-11593604D01*
X235841541Y-11593604D02*
X235532017Y-11593604D01*
X235532017Y-11593604D02*
X235408207Y-11531700D01*
X235408207Y-11531700D02*
X235346303Y-11469795D01*
D10*
D11*
X285965350Y-10293604D02*
X285717731Y-10293604D01*
X285717731Y-10293604D02*
X285593922Y-10355509D01*
X285593922Y-10355509D02*
X285532017Y-10417414D01*
X285532017Y-10417414D02*
X285408207Y-10603128D01*
X285408207Y-10603128D02*
X285346303Y-10850747D01*
X285346303Y-10850747D02*
X285346303Y-11345985D01*
X285346303Y-11345985D02*
X285408207Y-11469795D01*
X285408207Y-11469795D02*
X285470112Y-11531700D01*
X285470112Y-11531700D02*
X285593922Y-11593604D01*
X285593922Y-11593604D02*
X285841541Y-11593604D01*
X285841541Y-11593604D02*
X285965350Y-11531700D01*
X285965350Y-11531700D02*
X286027255Y-11469795D01*
X286027255Y-11469795D02*
X286089160Y-11345985D01*
X286089160Y-11345985D02*
X286089160Y-11036461D01*
X286089160Y-11036461D02*
X286027255Y-10912652D01*
X286027255Y-10912652D02*
X285965350Y-10850747D01*
X285965350Y-10850747D02*
X285841541Y-10788842D01*
X285841541Y-10788842D02*
X285593922Y-10788842D01*
X285593922Y-10788842D02*
X285470112Y-10850747D01*
X285470112Y-10850747D02*
X285408207Y-10912652D01*
X285408207Y-10912652D02*
X285346303Y-11036461D01*
D10*
D11*
X60000000Y-198007200D02*
X60000000Y-200007200D01*
D10*
D11*
X110000000Y-198007200D02*
X110000000Y-200007200D01*
D10*
D11*
X160000000Y-198007200D02*
X160000000Y-200007200D01*
D10*
D11*
X210000000Y-198007200D02*
X210000000Y-200007200D01*
D10*
D11*
X260000000Y-198007200D02*
X260000000Y-200007200D01*
D10*
D11*
X36089160Y-199600804D02*
X35346303Y-199600804D01*
X35717731Y-199600804D02*
X35717731Y-198300804D01*
X35717731Y-198300804D02*
X35593922Y-198486519D01*
X35593922Y-198486519D02*
X35470112Y-198610328D01*
X35470112Y-198610328D02*
X35346303Y-198672233D01*
D10*
D11*
X85346303Y-198424614D02*
X85408207Y-198362709D01*
X85408207Y-198362709D02*
X85532017Y-198300804D01*
X85532017Y-198300804D02*
X85841541Y-198300804D01*
X85841541Y-198300804D02*
X85965350Y-198362709D01*
X85965350Y-198362709D02*
X86027255Y-198424614D01*
X86027255Y-198424614D02*
X86089160Y-198548423D01*
X86089160Y-198548423D02*
X86089160Y-198672233D01*
X86089160Y-198672233D02*
X86027255Y-198857947D01*
X86027255Y-198857947D02*
X85284398Y-199600804D01*
X85284398Y-199600804D02*
X86089160Y-199600804D01*
D10*
D11*
X135284398Y-198300804D02*
X136089160Y-198300804D01*
X136089160Y-198300804D02*
X135655826Y-198796042D01*
X135655826Y-198796042D02*
X135841541Y-198796042D01*
X135841541Y-198796042D02*
X135965350Y-198857947D01*
X135965350Y-198857947D02*
X136027255Y-198919852D01*
X136027255Y-198919852D02*
X136089160Y-199043661D01*
X136089160Y-199043661D02*
X136089160Y-199353185D01*
X136089160Y-199353185D02*
X136027255Y-199476995D01*
X136027255Y-199476995D02*
X135965350Y-199538900D01*
X135965350Y-199538900D02*
X135841541Y-199600804D01*
X135841541Y-199600804D02*
X135470112Y-199600804D01*
X135470112Y-199600804D02*
X135346303Y-199538900D01*
X135346303Y-199538900D02*
X135284398Y-199476995D01*
D10*
D11*
X185965350Y-198734138D02*
X185965350Y-199600804D01*
X185655826Y-198238900D02*
X185346303Y-199167471D01*
X185346303Y-199167471D02*
X186151064Y-199167471D01*
D10*
D11*
X236027255Y-198300804D02*
X235408207Y-198300804D01*
X235408207Y-198300804D02*
X235346303Y-198919852D01*
X235346303Y-198919852D02*
X235408207Y-198857947D01*
X235408207Y-198857947D02*
X235532017Y-198796042D01*
X235532017Y-198796042D02*
X235841541Y-198796042D01*
X235841541Y-198796042D02*
X235965350Y-198857947D01*
X235965350Y-198857947D02*
X236027255Y-198919852D01*
X236027255Y-198919852D02*
X236089160Y-199043661D01*
X236089160Y-199043661D02*
X236089160Y-199353185D01*
X236089160Y-199353185D02*
X236027255Y-199476995D01*
X236027255Y-199476995D02*
X235965350Y-199538900D01*
X235965350Y-199538900D02*
X235841541Y-199600804D01*
X235841541Y-199600804D02*
X235532017Y-199600804D01*
X235532017Y-199600804D02*
X235408207Y-199538900D01*
X235408207Y-199538900D02*
X235346303Y-199476995D01*
D10*
D11*
X285965350Y-198300804D02*
X285717731Y-198300804D01*
X285717731Y-198300804D02*
X285593922Y-198362709D01*
X285593922Y-198362709D02*
X285532017Y-198424614D01*
X285532017Y-198424614D02*
X285408207Y-198610328D01*
X285408207Y-198610328D02*
X285346303Y-198857947D01*
X285346303Y-198857947D02*
X285346303Y-199353185D01*
X285346303Y-199353185D02*
X285408207Y-199476995D01*
X285408207Y-199476995D02*
X285470112Y-199538900D01*
X285470112Y-199538900D02*
X285593922Y-199600804D01*
X285593922Y-199600804D02*
X285841541Y-199600804D01*
X285841541Y-199600804D02*
X285965350Y-199538900D01*
X285965350Y-199538900D02*
X286027255Y-199476995D01*
X286027255Y-199476995D02*
X286089160Y-199353185D01*
X286089160Y-199353185D02*
X286089160Y-199043661D01*
X286089160Y-199043661D02*
X286027255Y-198919852D01*
X286027255Y-198919852D02*
X285965350Y-198857947D01*
X285965350Y-198857947D02*
X285841541Y-198796042D01*
X285841541Y-198796042D02*
X285593922Y-198796042D01*
X285593922Y-198796042D02*
X285470112Y-198857947D01*
X285470112Y-198857947D02*
X285408207Y-198919852D01*
X285408207Y-198919852D02*
X285346303Y-199043661D01*
D10*
D11*
X10000000Y-60000000D02*
X12000000Y-60000000D01*
D10*
D11*
X10000000Y-110000000D02*
X12000000Y-110000000D01*
D10*
D11*
X10000000Y-160000000D02*
X12000000Y-160000000D01*
D10*
D11*
X10690476Y-35222176D02*
X11309523Y-35222176D01*
X10566666Y-35593604D02*
X10999999Y-34293604D01*
X10999999Y-34293604D02*
X11433333Y-35593604D01*
D10*
D11*
X11092857Y-84912652D02*
X11278571Y-84974557D01*
X11278571Y-84974557D02*
X11340476Y-85036461D01*
X11340476Y-85036461D02*
X11402380Y-85160271D01*
X11402380Y-85160271D02*
X11402380Y-85345985D01*
X11402380Y-85345985D02*
X11340476Y-85469795D01*
X11340476Y-85469795D02*
X11278571Y-85531700D01*
X11278571Y-85531700D02*
X11154761Y-85593604D01*
X11154761Y-85593604D02*
X10659523Y-85593604D01*
X10659523Y-85593604D02*
X10659523Y-84293604D01*
X10659523Y-84293604D02*
X11092857Y-84293604D01*
X11092857Y-84293604D02*
X11216666Y-84355509D01*
X11216666Y-84355509D02*
X11278571Y-84417414D01*
X11278571Y-84417414D02*
X11340476Y-84541223D01*
X11340476Y-84541223D02*
X11340476Y-84665033D01*
X11340476Y-84665033D02*
X11278571Y-84788842D01*
X11278571Y-84788842D02*
X11216666Y-84850747D01*
X11216666Y-84850747D02*
X11092857Y-84912652D01*
X11092857Y-84912652D02*
X10659523Y-84912652D01*
D10*
D11*
X11402380Y-135469795D02*
X11340476Y-135531700D01*
X11340476Y-135531700D02*
X11154761Y-135593604D01*
X11154761Y-135593604D02*
X11030952Y-135593604D01*
X11030952Y-135593604D02*
X10845238Y-135531700D01*
X10845238Y-135531700D02*
X10721428Y-135407890D01*
X10721428Y-135407890D02*
X10659523Y-135284080D01*
X10659523Y-135284080D02*
X10597619Y-135036461D01*
X10597619Y-135036461D02*
X10597619Y-134850747D01*
X10597619Y-134850747D02*
X10659523Y-134603128D01*
X10659523Y-134603128D02*
X10721428Y-134479319D01*
X10721428Y-134479319D02*
X10845238Y-134355509D01*
X10845238Y-134355509D02*
X11030952Y-134293604D01*
X11030952Y-134293604D02*
X11154761Y-134293604D01*
X11154761Y-134293604D02*
X11340476Y-134355509D01*
X11340476Y-134355509D02*
X11402380Y-134417414D01*
D10*
D11*
X10659523Y-185593604D02*
X10659523Y-184293604D01*
X10659523Y-184293604D02*
X10969047Y-184293604D01*
X10969047Y-184293604D02*
X11154761Y-184355509D01*
X11154761Y-184355509D02*
X11278571Y-184479319D01*
X11278571Y-184479319D02*
X11340476Y-184603128D01*
X11340476Y-184603128D02*
X11402380Y-184850747D01*
X11402380Y-184850747D02*
X11402380Y-185036461D01*
X11402380Y-185036461D02*
X11340476Y-185284080D01*
X11340476Y-185284080D02*
X11278571Y-185407890D01*
X11278571Y-185407890D02*
X11154761Y-185531700D01*
X11154761Y-185531700D02*
X10969047Y-185593604D01*
X10969047Y-185593604D02*
X10659523Y-185593604D01*
D10*
D11*
X287002200Y-60000000D02*
X285002200Y-60000000D01*
D10*
D11*
X287002200Y-110000000D02*
X285002200Y-110000000D01*
D10*
D11*
X287002200Y-160000000D02*
X285002200Y-160000000D01*
D10*
D11*
X285692676Y-35222176D02*
X286311723Y-35222176D01*
X285568866Y-35593604D02*
X286002199Y-34293604D01*
X286002199Y-34293604D02*
X286435533Y-35593604D01*
D10*
D11*
X286095057Y-84912652D02*
X286280771Y-84974557D01*
X286280771Y-84974557D02*
X286342676Y-85036461D01*
X286342676Y-85036461D02*
X286404580Y-85160271D01*
X286404580Y-85160271D02*
X286404580Y-85345985D01*
X286404580Y-85345985D02*
X286342676Y-85469795D01*
X286342676Y-85469795D02*
X286280771Y-85531700D01*
X286280771Y-85531700D02*
X286156961Y-85593604D01*
X286156961Y-85593604D02*
X285661723Y-85593604D01*
X285661723Y-85593604D02*
X285661723Y-84293604D01*
X285661723Y-84293604D02*
X286095057Y-84293604D01*
X286095057Y-84293604D02*
X286218866Y-84355509D01*
X286218866Y-84355509D02*
X286280771Y-84417414D01*
X286280771Y-84417414D02*
X286342676Y-84541223D01*
X286342676Y-84541223D02*
X286342676Y-84665033D01*
X286342676Y-84665033D02*
X286280771Y-84788842D01*
X286280771Y-84788842D02*
X286218866Y-84850747D01*
X286218866Y-84850747D02*
X286095057Y-84912652D01*
X286095057Y-84912652D02*
X285661723Y-84912652D01*
D10*
D11*
X286404580Y-135469795D02*
X286342676Y-135531700D01*
X286342676Y-135531700D02*
X286156961Y-135593604D01*
X286156961Y-135593604D02*
X286033152Y-135593604D01*
X286033152Y-135593604D02*
X285847438Y-135531700D01*
X285847438Y-135531700D02*
X285723628Y-135407890D01*
X285723628Y-135407890D02*
X285661723Y-135284080D01*
X285661723Y-135284080D02*
X285599819Y-135036461D01*
X285599819Y-135036461D02*
X285599819Y-134850747D01*
X285599819Y-134850747D02*
X285661723Y-134603128D01*
X285661723Y-134603128D02*
X285723628Y-134479319D01*
X285723628Y-134479319D02*
X285847438Y-134355509D01*
X285847438Y-134355509D02*
X286033152Y-134293604D01*
X286033152Y-134293604D02*
X286156961Y-134293604D01*
X286156961Y-134293604D02*
X286342676Y-134355509D01*
X286342676Y-134355509D02*
X286404580Y-134417414D01*
D10*
D11*
X285661723Y-185593604D02*
X285661723Y-184293604D01*
X285661723Y-184293604D02*
X285971247Y-184293604D01*
X285971247Y-184293604D02*
X286156961Y-184355509D01*
X286156961Y-184355509D02*
X286280771Y-184479319D01*
X286280771Y-184479319D02*
X286342676Y-184603128D01*
X286342676Y-184603128D02*
X286404580Y-184850747D01*
X286404580Y-184850747D02*
X286404580Y-185036461D01*
X286404580Y-185036461D02*
X286342676Y-185284080D01*
X286342676Y-185284080D02*
X286280771Y-185407890D01*
X286280771Y-185407890D02*
X286156961Y-185531700D01*
X286156961Y-185531700D02*
X285971247Y-185593604D01*
X285971247Y-185593604D02*
X285661723Y-185593604D01*
D10*
D11*
X200458026Y-193793328D02*
X200458026Y-192293328D01*
X200458026Y-192293328D02*
X200815169Y-192293328D01*
X200815169Y-192293328D02*
X201029455Y-192364757D01*
X201029455Y-192364757D02*
X201172312Y-192507614D01*
X201172312Y-192507614D02*
X201243741Y-192650471D01*
X201243741Y-192650471D02*
X201315169Y-192936185D01*
X201315169Y-192936185D02*
X201315169Y-193150471D01*
X201315169Y-193150471D02*
X201243741Y-193436185D01*
X201243741Y-193436185D02*
X201172312Y-193579042D01*
X201172312Y-193579042D02*
X201029455Y-193721900D01*
X201029455Y-193721900D02*
X200815169Y-193793328D01*
X200815169Y-193793328D02*
X200458026Y-193793328D01*
X202600884Y-193793328D02*
X202600884Y-193007614D01*
X202600884Y-193007614D02*
X202529455Y-192864757D01*
X202529455Y-192864757D02*
X202386598Y-192793328D01*
X202386598Y-192793328D02*
X202100884Y-192793328D01*
X202100884Y-192793328D02*
X201958026Y-192864757D01*
X202600884Y-193721900D02*
X202458026Y-193793328D01*
X202458026Y-193793328D02*
X202100884Y-193793328D01*
X202100884Y-193793328D02*
X201958026Y-193721900D01*
X201958026Y-193721900D02*
X201886598Y-193579042D01*
X201886598Y-193579042D02*
X201886598Y-193436185D01*
X201886598Y-193436185D02*
X201958026Y-193293328D01*
X201958026Y-193293328D02*
X202100884Y-193221900D01*
X202100884Y-193221900D02*
X202458026Y-193221900D01*
X202458026Y-193221900D02*
X202600884Y-193150471D01*
X203100884Y-192793328D02*
X203672312Y-192793328D01*
X203315169Y-192293328D02*
X203315169Y-193579042D01*
X203315169Y-193579042D02*
X203386598Y-193721900D01*
X203386598Y-193721900D02*
X203529455Y-193793328D01*
X203529455Y-193793328D02*
X203672312Y-193793328D01*
X204743741Y-193721900D02*
X204600884Y-193793328D01*
X204600884Y-193793328D02*
X204315170Y-193793328D01*
X204315170Y-193793328D02*
X204172312Y-193721900D01*
X204172312Y-193721900D02*
X204100884Y-193579042D01*
X204100884Y-193579042D02*
X204100884Y-193007614D01*
X204100884Y-193007614D02*
X204172312Y-192864757D01*
X204172312Y-192864757D02*
X204315170Y-192793328D01*
X204315170Y-192793328D02*
X204600884Y-192793328D01*
X204600884Y-192793328D02*
X204743741Y-192864757D01*
X204743741Y-192864757D02*
X204815170Y-193007614D01*
X204815170Y-193007614D02*
X204815170Y-193150471D01*
X204815170Y-193150471D02*
X204100884Y-193293328D01*
X205458026Y-193650471D02*
X205529455Y-193721900D01*
X205529455Y-193721900D02*
X205458026Y-193793328D01*
X205458026Y-193793328D02*
X205386598Y-193721900D01*
X205386598Y-193721900D02*
X205458026Y-193650471D01*
X205458026Y-193650471D02*
X205458026Y-193793328D01*
X205458026Y-192864757D02*
X205529455Y-192936185D01*
X205529455Y-192936185D02*
X205458026Y-193007614D01*
X205458026Y-193007614D02*
X205386598Y-192936185D01*
X205386598Y-192936185D02*
X205458026Y-192864757D01*
X205458026Y-192864757D02*
X205458026Y-193007614D01*
D10*
D11*
X177002200Y-194507200D02*
X285002200Y-194507200D01*
D10*
D11*
X178458026Y-196593328D02*
X178458026Y-195093328D01*
X179315169Y-196593328D02*
X178672312Y-195736185D01*
X179315169Y-195093328D02*
X178458026Y-195950471D01*
X179958026Y-196593328D02*
X179958026Y-195593328D01*
X179958026Y-195093328D02*
X179886598Y-195164757D01*
X179886598Y-195164757D02*
X179958026Y-195236185D01*
X179958026Y-195236185D02*
X180029455Y-195164757D01*
X180029455Y-195164757D02*
X179958026Y-195093328D01*
X179958026Y-195093328D02*
X179958026Y-195236185D01*
X181529455Y-196450471D02*
X181458027Y-196521900D01*
X181458027Y-196521900D02*
X181243741Y-196593328D01*
X181243741Y-196593328D02*
X181100884Y-196593328D01*
X181100884Y-196593328D02*
X180886598Y-196521900D01*
X180886598Y-196521900D02*
X180743741Y-196379042D01*
X180743741Y-196379042D02*
X180672312Y-196236185D01*
X180672312Y-196236185D02*
X180600884Y-195950471D01*
X180600884Y-195950471D02*
X180600884Y-195736185D01*
X180600884Y-195736185D02*
X180672312Y-195450471D01*
X180672312Y-195450471D02*
X180743741Y-195307614D01*
X180743741Y-195307614D02*
X180886598Y-195164757D01*
X180886598Y-195164757D02*
X181100884Y-195093328D01*
X181100884Y-195093328D02*
X181243741Y-195093328D01*
X181243741Y-195093328D02*
X181458027Y-195164757D01*
X181458027Y-195164757D02*
X181529455Y-195236185D01*
X182815170Y-196593328D02*
X182815170Y-195807614D01*
X182815170Y-195807614D02*
X182743741Y-195664757D01*
X182743741Y-195664757D02*
X182600884Y-195593328D01*
X182600884Y-195593328D02*
X182315170Y-195593328D01*
X182315170Y-195593328D02*
X182172312Y-195664757D01*
X182815170Y-196521900D02*
X182672312Y-196593328D01*
X182672312Y-196593328D02*
X182315170Y-196593328D01*
X182315170Y-196593328D02*
X182172312Y-196521900D01*
X182172312Y-196521900D02*
X182100884Y-196379042D01*
X182100884Y-196379042D02*
X182100884Y-196236185D01*
X182100884Y-196236185D02*
X182172312Y-196093328D01*
X182172312Y-196093328D02*
X182315170Y-196021900D01*
X182315170Y-196021900D02*
X182672312Y-196021900D01*
X182672312Y-196021900D02*
X182815170Y-195950471D01*
X184172313Y-196593328D02*
X184172313Y-195093328D01*
X184172313Y-196521900D02*
X184029455Y-196593328D01*
X184029455Y-196593328D02*
X183743741Y-196593328D01*
X183743741Y-196593328D02*
X183600884Y-196521900D01*
X183600884Y-196521900D02*
X183529455Y-196450471D01*
X183529455Y-196450471D02*
X183458027Y-196307614D01*
X183458027Y-196307614D02*
X183458027Y-195879042D01*
X183458027Y-195879042D02*
X183529455Y-195736185D01*
X183529455Y-195736185D02*
X183600884Y-195664757D01*
X183600884Y-195664757D02*
X183743741Y-195593328D01*
X183743741Y-195593328D02*
X184029455Y-195593328D01*
X184029455Y-195593328D02*
X184172313Y-195664757D01*
X186029455Y-195807614D02*
X186529455Y-195807614D01*
X186743741Y-196593328D02*
X186029455Y-196593328D01*
X186029455Y-196593328D02*
X186029455Y-195093328D01*
X186029455Y-195093328D02*
X186743741Y-195093328D01*
X187386598Y-196450471D02*
X187458027Y-196521900D01*
X187458027Y-196521900D02*
X187386598Y-196593328D01*
X187386598Y-196593328D02*
X187315170Y-196521900D01*
X187315170Y-196521900D02*
X187386598Y-196450471D01*
X187386598Y-196450471D02*
X187386598Y-196593328D01*
X188100884Y-196593328D02*
X188100884Y-195093328D01*
X188100884Y-195093328D02*
X188458027Y-195093328D01*
X188458027Y-195093328D02*
X188672313Y-195164757D01*
X188672313Y-195164757D02*
X188815170Y-195307614D01*
X188815170Y-195307614D02*
X188886599Y-195450471D01*
X188886599Y-195450471D02*
X188958027Y-195736185D01*
X188958027Y-195736185D02*
X188958027Y-195950471D01*
X188958027Y-195950471D02*
X188886599Y-196236185D01*
X188886599Y-196236185D02*
X188815170Y-196379042D01*
X188815170Y-196379042D02*
X188672313Y-196521900D01*
X188672313Y-196521900D02*
X188458027Y-196593328D01*
X188458027Y-196593328D02*
X188100884Y-196593328D01*
X189600884Y-196450471D02*
X189672313Y-196521900D01*
X189672313Y-196521900D02*
X189600884Y-196593328D01*
X189600884Y-196593328D02*
X189529456Y-196521900D01*
X189529456Y-196521900D02*
X189600884Y-196450471D01*
X189600884Y-196450471D02*
X189600884Y-196593328D01*
X190243742Y-196164757D02*
X190958028Y-196164757D01*
X190100885Y-196593328D02*
X190600885Y-195093328D01*
X190600885Y-195093328D02*
X191100885Y-196593328D01*
X191600884Y-196450471D02*
X191672313Y-196521900D01*
X191672313Y-196521900D02*
X191600884Y-196593328D01*
X191600884Y-196593328D02*
X191529456Y-196521900D01*
X191529456Y-196521900D02*
X191600884Y-196450471D01*
X191600884Y-196450471D02*
X191600884Y-196593328D01*
X193672313Y-195736185D02*
X193529456Y-195664757D01*
X193529456Y-195664757D02*
X193458027Y-195593328D01*
X193458027Y-195593328D02*
X193386599Y-195450471D01*
X193386599Y-195450471D02*
X193386599Y-195379042D01*
X193386599Y-195379042D02*
X193458027Y-195236185D01*
X193458027Y-195236185D02*
X193529456Y-195164757D01*
X193529456Y-195164757D02*
X193672313Y-195093328D01*
X193672313Y-195093328D02*
X193958027Y-195093328D01*
X193958027Y-195093328D02*
X194100885Y-195164757D01*
X194100885Y-195164757D02*
X194172313Y-195236185D01*
X194172313Y-195236185D02*
X194243742Y-195379042D01*
X194243742Y-195379042D02*
X194243742Y-195450471D01*
X194243742Y-195450471D02*
X194172313Y-195593328D01*
X194172313Y-195593328D02*
X194100885Y-195664757D01*
X194100885Y-195664757D02*
X193958027Y-195736185D01*
X193958027Y-195736185D02*
X193672313Y-195736185D01*
X193672313Y-195736185D02*
X193529456Y-195807614D01*
X193529456Y-195807614D02*
X193458027Y-195879042D01*
X193458027Y-195879042D02*
X193386599Y-196021900D01*
X193386599Y-196021900D02*
X193386599Y-196307614D01*
X193386599Y-196307614D02*
X193458027Y-196450471D01*
X193458027Y-196450471D02*
X193529456Y-196521900D01*
X193529456Y-196521900D02*
X193672313Y-196593328D01*
X193672313Y-196593328D02*
X193958027Y-196593328D01*
X193958027Y-196593328D02*
X194100885Y-196521900D01*
X194100885Y-196521900D02*
X194172313Y-196450471D01*
X194172313Y-196450471D02*
X194243742Y-196307614D01*
X194243742Y-196307614D02*
X194243742Y-196021900D01*
X194243742Y-196021900D02*
X194172313Y-195879042D01*
X194172313Y-195879042D02*
X194100885Y-195807614D01*
X194100885Y-195807614D02*
X193958027Y-195736185D01*
X194886598Y-196450471D02*
X194958027Y-196521900D01*
X194958027Y-196521900D02*
X194886598Y-196593328D01*
X194886598Y-196593328D02*
X194815170Y-196521900D01*
X194815170Y-196521900D02*
X194886598Y-196450471D01*
X194886598Y-196450471D02*
X194886598Y-196593328D01*
X195886599Y-195093328D02*
X196029456Y-195093328D01*
X196029456Y-195093328D02*
X196172313Y-195164757D01*
X196172313Y-195164757D02*
X196243742Y-195236185D01*
X196243742Y-195236185D02*
X196315170Y-195379042D01*
X196315170Y-195379042D02*
X196386599Y-195664757D01*
X196386599Y-195664757D02*
X196386599Y-196021900D01*
X196386599Y-196021900D02*
X196315170Y-196307614D01*
X196315170Y-196307614D02*
X196243742Y-196450471D01*
X196243742Y-196450471D02*
X196172313Y-196521900D01*
X196172313Y-196521900D02*
X196029456Y-196593328D01*
X196029456Y-196593328D02*
X195886599Y-196593328D01*
X195886599Y-196593328D02*
X195743742Y-196521900D01*
X195743742Y-196521900D02*
X195672313Y-196450471D01*
X195672313Y-196450471D02*
X195600884Y-196307614D01*
X195600884Y-196307614D02*
X195529456Y-196021900D01*
X195529456Y-196021900D02*
X195529456Y-195664757D01*
X195529456Y-195664757D02*
X195600884Y-195379042D01*
X195600884Y-195379042D02*
X195672313Y-195236185D01*
X195672313Y-195236185D02*
X195743742Y-195164757D01*
X195743742Y-195164757D02*
X195886599Y-195093328D01*
X197029455Y-196450471D02*
X197100884Y-196521900D01*
X197100884Y-196521900D02*
X197029455Y-196593328D01*
X197029455Y-196593328D02*
X196958027Y-196521900D01*
X196958027Y-196521900D02*
X197029455Y-196450471D01*
X197029455Y-196450471D02*
X197029455Y-196593328D01*
X197672313Y-195236185D02*
X197743741Y-195164757D01*
X197743741Y-195164757D02*
X197886599Y-195093328D01*
X197886599Y-195093328D02*
X198243741Y-195093328D01*
X198243741Y-195093328D02*
X198386599Y-195164757D01*
X198386599Y-195164757D02*
X198458027Y-195236185D01*
X198458027Y-195236185D02*
X198529456Y-195379042D01*
X198529456Y-195379042D02*
X198529456Y-195521900D01*
X198529456Y-195521900D02*
X198458027Y-195736185D01*
X198458027Y-195736185D02*
X197600884Y-196593328D01*
X197600884Y-196593328D02*
X198529456Y-196593328D01*
D10*
D11*
X177002200Y-191507200D02*
X285002200Y-191507200D01*
D10*
D12*
X264413853Y-193785528D02*
X263913853Y-193071242D01*
X263556710Y-193785528D02*
X263556710Y-192285528D01*
X263556710Y-192285528D02*
X264128139Y-192285528D01*
X264128139Y-192285528D02*
X264270996Y-192356957D01*
X264270996Y-192356957D02*
X264342425Y-192428385D01*
X264342425Y-192428385D02*
X264413853Y-192571242D01*
X264413853Y-192571242D02*
X264413853Y-192785528D01*
X264413853Y-192785528D02*
X264342425Y-192928385D01*
X264342425Y-192928385D02*
X264270996Y-192999814D01*
X264270996Y-192999814D02*
X264128139Y-193071242D01*
X264128139Y-193071242D02*
X263556710Y-193071242D01*
X265628139Y-193714100D02*
X265485282Y-193785528D01*
X265485282Y-193785528D02*
X265199568Y-193785528D01*
X265199568Y-193785528D02*
X265056710Y-193714100D01*
X265056710Y-193714100D02*
X264985282Y-193571242D01*
X264985282Y-193571242D02*
X264985282Y-192999814D01*
X264985282Y-192999814D02*
X265056710Y-192856957D01*
X265056710Y-192856957D02*
X265199568Y-192785528D01*
X265199568Y-192785528D02*
X265485282Y-192785528D01*
X265485282Y-192785528D02*
X265628139Y-192856957D01*
X265628139Y-192856957D02*
X265699568Y-192999814D01*
X265699568Y-192999814D02*
X265699568Y-193142671D01*
X265699568Y-193142671D02*
X264985282Y-193285528D01*
X266199567Y-192785528D02*
X266556710Y-193785528D01*
X266556710Y-193785528D02*
X266913853Y-192785528D01*
X267485281Y-193642671D02*
X267556710Y-193714100D01*
X267556710Y-193714100D02*
X267485281Y-193785528D01*
X267485281Y-193785528D02*
X267413853Y-193714100D01*
X267413853Y-193714100D02*
X267485281Y-193642671D01*
X267485281Y-193642671D02*
X267485281Y-193785528D01*
X267485281Y-192856957D02*
X267556710Y-192928385D01*
X267556710Y-192928385D02*
X267485281Y-192999814D01*
X267485281Y-192999814D02*
X267413853Y-192928385D01*
X267413853Y-192928385D02*
X267485281Y-192856957D01*
X267485281Y-192856957D02*
X267485281Y-192999814D01*
D10*
D11*
X178386598Y-193721900D02*
X178600884Y-193793328D01*
X178600884Y-193793328D02*
X178958026Y-193793328D01*
X178958026Y-193793328D02*
X179100884Y-193721900D01*
X179100884Y-193721900D02*
X179172312Y-193650471D01*
X179172312Y-193650471D02*
X179243741Y-193507614D01*
X179243741Y-193507614D02*
X179243741Y-193364757D01*
X179243741Y-193364757D02*
X179172312Y-193221900D01*
X179172312Y-193221900D02*
X179100884Y-193150471D01*
X179100884Y-193150471D02*
X178958026Y-193079042D01*
X178958026Y-193079042D02*
X178672312Y-193007614D01*
X178672312Y-193007614D02*
X178529455Y-192936185D01*
X178529455Y-192936185D02*
X178458026Y-192864757D01*
X178458026Y-192864757D02*
X178386598Y-192721900D01*
X178386598Y-192721900D02*
X178386598Y-192579042D01*
X178386598Y-192579042D02*
X178458026Y-192436185D01*
X178458026Y-192436185D02*
X178529455Y-192364757D01*
X178529455Y-192364757D02*
X178672312Y-192293328D01*
X178672312Y-192293328D02*
X179029455Y-192293328D01*
X179029455Y-192293328D02*
X179243741Y-192364757D01*
X179886597Y-193793328D02*
X179886597Y-192793328D01*
X179886597Y-192293328D02*
X179815169Y-192364757D01*
X179815169Y-192364757D02*
X179886597Y-192436185D01*
X179886597Y-192436185D02*
X179958026Y-192364757D01*
X179958026Y-192364757D02*
X179886597Y-192293328D01*
X179886597Y-192293328D02*
X179886597Y-192436185D01*
X180458026Y-192793328D02*
X181243741Y-192793328D01*
X181243741Y-192793328D02*
X180458026Y-193793328D01*
X180458026Y-193793328D02*
X181243741Y-193793328D01*
X182386598Y-193721900D02*
X182243741Y-193793328D01*
X182243741Y-193793328D02*
X181958027Y-193793328D01*
X181958027Y-193793328D02*
X181815169Y-193721900D01*
X181815169Y-193721900D02*
X181743741Y-193579042D01*
X181743741Y-193579042D02*
X181743741Y-193007614D01*
X181743741Y-193007614D02*
X181815169Y-192864757D01*
X181815169Y-192864757D02*
X181958027Y-192793328D01*
X181958027Y-192793328D02*
X182243741Y-192793328D01*
X182243741Y-192793328D02*
X182386598Y-192864757D01*
X182386598Y-192864757D02*
X182458027Y-193007614D01*
X182458027Y-193007614D02*
X182458027Y-193150471D01*
X182458027Y-193150471D02*
X181743741Y-193293328D01*
X183100883Y-193650471D02*
X183172312Y-193721900D01*
X183172312Y-193721900D02*
X183100883Y-193793328D01*
X183100883Y-193793328D02*
X183029455Y-193721900D01*
X183029455Y-193721900D02*
X183100883Y-193650471D01*
X183100883Y-193650471D02*
X183100883Y-193793328D01*
X183100883Y-192864757D02*
X183172312Y-192936185D01*
X183172312Y-192936185D02*
X183100883Y-193007614D01*
X183100883Y-193007614D02*
X183029455Y-192936185D01*
X183029455Y-192936185D02*
X183100883Y-192864757D01*
X183100883Y-192864757D02*
X183100883Y-193007614D01*
X184886598Y-193364757D02*
X185600884Y-193364757D01*
X184743741Y-193793328D02*
X185243741Y-192293328D01*
X185243741Y-192293328D02*
X185743741Y-193793328D01*
X186886598Y-192793328D02*
X186886598Y-193793328D01*
X186529455Y-192221900D02*
X186172312Y-193293328D01*
X186172312Y-193293328D02*
X187100883Y-193293328D01*
D10*
D11*
X263458026Y-196593328D02*
X263458026Y-195093328D01*
X264815170Y-196593328D02*
X264815170Y-195093328D01*
X264815170Y-196521900D02*
X264672312Y-196593328D01*
X264672312Y-196593328D02*
X264386598Y-196593328D01*
X264386598Y-196593328D02*
X264243741Y-196521900D01*
X264243741Y-196521900D02*
X264172312Y-196450471D01*
X264172312Y-196450471D02*
X264100884Y-196307614D01*
X264100884Y-196307614D02*
X264100884Y-195879042D01*
X264100884Y-195879042D02*
X264172312Y-195736185D01*
X264172312Y-195736185D02*
X264243741Y-195664757D01*
X264243741Y-195664757D02*
X264386598Y-195593328D01*
X264386598Y-195593328D02*
X264672312Y-195593328D01*
X264672312Y-195593328D02*
X264815170Y-195664757D01*
X265529455Y-196450471D02*
X265600884Y-196521900D01*
X265600884Y-196521900D02*
X265529455Y-196593328D01*
X265529455Y-196593328D02*
X265458027Y-196521900D01*
X265458027Y-196521900D02*
X265529455Y-196450471D01*
X265529455Y-196450471D02*
X265529455Y-196593328D01*
X265529455Y-195664757D02*
X265600884Y-195736185D01*
X265600884Y-195736185D02*
X265529455Y-195807614D01*
X265529455Y-195807614D02*
X265458027Y-195736185D01*
X265458027Y-195736185D02*
X265529455Y-195664757D01*
X265529455Y-195664757D02*
X265529455Y-195807614D01*
X268172313Y-196593328D02*
X267315170Y-196593328D01*
X267743741Y-196593328D02*
X267743741Y-195093328D01*
X267743741Y-195093328D02*
X267600884Y-195307614D01*
X267600884Y-195307614D02*
X267458027Y-195450471D01*
X267458027Y-195450471D02*
X267315170Y-195521900D01*
X269886598Y-195021900D02*
X268600884Y-196950471D01*
X271172313Y-196593328D02*
X270315170Y-196593328D01*
X270743741Y-196593328D02*
X270743741Y-195093328D01*
X270743741Y-195093328D02*
X270600884Y-195307614D01*
X270600884Y-195307614D02*
X270458027Y-195450471D01*
X270458027Y-195450471D02*
X270315170Y-195521900D01*
D10*
D11*
X177002200Y-187507200D02*
X285002200Y-187507200D01*
D10*
D13*
X178693928Y-188211638D02*
X179836785Y-188211638D01*
X179015357Y-190211638D02*
X179265357Y-188211638D01*
X180253452Y-190211638D02*
X180420119Y-188878304D01*
X180503452Y-188211638D02*
X180396309Y-188306876D01*
X180396309Y-188306876D02*
X180479643Y-188402114D01*
X180479643Y-188402114D02*
X180586786Y-188306876D01*
X180586786Y-188306876D02*
X180503452Y-188211638D01*
X180503452Y-188211638D02*
X180479643Y-188402114D01*
X181086786Y-188878304D02*
X181848690Y-188878304D01*
X181455833Y-188211638D02*
X181241548Y-189925923D01*
X181241548Y-189925923D02*
X181312976Y-190116400D01*
X181312976Y-190116400D02*
X181491548Y-190211638D01*
X181491548Y-190211638D02*
X181682024Y-190211638D01*
X182634405Y-190211638D02*
X182455833Y-190116400D01*
X182455833Y-190116400D02*
X182384405Y-189925923D01*
X182384405Y-189925923D02*
X182598690Y-188211638D01*
X184170119Y-190116400D02*
X183967738Y-190211638D01*
X183967738Y-190211638D02*
X183586785Y-190211638D01*
X183586785Y-190211638D02*
X183408214Y-190116400D01*
X183408214Y-190116400D02*
X183336785Y-189925923D01*
X183336785Y-189925923D02*
X183432024Y-189164019D01*
X183432024Y-189164019D02*
X183551071Y-188973542D01*
X183551071Y-188973542D02*
X183753452Y-188878304D01*
X183753452Y-188878304D02*
X184134404Y-188878304D01*
X184134404Y-188878304D02*
X184312976Y-188973542D01*
X184312976Y-188973542D02*
X184384404Y-189164019D01*
X184384404Y-189164019D02*
X184360595Y-189354495D01*
X184360595Y-189354495D02*
X183384404Y-189544971D01*
X185134405Y-190021161D02*
X185217738Y-190116400D01*
X185217738Y-190116400D02*
X185110595Y-190211638D01*
X185110595Y-190211638D02*
X185027262Y-190116400D01*
X185027262Y-190116400D02*
X185134405Y-190021161D01*
X185134405Y-190021161D02*
X185110595Y-190211638D01*
X185265357Y-188973542D02*
X185348690Y-189068780D01*
X185348690Y-189068780D02*
X185241548Y-189164019D01*
X185241548Y-189164019D02*
X185158214Y-189068780D01*
X185158214Y-189068780D02*
X185265357Y-188973542D01*
X185265357Y-188973542D02*
X185241548Y-189164019D01*
D10*
D11*
X178958026Y-185607614D02*
X178458026Y-185607614D01*
X178458026Y-186393328D02*
X178458026Y-184893328D01*
X178458026Y-184893328D02*
X179172312Y-184893328D01*
X179743740Y-186393328D02*
X179743740Y-185393328D01*
X179743740Y-184893328D02*
X179672312Y-184964757D01*
X179672312Y-184964757D02*
X179743740Y-185036185D01*
X179743740Y-185036185D02*
X179815169Y-184964757D01*
X179815169Y-184964757D02*
X179743740Y-184893328D01*
X179743740Y-184893328D02*
X179743740Y-185036185D01*
X180672312Y-186393328D02*
X180529455Y-186321900D01*
X180529455Y-186321900D02*
X180458026Y-186179042D01*
X180458026Y-186179042D02*
X180458026Y-184893328D01*
X181815169Y-186321900D02*
X181672312Y-186393328D01*
X181672312Y-186393328D02*
X181386598Y-186393328D01*
X181386598Y-186393328D02*
X181243740Y-186321900D01*
X181243740Y-186321900D02*
X181172312Y-186179042D01*
X181172312Y-186179042D02*
X181172312Y-185607614D01*
X181172312Y-185607614D02*
X181243740Y-185464757D01*
X181243740Y-185464757D02*
X181386598Y-185393328D01*
X181386598Y-185393328D02*
X181672312Y-185393328D01*
X181672312Y-185393328D02*
X181815169Y-185464757D01*
X181815169Y-185464757D02*
X181886598Y-185607614D01*
X181886598Y-185607614D02*
X181886598Y-185750471D01*
X181886598Y-185750471D02*
X181172312Y-185893328D01*
X182529454Y-186250471D02*
X182600883Y-186321900D01*
X182600883Y-186321900D02*
X182529454Y-186393328D01*
X182529454Y-186393328D02*
X182458026Y-186321900D01*
X182458026Y-186321900D02*
X182529454Y-186250471D01*
X182529454Y-186250471D02*
X182529454Y-186393328D01*
X182529454Y-185464757D02*
X182600883Y-185536185D01*
X182600883Y-185536185D02*
X182529454Y-185607614D01*
X182529454Y-185607614D02*
X182458026Y-185536185D01*
X182458026Y-185536185D02*
X182529454Y-185464757D01*
X182529454Y-185464757D02*
X182529454Y-185607614D01*
X184386597Y-186393328D02*
X184386597Y-184893328D01*
X184386597Y-184893328D02*
X184743740Y-184893328D01*
X184743740Y-184893328D02*
X184958026Y-184964757D01*
X184958026Y-184964757D02*
X185100883Y-185107614D01*
X185100883Y-185107614D02*
X185172312Y-185250471D01*
X185172312Y-185250471D02*
X185243740Y-185536185D01*
X185243740Y-185536185D02*
X185243740Y-185750471D01*
X185243740Y-185750471D02*
X185172312Y-186036185D01*
X185172312Y-186036185D02*
X185100883Y-186179042D01*
X185100883Y-186179042D02*
X184958026Y-186321900D01*
X184958026Y-186321900D02*
X184743740Y-186393328D01*
X184743740Y-186393328D02*
X184386597Y-186393328D01*
X186458026Y-186321900D02*
X186315169Y-186393328D01*
X186315169Y-186393328D02*
X186029455Y-186393328D01*
X186029455Y-186393328D02*
X185886597Y-186321900D01*
X185886597Y-186321900D02*
X185815169Y-186179042D01*
X185815169Y-186179042D02*
X185815169Y-185607614D01*
X185815169Y-185607614D02*
X185886597Y-185464757D01*
X185886597Y-185464757D02*
X186029455Y-185393328D01*
X186029455Y-185393328D02*
X186315169Y-185393328D01*
X186315169Y-185393328D02*
X186458026Y-185464757D01*
X186458026Y-185464757D02*
X186529455Y-185607614D01*
X186529455Y-185607614D02*
X186529455Y-185750471D01*
X186529455Y-185750471D02*
X185815169Y-185893328D01*
X187386597Y-186393328D02*
X187243740Y-186321900D01*
X187243740Y-186321900D02*
X187172311Y-186179042D01*
X187172311Y-186179042D02*
X187172311Y-184893328D01*
X187743740Y-185393328D02*
X188315168Y-185393328D01*
X187958025Y-184893328D02*
X187958025Y-186179042D01*
X187958025Y-186179042D02*
X188029454Y-186321900D01*
X188029454Y-186321900D02*
X188172311Y-186393328D01*
X188172311Y-186393328D02*
X188315168Y-186393328D01*
X189458026Y-186393328D02*
X189458026Y-185607614D01*
X189458026Y-185607614D02*
X189386597Y-185464757D01*
X189386597Y-185464757D02*
X189243740Y-185393328D01*
X189243740Y-185393328D02*
X188958026Y-185393328D01*
X188958026Y-185393328D02*
X188815168Y-185464757D01*
X189458026Y-186321900D02*
X189315168Y-186393328D01*
X189315168Y-186393328D02*
X188958026Y-186393328D01*
X188958026Y-186393328D02*
X188815168Y-186321900D01*
X188815168Y-186321900D02*
X188743740Y-186179042D01*
X188743740Y-186179042D02*
X188743740Y-186036185D01*
X188743740Y-186036185D02*
X188815168Y-185893328D01*
X188815168Y-185893328D02*
X188958026Y-185821900D01*
X188958026Y-185821900D02*
X189315168Y-185821900D01*
X189315168Y-185821900D02*
X189458026Y-185750471D01*
X191029454Y-186393328D02*
X190529454Y-185679042D01*
X190172311Y-186393328D02*
X190172311Y-184893328D01*
X190172311Y-184893328D02*
X190743740Y-184893328D01*
X190743740Y-184893328D02*
X190886597Y-184964757D01*
X190886597Y-184964757D02*
X190958026Y-185036185D01*
X190958026Y-185036185D02*
X191029454Y-185179042D01*
X191029454Y-185179042D02*
X191029454Y-185393328D01*
X191029454Y-185393328D02*
X190958026Y-185536185D01*
X190958026Y-185536185D02*
X190886597Y-185607614D01*
X190886597Y-185607614D02*
X190743740Y-185679042D01*
X190743740Y-185679042D02*
X190172311Y-185679042D01*
X191672311Y-186393328D02*
X191672311Y-184893328D01*
X192315169Y-186393328D02*
X192315169Y-185607614D01*
X192315169Y-185607614D02*
X192243740Y-185464757D01*
X192243740Y-185464757D02*
X192100883Y-185393328D01*
X192100883Y-185393328D02*
X191886597Y-185393328D01*
X191886597Y-185393328D02*
X191743740Y-185464757D01*
X191743740Y-185464757D02*
X191672311Y-185536185D01*
X193243740Y-186393328D02*
X193100883Y-186321900D01*
X193100883Y-186321900D02*
X193029454Y-186250471D01*
X193029454Y-186250471D02*
X192958026Y-186107614D01*
X192958026Y-186107614D02*
X192958026Y-185679042D01*
X192958026Y-185679042D02*
X193029454Y-185536185D01*
X193029454Y-185536185D02*
X193100883Y-185464757D01*
X193100883Y-185464757D02*
X193243740Y-185393328D01*
X193243740Y-185393328D02*
X193458026Y-185393328D01*
X193458026Y-185393328D02*
X193600883Y-185464757D01*
X193600883Y-185464757D02*
X193672312Y-185536185D01*
X193672312Y-185536185D02*
X193743740Y-185679042D01*
X193743740Y-185679042D02*
X193743740Y-186107614D01*
X193743740Y-186107614D02*
X193672312Y-186250471D01*
X193672312Y-186250471D02*
X193600883Y-186321900D01*
X193600883Y-186321900D02*
X193458026Y-186393328D01*
X193458026Y-186393328D02*
X193243740Y-186393328D01*
X195243740Y-186393328D02*
X194743740Y-185679042D01*
X194386597Y-186393328D02*
X194386597Y-184893328D01*
X194386597Y-184893328D02*
X194958026Y-184893328D01*
X194958026Y-184893328D02*
X195100883Y-184964757D01*
X195100883Y-184964757D02*
X195172312Y-185036185D01*
X195172312Y-185036185D02*
X195243740Y-185179042D01*
X195243740Y-185179042D02*
X195243740Y-185393328D01*
X195243740Y-185393328D02*
X195172312Y-185536185D01*
X195172312Y-185536185D02*
X195100883Y-185607614D01*
X195100883Y-185607614D02*
X194958026Y-185679042D01*
X194958026Y-185679042D02*
X194386597Y-185679042D01*
X196100883Y-186393328D02*
X195958026Y-186321900D01*
X195958026Y-186321900D02*
X195886597Y-186250471D01*
X195886597Y-186250471D02*
X195815169Y-186107614D01*
X195815169Y-186107614D02*
X195815169Y-185679042D01*
X195815169Y-185679042D02*
X195886597Y-185536185D01*
X195886597Y-185536185D02*
X195958026Y-185464757D01*
X195958026Y-185464757D02*
X196100883Y-185393328D01*
X196100883Y-185393328D02*
X196315169Y-185393328D01*
X196315169Y-185393328D02*
X196458026Y-185464757D01*
X196458026Y-185464757D02*
X196529455Y-185536185D01*
X196529455Y-185536185D02*
X196600883Y-185679042D01*
X196600883Y-185679042D02*
X196600883Y-186107614D01*
X196600883Y-186107614D02*
X196529455Y-186250471D01*
X196529455Y-186250471D02*
X196458026Y-186321900D01*
X196458026Y-186321900D02*
X196315169Y-186393328D01*
X196315169Y-186393328D02*
X196100883Y-186393328D01*
X197243740Y-186393328D02*
X197243740Y-184893328D01*
X197243740Y-185464757D02*
X197386598Y-185393328D01*
X197386598Y-185393328D02*
X197672312Y-185393328D01*
X197672312Y-185393328D02*
X197815169Y-185464757D01*
X197815169Y-185464757D02*
X197886598Y-185536185D01*
X197886598Y-185536185D02*
X197958026Y-185679042D01*
X197958026Y-185679042D02*
X197958026Y-186107614D01*
X197958026Y-186107614D02*
X197886598Y-186250471D01*
X197886598Y-186250471D02*
X197815169Y-186321900D01*
X197815169Y-186321900D02*
X197672312Y-186393328D01*
X197672312Y-186393328D02*
X197386598Y-186393328D01*
X197386598Y-186393328D02*
X197243740Y-186321900D01*
X198815169Y-186393328D02*
X198672312Y-186321900D01*
X198672312Y-186321900D02*
X198600883Y-186250471D01*
X198600883Y-186250471D02*
X198529455Y-186107614D01*
X198529455Y-186107614D02*
X198529455Y-185679042D01*
X198529455Y-185679042D02*
X198600883Y-185536185D01*
X198600883Y-185536185D02*
X198672312Y-185464757D01*
X198672312Y-185464757D02*
X198815169Y-185393328D01*
X198815169Y-185393328D02*
X199029455Y-185393328D01*
X199029455Y-185393328D02*
X199172312Y-185464757D01*
X199172312Y-185464757D02*
X199243741Y-185536185D01*
X199243741Y-185536185D02*
X199315169Y-185679042D01*
X199315169Y-185679042D02*
X199315169Y-186107614D01*
X199315169Y-186107614D02*
X199243741Y-186250471D01*
X199243741Y-186250471D02*
X199172312Y-186321900D01*
X199172312Y-186321900D02*
X199029455Y-186393328D01*
X199029455Y-186393328D02*
X198815169Y-186393328D01*
X199743741Y-185393328D02*
X200315169Y-185393328D01*
X199958026Y-184893328D02*
X199958026Y-186179042D01*
X199958026Y-186179042D02*
X200029455Y-186321900D01*
X200029455Y-186321900D02*
X200172312Y-186393328D01*
X200172312Y-186393328D02*
X200315169Y-186393328D01*
X200815169Y-186250471D02*
X200886598Y-186321900D01*
X200886598Y-186321900D02*
X200815169Y-186393328D01*
X200815169Y-186393328D02*
X200743741Y-186321900D01*
X200743741Y-186321900D02*
X200815169Y-186250471D01*
X200815169Y-186250471D02*
X200815169Y-186393328D01*
X201529455Y-186393328D02*
X201529455Y-184893328D01*
X201672313Y-185821900D02*
X202100884Y-186393328D01*
X202100884Y-185393328D02*
X201529455Y-185964757D01*
X202743741Y-186393328D02*
X202743741Y-185393328D01*
X202743741Y-184893328D02*
X202672313Y-184964757D01*
X202672313Y-184964757D02*
X202743741Y-185036185D01*
X202743741Y-185036185D02*
X202815170Y-184964757D01*
X202815170Y-184964757D02*
X202743741Y-184893328D01*
X202743741Y-184893328D02*
X202743741Y-185036185D01*
X204100885Y-186321900D02*
X203958027Y-186393328D01*
X203958027Y-186393328D02*
X203672313Y-186393328D01*
X203672313Y-186393328D02*
X203529456Y-186321900D01*
X203529456Y-186321900D02*
X203458027Y-186250471D01*
X203458027Y-186250471D02*
X203386599Y-186107614D01*
X203386599Y-186107614D02*
X203386599Y-185679042D01*
X203386599Y-185679042D02*
X203458027Y-185536185D01*
X203458027Y-185536185D02*
X203529456Y-185464757D01*
X203529456Y-185464757D02*
X203672313Y-185393328D01*
X203672313Y-185393328D02*
X203958027Y-185393328D01*
X203958027Y-185393328D02*
X204100885Y-185464757D01*
X205386599Y-186393328D02*
X205386599Y-185607614D01*
X205386599Y-185607614D02*
X205315170Y-185464757D01*
X205315170Y-185464757D02*
X205172313Y-185393328D01*
X205172313Y-185393328D02*
X204886599Y-185393328D01*
X204886599Y-185393328D02*
X204743741Y-185464757D01*
X205386599Y-186321900D02*
X205243741Y-186393328D01*
X205243741Y-186393328D02*
X204886599Y-186393328D01*
X204886599Y-186393328D02*
X204743741Y-186321900D01*
X204743741Y-186321900D02*
X204672313Y-186179042D01*
X204672313Y-186179042D02*
X204672313Y-186036185D01*
X204672313Y-186036185D02*
X204743741Y-185893328D01*
X204743741Y-185893328D02*
X204886599Y-185821900D01*
X204886599Y-185821900D02*
X205243741Y-185821900D01*
X205243741Y-185821900D02*
X205386599Y-185750471D01*
X206743742Y-186393328D02*
X206743742Y-184893328D01*
X206743742Y-186321900D02*
X206600884Y-186393328D01*
X206600884Y-186393328D02*
X206315170Y-186393328D01*
X206315170Y-186393328D02*
X206172313Y-186321900D01*
X206172313Y-186321900D02*
X206100884Y-186250471D01*
X206100884Y-186250471D02*
X206029456Y-186107614D01*
X206029456Y-186107614D02*
X206029456Y-185679042D01*
X206029456Y-185679042D02*
X206100884Y-185536185D01*
X206100884Y-185536185D02*
X206172313Y-185464757D01*
X206172313Y-185464757D02*
X206315170Y-185393328D01*
X206315170Y-185393328D02*
X206600884Y-185393328D01*
X206600884Y-185393328D02*
X206743742Y-185464757D01*
X207100885Y-186536185D02*
X208243742Y-186536185D01*
X208600884Y-185393328D02*
X208600884Y-186893328D01*
X208600884Y-185464757D02*
X208743742Y-185393328D01*
X208743742Y-185393328D02*
X209029456Y-185393328D01*
X209029456Y-185393328D02*
X209172313Y-185464757D01*
X209172313Y-185464757D02*
X209243742Y-185536185D01*
X209243742Y-185536185D02*
X209315170Y-185679042D01*
X209315170Y-185679042D02*
X209315170Y-186107614D01*
X209315170Y-186107614D02*
X209243742Y-186250471D01*
X209243742Y-186250471D02*
X209172313Y-186321900D01*
X209172313Y-186321900D02*
X209029456Y-186393328D01*
X209029456Y-186393328D02*
X208743742Y-186393328D01*
X208743742Y-186393328D02*
X208600884Y-186321900D01*
X210600885Y-186321900D02*
X210458027Y-186393328D01*
X210458027Y-186393328D02*
X210172313Y-186393328D01*
X210172313Y-186393328D02*
X210029456Y-186321900D01*
X210029456Y-186321900D02*
X209958027Y-186250471D01*
X209958027Y-186250471D02*
X209886599Y-186107614D01*
X209886599Y-186107614D02*
X209886599Y-185679042D01*
X209886599Y-185679042D02*
X209958027Y-185536185D01*
X209958027Y-185536185D02*
X210029456Y-185464757D01*
X210029456Y-185464757D02*
X210172313Y-185393328D01*
X210172313Y-185393328D02*
X210458027Y-185393328D01*
X210458027Y-185393328D02*
X210600885Y-185464757D01*
X211243741Y-186393328D02*
X211243741Y-184893328D01*
X211243741Y-185464757D02*
X211386599Y-185393328D01*
X211386599Y-185393328D02*
X211672313Y-185393328D01*
X211672313Y-185393328D02*
X211815170Y-185464757D01*
X211815170Y-185464757D02*
X211886599Y-185536185D01*
X211886599Y-185536185D02*
X211958027Y-185679042D01*
X211958027Y-185679042D02*
X211958027Y-186107614D01*
X211958027Y-186107614D02*
X211886599Y-186250471D01*
X211886599Y-186250471D02*
X211815170Y-186321900D01*
X211815170Y-186321900D02*
X211672313Y-186393328D01*
X211672313Y-186393328D02*
X211386599Y-186393328D01*
X211386599Y-186393328D02*
X211243741Y-186321900D01*
D10*
D11*
X177002200Y-181507200D02*
X285002200Y-181507200D01*
D10*
D11*
X178386598Y-183621900D02*
X178600884Y-183693328D01*
X178600884Y-183693328D02*
X178958026Y-183693328D01*
X178958026Y-183693328D02*
X179100884Y-183621900D01*
X179100884Y-183621900D02*
X179172312Y-183550471D01*
X179172312Y-183550471D02*
X179243741Y-183407614D01*
X179243741Y-183407614D02*
X179243741Y-183264757D01*
X179243741Y-183264757D02*
X179172312Y-183121900D01*
X179172312Y-183121900D02*
X179100884Y-183050471D01*
X179100884Y-183050471D02*
X178958026Y-182979042D01*
X178958026Y-182979042D02*
X178672312Y-182907614D01*
X178672312Y-182907614D02*
X178529455Y-182836185D01*
X178529455Y-182836185D02*
X178458026Y-182764757D01*
X178458026Y-182764757D02*
X178386598Y-182621900D01*
X178386598Y-182621900D02*
X178386598Y-182479042D01*
X178386598Y-182479042D02*
X178458026Y-182336185D01*
X178458026Y-182336185D02*
X178529455Y-182264757D01*
X178529455Y-182264757D02*
X178672312Y-182193328D01*
X178672312Y-182193328D02*
X179029455Y-182193328D01*
X179029455Y-182193328D02*
X179243741Y-182264757D01*
X179886597Y-183693328D02*
X179886597Y-182193328D01*
X180529455Y-183693328D02*
X180529455Y-182907614D01*
X180529455Y-182907614D02*
X180458026Y-182764757D01*
X180458026Y-182764757D02*
X180315169Y-182693328D01*
X180315169Y-182693328D02*
X180100883Y-182693328D01*
X180100883Y-182693328D02*
X179958026Y-182764757D01*
X179958026Y-182764757D02*
X179886597Y-182836185D01*
X181815169Y-183621900D02*
X181672312Y-183693328D01*
X181672312Y-183693328D02*
X181386598Y-183693328D01*
X181386598Y-183693328D02*
X181243740Y-183621900D01*
X181243740Y-183621900D02*
X181172312Y-183479042D01*
X181172312Y-183479042D02*
X181172312Y-182907614D01*
X181172312Y-182907614D02*
X181243740Y-182764757D01*
X181243740Y-182764757D02*
X181386598Y-182693328D01*
X181386598Y-182693328D02*
X181672312Y-182693328D01*
X181672312Y-182693328D02*
X181815169Y-182764757D01*
X181815169Y-182764757D02*
X181886598Y-182907614D01*
X181886598Y-182907614D02*
X181886598Y-183050471D01*
X181886598Y-183050471D02*
X181172312Y-183193328D01*
X183100883Y-183621900D02*
X182958026Y-183693328D01*
X182958026Y-183693328D02*
X182672312Y-183693328D01*
X182672312Y-183693328D02*
X182529454Y-183621900D01*
X182529454Y-183621900D02*
X182458026Y-183479042D01*
X182458026Y-183479042D02*
X182458026Y-182907614D01*
X182458026Y-182907614D02*
X182529454Y-182764757D01*
X182529454Y-182764757D02*
X182672312Y-182693328D01*
X182672312Y-182693328D02*
X182958026Y-182693328D01*
X182958026Y-182693328D02*
X183100883Y-182764757D01*
X183100883Y-182764757D02*
X183172312Y-182907614D01*
X183172312Y-182907614D02*
X183172312Y-183050471D01*
X183172312Y-183050471D02*
X182458026Y-183193328D01*
X183600883Y-182693328D02*
X184172311Y-182693328D01*
X183815168Y-182193328D02*
X183815168Y-183479042D01*
X183815168Y-183479042D02*
X183886597Y-183621900D01*
X183886597Y-183621900D02*
X184029454Y-183693328D01*
X184029454Y-183693328D02*
X184172311Y-183693328D01*
X184672311Y-183550471D02*
X184743740Y-183621900D01*
X184743740Y-183621900D02*
X184672311Y-183693328D01*
X184672311Y-183693328D02*
X184600883Y-183621900D01*
X184600883Y-183621900D02*
X184672311Y-183550471D01*
X184672311Y-183550471D02*
X184672311Y-183693328D01*
X184672311Y-182764757D02*
X184743740Y-182836185D01*
X184743740Y-182836185D02*
X184672311Y-182907614D01*
X184672311Y-182907614D02*
X184600883Y-182836185D01*
X184600883Y-182836185D02*
X184672311Y-182764757D01*
X184672311Y-182764757D02*
X184672311Y-182907614D01*
D10*
D11*
X197002200Y-191507200D02*
X197002200Y-194507200D01*
D10*
D11*
X261002200Y-191507200D02*
X261002200Y-198007200D01*
D14*
%TO.P,J15,1,Pin_1*%
%TO.N,Earth*%
X207165000Y-55210000D03*
D15*
%TO.P,J15,2,Pin_2*%
%TO.N,+3.3V*%
X204625000Y-55210000D03*
%TO.P,J15,3,Pin_3*%
%TO.N,Earth*%
X207165000Y-57750000D03*
%TO.P,J15,4,Pin_4*%
%TO.N,+3.3V*%
X204625000Y-57750000D03*
%TO.P,J15,5,Pin_5*%
%TO.N,Earth*%
X207165000Y-60290000D03*
%TO.P,J15,6,Pin_6*%
%TO.N,+3.3V*%
X204625000Y-60290000D03*
%TO.P,J15,7,Pin_7*%
%TO.N,Earth*%
X207165000Y-62830000D03*
%TO.P,J15,8,Pin_8*%
%TO.N,+3.3V*%
X204625000Y-62830000D03*
%TO.P,J15,9,Pin_9*%
%TO.N,Earth*%
X207165000Y-65370000D03*
%TO.P,J15,10,Pin_10*%
%TO.N,+3.3V*%
X204625000Y-65370000D03*
%TO.P,J15,11,Pin_11*%
%TO.N,Earth*%
X207165000Y-67910000D03*
%TO.P,J15,12,Pin_12*%
%TO.N,+3.3V*%
X204625000Y-67910000D03*
%TO.P,J15,13,Pin_13*%
%TO.N,Earth*%
X207165000Y-70450000D03*
%TO.P,J15,14,Pin_14*%
%TO.N,+3.3V*%
X204625000Y-70450000D03*
%TO.P,J15,15,Pin_15*%
%TO.N,Earth*%
X207165000Y-72990000D03*
%TO.P,J15,16,Pin_16*%
%TO.N,+3.3V*%
X204625000Y-72990000D03*
%TO.P,J15,17,Pin_17*%
%TO.N,Earth*%
X207165000Y-75530000D03*
%TO.P,J15,18,Pin_18*%
%TO.N,+3.3V*%
X204625000Y-75530000D03*
%TD*%
D16*
%TO.P,U3,13,GND*%
%TO.N,Earth*%
X206418800Y-134887200D03*
X207418800Y-134887200D03*
X208418800Y-134887200D03*
%TD*%
%TO.P,U6,13,GND*%
%TO.N,Earth*%
X186418800Y-134887200D03*
X187418800Y-134887200D03*
X188418800Y-134887200D03*
%TD*%
D17*
%TO.P,TP1,1,1*%
%TO.N,Pico_SDA1*%
X201660000Y-97900000D03*
%TO.P,TP1,2,2*%
%TO.N,Pico_SCL1*%
X204200000Y-97900000D03*
%TD*%
D18*
%TO.P,J4,1,1*%
%TO.N,+5V*%
X202699999Y-84200000D03*
%TO.P,J4,2,2*%
%TO.N,/ESP32-S3-WROOM-1/SDA*%
X204199998Y-84200000D03*
%TO.P,J4,3,3*%
%TO.N,/ESP32-S3-WROOM-1/SCL*%
X205700000Y-84200000D03*
%TO.P,J4,4,4*%
%TO.N,Earth*%
X207200000Y-84200000D03*
%TD*%
D14*
%TO.P,J13,1,Pin_1*%
%TO.N,+3.3V*%
X165280000Y-52850000D03*
D15*
%TO.P,J13,2,Pin_2*%
%TO.N,Earth*%
X162740000Y-52850000D03*
%TO.P,J13,3,Pin_3*%
%TO.N,+3.3V*%
X165280000Y-55390000D03*
%TO.P,J13,4,Pin_4*%
%TO.N,Earth*%
X162740000Y-55390000D03*
%TO.P,J13,5,Pin_5*%
%TO.N,+3.3V*%
X165280000Y-57930000D03*
%TO.P,J13,6,Pin_6*%
%TO.N,Earth*%
X162740000Y-57930000D03*
%TO.P,J13,7,Pin_7*%
%TO.N,+3.3V*%
X165280000Y-60470000D03*
%TO.P,J13,8,Pin_8*%
%TO.N,Earth*%
X162740000Y-60470000D03*
%TO.P,J13,9,Pin_9*%
%TO.N,+3.3V*%
X165280000Y-63010000D03*
%TO.P,J13,10,Pin_10*%
%TO.N,Earth*%
X162740000Y-63010000D03*
%TO.P,J13,11,Pin_11*%
%TO.N,+3.3V*%
X165280000Y-65550000D03*
%TO.P,J13,12,Pin_12*%
%TO.N,Earth*%
X162740000Y-65550000D03*
%TO.P,J13,13,Pin_13*%
%TO.N,+3.3V*%
X165280000Y-68090000D03*
%TO.P,J13,14,Pin_14*%
%TO.N,Earth*%
X162740000Y-68090000D03*
%TO.P,J13,15,Pin_15*%
%TO.N,+3.3V*%
X165280000Y-70630000D03*
%TO.P,J13,16,Pin_16*%
%TO.N,Earth*%
X162740000Y-70630000D03*
%TO.P,J13,17,Pin_17*%
%TO.N,+3.3V*%
X165280000Y-73170000D03*
%TO.P,J13,18,Pin_18*%
%TO.N,Earth*%
X162740000Y-73170000D03*
%TD*%
D19*
%TO.P,P3,1,1*%
%TO.N,/Pico/M3_Out_A*%
X199788800Y-138887200D03*
%TO.P,P3,2,2*%
%TO.N,+3.3V*%
X199788800Y-140387200D03*
%TO.P,P3,3,3*%
%TO.N,/Pico/M3_Enc_A*%
X199788800Y-141887199D03*
%TO.P,P3,4,4*%
%TO.N,/Pico/M3_Enc_B*%
X199788800Y-143387201D03*
%TO.P,P3,5,5*%
%TO.N,Earth*%
X199788800Y-144887201D03*
%TO.P,P3,6,6*%
%TO.N,/Pico/M3_Out_B*%
X199788800Y-146387200D03*
%TD*%
D20*
%TO.P,H3,1,1*%
%TO.N,unconnected-(H3-Pad1)*%
X155000000Y-145000000D03*
%TD*%
D19*
%TO.P,P4,1,1*%
%TO.N,/Pico/M4_Out_A*%
X194788093Y-138887907D03*
%TO.P,P4,2,2*%
%TO.N,+3.3V*%
X194788093Y-140387907D03*
%TO.P,P4,3,3*%
%TO.N,/Pico/M4_Enc_A*%
X194788093Y-141887906D03*
%TO.P,P4,4,4*%
%TO.N,/Pico/M4_Enc_B*%
X194788093Y-143387908D03*
%TO.P,P4,5,5*%
%TO.N,Earth*%
X194788093Y-144887908D03*
%TO.P,P4,6,6*%
%TO.N,/Pico/M4_Out_B*%
X194788093Y-146387907D03*
%TD*%
D14*
%TO.P,J7,1,Pin_1*%
%TO.N,unconnected-(J7-Pin_1-Pad1)*%
X221790000Y-110280000D03*
D15*
%TO.P,J7,2,Pin_2*%
%TO.N,+5V*%
X219250000Y-110280000D03*
%TO.P,J7,3,Pin_3*%
%TO.N,PICO_SDA*%
X221790000Y-107740000D03*
%TO.P,J7,4,Pin_4*%
%TO.N,+5V*%
X219250000Y-107740000D03*
%TO.P,J7,5,Pin_5*%
%TO.N,PICO_SCL*%
X221790000Y-105200000D03*
%TO.P,J7,6,Pin_6*%
%TO.N,Earth*%
X219250000Y-105200000D03*
%TO.P,J7,7,Pin_7*%
%TO.N,unconnected-(J7-Pin_7-Pad7)*%
X221790000Y-102660000D03*
%TO.P,J7,8,Pin_8*%
%TO.N,unconnected-(J7-Pin_8-Pad8)*%
X219250000Y-102660000D03*
%TO.P,J7,9,Pin_9*%
%TO.N,Earth*%
X221790000Y-100120000D03*
%TO.P,J7,10,Pin_10*%
%TO.N,unconnected-(J7-Pin_10-Pad10)*%
X219250000Y-100120000D03*
%TO.P,J7,11,Pin_11*%
%TO.N,unconnected-(J7-Pin_11-Pad11)*%
X221790000Y-97580000D03*
%TO.P,J7,12,Pin_12*%
%TO.N,unconnected-(J7-Pin_12-Pad12)*%
X219250000Y-97580000D03*
%TO.P,J7,13,Pin_13*%
%TO.N,unconnected-(J7-Pin_13-Pad13)*%
X221790000Y-95040000D03*
%TO.P,J7,14,Pin_14*%
%TO.N,unconnected-(J7-Pin_14-Pad14)*%
X219250000Y-95040000D03*
%TO.P,J7,15,Pin_15*%
%TO.N,unconnected-(J7-Pin_15-Pad15)*%
X221790000Y-92500000D03*
%TO.P,J7,16,Pin_16*%
%TO.N,unconnected-(J7-Pin_16-Pad16)*%
X219250000Y-92500000D03*
%TO.P,J7,17,Pin_17*%
%TO.N,unconnected-(J7-Pin_17-Pad17)*%
X221790000Y-89960000D03*
%TO.P,J7,18,Pin_18*%
%TO.N,unconnected-(J7-Pin_18-Pad18)*%
X219250000Y-89960000D03*
%TO.P,J7,19,Pin_19*%
%TO.N,unconnected-(J7-Pin_19-Pad19)*%
X221790000Y-87420000D03*
%TO.P,J7,20,Pin_20*%
%TO.N,unconnected-(J7-Pin_20-Pad20)*%
X219250000Y-87420000D03*
%TO.P,J7,21,Pin_21*%
%TO.N,unconnected-(J7-Pin_21-Pad21)*%
X221790000Y-84880000D03*
%TO.P,J7,22,Pin_22*%
%TO.N,unconnected-(J7-Pin_22-Pad22)*%
X219250000Y-84880000D03*
%TO.P,J7,23,Pin_23*%
%TO.N,unconnected-(J7-Pin_23-Pad23)*%
X221790000Y-82340000D03*
%TO.P,J7,24,Pin_24*%
%TO.N,unconnected-(J7-Pin_24-Pad24)*%
X219250000Y-82340000D03*
%TO.P,J7,25,Pin_25*%
%TO.N,Earth*%
X221790000Y-79800000D03*
%TO.P,J7,26,Pin_26*%
%TO.N,unconnected-(J7-Pin_26-Pad26)*%
X219250000Y-79800000D03*
%TO.P,J7,27,Pin_27*%
%TO.N,/ESP32-S3-WROOM-1/SDA*%
X221790000Y-77260000D03*
%TO.P,J7,28,Pin_28*%
%TO.N,/ESP32-S3-WROOM-1/SCL*%
X219250000Y-77260000D03*
%TO.P,J7,29,Pin_29*%
%TO.N,unconnected-(J7-Pin_29-Pad29)*%
X221790000Y-74720000D03*
%TO.P,J7,30,Pin_30*%
%TO.N,unconnected-(J7-Pin_30-Pad30)*%
X219250000Y-74720000D03*
%TO.P,J7,31,Pin_31*%
%TO.N,unconnected-(J7-Pin_31-Pad31)*%
X221790000Y-72180000D03*
%TO.P,J7,32,Pin_32*%
%TO.N,unconnected-(J7-Pin_32-Pad32)*%
X219250000Y-72180000D03*
%TO.P,J7,33,Pin_33*%
%TO.N,unconnected-(J7-Pin_33-Pad33)*%
X221790000Y-69640000D03*
%TO.P,J7,34,Pin_34*%
%TO.N,unconnected-(J7-Pin_34-Pad34)*%
X219250000Y-69640000D03*
%TO.P,J7,35,Pin_35*%
%TO.N,unconnected-(J7-Pin_35-Pad35)*%
X221790000Y-67100000D03*
%TO.P,J7,36,Pin_36*%
%TO.N,unconnected-(J7-Pin_36-Pad36)*%
X219250000Y-67100000D03*
%TO.P,J7,37,Pin_37*%
%TO.N,unconnected-(J7-Pin_37-Pad37)*%
X221790000Y-64560000D03*
%TO.P,J7,38,Pin_38*%
%TO.N,unconnected-(J7-Pin_38-Pad38)*%
X219250000Y-64560000D03*
%TO.P,J7,39,Pin_39*%
%TO.N,Earth*%
X221790000Y-62020000D03*
%TO.P,J7,40,Pin_40*%
%TO.N,unconnected-(J7-Pin_40-Pad40)*%
X219250000Y-62020000D03*
%TD*%
D19*
%TO.P,P6,1,1*%
%TO.N,/Pico/M6_Out_A*%
X184788800Y-138887200D03*
%TO.P,P6,2,2*%
%TO.N,+3.3V*%
X184788800Y-140387200D03*
%TO.P,P6,3,3*%
%TO.N,/Pico/M6_Enc_A*%
X184788800Y-141887199D03*
%TO.P,P6,4,4*%
%TO.N,/Pico/M6_Enc_B*%
X184788800Y-143387201D03*
%TO.P,P6,5,5*%
%TO.N,Earth*%
X184788800Y-144887201D03*
%TO.P,P6,6,6*%
%TO.N,/Pico/M6_Out_B*%
X184788800Y-146387200D03*
%TD*%
D16*
%TO.P,U5,13,GND*%
%TO.N,Earth*%
X196418800Y-134887200D03*
X197418800Y-134887200D03*
X198418800Y-134887200D03*
%TD*%
D14*
%TO.P,J14,1,Pin_1*%
%TO.N,/ESP32-S3-WROOM-1/GPIO42*%
X201840000Y-55210000D03*
D15*
%TO.P,J14,2,Pin_2*%
%TO.N,/ESP32-S3-WROOM-1/GPIO41*%
X201840000Y-57750000D03*
%TO.P,J14,3,Pin_3*%
%TO.N,/ESP32-S3-WROOM-1/GPIO40*%
X201840000Y-60290000D03*
%TO.P,J14,4,Pin_4*%
%TO.N,/ESP32-S3-WROOM-1/GPIO39*%
X201840000Y-62830000D03*
%TO.P,J14,5,Pin_5*%
%TO.N,/ESP32-S3-WROOM-1/GPIO38*%
X201840000Y-65370000D03*
%TO.P,J14,6,Pin_6*%
%TO.N,/ESP32-S3-WROOM-1/GPIO37*%
X201840000Y-67910000D03*
%TO.P,J14,7,Pin_7*%
%TO.N,/ESP32-S3-WROOM-1/GPIO36*%
X201840000Y-70450000D03*
%TO.P,J14,8,Pin_8*%
%TO.N,/ESP32-S3-WROOM-1/GPIO35*%
X201840000Y-72990000D03*
%TO.P,J14,9,Pin_9*%
%TO.N,/ESP32-S3-WROOM-1/GPIO45*%
X201840000Y-75530000D03*
%TD*%
D21*
%TO.P,J1,1,Pin_1*%
%TO.N,Earth*%
X154920000Y-129730000D03*
D22*
%TO.P,J1,2,Pin_2*%
%TO.N,VS*%
X154920000Y-132230000D03*
%TD*%
D20*
%TO.P,H1,1,1*%
%TO.N,unconnected-(H1-Pad1)*%
X155000000Y-55000000D03*
%TD*%
D19*
%TO.P,P2,1,1*%
%TO.N,/Pico/M2_Out_A*%
X204788800Y-138887200D03*
%TO.P,P2,2,2*%
%TO.N,+3.3V*%
X204788800Y-140387200D03*
%TO.P,P2,3,3*%
%TO.N,/Pico/M2_Enc_A*%
X204788800Y-141887199D03*
%TO.P,P2,4,4*%
%TO.N,/Pico/M2_Enc_B*%
X204788800Y-143387201D03*
%TO.P,P2,5,5*%
%TO.N,Earth*%
X204788800Y-144887201D03*
%TO.P,P2,6,6*%
%TO.N,/Pico/M2_Out_B*%
X204788800Y-146387200D03*
%TD*%
%TO.P,P1,1,1*%
%TO.N,/Pico/M1_Out_A*%
X209788800Y-138887200D03*
%TO.P,P1,2,2*%
%TO.N,+3.3V*%
X209788800Y-140387200D03*
%TO.P,P1,3,3*%
%TO.N,/Pico/M1_Enc_A*%
X209788800Y-141887199D03*
%TO.P,P1,4,4*%
%TO.N,/Pico/M1_Enc_B*%
X209788800Y-143387201D03*
%TO.P,P1,5,5*%
%TO.N,Earth*%
X209788800Y-144887201D03*
%TO.P,P1,6,6*%
%TO.N,/Pico/M1_Out_B*%
X209788800Y-146387200D03*
%TD*%
D18*
%TO.P,J5,1,1*%
%TO.N,+5V*%
X213000000Y-114000000D03*
%TO.P,J5,2,2*%
%TO.N,PICO_SDA*%
X213000000Y-115499999D03*
%TO.P,J5,3,3*%
%TO.N,PICO_SCL*%
X213000000Y-117000001D03*
%TO.P,J5,4,4*%
%TO.N,Earth*%
X213000000Y-118500001D03*
%TD*%
D19*
%TO.P,P5,1,1*%
%TO.N,/Pico/M5_Out_A*%
X189788800Y-138887200D03*
%TO.P,P5,2,2*%
%TO.N,+3.3V*%
X189788800Y-140387200D03*
%TO.P,P5,3,3*%
%TO.N,/Pico/M5_Enc_A*%
X189788800Y-141887199D03*
%TO.P,P5,4,4*%
%TO.N,/Pico/M5_Enc_B*%
X189788800Y-143387201D03*
%TO.P,P5,5,5*%
%TO.N,Earth*%
X189788800Y-144887201D03*
%TO.P,P5,6,6*%
%TO.N,/Pico/M5_Out_B*%
X189788800Y-146387200D03*
%TD*%
D23*
%TO.P,J3,S1,SHIELD*%
%TO.N,Earth*%
X155899800Y-83012588D03*
D24*
X151699800Y-83012588D03*
D23*
X155899800Y-91652588D03*
D24*
X151699800Y-91652588D03*
%TD*%
D20*
%TO.P,H2,1,1*%
%TO.N,unconnected-(H2-Pad1)*%
X220000000Y-55000000D03*
%TD*%
D23*
%TO.P,J2,S1,SHIELD*%
%TO.N,Earth*%
X156047400Y-70711790D03*
D24*
X151847400Y-70711790D03*
D23*
X156047400Y-79351790D03*
D24*
X151847400Y-79351790D03*
%TD*%
D14*
%TO.P,J11,1,Pin_1*%
%TO.N,Earth*%
X195940000Y-80525000D03*
D15*
%TO.P,J11,2,Pin_2*%
%TO.N,/ESP32-S3-WROOM-1/Handshake2*%
X193400000Y-80525000D03*
%TO.P,J11,3,Pin_3*%
%TO.N,/ESP32-S3-WROOM-1/ESP_MISO*%
X190860000Y-80525000D03*
%TO.P,J11,4,Pin_4*%
%TO.N,/ESP32-S3-WROOM-1/ESP_SCLK*%
X188320000Y-80525000D03*
%TO.P,J11,5,Pin_5*%
%TO.N,/ESP32-S3-WROOM-1/ESP_MOSI*%
X185780000Y-80525000D03*
%TO.P,J11,6,Pin_6*%
%TO.N,/ESP32-S3-WROOM-1/ESP_CS0*%
X183240000Y-80525000D03*
%TO.P,J11,7,Pin_7*%
%TO.N,+3.3V*%
X180700000Y-80525000D03*
%TO.P,J11,8,Pin_8*%
%TO.N,VCC*%
X178160000Y-80525000D03*
%TD*%
D18*
%TO.P,SW1,1,A*%
%TO.N,Net-(SW1-A)*%
X165426199Y-147085000D03*
%TO.P,SW1,2,B*%
%TO.N,Net-(Q3-G)*%
X167426200Y-147085000D03*
%TO.P,SW1,3,C*%
%TO.N,Earth*%
X169426201Y-147085000D03*
D25*
%TO.P,SW1,4*%
%TO.N,N/C*%
X163426200Y-147085000D03*
%TO.P,SW1,5*%
X171426200Y-147085000D03*
%TD*%
D26*
%TO.P,U12,P$1,GND@1*%
%TO.N,Earth*%
X153320000Y-122600000D03*
D27*
%TO.P,U12,P$2,GPIO1*%
%TO.N,/ESP32-S3-WROOM-1/USB_RX*%
X155860000Y-122600000D03*
%TO.P,U12,P$3,GPIO3*%
%TO.N,/ESP32-S3-WROOM-1/USB_TX*%
X158400000Y-122600000D03*
%TO.P,U12,P$4,3V3/5V*%
%TO.N,unconnected-(U12-3V3{slash}5V-PadP$4)*%
X160940000Y-122600000D03*
D26*
%TO.P,U12,P$5,GND@2*%
%TO.N,Earth*%
X163480000Y-122600000D03*
D27*
%TO.P,U12,P$6,GPIO0*%
%TO.N,Net-(J10-Pin_2)*%
X166020000Y-122600000D03*
%TO.P,U12,P$7,GPIO16*%
%TO.N,unconnected-(U12-GPIO16-PadP$7)*%
X168560000Y-122600000D03*
%TO.P,U12,P$8,3V3*%
%TO.N,+3.3V*%
X171100000Y-122600000D03*
%TO.P,U12,P$9,5V*%
%TO.N,unconnected-(U12-5V-PadP$9)*%
X171100000Y-99740000D03*
D26*
%TO.P,U12,P$10,GND@3*%
%TO.N,Earth*%
X168560000Y-99740000D03*
D27*
%TO.P,U12,P$11,GPIO12*%
%TO.N,/ESP32-S3-WROOM-1/ESP_MOSI*%
X166020000Y-99740000D03*
%TO.P,U12,P$12,GPIO13*%
%TO.N,/ESP32-S3-WROOM-1/ESP_MISO*%
X163480000Y-99740000D03*
%TO.P,U12,P$13,GPIO15*%
%TO.N,/ESP32-S3-WROOM-1/ESP_CS1*%
X160940000Y-99740000D03*
%TO.P,U12,P$14,GPIO14*%
%TO.N,/ESP32-S3-WROOM-1/ESP_SCLK*%
X158400000Y-99740000D03*
%TO.P,U12,P$15,GPIO2*%
%TO.N,/ESP32-S3-WROOM-1/Handshake*%
X155860000Y-99740000D03*
%TO.P,U12,P$16,GPIO4*%
%TO.N,unconnected-(U12-GPIO4-PadP$16)*%
X153320000Y-99740000D03*
%TD*%
D14*
%TO.P,SWD1,1,Pin_1*%
%TO.N,/Pico/SWCLK*%
X222300800Y-123215400D03*
D15*
%TO.P,SWD1,2,Pin_2*%
%TO.N,Earth*%
X222300800Y-120675400D03*
%TO.P,SWD1,3,Pin_3*%
%TO.N,/Pico/SWD*%
X222300800Y-118135400D03*
%TD*%
D20*
%TO.P,H4,1,1*%
%TO.N,unconnected-(H4-Pad1)*%
X220000000Y-145000000D03*
%TD*%
D23*
%TO.P,J12,S1,SHIELD*%
%TO.N,Earth*%
X155383800Y-107233200D03*
D24*
X151183800Y-107233200D03*
D23*
X155383800Y-115873200D03*
D24*
X151183800Y-115873200D03*
%TD*%
D14*
%TO.P,J10,1,Pin_1*%
%TO.N,Earth*%
X163535000Y-127620000D03*
D15*
%TO.P,J10,2,Pin_2*%
%TO.N,Net-(J10-Pin_2)*%
X166075000Y-127620000D03*
%TD*%
D14*
%TO.P,J6,1,Pin_1*%
%TO.N,/ESP32-S3-WROOM-1/ADC0*%
X168065800Y-52850000D03*
D15*
%TO.P,J6,2,Pin_2*%
%TO.N,/ESP32-S3-WROOM-1/ADC1*%
X168065800Y-55390000D03*
%TO.P,J6,3,Pin_3*%
%TO.N,/ESP32-S3-WROOM-1/ADC2*%
X168065800Y-57930000D03*
%TO.P,J6,4,Pin_4*%
%TO.N,/ESP32-S3-WROOM-1/ADC3*%
X168065800Y-60470000D03*
%TO.P,J6,5,Pin_5*%
%TO.N,/ESP32-S3-WROOM-1/GPIO_15*%
X168065800Y-63010000D03*
%TO.P,J6,6,Pin_6*%
%TO.N,/ESP32-S3-WROOM-1/GPIO_16*%
X168065800Y-65550000D03*
%TO.P,J6,7,Pin_7*%
%TO.N,/ESP32-S3-WROOM-1/GPIO_17*%
X168065800Y-68090000D03*
%TO.P,J6,8,Pin_8*%
%TO.N,/ESP32-S3-WROOM-1/GPIO_18*%
X168065800Y-70630000D03*
%TO.P,J6,9,Pin_9*%
%TO.N,/ESP32-S3-WROOM-1/GPIO_8*%
X168065800Y-73170000D03*
%TD*%
D28*
%TO.N,+1V8*%
X185700000Y-104350000D03*
D29*
X195577700Y-106873000D03*
X189763400Y-96875600D03*
X192301100Y-112105400D03*
%TO.N,PICO_SCL*%
X204310000Y-116560000D03*
D30*
%TO.N,+5V*%
X197000000Y-90525000D03*
D29*
X215442800Y-137922000D03*
%TO.N,/Pico/IMU/SDA*%
X192050000Y-110350000D03*
D28*
X186100000Y-109400000D03*
D29*
%TO.N,/ESP32-S3-WROOM-1/ESP32CAM/3.3V_Out*%
X168100000Y-110850000D03*
X161600000Y-114450000D03*
%TO.N,/ESP32-S3-WROOM-1/ESP32CAM/V_USB*%
X158950000Y-107500000D03*
X165750000Y-115850000D03*
%TO.N,/Pico/M1_Enc_A*%
X211972600Y-141909800D03*
D31*
X202311000Y-118050000D03*
D29*
%TO.N,/Pico/M1_Enc_B*%
X211861400Y-143586200D03*
D31*
X202311000Y-119126000D03*
D29*
%TO.N,/Pico/M2_Enc_A*%
X201828400Y-140516194D03*
D31*
X201041000Y-118745000D03*
%TO.N,/Pico/M2_Enc_B*%
X200930063Y-117991031D03*
D29*
X201814140Y-141466121D03*
%TO.N,/Pico/M3_Enc_A*%
X201879200Y-142697200D03*
D31*
X199517000Y-117983000D03*
D29*
%TO.N,/Pico/M3_Enc_B*%
X201853800Y-143713200D03*
D31*
X198967947Y-118491000D03*
D29*
%TO.N,/Pico/M4_Enc_A*%
X191998600Y-140487400D03*
D31*
X198501000Y-117729000D03*
D29*
%TO.N,/Pico/M4_Enc_B*%
X191883425Y-141380003D03*
D31*
X198000000Y-118200000D03*
%TO.N,/Pico/M5_Enc_A*%
X196977000Y-117856000D03*
D29*
X191923471Y-142890893D03*
%TO.N,/Pico/M5_Enc_B*%
X191871600Y-143789400D03*
D31*
X197060000Y-118710000D03*
%TO.N,/Pico/M6_Enc_A*%
X196088000Y-118491000D03*
D29*
X181508400Y-141884400D03*
D31*
%TO.N,/Pico/M6_Enc_B*%
X195800000Y-118975977D03*
D29*
X181584600Y-143383000D03*
%TO.N,/ESP32-S3-WROOM-1/ESP_CS1*%
X172880000Y-93625000D03*
%TO.N,/ESP32-S3-WROOM-1/ESP_MOSI*%
X172760000Y-95230000D03*
%TO.N,/ESP32-S3-WROOM-1/Handshake*%
X173200000Y-92375000D03*
D30*
%TO.N,VCC*%
X184834800Y-135915400D03*
X194580000Y-135915400D03*
X204799200Y-135915400D03*
D29*
%TO.N,+3.3V*%
X184080000Y-101750000D03*
D28*
X193710000Y-129850000D03*
D29*
X166000000Y-85500000D03*
D32*
X174450000Y-80870000D03*
D29*
X201180000Y-117200000D03*
X180250000Y-96850000D03*
X159000000Y-70000000D03*
X187610000Y-132070000D03*
X202530000Y-88450000D03*
X195400000Y-132400000D03*
X201168000Y-111277400D03*
X203800000Y-133096000D03*
X175560800Y-52158987D03*
D31*
X205125000Y-123625000D03*
D28*
%TO.N,/Pico/IMU/SCL*%
X188200000Y-111000000D03*
D29*
X191200000Y-114100000D03*
%TO.N,/ESP_PU*%
X159000000Y-60000000D03*
X176276000Y-53721000D03*
X205720000Y-119940000D03*
X201754000Y-115140000D03*
%TO.N,Pico_SCL1*%
X204250000Y-127558800D03*
X198150000Y-55050000D03*
%TO.N,Earth*%
X152527000Y-64008000D03*
D30*
X192200000Y-97525000D03*
D29*
X188000000Y-126625000D03*
X161580000Y-76830000D03*
X216357200Y-129971800D03*
X159450000Y-111800000D03*
X188150000Y-93925000D03*
X160080000Y-70590000D03*
X183230000Y-96860000D03*
X174600600Y-58521600D03*
X193950000Y-102900000D03*
D28*
X187187500Y-109617342D03*
D29*
X174219600Y-55473600D03*
X208350000Y-123050000D03*
X178540000Y-116750000D03*
X209919999Y-118500001D03*
X198425800Y-51257200D03*
X158550000Y-71910000D03*
X209361600Y-125591300D03*
X189757934Y-99471060D03*
X175637400Y-51162000D03*
X179000000Y-127762000D03*
X189600000Y-106800000D03*
X209962800Y-135837200D03*
D33*
X184800000Y-89600000D03*
D29*
X157720000Y-107770000D03*
X219506800Y-120726200D03*
X214620000Y-127210000D03*
X191390000Y-119490000D03*
D33*
X168410000Y-80780000D03*
D29*
X158219800Y-78267990D03*
X199950000Y-131150000D03*
X158540000Y-118630000D03*
X200028400Y-134800000D03*
X176160000Y-74610000D03*
X163220000Y-91720000D03*
X198920000Y-116040000D03*
X214995000Y-79820000D03*
X153780000Y-117730000D03*
D31*
X191710000Y-128220000D03*
D29*
X188180001Y-102830001D03*
X158165800Y-90759588D03*
X153289000Y-102235000D03*
X190650000Y-123500000D03*
X164390000Y-117350000D03*
X165800000Y-114800000D03*
X195000000Y-117150000D03*
X190000000Y-134710000D03*
X163500000Y-121110000D03*
X157962600Y-83545988D03*
X168560000Y-102550000D03*
X213890089Y-70814062D03*
X183100000Y-106000000D03*
%TO.N,Pico_SDA1*%
X203550000Y-126900000D03*
X198037136Y-56227427D03*
%TD*%
D34*
%TO.N,PICO_SCL*%
X204750000Y-117000000D02*
X212559800Y-117000000D01*
X204310000Y-116560000D02*
X204750000Y-117000000D01*
%TO.N,/Pico/IMU/SDA*%
X186100000Y-109400000D02*
X187050000Y-110350000D01*
X187050000Y-110350000D02*
X192050000Y-110350000D01*
D35*
%TO.N,/Pico/M1_Enc_A*%
X211937600Y-141874800D02*
X211972600Y-141909800D01*
X201295000Y-119205000D02*
X201295000Y-126443993D01*
X204434536Y-128458800D02*
X211937600Y-135961864D01*
X201295000Y-126443993D02*
X203309807Y-128458800D01*
X203309807Y-128458800D02*
X204434536Y-128458800D01*
X202311000Y-118050000D02*
X202311000Y-118189000D01*
X211937600Y-135961864D02*
X211937600Y-141874800D01*
X202311000Y-118189000D02*
X201295000Y-119205000D01*
%TO.N,/Pico/M1_Enc_B*%
X212572600Y-136172600D02*
X212572600Y-142875000D01*
X204558800Y-128158800D02*
X212572600Y-136172600D01*
X201830800Y-126555529D02*
X203434071Y-128158800D01*
X201830800Y-119606200D02*
X201830800Y-126555529D01*
X212572600Y-142875000D02*
X211861400Y-143586200D01*
X203434071Y-128158800D02*
X204558800Y-128158800D01*
X202311000Y-119126000D02*
X201830800Y-119606200D01*
%TO.N,/Pico/M2_Enc_A*%
X201528400Y-127196064D02*
X201528400Y-140216194D01*
X201041000Y-118745000D02*
X200960000Y-118826000D01*
X201528400Y-140216194D02*
X201828400Y-140516194D01*
X200960000Y-126627664D02*
X201528400Y-127196064D01*
X200960000Y-118826000D02*
X200960000Y-126627664D01*
%TO.N,/Pico/M2_Enc_B*%
X201228400Y-140880381D02*
X201814140Y-141466121D01*
X200533000Y-118388094D02*
X200533000Y-126624928D01*
X201228400Y-127320328D02*
X201228400Y-140880381D01*
X200930063Y-117991031D02*
X200533000Y-118388094D01*
X200533000Y-126624928D02*
X201228400Y-127320328D01*
%TO.N,/Pico/M3_Enc_A*%
X199517000Y-117983000D02*
X199517000Y-126033192D01*
X199517000Y-126033192D02*
X200928400Y-127444592D01*
X200928400Y-141746400D02*
X201879200Y-142697200D01*
X200928400Y-127444592D02*
X200928400Y-141746400D01*
%TO.N,/Pico/M3_Enc_B*%
X200628400Y-142487800D02*
X201853800Y-143713200D01*
X198967947Y-118491000D02*
X198870000Y-118588947D01*
X198870000Y-118588947D02*
X198870000Y-125810456D01*
X200628400Y-127568856D02*
X200628400Y-142487800D01*
X198870000Y-125810456D02*
X200628400Y-127568856D01*
%TO.N,/Pico/M4_Enc_A*%
X198490000Y-117740000D02*
X198490000Y-123955464D01*
X198501000Y-117729000D02*
X198490000Y-117740000D01*
X191663600Y-140152400D02*
X191998600Y-140487400D01*
X198490000Y-123955464D02*
X191663600Y-130781864D01*
X191663600Y-130781864D02*
X191663600Y-140152400D01*
%TO.N,/Pico/M4_Enc_B*%
X198000000Y-118200000D02*
X198120000Y-118320000D01*
X198120000Y-118320000D02*
X198120000Y-123901200D01*
X191363600Y-130657600D02*
X191363600Y-140860178D01*
X191363600Y-140860178D02*
X191883425Y-141380003D01*
X198120000Y-123901200D02*
X191363600Y-130657600D01*
%TO.N,/Pico/M5_Enc_A*%
X191063600Y-142031022D02*
X191923471Y-142890893D01*
X191063600Y-130533336D02*
X191063600Y-142031022D01*
X197019603Y-117856000D02*
X197650000Y-118486397D01*
X197650000Y-118486397D02*
X197650000Y-123946936D01*
X197650000Y-123946936D02*
X191063600Y-130533336D01*
X196977000Y-117856000D02*
X197019603Y-117856000D01*
%TO.N,/Pico/M5_Enc_B*%
X190763600Y-142681400D02*
X191871600Y-143789400D01*
X190763600Y-130409072D02*
X190763600Y-142681400D01*
X197060000Y-118710000D02*
X197210000Y-118860000D01*
X197210000Y-118860000D02*
X197210000Y-123962672D01*
X197210000Y-123962672D02*
X190763600Y-130409072D01*
%TO.N,/Pico/M6_Enc_A*%
X196850000Y-121224264D02*
X181508400Y-136565864D01*
X196088000Y-118491000D02*
X196850000Y-119253000D01*
X196850000Y-119253000D02*
X196850000Y-121224264D01*
X181508400Y-136565864D02*
X181508400Y-141884400D01*
%TO.N,/Pico/M6_Enc_B*%
X180908400Y-136741600D02*
X180908400Y-142706800D01*
X196469000Y-121181000D02*
X180908400Y-136741600D01*
X196469000Y-119644977D02*
X196469000Y-121181000D01*
X195800000Y-118975977D02*
X196469000Y-119644977D01*
X180908400Y-142706800D02*
X181584600Y-143383000D01*
D34*
%TO.N,/ESP32-S3-WROOM-1/ESP_CS1*%
X172880000Y-93625000D02*
X166975000Y-93625000D01*
X166975000Y-93625000D02*
X160940000Y-99660000D01*
%TO.N,/ESP32-S3-WROOM-1/ESP_MOSI*%
X170530000Y-95230000D02*
X166020000Y-99740000D01*
X172760000Y-95230000D02*
X170530000Y-95230000D01*
%TO.N,/ESP32-S3-WROOM-1/ESP_SCLK*%
X176090000Y-93000000D02*
X165140000Y-93000000D01*
X188320000Y-80770000D02*
X176090000Y-93000000D01*
X165140000Y-93000000D02*
X158400000Y-99740000D01*
%TO.N,/ESP32-S3-WROOM-1/ESP_MISO*%
X168850000Y-94370000D02*
X177015000Y-94370000D01*
X163480000Y-99740000D02*
X168850000Y-94370000D01*
X177015000Y-94370000D02*
X190860000Y-80525000D01*
%TO.N,/ESP32-S3-WROOM-1/Handshake*%
X173200000Y-92375000D02*
X163575000Y-92375000D01*
X163575000Y-92375000D02*
X156210000Y-99740000D01*
%TO.N,/ESP32-S3-WROOM-1/SCL*%
X205700000Y-84200000D02*
X206971000Y-85471000D01*
X210579026Y-85471000D02*
X218790026Y-77260000D01*
X206971000Y-85471000D02*
X210579026Y-85471000D01*
%TO.N,/Pico/IMU/SCL*%
X188200000Y-111000000D02*
X188200000Y-111800000D01*
X188200000Y-111800000D02*
X190500000Y-114100000D01*
X190500000Y-114100000D02*
X191200000Y-114100000D01*
%TO.N,/ESP_PU*%
X152908000Y-124968000D02*
X151892000Y-123952000D01*
X151511000Y-98171000D02*
X157550000Y-92132000D01*
X159000000Y-60000000D02*
X160500000Y-58500000D01*
X201754000Y-115140000D02*
X194480000Y-115140000D01*
X194480000Y-115140000D02*
X184652000Y-124968000D01*
X157540800Y-91018472D02*
X157540800Y-90500704D01*
X152400000Y-116840000D02*
X152400000Y-106426000D01*
X157550000Y-91027672D02*
X157540800Y-91018472D01*
X162250000Y-51250000D02*
X169350000Y-51250000D01*
X157900000Y-82724704D02*
X157900000Y-78832074D01*
X157540800Y-90500704D02*
X157550000Y-90491504D01*
X157900000Y-78832074D02*
X157594800Y-78526874D01*
X157337600Y-83287104D02*
X157900000Y-82724704D01*
X157550000Y-84017272D02*
X157337600Y-83804872D01*
X157337600Y-83804872D02*
X157337600Y-83287104D01*
X157550000Y-90491504D02*
X157550000Y-84017272D01*
X160500000Y-53000000D02*
X162250000Y-51250000D01*
X157594800Y-78009106D02*
X157900000Y-77703906D01*
X157594800Y-78526874D02*
X157594800Y-78009106D01*
X151511000Y-105537000D02*
X151511000Y-98171000D01*
X151892000Y-123952000D02*
X151892000Y-117348000D01*
X157900000Y-61100000D02*
X159000000Y-60000000D01*
X160500000Y-58500000D02*
X160500000Y-53000000D01*
X184652000Y-124968000D02*
X152908000Y-124968000D01*
X157900000Y-77703906D02*
X157900000Y-61100000D01*
X151892000Y-117348000D02*
X152400000Y-116840000D01*
X171821000Y-53721000D02*
X176276000Y-53721000D01*
X157550000Y-92132000D02*
X157550000Y-91027672D01*
X152400000Y-106426000D02*
X151511000Y-105537000D01*
X169350000Y-51250000D02*
X171821000Y-53721000D01*
%TO.N,Pico_SCL1*%
X198150000Y-55050000D02*
X199600000Y-56500000D01*
X199600000Y-56500000D02*
X199600000Y-87855026D01*
X204200000Y-99100000D02*
X203200000Y-100100000D01*
X203200000Y-100100000D02*
X203200000Y-125343786D01*
X203200000Y-125343786D02*
X204202350Y-126346136D01*
X199600000Y-87855026D02*
X204200000Y-92455026D01*
X204202350Y-126346136D02*
X204202350Y-127558800D01*
X204200000Y-92455026D02*
X204200000Y-99100000D01*
%TO.N,Pico_SDA1*%
X199250000Y-57440291D02*
X198037136Y-56227427D01*
X203550000Y-126900000D02*
X203550000Y-126188760D01*
X201660000Y-99110000D02*
X201660000Y-90410000D01*
X199250000Y-88000000D02*
X199250000Y-57440291D01*
X203550000Y-126188760D02*
X202850000Y-125488760D01*
X202850000Y-100300000D02*
X201660000Y-99110000D01*
X202850000Y-125488760D02*
X202850000Y-100300000D01*
X201660000Y-90410000D02*
X199250000Y-88000000D01*
%TO.N,/ESP32-S3-WROOM-1/SDA*%
X210724000Y-85821000D02*
X218186000Y-78359000D01*
X220691000Y-78359000D02*
X221790000Y-77260000D01*
X218186000Y-78359000D02*
X220691000Y-78359000D01*
X205820998Y-85821000D02*
X210724000Y-85821000D01*
X204199998Y-84200000D02*
X205820998Y-85821000D01*
%TD*%
M02*
