M48
; DRILL file {KiCad 7.0.10-7.0.10~ubuntu22.04.1} date Wed 13 Mar 2024 11:52:10 AM CAT
; FORMAT={-:-/ absolute / inch / decimal}
; #@! TF.CreationDate,2024-03-13T11:52:10+02:00
; #@! TF.GenerationSoftware,Kicad,Pcbnew,7.0.10-7.0.10~ubuntu22.04.1
; #@! TF.FileFunction,Plated,1,4,PTH
FMAT,2
INCH
; #@! TA.AperFunction,Plated,PTH,ViaDrill
T1C0.0079
; #@! TA.AperFunction,Plated,PTH,ViaDrill
T2C0.0118
; #@! TA.AperFunction,Plated,PTH,ComponentDrill
T3C0.0118
; #@! TA.AperFunction,Plated,PTH,ViaDrill
T4C0.0157
; #@! TA.AperFunction,Plated,PTH,ViaDrill
T5C0.0236
; #@! TA.AperFunction,Plated,PTH,ComponentDrill
T6C0.0236
; #@! TA.AperFunction,Plated,PTH,ViaDrill
T7C0.0276
; #@! TA.AperFunction,Plated,PTH,ComponentDrill
T8C0.0290
; #@! TA.AperFunction,Plated,PTH,ViaDrill
T9C0.0315
; #@! TA.AperFunction,Plated,PTH,ComponentDrill
T10C0.0315
; #@! TA.AperFunction,Plated,PTH,ComponentDrill
T11C0.0320
; #@! TA.AperFunction,Plated,PTH,ComponentDrill
T12C0.0390
; #@! TA.AperFunction,Plated,PTH,ComponentDrill
T13C0.0394
; #@! TA.AperFunction,Plated,PTH,ComponentDrill
T14C0.0400
; #@! TA.AperFunction,Plated,PTH,ComponentDrill
T15C0.1260
%
G90
G05
T1
X7.5476Y-5.048
X7.6161Y-4.8618
X7.6378Y-4.685
X7.7087Y-4.6841
X7.72Y-4.665
X7.755Y-4.64
X7.7583Y-4.6736
X7.7953Y-4.6535
X7.815Y-4.635
X7.8334Y-4.665
X7.855Y-4.645
X7.9106Y-4.6453
X7.915Y-4.675
X7.965Y-4.655
X7.965Y-4.69
X8.1673Y-4.8618
T2
X7.6264Y-5.1122
X8.075Y-4.855
T3
X7.3393Y-5.3105
X7.3787Y-5.3105
X7.4181Y-5.3105
X7.733Y-5.3105
X7.7724Y-5.3105
X7.8118Y-5.3105
X8.1267Y-5.3105
X8.1661Y-5.3105
X8.2055Y-5.3105
T4
X6.005Y-2.52
X6.035Y-4.025
X6.0543Y-4.635
X6.2094Y-4.2429
X6.2161Y-4.298
X6.219Y-3.2892
X6.227Y-3.5732
X6.2281Y-2.8294
X6.2291Y-3.0814
X6.2417Y-4.6705
X6.246Y-4.579
X6.2598Y-2.3622
X6.2598Y-2.7559
X6.2909Y-4.4795
X6.3024Y-2.7791
X6.3614Y-3.0248
X6.426Y-3.611
X6.437Y-4.7681
X6.4764Y-3.4547
X6.511Y-4.552
X6.512Y-4.1888
X6.5354Y-3.3661
X6.5374Y-4.6016
X6.8016Y-3.7492
X6.8063Y-3.686
X6.8189Y-3.6368
X6.859Y-2.184
X6.874Y-2.304
X6.9118Y-2.0535
X6.9149Y-2.0143
X6.9354Y-2.9374
X6.94Y-2.115
X7.005Y-2.99
X7.0291Y-4.5965
X7.0472Y-5.03
X7.0945Y-3.8189
X7.0945Y-4.1417
X7.126Y-4.5591
X7.1425Y-4.0094
X7.146Y-5.586
X7.149Y-5.645
X7.2138Y-3.8134
X7.2283Y-4.2783
X7.2835Y-5.1339
X7.3862Y-5.1996
X7.4016Y-4.9852
X7.4087Y-3.7161
X7.471Y-3.814
X7.4803Y-5.3035
X7.5291Y-4.8594
X7.535Y-4.7043
X7.554Y-5.661
X7.5545Y-5.5661
X7.556Y-5.6256
X7.559Y-5.531
X7.5709Y-4.4136
X7.575Y-4.79
X7.6929Y-5.2126
X7.6999Y-4.2076
X7.805Y-2.199
X7.81Y-2.24
X7.812Y-2.018
X7.8315Y-4.5685
X7.874Y-5.1591
X7.92Y-4.381
X7.9205Y-4.6142
X7.9454Y-5.5695
X7.946Y-5.5321
X7.947Y-5.658
X7.948Y-5.618
X7.9736Y-3.4823
X8.0149Y-4.9844
X8.019Y-5.022
X8.0236Y-5.24
X8.0437Y-4.589
X8.0992Y-4.722
X8.1287Y-4.8059
X8.2311Y-4.3409
X8.2426Y-4.9445
X8.2646Y-4.6654
X8.2663Y-5.3479
X8.2705Y-2.7331
X8.341Y-5.653
X8.3454Y-5.587
X8.4209Y-2.788
X8.4496Y-5.0083
X8.4644Y-3.1425
X8.482Y-5.43
X8.518Y-5.117
X8.5433Y-5.0315
X8.642Y-4.753
T5
X6.6303Y-3.1803
X7.2756Y-3.5276
X7.277Y-5.351
X7.5433Y-3.6585
X7.5669Y-3.8396
X7.6606Y-5.351
X7.7559Y-3.564
X7.8661Y-5.3071
X8.063Y-5.351
T7
X6.9843Y-5.2374
X7.0909Y-5.2366
T8
X7.2751Y-5.468
X7.2751Y-5.5271
X7.2751Y-5.5861
X7.2751Y-5.6452
X7.2751Y-5.7042
X7.2751Y-5.7633
X7.472Y-5.468
X7.472Y-5.5271
X7.472Y-5.5861
X7.472Y-5.6452
X7.472Y-5.7042
X7.472Y-5.7633
X7.6688Y-5.468
X7.6688Y-5.5271
X7.6688Y-5.5861
X7.6688Y-5.6452
X7.6688Y-5.7042
X7.6688Y-5.7633
X7.8657Y-5.468
X7.8657Y-5.5271
X7.8657Y-5.5861
X7.8657Y-5.6452
X7.8657Y-5.7042
X7.8657Y-5.7633
X8.0626Y-5.468
X8.0626Y-5.5271
X8.0626Y-5.5861
X8.0626Y-5.6452
X8.0626Y-5.7042
X8.0626Y-5.7633
X8.2594Y-5.468
X8.2594Y-5.5271
X8.2594Y-5.5861
X8.2594Y-5.6452
X8.2594Y-5.7042
X8.2594Y-5.7633
T9
X6.8681Y-3.1839
T10
X7.94Y-4.145
X8.04Y-4.145
T11
X6.5128Y-5.7907
X6.5916Y-5.7907
X6.6703Y-5.7907
X7.9803Y-3.315
X8.0394Y-3.315
X8.0984Y-3.315
X8.1575Y-3.315
X8.3858Y-4.4882
X8.3858Y-4.5472
X8.3858Y-4.6063
X8.3858Y-4.6654
T12
X6.4341Y-5.7907
X6.7491Y-5.7907
T13
X6.0992Y-5.1075
X6.0992Y-5.2059
X6.4071Y-2.0807
X6.4071Y-2.1807
X6.4071Y-2.2807
X6.4071Y-2.3807
X6.4071Y-2.4807
X6.4071Y-2.5807
X6.4071Y-2.6807
X6.4071Y-2.7807
X6.4071Y-2.8807
X6.4384Y-5.0244
X6.5071Y-2.0807
X6.5071Y-2.1807
X6.5071Y-2.2807
X6.5071Y-2.3807
X6.5071Y-2.4807
X6.5071Y-2.5807
X6.5071Y-2.6807
X6.5071Y-2.7807
X6.5071Y-2.8807
X6.5384Y-5.0244
X6.6168Y-2.0807
X6.6168Y-2.1807
X6.6168Y-2.2807
X6.6168Y-2.3807
X6.6168Y-2.4807
X6.6168Y-2.5807
X6.6168Y-2.6807
X6.6168Y-2.7807
X6.6168Y-2.8807
X7.0142Y-3.1703
X7.1142Y-3.1703
X7.2142Y-3.1703
X7.3142Y-3.1703
X7.4142Y-3.1703
X7.5142Y-3.1703
X7.6142Y-3.1703
X7.7142Y-3.1703
X7.9465Y-2.1736
X7.9465Y-2.2736
X7.9465Y-2.3736
X7.9465Y-2.4736
X7.9465Y-2.5736
X7.9465Y-2.6736
X7.9465Y-2.7736
X7.9465Y-2.8736
X7.9465Y-2.9736
X8.0561Y-2.1736
X8.0561Y-2.2736
X8.0561Y-2.3736
X8.0561Y-2.4736
X8.0561Y-2.5736
X8.0561Y-2.6736
X8.0561Y-2.7736
X8.0561Y-2.8736
X8.0561Y-2.9736
X8.1561Y-2.1736
X8.1561Y-2.2736
X8.1561Y-2.3736
X8.1561Y-2.4736
X8.1561Y-2.5736
X8.1561Y-2.6736
X8.1561Y-2.7736
X8.1561Y-2.8736
X8.1561Y-2.9736
X8.6319Y-2.4417
X8.6319Y-2.5417
X8.6319Y-2.6417
X8.6319Y-2.7417
X8.6319Y-2.8417
X8.6319Y-2.9417
X8.6319Y-3.0417
X8.6319Y-3.1417
X8.6319Y-3.2417
X8.6319Y-3.3417
X8.6319Y-3.4417
X8.6319Y-3.5417
X8.6319Y-3.6417
X8.6319Y-3.7417
X8.6319Y-3.8417
X8.6319Y-3.9417
X8.6319Y-4.0417
X8.6319Y-4.1417
X8.6319Y-4.2417
X8.6319Y-4.3417
X8.7319Y-2.4417
X8.7319Y-2.5417
X8.7319Y-2.6417
X8.7319Y-2.7417
X8.7319Y-2.8417
X8.7319Y-2.9417
X8.7319Y-3.0417
X8.7319Y-3.1417
X8.7319Y-3.2417
X8.7319Y-3.3417
X8.7319Y-3.4417
X8.7319Y-3.5417
X8.7319Y-3.6417
X8.7319Y-3.7417
X8.7319Y-3.8417
X8.7319Y-3.9417
X8.7319Y-4.0417
X8.7319Y-4.1417
X8.7319Y-4.2417
X8.7319Y-4.3417
X8.752Y-4.651
X8.752Y-4.751
X8.752Y-4.851
T14
X6.0362Y-3.9268
X6.0362Y-4.8268
X6.1362Y-3.9268
X6.1362Y-4.8268
X6.2362Y-3.9268
X6.2362Y-4.8268
X6.3362Y-3.9268
X6.3362Y-4.8268
X6.4362Y-3.9268
X6.4362Y-4.8268
X6.5362Y-3.9268
X6.5362Y-4.8268
X6.6362Y-3.9268
X6.6362Y-4.8268
X6.7362Y-3.9268
X6.7362Y-4.8268
T15
X6.1024Y-2.1654
X6.1024Y-5.7087
X8.6614Y-2.1654
X8.6614Y-5.7087
T6
G00X5.9679Y-4.2218
M15
G01X5.9364Y-4.2218
M16
G05
G00X5.9679Y-4.5619
M15
G01X5.9364Y-4.5619
M16
G05
G00X5.9882Y-3.2682
M15
G01X5.9567Y-3.2682
M16
G05
G00X5.9882Y-3.6084
M15
G01X5.9567Y-3.6084
M16
G05
G00X5.994Y-2.7839
M15
G01X5.9625Y-2.7839
M16
G05
G00X5.994Y-3.1241
M15
G01X5.9625Y-3.1241
M16
G05
G00X6.1383Y-4.2218
M15
G01X6.095Y-4.2218
M16
G05
G00X6.1383Y-4.5619
M15
G01X6.095Y-4.5619
M16
G05
G00X6.1587Y-3.2682
M15
G01X6.1153Y-3.2682
M16
G05
G00X6.1587Y-3.6084
M15
G01X6.1153Y-3.6084
M16
G05
G00X6.1645Y-2.7839
M15
G01X6.1212Y-2.7839
M16
G05
G00X6.1645Y-3.1241
M15
G01X6.1212Y-3.1241
M16
G05
M30
