%TF.GenerationSoftware,KiCad,Pcbnew,8.0.2-8.0.2-0~ubuntu22.04.1*%
%TF.CreationDate,2024-05-30T01:48:53-04:00*%
%TF.ProjectId,DeltaRhoRobot,44656c74-6152-4686-9f52-6f626f742e6b,rev?*%
%TF.SameCoordinates,Original*%
%TF.FileFunction,Paste,Top*%
%TF.FilePolarity,Positive*%
%FSLAX46Y46*%
G04 Gerber Fmt 4.6, Leading zero omitted, Abs format (unit mm)*
G04 Created by KiCad (PCBNEW 8.0.2-8.0.2-0~ubuntu22.04.1) date 2024-05-30 01:48:53*
%MOMM*%
%LPD*%
G01*
G04 APERTURE LIST*
G04 Aperture macros list*
%AMRoundRect*
0 Rectangle with rounded corners*
0 $1 Rounding radius*
0 $2 $3 $4 $5 $6 $7 $8 $9 X,Y pos of 4 corners*
0 Add a 4 corners polygon primitive as box body*
4,1,4,$2,$3,$4,$5,$6,$7,$8,$9,$2,$3,0*
0 Add four circle primitives for the rounded corners*
1,1,$1+$1,$2,$3*
1,1,$1+$1,$4,$5*
1,1,$1+$1,$6,$7*
1,1,$1+$1,$8,$9*
0 Add four rect primitives between the rounded corners*
20,1,$1+$1,$2,$3,$4,$5,0*
20,1,$1+$1,$4,$5,$6,$7,0*
20,1,$1+$1,$6,$7,$8,$9,0*
20,1,$1+$1,$8,$9,$2,$3,0*%
G04 Aperture macros list end*
%ADD10C,0.100000*%
%ADD11C,0.150000*%
%ADD12C,0.300000*%
%ADD13C,0.400000*%
%ADD14RoundRect,0.140000X0.140000X0.170000X-0.140000X0.170000X-0.140000X-0.170000X0.140000X-0.170000X0*%
%ADD15RoundRect,0.135000X-0.135000X-0.185000X0.135000X-0.185000X0.135000X0.185000X-0.135000X0.185000X0*%
%ADD16R,0.900000X1.500000*%
%ADD17RoundRect,0.150000X-0.587500X-0.150000X0.587500X-0.150000X0.587500X0.150000X-0.587500X0.150000X0*%
%ADD18RoundRect,0.140000X-0.170000X0.140000X-0.170000X-0.140000X0.170000X-0.140000X0.170000X0.140000X0*%
%ADD19RoundRect,0.140000X0.170000X-0.140000X0.170000X0.140000X-0.170000X0.140000X-0.170000X-0.140000X0*%
%ADD20R,0.800000X0.950000*%
%ADD21R,0.250000X0.500000*%
%ADD22R,1.300000X1.550000*%
%ADD23RoundRect,0.135000X0.185000X-0.135000X0.185000X0.135000X-0.185000X0.135000X-0.185000X-0.135000X0*%
%ADD24R,0.650000X1.050000*%
%ADD25RoundRect,0.140000X-0.140000X-0.170000X0.140000X-0.170000X0.140000X0.170000X-0.140000X0.170000X0*%
%ADD26RoundRect,0.135000X-0.185000X0.135000X-0.185000X-0.135000X0.185000X-0.135000X0.185000X0.135000X0*%
%ADD27RoundRect,0.249999X0.395001X-0.395001X0.395001X0.395001X-0.395001X0.395001X-0.395001X-0.395001X0*%
%ADD28RoundRect,0.050000X0.050000X-0.387500X0.050000X0.387500X-0.050000X0.387500X-0.050000X-0.387500X0*%
%ADD29RoundRect,0.050000X0.387500X-0.050000X0.387500X0.050000X-0.387500X0.050000X-0.387500X-0.050000X0*%
%ADD30RoundRect,0.250000X0.250000X0.475000X-0.250000X0.475000X-0.250000X-0.475000X0.250000X-0.475000X0*%
%ADD31RoundRect,0.250000X2.050000X0.300000X-2.050000X0.300000X-2.050000X-0.300000X2.050000X-0.300000X0*%
%ADD32RoundRect,0.250000X2.025000X2.375000X-2.025000X2.375000X-2.025000X-2.375000X2.025000X-2.375000X0*%
%ADD33R,1.050000X0.650000*%
%ADD34RoundRect,0.150000X0.150000X-0.650000X0.150000X0.650000X-0.150000X0.650000X-0.150000X-0.650000X0*%
%ADD35RoundRect,0.250000X0.850000X-0.375000X0.850000X0.375000X-0.850000X0.375000X-0.850000X-0.375000X0*%
%ADD36R,1.400000X1.200000*%
%ADD37RoundRect,0.135000X0.135000X0.185000X-0.135000X0.185000X-0.135000X-0.185000X0.135000X-0.185000X0*%
%ADD38R,1.500000X0.900000*%
%ADD39R,0.900000X0.900000*%
%ADD40R,2.000000X1.500000*%
%ADD41R,2.000000X3.800000*%
%ADD42RoundRect,0.250000X-0.255000X0.255000X-0.255000X-0.255000X0.255000X-0.255000X0.255000X0.255000X0*%
%ADD43RoundRect,0.062500X-0.062500X0.350000X-0.062500X-0.350000X0.062500X-0.350000X0.062500X0.350000X0*%
%ADD44RoundRect,0.062500X-0.350000X0.062500X-0.350000X-0.062500X0.350000X-0.062500X0.350000X0.062500X0*%
%ADD45RoundRect,0.150000X-0.150000X0.512500X-0.150000X-0.512500X0.150000X-0.512500X0.150000X0.512500X0*%
%ADD46R,0.375000X0.350000*%
%ADD47R,0.350000X0.375000*%
%ADD48R,1.240000X0.600000*%
%ADD49R,1.240000X0.300000*%
%ADD50RoundRect,0.250000X-0.262500X-0.450000X0.262500X-0.450000X0.262500X0.450000X-0.262500X0.450000X0*%
%ADD51R,0.533400X0.304800*%
%ADD52R,0.304800X0.533400*%
%ADD53RoundRect,0.100000X-0.225000X-0.100000X0.225000X-0.100000X0.225000X0.100000X-0.225000X0.100000X0*%
%ADD54RoundRect,0.225000X-0.250000X0.225000X-0.250000X-0.225000X0.250000X-0.225000X0.250000X0.225000X0*%
%ADD55RoundRect,0.250000X1.412500X0.550000X-1.412500X0.550000X-1.412500X-0.550000X1.412500X-0.550000X0*%
G04 APERTURE END LIST*
D10*
D11*
X177002200Y-166007200D02*
X285002200Y-166007200D01*
X285002200Y-198007200D01*
X177002200Y-198007200D01*
X177002200Y-166007200D01*
D10*
D11*
X10000000Y-10000000D02*
X287002200Y-10000000D01*
X287002200Y-200007200D01*
X10000000Y-200007200D01*
X10000000Y-10000000D01*
D10*
D11*
X12000000Y-12000000D02*
X285002200Y-12000000D01*
X285002200Y-198007200D01*
X12000000Y-198007200D01*
X12000000Y-12000000D01*
D10*
D11*
X60000000Y-12000000D02*
X60000000Y-10000000D01*
D10*
D11*
X110000000Y-12000000D02*
X110000000Y-10000000D01*
D10*
D11*
X160000000Y-12000000D02*
X160000000Y-10000000D01*
D10*
D11*
X210000000Y-12000000D02*
X210000000Y-10000000D01*
D10*
D11*
X260000000Y-12000000D02*
X260000000Y-10000000D01*
D10*
D11*
X36089160Y-11593604D02*
X35346303Y-11593604D01*
X35717731Y-11593604D02*
X35717731Y-10293604D01*
X35717731Y-10293604D02*
X35593922Y-10479319D01*
X35593922Y-10479319D02*
X35470112Y-10603128D01*
X35470112Y-10603128D02*
X35346303Y-10665033D01*
D10*
D11*
X85346303Y-10417414D02*
X85408207Y-10355509D01*
X85408207Y-10355509D02*
X85532017Y-10293604D01*
X85532017Y-10293604D02*
X85841541Y-10293604D01*
X85841541Y-10293604D02*
X85965350Y-10355509D01*
X85965350Y-10355509D02*
X86027255Y-10417414D01*
X86027255Y-10417414D02*
X86089160Y-10541223D01*
X86089160Y-10541223D02*
X86089160Y-10665033D01*
X86089160Y-10665033D02*
X86027255Y-10850747D01*
X86027255Y-10850747D02*
X85284398Y-11593604D01*
X85284398Y-11593604D02*
X86089160Y-11593604D01*
D10*
D11*
X135284398Y-10293604D02*
X136089160Y-10293604D01*
X136089160Y-10293604D02*
X135655826Y-10788842D01*
X135655826Y-10788842D02*
X135841541Y-10788842D01*
X135841541Y-10788842D02*
X135965350Y-10850747D01*
X135965350Y-10850747D02*
X136027255Y-10912652D01*
X136027255Y-10912652D02*
X136089160Y-11036461D01*
X136089160Y-11036461D02*
X136089160Y-11345985D01*
X136089160Y-11345985D02*
X136027255Y-11469795D01*
X136027255Y-11469795D02*
X135965350Y-11531700D01*
X135965350Y-11531700D02*
X135841541Y-11593604D01*
X135841541Y-11593604D02*
X135470112Y-11593604D01*
X135470112Y-11593604D02*
X135346303Y-11531700D01*
X135346303Y-11531700D02*
X135284398Y-11469795D01*
D10*
D11*
X185965350Y-10726938D02*
X185965350Y-11593604D01*
X185655826Y-10231700D02*
X185346303Y-11160271D01*
X185346303Y-11160271D02*
X186151064Y-11160271D01*
D10*
D11*
X236027255Y-10293604D02*
X235408207Y-10293604D01*
X235408207Y-10293604D02*
X235346303Y-10912652D01*
X235346303Y-10912652D02*
X235408207Y-10850747D01*
X235408207Y-10850747D02*
X235532017Y-10788842D01*
X235532017Y-10788842D02*
X235841541Y-10788842D01*
X235841541Y-10788842D02*
X235965350Y-10850747D01*
X235965350Y-10850747D02*
X236027255Y-10912652D01*
X236027255Y-10912652D02*
X236089160Y-11036461D01*
X236089160Y-11036461D02*
X236089160Y-11345985D01*
X236089160Y-11345985D02*
X236027255Y-11469795D01*
X236027255Y-11469795D02*
X235965350Y-11531700D01*
X235965350Y-11531700D02*
X235841541Y-11593604D01*
X235841541Y-11593604D02*
X235532017Y-11593604D01*
X235532017Y-11593604D02*
X235408207Y-11531700D01*
X235408207Y-11531700D02*
X235346303Y-11469795D01*
D10*
D11*
X285965350Y-10293604D02*
X285717731Y-10293604D01*
X285717731Y-10293604D02*
X285593922Y-10355509D01*
X285593922Y-10355509D02*
X285532017Y-10417414D01*
X285532017Y-10417414D02*
X285408207Y-10603128D01*
X285408207Y-10603128D02*
X285346303Y-10850747D01*
X285346303Y-10850747D02*
X285346303Y-11345985D01*
X285346303Y-11345985D02*
X285408207Y-11469795D01*
X285408207Y-11469795D02*
X285470112Y-11531700D01*
X285470112Y-11531700D02*
X285593922Y-11593604D01*
X285593922Y-11593604D02*
X285841541Y-11593604D01*
X285841541Y-11593604D02*
X285965350Y-11531700D01*
X285965350Y-11531700D02*
X286027255Y-11469795D01*
X286027255Y-11469795D02*
X286089160Y-11345985D01*
X286089160Y-11345985D02*
X286089160Y-11036461D01*
X286089160Y-11036461D02*
X286027255Y-10912652D01*
X286027255Y-10912652D02*
X285965350Y-10850747D01*
X285965350Y-10850747D02*
X285841541Y-10788842D01*
X285841541Y-10788842D02*
X285593922Y-10788842D01*
X285593922Y-10788842D02*
X285470112Y-10850747D01*
X285470112Y-10850747D02*
X285408207Y-10912652D01*
X285408207Y-10912652D02*
X285346303Y-11036461D01*
D10*
D11*
X60000000Y-198007200D02*
X60000000Y-200007200D01*
D10*
D11*
X110000000Y-198007200D02*
X110000000Y-200007200D01*
D10*
D11*
X160000000Y-198007200D02*
X160000000Y-200007200D01*
D10*
D11*
X210000000Y-198007200D02*
X210000000Y-200007200D01*
D10*
D11*
X260000000Y-198007200D02*
X260000000Y-200007200D01*
D10*
D11*
X36089160Y-199600804D02*
X35346303Y-199600804D01*
X35717731Y-199600804D02*
X35717731Y-198300804D01*
X35717731Y-198300804D02*
X35593922Y-198486519D01*
X35593922Y-198486519D02*
X35470112Y-198610328D01*
X35470112Y-198610328D02*
X35346303Y-198672233D01*
D10*
D11*
X85346303Y-198424614D02*
X85408207Y-198362709D01*
X85408207Y-198362709D02*
X85532017Y-198300804D01*
X85532017Y-198300804D02*
X85841541Y-198300804D01*
X85841541Y-198300804D02*
X85965350Y-198362709D01*
X85965350Y-198362709D02*
X86027255Y-198424614D01*
X86027255Y-198424614D02*
X86089160Y-198548423D01*
X86089160Y-198548423D02*
X86089160Y-198672233D01*
X86089160Y-198672233D02*
X86027255Y-198857947D01*
X86027255Y-198857947D02*
X85284398Y-199600804D01*
X85284398Y-199600804D02*
X86089160Y-199600804D01*
D10*
D11*
X135284398Y-198300804D02*
X136089160Y-198300804D01*
X136089160Y-198300804D02*
X135655826Y-198796042D01*
X135655826Y-198796042D02*
X135841541Y-198796042D01*
X135841541Y-198796042D02*
X135965350Y-198857947D01*
X135965350Y-198857947D02*
X136027255Y-198919852D01*
X136027255Y-198919852D02*
X136089160Y-199043661D01*
X136089160Y-199043661D02*
X136089160Y-199353185D01*
X136089160Y-199353185D02*
X136027255Y-199476995D01*
X136027255Y-199476995D02*
X135965350Y-199538900D01*
X135965350Y-199538900D02*
X135841541Y-199600804D01*
X135841541Y-199600804D02*
X135470112Y-199600804D01*
X135470112Y-199600804D02*
X135346303Y-199538900D01*
X135346303Y-199538900D02*
X135284398Y-199476995D01*
D10*
D11*
X185965350Y-198734138D02*
X185965350Y-199600804D01*
X185655826Y-198238900D02*
X185346303Y-199167471D01*
X185346303Y-199167471D02*
X186151064Y-199167471D01*
D10*
D11*
X236027255Y-198300804D02*
X235408207Y-198300804D01*
X235408207Y-198300804D02*
X235346303Y-198919852D01*
X235346303Y-198919852D02*
X235408207Y-198857947D01*
X235408207Y-198857947D02*
X235532017Y-198796042D01*
X235532017Y-198796042D02*
X235841541Y-198796042D01*
X235841541Y-198796042D02*
X235965350Y-198857947D01*
X235965350Y-198857947D02*
X236027255Y-198919852D01*
X236027255Y-198919852D02*
X236089160Y-199043661D01*
X236089160Y-199043661D02*
X236089160Y-199353185D01*
X236089160Y-199353185D02*
X236027255Y-199476995D01*
X236027255Y-199476995D02*
X235965350Y-199538900D01*
X235965350Y-199538900D02*
X235841541Y-199600804D01*
X235841541Y-199600804D02*
X235532017Y-199600804D01*
X235532017Y-199600804D02*
X235408207Y-199538900D01*
X235408207Y-199538900D02*
X235346303Y-199476995D01*
D10*
D11*
X285965350Y-198300804D02*
X285717731Y-198300804D01*
X285717731Y-198300804D02*
X285593922Y-198362709D01*
X285593922Y-198362709D02*
X285532017Y-198424614D01*
X285532017Y-198424614D02*
X285408207Y-198610328D01*
X285408207Y-198610328D02*
X285346303Y-198857947D01*
X285346303Y-198857947D02*
X285346303Y-199353185D01*
X285346303Y-199353185D02*
X285408207Y-199476995D01*
X285408207Y-199476995D02*
X285470112Y-199538900D01*
X285470112Y-199538900D02*
X285593922Y-199600804D01*
X285593922Y-199600804D02*
X285841541Y-199600804D01*
X285841541Y-199600804D02*
X285965350Y-199538900D01*
X285965350Y-199538900D02*
X286027255Y-199476995D01*
X286027255Y-199476995D02*
X286089160Y-199353185D01*
X286089160Y-199353185D02*
X286089160Y-199043661D01*
X286089160Y-199043661D02*
X286027255Y-198919852D01*
X286027255Y-198919852D02*
X285965350Y-198857947D01*
X285965350Y-198857947D02*
X285841541Y-198796042D01*
X285841541Y-198796042D02*
X285593922Y-198796042D01*
X285593922Y-198796042D02*
X285470112Y-198857947D01*
X285470112Y-198857947D02*
X285408207Y-198919852D01*
X285408207Y-198919852D02*
X285346303Y-199043661D01*
D10*
D11*
X10000000Y-60000000D02*
X12000000Y-60000000D01*
D10*
D11*
X10000000Y-110000000D02*
X12000000Y-110000000D01*
D10*
D11*
X10000000Y-160000000D02*
X12000000Y-160000000D01*
D10*
D11*
X10690476Y-35222176D02*
X11309523Y-35222176D01*
X10566666Y-35593604D02*
X10999999Y-34293604D01*
X10999999Y-34293604D02*
X11433333Y-35593604D01*
D10*
D11*
X11092857Y-84912652D02*
X11278571Y-84974557D01*
X11278571Y-84974557D02*
X11340476Y-85036461D01*
X11340476Y-85036461D02*
X11402380Y-85160271D01*
X11402380Y-85160271D02*
X11402380Y-85345985D01*
X11402380Y-85345985D02*
X11340476Y-85469795D01*
X11340476Y-85469795D02*
X11278571Y-85531700D01*
X11278571Y-85531700D02*
X11154761Y-85593604D01*
X11154761Y-85593604D02*
X10659523Y-85593604D01*
X10659523Y-85593604D02*
X10659523Y-84293604D01*
X10659523Y-84293604D02*
X11092857Y-84293604D01*
X11092857Y-84293604D02*
X11216666Y-84355509D01*
X11216666Y-84355509D02*
X11278571Y-84417414D01*
X11278571Y-84417414D02*
X11340476Y-84541223D01*
X11340476Y-84541223D02*
X11340476Y-84665033D01*
X11340476Y-84665033D02*
X11278571Y-84788842D01*
X11278571Y-84788842D02*
X11216666Y-84850747D01*
X11216666Y-84850747D02*
X11092857Y-84912652D01*
X11092857Y-84912652D02*
X10659523Y-84912652D01*
D10*
D11*
X11402380Y-135469795D02*
X11340476Y-135531700D01*
X11340476Y-135531700D02*
X11154761Y-135593604D01*
X11154761Y-135593604D02*
X11030952Y-135593604D01*
X11030952Y-135593604D02*
X10845238Y-135531700D01*
X10845238Y-135531700D02*
X10721428Y-135407890D01*
X10721428Y-135407890D02*
X10659523Y-135284080D01*
X10659523Y-135284080D02*
X10597619Y-135036461D01*
X10597619Y-135036461D02*
X10597619Y-134850747D01*
X10597619Y-134850747D02*
X10659523Y-134603128D01*
X10659523Y-134603128D02*
X10721428Y-134479319D01*
X10721428Y-134479319D02*
X10845238Y-134355509D01*
X10845238Y-134355509D02*
X11030952Y-134293604D01*
X11030952Y-134293604D02*
X11154761Y-134293604D01*
X11154761Y-134293604D02*
X11340476Y-134355509D01*
X11340476Y-134355509D02*
X11402380Y-134417414D01*
D10*
D11*
X10659523Y-185593604D02*
X10659523Y-184293604D01*
X10659523Y-184293604D02*
X10969047Y-184293604D01*
X10969047Y-184293604D02*
X11154761Y-184355509D01*
X11154761Y-184355509D02*
X11278571Y-184479319D01*
X11278571Y-184479319D02*
X11340476Y-184603128D01*
X11340476Y-184603128D02*
X11402380Y-184850747D01*
X11402380Y-184850747D02*
X11402380Y-185036461D01*
X11402380Y-185036461D02*
X11340476Y-185284080D01*
X11340476Y-185284080D02*
X11278571Y-185407890D01*
X11278571Y-185407890D02*
X11154761Y-185531700D01*
X11154761Y-185531700D02*
X10969047Y-185593604D01*
X10969047Y-185593604D02*
X10659523Y-185593604D01*
D10*
D11*
X287002200Y-60000000D02*
X285002200Y-60000000D01*
D10*
D11*
X287002200Y-110000000D02*
X285002200Y-110000000D01*
D10*
D11*
X287002200Y-160000000D02*
X285002200Y-160000000D01*
D10*
D11*
X285692676Y-35222176D02*
X286311723Y-35222176D01*
X285568866Y-35593604D02*
X286002199Y-34293604D01*
X286002199Y-34293604D02*
X286435533Y-35593604D01*
D10*
D11*
X286095057Y-84912652D02*
X286280771Y-84974557D01*
X286280771Y-84974557D02*
X286342676Y-85036461D01*
X286342676Y-85036461D02*
X286404580Y-85160271D01*
X286404580Y-85160271D02*
X286404580Y-85345985D01*
X286404580Y-85345985D02*
X286342676Y-85469795D01*
X286342676Y-85469795D02*
X286280771Y-85531700D01*
X286280771Y-85531700D02*
X286156961Y-85593604D01*
X286156961Y-85593604D02*
X285661723Y-85593604D01*
X285661723Y-85593604D02*
X285661723Y-84293604D01*
X285661723Y-84293604D02*
X286095057Y-84293604D01*
X286095057Y-84293604D02*
X286218866Y-84355509D01*
X286218866Y-84355509D02*
X286280771Y-84417414D01*
X286280771Y-84417414D02*
X286342676Y-84541223D01*
X286342676Y-84541223D02*
X286342676Y-84665033D01*
X286342676Y-84665033D02*
X286280771Y-84788842D01*
X286280771Y-84788842D02*
X286218866Y-84850747D01*
X286218866Y-84850747D02*
X286095057Y-84912652D01*
X286095057Y-84912652D02*
X285661723Y-84912652D01*
D10*
D11*
X286404580Y-135469795D02*
X286342676Y-135531700D01*
X286342676Y-135531700D02*
X286156961Y-135593604D01*
X286156961Y-135593604D02*
X286033152Y-135593604D01*
X286033152Y-135593604D02*
X285847438Y-135531700D01*
X285847438Y-135531700D02*
X285723628Y-135407890D01*
X285723628Y-135407890D02*
X285661723Y-135284080D01*
X285661723Y-135284080D02*
X285599819Y-135036461D01*
X285599819Y-135036461D02*
X285599819Y-134850747D01*
X285599819Y-134850747D02*
X285661723Y-134603128D01*
X285661723Y-134603128D02*
X285723628Y-134479319D01*
X285723628Y-134479319D02*
X285847438Y-134355509D01*
X285847438Y-134355509D02*
X286033152Y-134293604D01*
X286033152Y-134293604D02*
X286156961Y-134293604D01*
X286156961Y-134293604D02*
X286342676Y-134355509D01*
X286342676Y-134355509D02*
X286404580Y-134417414D01*
D10*
D11*
X285661723Y-185593604D02*
X285661723Y-184293604D01*
X285661723Y-184293604D02*
X285971247Y-184293604D01*
X285971247Y-184293604D02*
X286156961Y-184355509D01*
X286156961Y-184355509D02*
X286280771Y-184479319D01*
X286280771Y-184479319D02*
X286342676Y-184603128D01*
X286342676Y-184603128D02*
X286404580Y-184850747D01*
X286404580Y-184850747D02*
X286404580Y-185036461D01*
X286404580Y-185036461D02*
X286342676Y-185284080D01*
X286342676Y-185284080D02*
X286280771Y-185407890D01*
X286280771Y-185407890D02*
X286156961Y-185531700D01*
X286156961Y-185531700D02*
X285971247Y-185593604D01*
X285971247Y-185593604D02*
X285661723Y-185593604D01*
D10*
D11*
X200458026Y-193793328D02*
X200458026Y-192293328D01*
X200458026Y-192293328D02*
X200815169Y-192293328D01*
X200815169Y-192293328D02*
X201029455Y-192364757D01*
X201029455Y-192364757D02*
X201172312Y-192507614D01*
X201172312Y-192507614D02*
X201243741Y-192650471D01*
X201243741Y-192650471D02*
X201315169Y-192936185D01*
X201315169Y-192936185D02*
X201315169Y-193150471D01*
X201315169Y-193150471D02*
X201243741Y-193436185D01*
X201243741Y-193436185D02*
X201172312Y-193579042D01*
X201172312Y-193579042D02*
X201029455Y-193721900D01*
X201029455Y-193721900D02*
X200815169Y-193793328D01*
X200815169Y-193793328D02*
X200458026Y-193793328D01*
X202600884Y-193793328D02*
X202600884Y-193007614D01*
X202600884Y-193007614D02*
X202529455Y-192864757D01*
X202529455Y-192864757D02*
X202386598Y-192793328D01*
X202386598Y-192793328D02*
X202100884Y-192793328D01*
X202100884Y-192793328D02*
X201958026Y-192864757D01*
X202600884Y-193721900D02*
X202458026Y-193793328D01*
X202458026Y-193793328D02*
X202100884Y-193793328D01*
X202100884Y-193793328D02*
X201958026Y-193721900D01*
X201958026Y-193721900D02*
X201886598Y-193579042D01*
X201886598Y-193579042D02*
X201886598Y-193436185D01*
X201886598Y-193436185D02*
X201958026Y-193293328D01*
X201958026Y-193293328D02*
X202100884Y-193221900D01*
X202100884Y-193221900D02*
X202458026Y-193221900D01*
X202458026Y-193221900D02*
X202600884Y-193150471D01*
X203100884Y-192793328D02*
X203672312Y-192793328D01*
X203315169Y-192293328D02*
X203315169Y-193579042D01*
X203315169Y-193579042D02*
X203386598Y-193721900D01*
X203386598Y-193721900D02*
X203529455Y-193793328D01*
X203529455Y-193793328D02*
X203672312Y-193793328D01*
X204743741Y-193721900D02*
X204600884Y-193793328D01*
X204600884Y-193793328D02*
X204315170Y-193793328D01*
X204315170Y-193793328D02*
X204172312Y-193721900D01*
X204172312Y-193721900D02*
X204100884Y-193579042D01*
X204100884Y-193579042D02*
X204100884Y-193007614D01*
X204100884Y-193007614D02*
X204172312Y-192864757D01*
X204172312Y-192864757D02*
X204315170Y-192793328D01*
X204315170Y-192793328D02*
X204600884Y-192793328D01*
X204600884Y-192793328D02*
X204743741Y-192864757D01*
X204743741Y-192864757D02*
X204815170Y-193007614D01*
X204815170Y-193007614D02*
X204815170Y-193150471D01*
X204815170Y-193150471D02*
X204100884Y-193293328D01*
X205458026Y-193650471D02*
X205529455Y-193721900D01*
X205529455Y-193721900D02*
X205458026Y-193793328D01*
X205458026Y-193793328D02*
X205386598Y-193721900D01*
X205386598Y-193721900D02*
X205458026Y-193650471D01*
X205458026Y-193650471D02*
X205458026Y-193793328D01*
X205458026Y-192864757D02*
X205529455Y-192936185D01*
X205529455Y-192936185D02*
X205458026Y-193007614D01*
X205458026Y-193007614D02*
X205386598Y-192936185D01*
X205386598Y-192936185D02*
X205458026Y-192864757D01*
X205458026Y-192864757D02*
X205458026Y-193007614D01*
D10*
D11*
X177002200Y-194507200D02*
X285002200Y-194507200D01*
D10*
D11*
X178458026Y-196593328D02*
X178458026Y-195093328D01*
X179315169Y-196593328D02*
X178672312Y-195736185D01*
X179315169Y-195093328D02*
X178458026Y-195950471D01*
X179958026Y-196593328D02*
X179958026Y-195593328D01*
X179958026Y-195093328D02*
X179886598Y-195164757D01*
X179886598Y-195164757D02*
X179958026Y-195236185D01*
X179958026Y-195236185D02*
X180029455Y-195164757D01*
X180029455Y-195164757D02*
X179958026Y-195093328D01*
X179958026Y-195093328D02*
X179958026Y-195236185D01*
X181529455Y-196450471D02*
X181458027Y-196521900D01*
X181458027Y-196521900D02*
X181243741Y-196593328D01*
X181243741Y-196593328D02*
X181100884Y-196593328D01*
X181100884Y-196593328D02*
X180886598Y-196521900D01*
X180886598Y-196521900D02*
X180743741Y-196379042D01*
X180743741Y-196379042D02*
X180672312Y-196236185D01*
X180672312Y-196236185D02*
X180600884Y-195950471D01*
X180600884Y-195950471D02*
X180600884Y-195736185D01*
X180600884Y-195736185D02*
X180672312Y-195450471D01*
X180672312Y-195450471D02*
X180743741Y-195307614D01*
X180743741Y-195307614D02*
X180886598Y-195164757D01*
X180886598Y-195164757D02*
X181100884Y-195093328D01*
X181100884Y-195093328D02*
X181243741Y-195093328D01*
X181243741Y-195093328D02*
X181458027Y-195164757D01*
X181458027Y-195164757D02*
X181529455Y-195236185D01*
X182815170Y-196593328D02*
X182815170Y-195807614D01*
X182815170Y-195807614D02*
X182743741Y-195664757D01*
X182743741Y-195664757D02*
X182600884Y-195593328D01*
X182600884Y-195593328D02*
X182315170Y-195593328D01*
X182315170Y-195593328D02*
X182172312Y-195664757D01*
X182815170Y-196521900D02*
X182672312Y-196593328D01*
X182672312Y-196593328D02*
X182315170Y-196593328D01*
X182315170Y-196593328D02*
X182172312Y-196521900D01*
X182172312Y-196521900D02*
X182100884Y-196379042D01*
X182100884Y-196379042D02*
X182100884Y-196236185D01*
X182100884Y-196236185D02*
X182172312Y-196093328D01*
X182172312Y-196093328D02*
X182315170Y-196021900D01*
X182315170Y-196021900D02*
X182672312Y-196021900D01*
X182672312Y-196021900D02*
X182815170Y-195950471D01*
X184172313Y-196593328D02*
X184172313Y-195093328D01*
X184172313Y-196521900D02*
X184029455Y-196593328D01*
X184029455Y-196593328D02*
X183743741Y-196593328D01*
X183743741Y-196593328D02*
X183600884Y-196521900D01*
X183600884Y-196521900D02*
X183529455Y-196450471D01*
X183529455Y-196450471D02*
X183458027Y-196307614D01*
X183458027Y-196307614D02*
X183458027Y-195879042D01*
X183458027Y-195879042D02*
X183529455Y-195736185D01*
X183529455Y-195736185D02*
X183600884Y-195664757D01*
X183600884Y-195664757D02*
X183743741Y-195593328D01*
X183743741Y-195593328D02*
X184029455Y-195593328D01*
X184029455Y-195593328D02*
X184172313Y-195664757D01*
X186029455Y-195807614D02*
X186529455Y-195807614D01*
X186743741Y-196593328D02*
X186029455Y-196593328D01*
X186029455Y-196593328D02*
X186029455Y-195093328D01*
X186029455Y-195093328D02*
X186743741Y-195093328D01*
X187386598Y-196450471D02*
X187458027Y-196521900D01*
X187458027Y-196521900D02*
X187386598Y-196593328D01*
X187386598Y-196593328D02*
X187315170Y-196521900D01*
X187315170Y-196521900D02*
X187386598Y-196450471D01*
X187386598Y-196450471D02*
X187386598Y-196593328D01*
X188100884Y-196593328D02*
X188100884Y-195093328D01*
X188100884Y-195093328D02*
X188458027Y-195093328D01*
X188458027Y-195093328D02*
X188672313Y-195164757D01*
X188672313Y-195164757D02*
X188815170Y-195307614D01*
X188815170Y-195307614D02*
X188886599Y-195450471D01*
X188886599Y-195450471D02*
X188958027Y-195736185D01*
X188958027Y-195736185D02*
X188958027Y-195950471D01*
X188958027Y-195950471D02*
X188886599Y-196236185D01*
X188886599Y-196236185D02*
X188815170Y-196379042D01*
X188815170Y-196379042D02*
X188672313Y-196521900D01*
X188672313Y-196521900D02*
X188458027Y-196593328D01*
X188458027Y-196593328D02*
X188100884Y-196593328D01*
X189600884Y-196450471D02*
X189672313Y-196521900D01*
X189672313Y-196521900D02*
X189600884Y-196593328D01*
X189600884Y-196593328D02*
X189529456Y-196521900D01*
X189529456Y-196521900D02*
X189600884Y-196450471D01*
X189600884Y-196450471D02*
X189600884Y-196593328D01*
X190243742Y-196164757D02*
X190958028Y-196164757D01*
X190100885Y-196593328D02*
X190600885Y-195093328D01*
X190600885Y-195093328D02*
X191100885Y-196593328D01*
X191600884Y-196450471D02*
X191672313Y-196521900D01*
X191672313Y-196521900D02*
X191600884Y-196593328D01*
X191600884Y-196593328D02*
X191529456Y-196521900D01*
X191529456Y-196521900D02*
X191600884Y-196450471D01*
X191600884Y-196450471D02*
X191600884Y-196593328D01*
X193672313Y-195736185D02*
X193529456Y-195664757D01*
X193529456Y-195664757D02*
X193458027Y-195593328D01*
X193458027Y-195593328D02*
X193386599Y-195450471D01*
X193386599Y-195450471D02*
X193386599Y-195379042D01*
X193386599Y-195379042D02*
X193458027Y-195236185D01*
X193458027Y-195236185D02*
X193529456Y-195164757D01*
X193529456Y-195164757D02*
X193672313Y-195093328D01*
X193672313Y-195093328D02*
X193958027Y-195093328D01*
X193958027Y-195093328D02*
X194100885Y-195164757D01*
X194100885Y-195164757D02*
X194172313Y-195236185D01*
X194172313Y-195236185D02*
X194243742Y-195379042D01*
X194243742Y-195379042D02*
X194243742Y-195450471D01*
X194243742Y-195450471D02*
X194172313Y-195593328D01*
X194172313Y-195593328D02*
X194100885Y-195664757D01*
X194100885Y-195664757D02*
X193958027Y-195736185D01*
X193958027Y-195736185D02*
X193672313Y-195736185D01*
X193672313Y-195736185D02*
X193529456Y-195807614D01*
X193529456Y-195807614D02*
X193458027Y-195879042D01*
X193458027Y-195879042D02*
X193386599Y-196021900D01*
X193386599Y-196021900D02*
X193386599Y-196307614D01*
X193386599Y-196307614D02*
X193458027Y-196450471D01*
X193458027Y-196450471D02*
X193529456Y-196521900D01*
X193529456Y-196521900D02*
X193672313Y-196593328D01*
X193672313Y-196593328D02*
X193958027Y-196593328D01*
X193958027Y-196593328D02*
X194100885Y-196521900D01*
X194100885Y-196521900D02*
X194172313Y-196450471D01*
X194172313Y-196450471D02*
X194243742Y-196307614D01*
X194243742Y-196307614D02*
X194243742Y-196021900D01*
X194243742Y-196021900D02*
X194172313Y-195879042D01*
X194172313Y-195879042D02*
X194100885Y-195807614D01*
X194100885Y-195807614D02*
X193958027Y-195736185D01*
X194886598Y-196450471D02*
X194958027Y-196521900D01*
X194958027Y-196521900D02*
X194886598Y-196593328D01*
X194886598Y-196593328D02*
X194815170Y-196521900D01*
X194815170Y-196521900D02*
X194886598Y-196450471D01*
X194886598Y-196450471D02*
X194886598Y-196593328D01*
X195886599Y-195093328D02*
X196029456Y-195093328D01*
X196029456Y-195093328D02*
X196172313Y-195164757D01*
X196172313Y-195164757D02*
X196243742Y-195236185D01*
X196243742Y-195236185D02*
X196315170Y-195379042D01*
X196315170Y-195379042D02*
X196386599Y-195664757D01*
X196386599Y-195664757D02*
X196386599Y-196021900D01*
X196386599Y-196021900D02*
X196315170Y-196307614D01*
X196315170Y-196307614D02*
X196243742Y-196450471D01*
X196243742Y-196450471D02*
X196172313Y-196521900D01*
X196172313Y-196521900D02*
X196029456Y-196593328D01*
X196029456Y-196593328D02*
X195886599Y-196593328D01*
X195886599Y-196593328D02*
X195743742Y-196521900D01*
X195743742Y-196521900D02*
X195672313Y-196450471D01*
X195672313Y-196450471D02*
X195600884Y-196307614D01*
X195600884Y-196307614D02*
X195529456Y-196021900D01*
X195529456Y-196021900D02*
X195529456Y-195664757D01*
X195529456Y-195664757D02*
X195600884Y-195379042D01*
X195600884Y-195379042D02*
X195672313Y-195236185D01*
X195672313Y-195236185D02*
X195743742Y-195164757D01*
X195743742Y-195164757D02*
X195886599Y-195093328D01*
X197029455Y-196450471D02*
X197100884Y-196521900D01*
X197100884Y-196521900D02*
X197029455Y-196593328D01*
X197029455Y-196593328D02*
X196958027Y-196521900D01*
X196958027Y-196521900D02*
X197029455Y-196450471D01*
X197029455Y-196450471D02*
X197029455Y-196593328D01*
X197672313Y-195236185D02*
X197743741Y-195164757D01*
X197743741Y-195164757D02*
X197886599Y-195093328D01*
X197886599Y-195093328D02*
X198243741Y-195093328D01*
X198243741Y-195093328D02*
X198386599Y-195164757D01*
X198386599Y-195164757D02*
X198458027Y-195236185D01*
X198458027Y-195236185D02*
X198529456Y-195379042D01*
X198529456Y-195379042D02*
X198529456Y-195521900D01*
X198529456Y-195521900D02*
X198458027Y-195736185D01*
X198458027Y-195736185D02*
X197600884Y-196593328D01*
X197600884Y-196593328D02*
X198529456Y-196593328D01*
D10*
D11*
X177002200Y-191507200D02*
X285002200Y-191507200D01*
D10*
D12*
X264413853Y-193785528D02*
X263913853Y-193071242D01*
X263556710Y-193785528D02*
X263556710Y-192285528D01*
X263556710Y-192285528D02*
X264128139Y-192285528D01*
X264128139Y-192285528D02*
X264270996Y-192356957D01*
X264270996Y-192356957D02*
X264342425Y-192428385D01*
X264342425Y-192428385D02*
X264413853Y-192571242D01*
X264413853Y-192571242D02*
X264413853Y-192785528D01*
X264413853Y-192785528D02*
X264342425Y-192928385D01*
X264342425Y-192928385D02*
X264270996Y-192999814D01*
X264270996Y-192999814D02*
X264128139Y-193071242D01*
X264128139Y-193071242D02*
X263556710Y-193071242D01*
X265628139Y-193714100D02*
X265485282Y-193785528D01*
X265485282Y-193785528D02*
X265199568Y-193785528D01*
X265199568Y-193785528D02*
X265056710Y-193714100D01*
X265056710Y-193714100D02*
X264985282Y-193571242D01*
X264985282Y-193571242D02*
X264985282Y-192999814D01*
X264985282Y-192999814D02*
X265056710Y-192856957D01*
X265056710Y-192856957D02*
X265199568Y-192785528D01*
X265199568Y-192785528D02*
X265485282Y-192785528D01*
X265485282Y-192785528D02*
X265628139Y-192856957D01*
X265628139Y-192856957D02*
X265699568Y-192999814D01*
X265699568Y-192999814D02*
X265699568Y-193142671D01*
X265699568Y-193142671D02*
X264985282Y-193285528D01*
X266199567Y-192785528D02*
X266556710Y-193785528D01*
X266556710Y-193785528D02*
X266913853Y-192785528D01*
X267485281Y-193642671D02*
X267556710Y-193714100D01*
X267556710Y-193714100D02*
X267485281Y-193785528D01*
X267485281Y-193785528D02*
X267413853Y-193714100D01*
X267413853Y-193714100D02*
X267485281Y-193642671D01*
X267485281Y-193642671D02*
X267485281Y-193785528D01*
X267485281Y-192856957D02*
X267556710Y-192928385D01*
X267556710Y-192928385D02*
X267485281Y-192999814D01*
X267485281Y-192999814D02*
X267413853Y-192928385D01*
X267413853Y-192928385D02*
X267485281Y-192856957D01*
X267485281Y-192856957D02*
X267485281Y-192999814D01*
D10*
D11*
X178386598Y-193721900D02*
X178600884Y-193793328D01*
X178600884Y-193793328D02*
X178958026Y-193793328D01*
X178958026Y-193793328D02*
X179100884Y-193721900D01*
X179100884Y-193721900D02*
X179172312Y-193650471D01*
X179172312Y-193650471D02*
X179243741Y-193507614D01*
X179243741Y-193507614D02*
X179243741Y-193364757D01*
X179243741Y-193364757D02*
X179172312Y-193221900D01*
X179172312Y-193221900D02*
X179100884Y-193150471D01*
X179100884Y-193150471D02*
X178958026Y-193079042D01*
X178958026Y-193079042D02*
X178672312Y-193007614D01*
X178672312Y-193007614D02*
X178529455Y-192936185D01*
X178529455Y-192936185D02*
X178458026Y-192864757D01*
X178458026Y-192864757D02*
X178386598Y-192721900D01*
X178386598Y-192721900D02*
X178386598Y-192579042D01*
X178386598Y-192579042D02*
X178458026Y-192436185D01*
X178458026Y-192436185D02*
X178529455Y-192364757D01*
X178529455Y-192364757D02*
X178672312Y-192293328D01*
X178672312Y-192293328D02*
X179029455Y-192293328D01*
X179029455Y-192293328D02*
X179243741Y-192364757D01*
X179886597Y-193793328D02*
X179886597Y-192793328D01*
X179886597Y-192293328D02*
X179815169Y-192364757D01*
X179815169Y-192364757D02*
X179886597Y-192436185D01*
X179886597Y-192436185D02*
X179958026Y-192364757D01*
X179958026Y-192364757D02*
X179886597Y-192293328D01*
X179886597Y-192293328D02*
X179886597Y-192436185D01*
X180458026Y-192793328D02*
X181243741Y-192793328D01*
X181243741Y-192793328D02*
X180458026Y-193793328D01*
X180458026Y-193793328D02*
X181243741Y-193793328D01*
X182386598Y-193721900D02*
X182243741Y-193793328D01*
X182243741Y-193793328D02*
X181958027Y-193793328D01*
X181958027Y-193793328D02*
X181815169Y-193721900D01*
X181815169Y-193721900D02*
X181743741Y-193579042D01*
X181743741Y-193579042D02*
X181743741Y-193007614D01*
X181743741Y-193007614D02*
X181815169Y-192864757D01*
X181815169Y-192864757D02*
X181958027Y-192793328D01*
X181958027Y-192793328D02*
X182243741Y-192793328D01*
X182243741Y-192793328D02*
X182386598Y-192864757D01*
X182386598Y-192864757D02*
X182458027Y-193007614D01*
X182458027Y-193007614D02*
X182458027Y-193150471D01*
X182458027Y-193150471D02*
X181743741Y-193293328D01*
X183100883Y-193650471D02*
X183172312Y-193721900D01*
X183172312Y-193721900D02*
X183100883Y-193793328D01*
X183100883Y-193793328D02*
X183029455Y-193721900D01*
X183029455Y-193721900D02*
X183100883Y-193650471D01*
X183100883Y-193650471D02*
X183100883Y-193793328D01*
X183100883Y-192864757D02*
X183172312Y-192936185D01*
X183172312Y-192936185D02*
X183100883Y-193007614D01*
X183100883Y-193007614D02*
X183029455Y-192936185D01*
X183029455Y-192936185D02*
X183100883Y-192864757D01*
X183100883Y-192864757D02*
X183100883Y-193007614D01*
X184886598Y-193364757D02*
X185600884Y-193364757D01*
X184743741Y-193793328D02*
X185243741Y-192293328D01*
X185243741Y-192293328D02*
X185743741Y-193793328D01*
X186886598Y-192793328D02*
X186886598Y-193793328D01*
X186529455Y-192221900D02*
X186172312Y-193293328D01*
X186172312Y-193293328D02*
X187100883Y-193293328D01*
D10*
D11*
X263458026Y-196593328D02*
X263458026Y-195093328D01*
X264815170Y-196593328D02*
X264815170Y-195093328D01*
X264815170Y-196521900D02*
X264672312Y-196593328D01*
X264672312Y-196593328D02*
X264386598Y-196593328D01*
X264386598Y-196593328D02*
X264243741Y-196521900D01*
X264243741Y-196521900D02*
X264172312Y-196450471D01*
X264172312Y-196450471D02*
X264100884Y-196307614D01*
X264100884Y-196307614D02*
X264100884Y-195879042D01*
X264100884Y-195879042D02*
X264172312Y-195736185D01*
X264172312Y-195736185D02*
X264243741Y-195664757D01*
X264243741Y-195664757D02*
X264386598Y-195593328D01*
X264386598Y-195593328D02*
X264672312Y-195593328D01*
X264672312Y-195593328D02*
X264815170Y-195664757D01*
X265529455Y-196450471D02*
X265600884Y-196521900D01*
X265600884Y-196521900D02*
X265529455Y-196593328D01*
X265529455Y-196593328D02*
X265458027Y-196521900D01*
X265458027Y-196521900D02*
X265529455Y-196450471D01*
X265529455Y-196450471D02*
X265529455Y-196593328D01*
X265529455Y-195664757D02*
X265600884Y-195736185D01*
X265600884Y-195736185D02*
X265529455Y-195807614D01*
X265529455Y-195807614D02*
X265458027Y-195736185D01*
X265458027Y-195736185D02*
X265529455Y-195664757D01*
X265529455Y-195664757D02*
X265529455Y-195807614D01*
X268172313Y-196593328D02*
X267315170Y-196593328D01*
X267743741Y-196593328D02*
X267743741Y-195093328D01*
X267743741Y-195093328D02*
X267600884Y-195307614D01*
X267600884Y-195307614D02*
X267458027Y-195450471D01*
X267458027Y-195450471D02*
X267315170Y-195521900D01*
X269886598Y-195021900D02*
X268600884Y-196950471D01*
X271172313Y-196593328D02*
X270315170Y-196593328D01*
X270743741Y-196593328D02*
X270743741Y-195093328D01*
X270743741Y-195093328D02*
X270600884Y-195307614D01*
X270600884Y-195307614D02*
X270458027Y-195450471D01*
X270458027Y-195450471D02*
X270315170Y-195521900D01*
D10*
D11*
X177002200Y-187507200D02*
X285002200Y-187507200D01*
D10*
D13*
X178693928Y-188211638D02*
X179836785Y-188211638D01*
X179015357Y-190211638D02*
X179265357Y-188211638D01*
X180253452Y-190211638D02*
X180420119Y-188878304D01*
X180503452Y-188211638D02*
X180396309Y-188306876D01*
X180396309Y-188306876D02*
X180479643Y-188402114D01*
X180479643Y-188402114D02*
X180586786Y-188306876D01*
X180586786Y-188306876D02*
X180503452Y-188211638D01*
X180503452Y-188211638D02*
X180479643Y-188402114D01*
X181086786Y-188878304D02*
X181848690Y-188878304D01*
X181455833Y-188211638D02*
X181241548Y-189925923D01*
X181241548Y-189925923D02*
X181312976Y-190116400D01*
X181312976Y-190116400D02*
X181491548Y-190211638D01*
X181491548Y-190211638D02*
X181682024Y-190211638D01*
X182634405Y-190211638D02*
X182455833Y-190116400D01*
X182455833Y-190116400D02*
X182384405Y-189925923D01*
X182384405Y-189925923D02*
X182598690Y-188211638D01*
X184170119Y-190116400D02*
X183967738Y-190211638D01*
X183967738Y-190211638D02*
X183586785Y-190211638D01*
X183586785Y-190211638D02*
X183408214Y-190116400D01*
X183408214Y-190116400D02*
X183336785Y-189925923D01*
X183336785Y-189925923D02*
X183432024Y-189164019D01*
X183432024Y-189164019D02*
X183551071Y-188973542D01*
X183551071Y-188973542D02*
X183753452Y-188878304D01*
X183753452Y-188878304D02*
X184134404Y-188878304D01*
X184134404Y-188878304D02*
X184312976Y-188973542D01*
X184312976Y-188973542D02*
X184384404Y-189164019D01*
X184384404Y-189164019D02*
X184360595Y-189354495D01*
X184360595Y-189354495D02*
X183384404Y-189544971D01*
X185134405Y-190021161D02*
X185217738Y-190116400D01*
X185217738Y-190116400D02*
X185110595Y-190211638D01*
X185110595Y-190211638D02*
X185027262Y-190116400D01*
X185027262Y-190116400D02*
X185134405Y-190021161D01*
X185134405Y-190021161D02*
X185110595Y-190211638D01*
X185265357Y-188973542D02*
X185348690Y-189068780D01*
X185348690Y-189068780D02*
X185241548Y-189164019D01*
X185241548Y-189164019D02*
X185158214Y-189068780D01*
X185158214Y-189068780D02*
X185265357Y-188973542D01*
X185265357Y-188973542D02*
X185241548Y-189164019D01*
D10*
D11*
X178958026Y-185607614D02*
X178458026Y-185607614D01*
X178458026Y-186393328D02*
X178458026Y-184893328D01*
X178458026Y-184893328D02*
X179172312Y-184893328D01*
X179743740Y-186393328D02*
X179743740Y-185393328D01*
X179743740Y-184893328D02*
X179672312Y-184964757D01*
X179672312Y-184964757D02*
X179743740Y-185036185D01*
X179743740Y-185036185D02*
X179815169Y-184964757D01*
X179815169Y-184964757D02*
X179743740Y-184893328D01*
X179743740Y-184893328D02*
X179743740Y-185036185D01*
X180672312Y-186393328D02*
X180529455Y-186321900D01*
X180529455Y-186321900D02*
X180458026Y-186179042D01*
X180458026Y-186179042D02*
X180458026Y-184893328D01*
X181815169Y-186321900D02*
X181672312Y-186393328D01*
X181672312Y-186393328D02*
X181386598Y-186393328D01*
X181386598Y-186393328D02*
X181243740Y-186321900D01*
X181243740Y-186321900D02*
X181172312Y-186179042D01*
X181172312Y-186179042D02*
X181172312Y-185607614D01*
X181172312Y-185607614D02*
X181243740Y-185464757D01*
X181243740Y-185464757D02*
X181386598Y-185393328D01*
X181386598Y-185393328D02*
X181672312Y-185393328D01*
X181672312Y-185393328D02*
X181815169Y-185464757D01*
X181815169Y-185464757D02*
X181886598Y-185607614D01*
X181886598Y-185607614D02*
X181886598Y-185750471D01*
X181886598Y-185750471D02*
X181172312Y-185893328D01*
X182529454Y-186250471D02*
X182600883Y-186321900D01*
X182600883Y-186321900D02*
X182529454Y-186393328D01*
X182529454Y-186393328D02*
X182458026Y-186321900D01*
X182458026Y-186321900D02*
X182529454Y-186250471D01*
X182529454Y-186250471D02*
X182529454Y-186393328D01*
X182529454Y-185464757D02*
X182600883Y-185536185D01*
X182600883Y-185536185D02*
X182529454Y-185607614D01*
X182529454Y-185607614D02*
X182458026Y-185536185D01*
X182458026Y-185536185D02*
X182529454Y-185464757D01*
X182529454Y-185464757D02*
X182529454Y-185607614D01*
X184386597Y-186393328D02*
X184386597Y-184893328D01*
X184386597Y-184893328D02*
X184743740Y-184893328D01*
X184743740Y-184893328D02*
X184958026Y-184964757D01*
X184958026Y-184964757D02*
X185100883Y-185107614D01*
X185100883Y-185107614D02*
X185172312Y-185250471D01*
X185172312Y-185250471D02*
X185243740Y-185536185D01*
X185243740Y-185536185D02*
X185243740Y-185750471D01*
X185243740Y-185750471D02*
X185172312Y-186036185D01*
X185172312Y-186036185D02*
X185100883Y-186179042D01*
X185100883Y-186179042D02*
X184958026Y-186321900D01*
X184958026Y-186321900D02*
X184743740Y-186393328D01*
X184743740Y-186393328D02*
X184386597Y-186393328D01*
X186458026Y-186321900D02*
X186315169Y-186393328D01*
X186315169Y-186393328D02*
X186029455Y-186393328D01*
X186029455Y-186393328D02*
X185886597Y-186321900D01*
X185886597Y-186321900D02*
X185815169Y-186179042D01*
X185815169Y-186179042D02*
X185815169Y-185607614D01*
X185815169Y-185607614D02*
X185886597Y-185464757D01*
X185886597Y-185464757D02*
X186029455Y-185393328D01*
X186029455Y-185393328D02*
X186315169Y-185393328D01*
X186315169Y-185393328D02*
X186458026Y-185464757D01*
X186458026Y-185464757D02*
X186529455Y-185607614D01*
X186529455Y-185607614D02*
X186529455Y-185750471D01*
X186529455Y-185750471D02*
X185815169Y-185893328D01*
X187386597Y-186393328D02*
X187243740Y-186321900D01*
X187243740Y-186321900D02*
X187172311Y-186179042D01*
X187172311Y-186179042D02*
X187172311Y-184893328D01*
X187743740Y-185393328D02*
X188315168Y-185393328D01*
X187958025Y-184893328D02*
X187958025Y-186179042D01*
X187958025Y-186179042D02*
X188029454Y-186321900D01*
X188029454Y-186321900D02*
X188172311Y-186393328D01*
X188172311Y-186393328D02*
X188315168Y-186393328D01*
X189458026Y-186393328D02*
X189458026Y-185607614D01*
X189458026Y-185607614D02*
X189386597Y-185464757D01*
X189386597Y-185464757D02*
X189243740Y-185393328D01*
X189243740Y-185393328D02*
X188958026Y-185393328D01*
X188958026Y-185393328D02*
X188815168Y-185464757D01*
X189458026Y-186321900D02*
X189315168Y-186393328D01*
X189315168Y-186393328D02*
X188958026Y-186393328D01*
X188958026Y-186393328D02*
X188815168Y-186321900D01*
X188815168Y-186321900D02*
X188743740Y-186179042D01*
X188743740Y-186179042D02*
X188743740Y-186036185D01*
X188743740Y-186036185D02*
X188815168Y-185893328D01*
X188815168Y-185893328D02*
X188958026Y-185821900D01*
X188958026Y-185821900D02*
X189315168Y-185821900D01*
X189315168Y-185821900D02*
X189458026Y-185750471D01*
X191029454Y-186393328D02*
X190529454Y-185679042D01*
X190172311Y-186393328D02*
X190172311Y-184893328D01*
X190172311Y-184893328D02*
X190743740Y-184893328D01*
X190743740Y-184893328D02*
X190886597Y-184964757D01*
X190886597Y-184964757D02*
X190958026Y-185036185D01*
X190958026Y-185036185D02*
X191029454Y-185179042D01*
X191029454Y-185179042D02*
X191029454Y-185393328D01*
X191029454Y-185393328D02*
X190958026Y-185536185D01*
X190958026Y-185536185D02*
X190886597Y-185607614D01*
X190886597Y-185607614D02*
X190743740Y-185679042D01*
X190743740Y-185679042D02*
X190172311Y-185679042D01*
X191672311Y-186393328D02*
X191672311Y-184893328D01*
X192315169Y-186393328D02*
X192315169Y-185607614D01*
X192315169Y-185607614D02*
X192243740Y-185464757D01*
X192243740Y-185464757D02*
X192100883Y-185393328D01*
X192100883Y-185393328D02*
X191886597Y-185393328D01*
X191886597Y-185393328D02*
X191743740Y-185464757D01*
X191743740Y-185464757D02*
X191672311Y-185536185D01*
X193243740Y-186393328D02*
X193100883Y-186321900D01*
X193100883Y-186321900D02*
X193029454Y-186250471D01*
X193029454Y-186250471D02*
X192958026Y-186107614D01*
X192958026Y-186107614D02*
X192958026Y-185679042D01*
X192958026Y-185679042D02*
X193029454Y-185536185D01*
X193029454Y-185536185D02*
X193100883Y-185464757D01*
X193100883Y-185464757D02*
X193243740Y-185393328D01*
X193243740Y-185393328D02*
X193458026Y-185393328D01*
X193458026Y-185393328D02*
X193600883Y-185464757D01*
X193600883Y-185464757D02*
X193672312Y-185536185D01*
X193672312Y-185536185D02*
X193743740Y-185679042D01*
X193743740Y-185679042D02*
X193743740Y-186107614D01*
X193743740Y-186107614D02*
X193672312Y-186250471D01*
X193672312Y-186250471D02*
X193600883Y-186321900D01*
X193600883Y-186321900D02*
X193458026Y-186393328D01*
X193458026Y-186393328D02*
X193243740Y-186393328D01*
X195243740Y-186393328D02*
X194743740Y-185679042D01*
X194386597Y-186393328D02*
X194386597Y-184893328D01*
X194386597Y-184893328D02*
X194958026Y-184893328D01*
X194958026Y-184893328D02*
X195100883Y-184964757D01*
X195100883Y-184964757D02*
X195172312Y-185036185D01*
X195172312Y-185036185D02*
X195243740Y-185179042D01*
X195243740Y-185179042D02*
X195243740Y-185393328D01*
X195243740Y-185393328D02*
X195172312Y-185536185D01*
X195172312Y-185536185D02*
X195100883Y-185607614D01*
X195100883Y-185607614D02*
X194958026Y-185679042D01*
X194958026Y-185679042D02*
X194386597Y-185679042D01*
X196100883Y-186393328D02*
X195958026Y-186321900D01*
X195958026Y-186321900D02*
X195886597Y-186250471D01*
X195886597Y-186250471D02*
X195815169Y-186107614D01*
X195815169Y-186107614D02*
X195815169Y-185679042D01*
X195815169Y-185679042D02*
X195886597Y-185536185D01*
X195886597Y-185536185D02*
X195958026Y-185464757D01*
X195958026Y-185464757D02*
X196100883Y-185393328D01*
X196100883Y-185393328D02*
X196315169Y-185393328D01*
X196315169Y-185393328D02*
X196458026Y-185464757D01*
X196458026Y-185464757D02*
X196529455Y-185536185D01*
X196529455Y-185536185D02*
X196600883Y-185679042D01*
X196600883Y-185679042D02*
X196600883Y-186107614D01*
X196600883Y-186107614D02*
X196529455Y-186250471D01*
X196529455Y-186250471D02*
X196458026Y-186321900D01*
X196458026Y-186321900D02*
X196315169Y-186393328D01*
X196315169Y-186393328D02*
X196100883Y-186393328D01*
X197243740Y-186393328D02*
X197243740Y-184893328D01*
X197243740Y-185464757D02*
X197386598Y-185393328D01*
X197386598Y-185393328D02*
X197672312Y-185393328D01*
X197672312Y-185393328D02*
X197815169Y-185464757D01*
X197815169Y-185464757D02*
X197886598Y-185536185D01*
X197886598Y-185536185D02*
X197958026Y-185679042D01*
X197958026Y-185679042D02*
X197958026Y-186107614D01*
X197958026Y-186107614D02*
X197886598Y-186250471D01*
X197886598Y-186250471D02*
X197815169Y-186321900D01*
X197815169Y-186321900D02*
X197672312Y-186393328D01*
X197672312Y-186393328D02*
X197386598Y-186393328D01*
X197386598Y-186393328D02*
X197243740Y-186321900D01*
X198815169Y-186393328D02*
X198672312Y-186321900D01*
X198672312Y-186321900D02*
X198600883Y-186250471D01*
X198600883Y-186250471D02*
X198529455Y-186107614D01*
X198529455Y-186107614D02*
X198529455Y-185679042D01*
X198529455Y-185679042D02*
X198600883Y-185536185D01*
X198600883Y-185536185D02*
X198672312Y-185464757D01*
X198672312Y-185464757D02*
X198815169Y-185393328D01*
X198815169Y-185393328D02*
X199029455Y-185393328D01*
X199029455Y-185393328D02*
X199172312Y-185464757D01*
X199172312Y-185464757D02*
X199243741Y-185536185D01*
X199243741Y-185536185D02*
X199315169Y-185679042D01*
X199315169Y-185679042D02*
X199315169Y-186107614D01*
X199315169Y-186107614D02*
X199243741Y-186250471D01*
X199243741Y-186250471D02*
X199172312Y-186321900D01*
X199172312Y-186321900D02*
X199029455Y-186393328D01*
X199029455Y-186393328D02*
X198815169Y-186393328D01*
X199743741Y-185393328D02*
X200315169Y-185393328D01*
X199958026Y-184893328D02*
X199958026Y-186179042D01*
X199958026Y-186179042D02*
X200029455Y-186321900D01*
X200029455Y-186321900D02*
X200172312Y-186393328D01*
X200172312Y-186393328D02*
X200315169Y-186393328D01*
X200815169Y-186250471D02*
X200886598Y-186321900D01*
X200886598Y-186321900D02*
X200815169Y-186393328D01*
X200815169Y-186393328D02*
X200743741Y-186321900D01*
X200743741Y-186321900D02*
X200815169Y-186250471D01*
X200815169Y-186250471D02*
X200815169Y-186393328D01*
X201529455Y-186393328D02*
X201529455Y-184893328D01*
X201672313Y-185821900D02*
X202100884Y-186393328D01*
X202100884Y-185393328D02*
X201529455Y-185964757D01*
X202743741Y-186393328D02*
X202743741Y-185393328D01*
X202743741Y-184893328D02*
X202672313Y-184964757D01*
X202672313Y-184964757D02*
X202743741Y-185036185D01*
X202743741Y-185036185D02*
X202815170Y-184964757D01*
X202815170Y-184964757D02*
X202743741Y-184893328D01*
X202743741Y-184893328D02*
X202743741Y-185036185D01*
X204100885Y-186321900D02*
X203958027Y-186393328D01*
X203958027Y-186393328D02*
X203672313Y-186393328D01*
X203672313Y-186393328D02*
X203529456Y-186321900D01*
X203529456Y-186321900D02*
X203458027Y-186250471D01*
X203458027Y-186250471D02*
X203386599Y-186107614D01*
X203386599Y-186107614D02*
X203386599Y-185679042D01*
X203386599Y-185679042D02*
X203458027Y-185536185D01*
X203458027Y-185536185D02*
X203529456Y-185464757D01*
X203529456Y-185464757D02*
X203672313Y-185393328D01*
X203672313Y-185393328D02*
X203958027Y-185393328D01*
X203958027Y-185393328D02*
X204100885Y-185464757D01*
X205386599Y-186393328D02*
X205386599Y-185607614D01*
X205386599Y-185607614D02*
X205315170Y-185464757D01*
X205315170Y-185464757D02*
X205172313Y-185393328D01*
X205172313Y-185393328D02*
X204886599Y-185393328D01*
X204886599Y-185393328D02*
X204743741Y-185464757D01*
X205386599Y-186321900D02*
X205243741Y-186393328D01*
X205243741Y-186393328D02*
X204886599Y-186393328D01*
X204886599Y-186393328D02*
X204743741Y-186321900D01*
X204743741Y-186321900D02*
X204672313Y-186179042D01*
X204672313Y-186179042D02*
X204672313Y-186036185D01*
X204672313Y-186036185D02*
X204743741Y-185893328D01*
X204743741Y-185893328D02*
X204886599Y-185821900D01*
X204886599Y-185821900D02*
X205243741Y-185821900D01*
X205243741Y-185821900D02*
X205386599Y-185750471D01*
X206743742Y-186393328D02*
X206743742Y-184893328D01*
X206743742Y-186321900D02*
X206600884Y-186393328D01*
X206600884Y-186393328D02*
X206315170Y-186393328D01*
X206315170Y-186393328D02*
X206172313Y-186321900D01*
X206172313Y-186321900D02*
X206100884Y-186250471D01*
X206100884Y-186250471D02*
X206029456Y-186107614D01*
X206029456Y-186107614D02*
X206029456Y-185679042D01*
X206029456Y-185679042D02*
X206100884Y-185536185D01*
X206100884Y-185536185D02*
X206172313Y-185464757D01*
X206172313Y-185464757D02*
X206315170Y-185393328D01*
X206315170Y-185393328D02*
X206600884Y-185393328D01*
X206600884Y-185393328D02*
X206743742Y-185464757D01*
X207100885Y-186536185D02*
X208243742Y-186536185D01*
X208600884Y-185393328D02*
X208600884Y-186893328D01*
X208600884Y-185464757D02*
X208743742Y-185393328D01*
X208743742Y-185393328D02*
X209029456Y-185393328D01*
X209029456Y-185393328D02*
X209172313Y-185464757D01*
X209172313Y-185464757D02*
X209243742Y-185536185D01*
X209243742Y-185536185D02*
X209315170Y-185679042D01*
X209315170Y-185679042D02*
X209315170Y-186107614D01*
X209315170Y-186107614D02*
X209243742Y-186250471D01*
X209243742Y-186250471D02*
X209172313Y-186321900D01*
X209172313Y-186321900D02*
X209029456Y-186393328D01*
X209029456Y-186393328D02*
X208743742Y-186393328D01*
X208743742Y-186393328D02*
X208600884Y-186321900D01*
X210600885Y-186321900D02*
X210458027Y-186393328D01*
X210458027Y-186393328D02*
X210172313Y-186393328D01*
X210172313Y-186393328D02*
X210029456Y-186321900D01*
X210029456Y-186321900D02*
X209958027Y-186250471D01*
X209958027Y-186250471D02*
X209886599Y-186107614D01*
X209886599Y-186107614D02*
X209886599Y-185679042D01*
X209886599Y-185679042D02*
X209958027Y-185536185D01*
X209958027Y-185536185D02*
X210029456Y-185464757D01*
X210029456Y-185464757D02*
X210172313Y-185393328D01*
X210172313Y-185393328D02*
X210458027Y-185393328D01*
X210458027Y-185393328D02*
X210600885Y-185464757D01*
X211243741Y-186393328D02*
X211243741Y-184893328D01*
X211243741Y-185464757D02*
X211386599Y-185393328D01*
X211386599Y-185393328D02*
X211672313Y-185393328D01*
X211672313Y-185393328D02*
X211815170Y-185464757D01*
X211815170Y-185464757D02*
X211886599Y-185536185D01*
X211886599Y-185536185D02*
X211958027Y-185679042D01*
X211958027Y-185679042D02*
X211958027Y-186107614D01*
X211958027Y-186107614D02*
X211886599Y-186250471D01*
X211886599Y-186250471D02*
X211815170Y-186321900D01*
X211815170Y-186321900D02*
X211672313Y-186393328D01*
X211672313Y-186393328D02*
X211386599Y-186393328D01*
X211386599Y-186393328D02*
X211243741Y-186321900D01*
D10*
D11*
X177002200Y-181507200D02*
X285002200Y-181507200D01*
D10*
D11*
X178386598Y-183621900D02*
X178600884Y-183693328D01*
X178600884Y-183693328D02*
X178958026Y-183693328D01*
X178958026Y-183693328D02*
X179100884Y-183621900D01*
X179100884Y-183621900D02*
X179172312Y-183550471D01*
X179172312Y-183550471D02*
X179243741Y-183407614D01*
X179243741Y-183407614D02*
X179243741Y-183264757D01*
X179243741Y-183264757D02*
X179172312Y-183121900D01*
X179172312Y-183121900D02*
X179100884Y-183050471D01*
X179100884Y-183050471D02*
X178958026Y-182979042D01*
X178958026Y-182979042D02*
X178672312Y-182907614D01*
X178672312Y-182907614D02*
X178529455Y-182836185D01*
X178529455Y-182836185D02*
X178458026Y-182764757D01*
X178458026Y-182764757D02*
X178386598Y-182621900D01*
X178386598Y-182621900D02*
X178386598Y-182479042D01*
X178386598Y-182479042D02*
X178458026Y-182336185D01*
X178458026Y-182336185D02*
X178529455Y-182264757D01*
X178529455Y-182264757D02*
X178672312Y-182193328D01*
X178672312Y-182193328D02*
X179029455Y-182193328D01*
X179029455Y-182193328D02*
X179243741Y-182264757D01*
X179886597Y-183693328D02*
X179886597Y-182193328D01*
X180529455Y-183693328D02*
X180529455Y-182907614D01*
X180529455Y-182907614D02*
X180458026Y-182764757D01*
X180458026Y-182764757D02*
X180315169Y-182693328D01*
X180315169Y-182693328D02*
X180100883Y-182693328D01*
X180100883Y-182693328D02*
X179958026Y-182764757D01*
X179958026Y-182764757D02*
X179886597Y-182836185D01*
X181815169Y-183621900D02*
X181672312Y-183693328D01*
X181672312Y-183693328D02*
X181386598Y-183693328D01*
X181386598Y-183693328D02*
X181243740Y-183621900D01*
X181243740Y-183621900D02*
X181172312Y-183479042D01*
X181172312Y-183479042D02*
X181172312Y-182907614D01*
X181172312Y-182907614D02*
X181243740Y-182764757D01*
X181243740Y-182764757D02*
X181386598Y-182693328D01*
X181386598Y-182693328D02*
X181672312Y-182693328D01*
X181672312Y-182693328D02*
X181815169Y-182764757D01*
X181815169Y-182764757D02*
X181886598Y-182907614D01*
X181886598Y-182907614D02*
X181886598Y-183050471D01*
X181886598Y-183050471D02*
X181172312Y-183193328D01*
X183100883Y-183621900D02*
X182958026Y-183693328D01*
X182958026Y-183693328D02*
X182672312Y-183693328D01*
X182672312Y-183693328D02*
X182529454Y-183621900D01*
X182529454Y-183621900D02*
X182458026Y-183479042D01*
X182458026Y-183479042D02*
X182458026Y-182907614D01*
X182458026Y-182907614D02*
X182529454Y-182764757D01*
X182529454Y-182764757D02*
X182672312Y-182693328D01*
X182672312Y-182693328D02*
X182958026Y-182693328D01*
X182958026Y-182693328D02*
X183100883Y-182764757D01*
X183100883Y-182764757D02*
X183172312Y-182907614D01*
X183172312Y-182907614D02*
X183172312Y-183050471D01*
X183172312Y-183050471D02*
X182458026Y-183193328D01*
X183600883Y-182693328D02*
X184172311Y-182693328D01*
X183815168Y-182193328D02*
X183815168Y-183479042D01*
X183815168Y-183479042D02*
X183886597Y-183621900D01*
X183886597Y-183621900D02*
X184029454Y-183693328D01*
X184029454Y-183693328D02*
X184172311Y-183693328D01*
X184672311Y-183550471D02*
X184743740Y-183621900D01*
X184743740Y-183621900D02*
X184672311Y-183693328D01*
X184672311Y-183693328D02*
X184600883Y-183621900D01*
X184600883Y-183621900D02*
X184672311Y-183550471D01*
X184672311Y-183550471D02*
X184672311Y-183693328D01*
X184672311Y-182764757D02*
X184743740Y-182836185D01*
X184743740Y-182836185D02*
X184672311Y-182907614D01*
X184672311Y-182907614D02*
X184600883Y-182836185D01*
X184600883Y-182836185D02*
X184672311Y-182764757D01*
X184672311Y-182764757D02*
X184672311Y-182907614D01*
D10*
D11*
X197002200Y-191507200D02*
X197002200Y-194507200D01*
D10*
D11*
X261002200Y-191507200D02*
X261002200Y-198007200D01*
D14*
%TO.C,C14*%
X180995200Y-116890800D03*
X180035200Y-116890800D03*
%TD*%
D15*
%TO.C,R1*%
X159570000Y-76830000D03*
X160590000Y-76830000D03*
%TD*%
D16*
%TO.C,D7*%
X211507600Y-59148000D03*
X214807600Y-59148000D03*
X214807600Y-54248000D03*
X211507600Y-54248000D03*
%TD*%
D14*
%TO.C,C24*%
X184090000Y-104900000D03*
X183130000Y-104900000D03*
%TD*%
D17*
%TO.C,D2*%
X162384500Y-82844600D03*
X162384500Y-84744600D03*
X164259500Y-83794600D03*
%TD*%
D18*
%TO.C,C11*%
X214670200Y-125324700D03*
X214670200Y-126284700D03*
%TD*%
D14*
%TO.C,C7*%
X193730000Y-118950000D03*
X192770000Y-118950000D03*
%TD*%
D19*
%TO.C,C34*%
X179000000Y-130890000D03*
X179000000Y-129930000D03*
%TD*%
D20*
%TO.C,U3*%
X206918800Y-134887200D03*
X207918800Y-134887200D03*
D21*
X206168800Y-135837200D03*
X206668800Y-135837200D03*
X207168800Y-135837200D03*
X207668800Y-135837200D03*
X208168800Y-135837200D03*
X208668800Y-135837200D03*
X208668800Y-133937200D03*
X208168800Y-133937200D03*
X207668800Y-133937200D03*
X207168800Y-133937200D03*
X206668800Y-133937200D03*
X206168800Y-133937200D03*
%TD*%
D16*
%TO.C,D6*%
X211505600Y-66600000D03*
X214805600Y-66600000D03*
X214805600Y-61700000D03*
X211505600Y-61700000D03*
%TD*%
D22*
%TO.C,RST1*%
X157000000Y-60020000D03*
X157000000Y-67980000D03*
X152500000Y-60020000D03*
X152500000Y-67980000D03*
%TD*%
D23*
%TO.C,R26*%
X152790000Y-104940000D03*
X152790000Y-103920000D03*
%TD*%
D15*
%TO.C,R18*%
X182780000Y-130400000D03*
X183800000Y-130400000D03*
%TD*%
D23*
%TO.C,R29*%
X159993000Y-113960000D03*
X159993000Y-112940000D03*
%TD*%
D17*
%TO.C,Q5*%
X195526900Y-112212000D03*
X195526900Y-114112000D03*
X197401900Y-113162000D03*
%TD*%
D24*
%TO.C,SW4*%
X212325000Y-78425000D03*
X212325000Y-74275000D03*
X214475000Y-78425000D03*
X214475000Y-74275000D03*
%TD*%
D23*
%TO.C,R27*%
X153810000Y-104960000D03*
X153810000Y-103940000D03*
%TD*%
D25*
%TO.C,C4*%
X166240000Y-80820000D03*
X167200000Y-80820000D03*
%TD*%
D18*
%TO.C,C23*%
X187705149Y-100700000D03*
X187705149Y-101660000D03*
%TD*%
D25*
%TO.C,C41*%
X192745000Y-120000000D03*
X193705000Y-120000000D03*
%TD*%
D20*
%TO.C,U6*%
X186918800Y-134887200D03*
X187918800Y-134887200D03*
D21*
X186168800Y-135837200D03*
X186668800Y-135837200D03*
X187168800Y-135837200D03*
X187668800Y-135837200D03*
X188168800Y-135837200D03*
X188668800Y-135837200D03*
X188668800Y-133937200D03*
X188168800Y-133937200D03*
X187668800Y-133937200D03*
X187168800Y-133937200D03*
X186668800Y-133937200D03*
X186168800Y-133937200D03*
%TD*%
D19*
%TO.C,C32*%
X211310000Y-70220000D03*
X211310000Y-69260000D03*
%TD*%
D25*
%TO.C,C1*%
X194000000Y-97525000D03*
X194960000Y-97525000D03*
%TD*%
D26*
%TO.C,R22*%
X193825100Y-107897200D03*
X193825100Y-108917200D03*
%TD*%
D27*
%TO.C,U4*%
X197868800Y-124737200D03*
X199468800Y-124737200D03*
X197868800Y-123137200D03*
X199468800Y-123137200D03*
D28*
X196068800Y-127374700D03*
X196468800Y-127374700D03*
X196868800Y-127374700D03*
X197268800Y-127374700D03*
X197668800Y-127374700D03*
X198068800Y-127374700D03*
X198468800Y-127374700D03*
X198868800Y-127374700D03*
X199268800Y-127374700D03*
X199668800Y-127374700D03*
X200068800Y-127374700D03*
X200468800Y-127374700D03*
X200868800Y-127374700D03*
X201268800Y-127374700D03*
D29*
X202106300Y-126537200D03*
X202106300Y-126137200D03*
X202106300Y-125737200D03*
X202106300Y-125337200D03*
X202106300Y-124937200D03*
X202106300Y-124537200D03*
X202106300Y-124137200D03*
X202106300Y-123737200D03*
X202106300Y-123337200D03*
X202106300Y-122937200D03*
X202106300Y-122537200D03*
X202106300Y-122137200D03*
X202106300Y-121737200D03*
X202106300Y-121337200D03*
D28*
X201268800Y-120499700D03*
X200868800Y-120499700D03*
X200468800Y-120499700D03*
X200068800Y-120499700D03*
X199668800Y-120499700D03*
X199268800Y-120499700D03*
X198868800Y-120499700D03*
X198468800Y-120499700D03*
X198068800Y-120499700D03*
X197668800Y-120499700D03*
X197268800Y-120499700D03*
X196868800Y-120499700D03*
X196468800Y-120499700D03*
X196068800Y-120499700D03*
D29*
X195231300Y-121337200D03*
X195231300Y-121737200D03*
X195231300Y-122137200D03*
X195231300Y-122537200D03*
X195231300Y-122937200D03*
X195231300Y-123337200D03*
X195231300Y-123737200D03*
X195231300Y-124137200D03*
X195231300Y-124537200D03*
X195231300Y-124937200D03*
X195231300Y-125337200D03*
X195231300Y-125737200D03*
X195231300Y-126137200D03*
X195231300Y-126537200D03*
%TD*%
D30*
%TO.C,C3*%
X169420000Y-90250000D03*
X167520000Y-90250000D03*
%TD*%
D31*
%TO.C,Q3*%
X174295000Y-138110000D03*
D32*
X167570000Y-138345000D03*
X167570000Y-132795000D03*
X162720000Y-138345000D03*
X162720000Y-132795000D03*
D31*
X174295000Y-133030000D03*
%TD*%
D33*
%TO.C,Boot1*%
X218651000Y-127728400D03*
X222801000Y-127728400D03*
X218651000Y-129878400D03*
X222801000Y-129878400D03*
%TD*%
D34*
%TO.C,U7*%
X182880000Y-127679000D03*
X184150000Y-127679000D03*
X185420000Y-127679000D03*
X186690000Y-127679000D03*
X186690000Y-120479000D03*
X185420000Y-120479000D03*
X184150000Y-120479000D03*
X182880000Y-120479000D03*
%TD*%
D23*
%TO.C,R23*%
X199463900Y-110431000D03*
X199463900Y-109411000D03*
%TD*%
D25*
%TO.C,C40*%
X191700000Y-123600000D03*
X192660000Y-123600000D03*
%TD*%
D35*
%TO.C,L1*%
X198200000Y-95275000D03*
X198200000Y-93125000D03*
%TD*%
D19*
%TO.C,C19*%
X171780200Y-55598000D03*
X171780200Y-54638000D03*
%TD*%
D36*
%TO.C,Y1*%
X210700000Y-127450000D03*
X212900000Y-127450000D03*
X212900000Y-125750000D03*
X210700000Y-125750000D03*
%TD*%
D18*
%TO.C,C25*%
X157330000Y-117650000D03*
X157330000Y-118610000D03*
%TD*%
%TO.C,C26*%
X158850000Y-109300000D03*
X158850000Y-110260000D03*
%TD*%
D17*
%TO.C,Q2*%
X195529200Y-108513800D03*
X195529200Y-110413800D03*
X197404200Y-109463800D03*
%TD*%
D14*
%TO.C,C37*%
X207080000Y-123500000D03*
X206120000Y-123500000D03*
%TD*%
D37*
%TO.C,R20*%
X213110000Y-85300000D03*
X212090000Y-85300000D03*
%TD*%
D18*
%TO.C,C15*%
X174100000Y-51720000D03*
X174100000Y-52680000D03*
%TD*%
%TO.C,C38*%
X200270000Y-116465000D03*
X200270000Y-117425000D03*
%TD*%
%TO.C,C20*%
X172974000Y-55461000D03*
X172974000Y-56421000D03*
%TD*%
D20*
%TO.C,U5*%
X196918800Y-134887200D03*
X197918800Y-134887200D03*
D21*
X196168800Y-135837200D03*
X196668800Y-135837200D03*
X197168800Y-135837200D03*
X197668800Y-135837200D03*
X198168800Y-135837200D03*
X198668800Y-135837200D03*
X198668800Y-133937200D03*
X198168800Y-133937200D03*
X197668800Y-133937200D03*
X197168800Y-133937200D03*
X196668800Y-133937200D03*
X196168800Y-133937200D03*
%TD*%
D25*
%TO.C,C10*%
X206120000Y-122500000D03*
X207080000Y-122500000D03*
%TD*%
D18*
%TO.C,C28*%
X163350000Y-116320000D03*
X163350000Y-117280000D03*
%TD*%
D23*
%TO.C,R14*%
X159000000Y-69020000D03*
X159000000Y-68000000D03*
%TD*%
D26*
%TO.C,R34*%
X199540100Y-112052600D03*
X199540100Y-113072600D03*
%TD*%
D18*
%TO.C,C43*%
X194250000Y-100220000D03*
X194250000Y-101180000D03*
%TD*%
D25*
%TO.C,C5*%
X159050000Y-66660000D03*
X160010000Y-66660000D03*
%TD*%
D26*
%TO.C,R33*%
X193446400Y-112242600D03*
X193446400Y-113262600D03*
%TD*%
D14*
%TO.C,C13*%
X180997800Y-118160800D03*
X180037800Y-118160800D03*
%TD*%
D19*
%TO.C,C31*%
X188163200Y-96100000D03*
X188163200Y-95140000D03*
%TD*%
D18*
%TO.C,C33*%
X217093800Y-136931400D03*
X217093800Y-137891400D03*
%TD*%
D23*
%TO.C,R2*%
X160300000Y-73510000D03*
X160300000Y-72490000D03*
%TD*%
D18*
%TO.C,C16*%
X172820800Y-51699000D03*
X172820800Y-52659000D03*
%TD*%
D38*
%TO.C,U8*%
X178750000Y-51240000D03*
X178750000Y-52510000D03*
X178750000Y-53780000D03*
X178750000Y-55050000D03*
X178750000Y-56320000D03*
X178750000Y-57590000D03*
X178750000Y-58860000D03*
X178750000Y-60130000D03*
X178750000Y-61400000D03*
X178750000Y-62670000D03*
X178750000Y-63940000D03*
X178750000Y-65210000D03*
X178750000Y-66480000D03*
X178750000Y-67750000D03*
D16*
X180515000Y-69000000D03*
X181785000Y-69000000D03*
X183055000Y-69000000D03*
X184325000Y-69000000D03*
X185595000Y-69000000D03*
X186865000Y-69000000D03*
X188135000Y-69000000D03*
X189405000Y-69000000D03*
X190675000Y-69000000D03*
X191945000Y-69000000D03*
X193215000Y-69000000D03*
X194485000Y-69000000D03*
D38*
X196250000Y-67750000D03*
X196250000Y-66480000D03*
X196250000Y-65210000D03*
X196250000Y-63940000D03*
X196250000Y-62670000D03*
X196250000Y-61400000D03*
X196250000Y-60130000D03*
X196250000Y-58860000D03*
X196250000Y-57590000D03*
X196250000Y-56320000D03*
X196250000Y-55050000D03*
X196250000Y-53780000D03*
X196250000Y-52510000D03*
X196250000Y-51240000D03*
D39*
X184600000Y-57560000D03*
X184600000Y-58960000D03*
X184600000Y-60360000D03*
X184600000Y-60360000D03*
X186000000Y-57560000D03*
X186000000Y-57560000D03*
X186000000Y-58960000D03*
X186000000Y-60360000D03*
X187400000Y-57560000D03*
X187400000Y-58960000D03*
X187400000Y-60360000D03*
%TD*%
D14*
%TO.C,C18*%
X213890000Y-72840000D03*
X212930000Y-72840000D03*
%TD*%
D40*
%TO.C,U2*%
X168173000Y-83069400D03*
X168173000Y-85369400D03*
D41*
X174473000Y-85369400D03*
D40*
X168173000Y-87669400D03*
%TD*%
D19*
%TO.C,C39*%
X194980000Y-119365000D03*
X194980000Y-118405000D03*
%TD*%
D23*
%TO.C,R28*%
X171400000Y-118800000D03*
X171400000Y-117780000D03*
%TD*%
D14*
%TO.C,C42*%
X190980000Y-124650000D03*
X190020000Y-124650000D03*
%TD*%
D16*
%TO.C,D5*%
X219254800Y-137742000D03*
X222554800Y-137742000D03*
X222554800Y-132842000D03*
X219254800Y-132842000D03*
%TD*%
D42*
%TO.C,U9*%
X164979000Y-110213500D03*
X163729000Y-110213500D03*
X164979000Y-111463500D03*
X163729000Y-111463500D03*
D43*
X165354000Y-108901000D03*
X164854000Y-108901000D03*
X164354000Y-108901000D03*
X163854000Y-108901000D03*
X163354000Y-108901000D03*
D44*
X162416500Y-109838500D03*
X162416500Y-110338500D03*
X162416500Y-110838500D03*
X162416500Y-111338500D03*
X162416500Y-111838500D03*
D43*
X163354000Y-112776000D03*
X163854000Y-112776000D03*
X164354000Y-112776000D03*
X164854000Y-112776000D03*
X165354000Y-112776000D03*
D44*
X166291500Y-111838500D03*
X166291500Y-111338500D03*
X166291500Y-110838500D03*
X166291500Y-110338500D03*
X166291500Y-109838500D03*
%TD*%
D37*
%TO.C,R16*%
X190950000Y-121180000D03*
X189930000Y-121180000D03*
%TD*%
D45*
%TO.C,U1*%
X194950000Y-92925000D03*
X194000000Y-92925000D03*
X193050000Y-92925000D03*
X193050000Y-95200000D03*
X194000000Y-95200000D03*
X194950000Y-95200000D03*
%TD*%
D46*
%TO.C,U11*%
X187712500Y-107812500D03*
X187712500Y-107312500D03*
X187712500Y-106812500D03*
X187712500Y-106312500D03*
D47*
X187200000Y-106300000D03*
X186700000Y-106300000D03*
D46*
X186187500Y-106312500D03*
X186187500Y-106812500D03*
X186187500Y-107312500D03*
X186187500Y-107812500D03*
D47*
X186700000Y-107825000D03*
X187200000Y-107825000D03*
%TD*%
D48*
%TO.C,J3*%
X156499800Y-84132588D03*
X156499800Y-84932588D03*
D49*
X156499800Y-86082588D03*
X156499800Y-87082588D03*
X156499800Y-87582588D03*
X156499800Y-88582588D03*
D48*
X156499800Y-89732588D03*
X156499800Y-90532588D03*
X156499800Y-90532588D03*
X156499800Y-89732588D03*
D49*
X156499800Y-89082588D03*
X156499800Y-88082588D03*
X156499800Y-86582588D03*
X156499800Y-85582588D03*
D48*
X156499800Y-84932588D03*
X156499800Y-84132588D03*
%TD*%
D19*
%TO.C,C21*%
X171580000Y-58550000D03*
X171580000Y-57590000D03*
%TD*%
D15*
%TO.C,R21*%
X212090000Y-82900000D03*
X213110000Y-82900000D03*
%TD*%
D50*
%TO.C,R32*%
X164268299Y-143071800D03*
X166093299Y-143071800D03*
%TD*%
D15*
%TO.C,R6*%
X162290000Y-86233000D03*
X163310000Y-86233000D03*
%TD*%
D48*
%TO.C,J2*%
X156647400Y-71831790D03*
X156647400Y-72631790D03*
D49*
X156647400Y-73781790D03*
X156647400Y-74781790D03*
X156647400Y-75281790D03*
X156647400Y-76281790D03*
D48*
X156647400Y-77431790D03*
X156647400Y-78231790D03*
X156647400Y-78231790D03*
X156647400Y-77431790D03*
D49*
X156647400Y-76781790D03*
X156647400Y-75781790D03*
X156647400Y-74281790D03*
X156647400Y-73281790D03*
D48*
X156647400Y-72631790D03*
X156647400Y-71831790D03*
%TD*%
D25*
%TO.C,C45*%
X183150000Y-103900000D03*
X184110000Y-103900000D03*
%TD*%
D23*
%TO.C,R7*%
X178155600Y-72595200D03*
X178155600Y-71575200D03*
%TD*%
D19*
%TO.C,C35*%
X193450000Y-121960000D03*
X193450000Y-121000000D03*
%TD*%
%TO.C,C29*%
X186600000Y-101650000D03*
X186600000Y-100690000D03*
%TD*%
D23*
%TO.C,R30*%
X159993000Y-110290000D03*
X159993000Y-109270000D03*
%TD*%
D19*
%TO.C,C12*%
X208904400Y-127503900D03*
X208904400Y-126543900D03*
%TD*%
D15*
%TO.C,R15*%
X189920000Y-122180000D03*
X190940000Y-122180000D03*
%TD*%
D26*
%TO.C,R5*%
X162255200Y-90625200D03*
X162255200Y-91645200D03*
%TD*%
D19*
%TO.C,C27*%
X158850000Y-113930000D03*
X158850000Y-112970000D03*
%TD*%
D51*
%TO.C,U10*%
X192085449Y-102830001D03*
X192085449Y-102330000D03*
X192085449Y-101830000D03*
X192085449Y-101329999D03*
D52*
X191455148Y-101191000D03*
X190955149Y-101191000D03*
X190455150Y-101191000D03*
D51*
X189824849Y-101329999D03*
X189824849Y-101830000D03*
X189824849Y-102330000D03*
X189824849Y-102830001D03*
D52*
X190455150Y-102969000D03*
X190955149Y-102969000D03*
X191455148Y-102969000D03*
%TD*%
D25*
%TO.C,C9*%
X194190000Y-128600000D03*
X195150000Y-128600000D03*
%TD*%
D53*
%TO.C,U13*%
X184800000Y-96150000D03*
X184800000Y-96800000D03*
X184800000Y-97450000D03*
X186700000Y-97450000D03*
X186700000Y-96150000D03*
%TD*%
D54*
%TO.C,C17*%
X171243800Y-51834000D03*
X171243800Y-53384000D03*
%TD*%
D37*
%TO.C,R8*%
X177191000Y-73507600D03*
X176171000Y-73507600D03*
%TD*%
D26*
%TO.C,R25*%
X169600000Y-117780000D03*
X169600000Y-118800000D03*
%TD*%
D48*
%TO.C,J12*%
X155983800Y-108353200D03*
X155983800Y-109153200D03*
D49*
X155983800Y-110303200D03*
X155983800Y-111303200D03*
X155983800Y-111803200D03*
X155983800Y-112803200D03*
D48*
X155983800Y-113953200D03*
X155983800Y-114753200D03*
X155983800Y-114753200D03*
X155983800Y-113953200D03*
D49*
X155983800Y-113303200D03*
X155983800Y-112303200D03*
X155983800Y-110803200D03*
X155983800Y-109803200D03*
D48*
X155983800Y-109153200D03*
X155983800Y-108353200D03*
%TD*%
D14*
%TO.C,C6*%
X177159800Y-72517000D03*
X176199800Y-72517000D03*
%TD*%
%TO.C,C44*%
X184110000Y-102900000D03*
X183150000Y-102900000D03*
%TD*%
D18*
%TO.C,C22*%
X173431200Y-58524200D03*
X173431200Y-59484200D03*
%TD*%
D19*
%TO.C,C36*%
X199950000Y-130000000D03*
X199950000Y-129040000D03*
%TD*%
D23*
%TO.C,R4*%
X178181000Y-74527600D03*
X178181000Y-73507600D03*
%TD*%
D55*
%TO.C,C2*%
X193537500Y-88200000D03*
X188462500Y-88200000D03*
%TD*%
D25*
%TO.C,C30*%
X181320000Y-96850000D03*
X182280000Y-96850000D03*
%TD*%
M02*
